<svg xmlns="http://www.w3.org/2000/svg" xmlns:xlink="http://www.w3.org/1999/xlink" width="500" zoomAndPan="magnify" viewBox="0 0 375 374.999991" height="500" preserveAspectRatio="xMidYMid meet" version="1.0"><defs><g/><clipPath id="44e5320dc3"><path d="M 154 126 L 221 126 L 221 192.246094 L 154 192.246094 Z M 154 126 " clip-rule="nonzero"/></clipPath></defs><g clip-path="url(#44e5320dc3)"><path fill="#000000" d="M 218.445312 159.800781 C 218.445312 155.070312 217.378906 150.585938 215.460938 146.574219 C 214.71875 145.007812 213.84375 143.507812 212.851562 142.097656 C 210.785156 139.152344 208.214844 136.582031 205.269531 134.511719 C 206.363281 133.910156 207.367188 133.421875 208.285156 133.019531 C 212.515625 131.136719 214.90625 131.117188 215.574219 131.785156 C 216.242188 132.460938 216.222656 134.84375 214.347656 139.074219 C 215.410156 140.449219 216.371094 141.90625 217.222656 143.4375 C 220.125 137.859375 221.957031 131.820312 218.75 128.613281 C 215.539062 125.402344 209.496094 127.234375 203.917969 130.144531 C 202.851562 130.699219 201.800781 131.292969 200.792969 131.902344 C 196.78125 129.984375 192.296875 128.917969 187.566406 128.917969 C 182.832031 128.917969 178.347656 129.988281 174.335938 131.898438 C 168.042969 128.121094 160.199219 124.789062 156.378906 128.613281 C 152.554688 132.433594 155.886719 140.273438 159.664062 146.574219 C 157.753906 150.585938 156.683594 155.070312 156.683594 159.800781 C 156.683594 164.53125 157.75 169.015625 159.667969 173.027344 C 159.058594 174.042969 158.457031 175.089844 157.902344 176.164062 C 155 181.742188 153.167969 187.78125 156.378906 190.988281 C 157.574219 192.183594 159.164062 192.679688 160.980469 192.679688 C 164.027344 192.679688 167.710938 191.277344 171.207031 189.457031 C 172.277344 188.902344 173.324219 188.308594 174.332031 187.699219 C 178.34375 189.613281 182.828125 190.683594 187.566406 190.683594 C 192.296875 190.683594 196.78125 189.609375 200.792969 187.699219 C 205.117188 190.296875 210.167969 192.679688 214.148438 192.679688 C 215.964844 192.679688 217.554688 192.1875 218.75 190.988281 C 222.570312 187.167969 219.242188 179.324219 215.460938 173.027344 C 217.371094 169.015625 218.445312 164.53125 218.445312 159.800781 Z M 196.226562 134.867188 C 195.21875 135.566406 194.199219 136.304688 193.167969 137.082031 C 190.839844 138.824219 188.460938 140.746094 186.097656 142.796875 C 183.375 145.152344 180.671875 147.675781 178.058594 150.292969 C 176.074219 152.273438 174.140625 154.308594 172.289062 156.375 C 171.632812 155.585938 170.996094 154.800781 170.375 154.023438 C 168.296875 151.398438 166.429688 148.824219 164.847656 146.390625 C 169.449219 138.628906 177.90625 133.410156 187.566406 133.410156 C 190.601562 133.410156 193.515625 133.921875 196.226562 134.867188 Z M 161.175781 159.800781 C 161.175781 156.773438 161.695312 153.863281 162.636719 151.152344 C 164.0625 153.203125 165.648438 155.320312 167.367188 157.457031 C 167.996094 158.234375 168.640625 159.019531 169.296875 159.800781 C 167.722656 161.675781 166.222656 163.554688 164.847656 165.394531 C 164.070312 166.429688 163.328125 167.453125 162.632812 168.460938 C 161.6875 165.746094 161.175781 162.832031 161.175781 159.800781 Z M 159.550781 131.789062 C 160.367188 130.972656 163.738281 131.1875 169.863281 134.519531 C 166.917969 136.585938 164.351562 139.15625 162.28125 142.101562 C 158.953125 135.972656 158.738281 132.609375 159.550781 131.789062 Z M 166.847656 186.582031 C 162.609375 188.464844 160.226562 188.488281 159.550781 187.816406 C 158.882812 187.140625 158.90625 184.753906 160.78125 180.527344 C 161.1875 179.609375 161.683594 178.597656 162.277344 177.507812 C 164.34375 180.457031 166.914062 183.027344 169.863281 185.09375 C 168.769531 185.683594 167.765625 186.179688 166.847656 186.582031 Z M 164.847656 173.214844 C 165.433594 172.304688 166.0625 171.382812 166.726562 170.441406 C 168.378906 168.105469 170.25 165.675781 172.285156 163.230469 C 172.832031 162.578125 173.382812 161.925781 173.949219 161.273438 C 174.375 160.78125 174.804688 160.289062 175.246094 159.800781 C 177.164062 157.652344 179.167969 155.523438 181.230469 153.464844 C 183.769531 150.921875 186.398438 148.472656 189.039062 146.1875 C 192.132812 143.507812 195.234375 141.058594 198.199219 138.960938 C 199.144531 138.296875 200.066406 137.667969 200.972656 137.082031 C 208.738281 141.679688 213.953125 150.140625 213.953125 159.800781 C 213.953125 169.457031 208.738281 177.914062 200.980469 182.515625 C 197.21875 180.070312 193.117188 176.949219 189.039062 173.414062 C 186.398438 171.128906 183.773438 168.683594 181.230469 166.136719 C 179.882812 164.792969 178.558594 163.417969 177.273438 162.027344 C 176.914062 162.425781 176.558594 162.828125 176.207031 163.234375 C 175.566406 163.976562 174.941406 164.714844 174.328125 165.460938 C 175.542969 166.761719 176.792969 168.050781 178.054688 169.3125 C 180.675781 171.929688 183.378906 174.449219 186.09375 176.808594 C 189.511719 179.765625 192.949219 182.453125 196.21875 184.726562 C 193.507812 185.671875 190.597656 186.195312 187.566406 186.195312 C 177.90625 186.195312 169.445312 180.980469 164.847656 173.214844 Z M 215.574219 187.816406 C 214.761719 188.632812 211.390625 188.414062 205.265625 185.085938 C 208.210938 183.015625 210.777344 180.449219 212.847656 177.503906 C 216.175781 183.628906 216.390625 186.996094 215.574219 187.816406 Z M 215.574219 187.816406 " fill-opacity="1" fill-rule="nonzero"/></g><g fill="#000000" fill-opacity="1"><g transform="translate(122.371061, 223.377654)"><g><path d="M 8.515625 -14.890625 C 9.554688 -14.890625 10.578125 -14.6875 11.578125 -14.28125 C 12.578125 -13.882812 13.4375 -13.328125 14.15625 -12.609375 L 12.6875 -10.78125 C 12.15625 -11.363281 11.519531 -11.820312 10.78125 -12.15625 C 10.050781 -12.5 9.3125 -12.671875 8.5625 -12.671875 C 7.070312 -12.671875 5.816406 -12.164062 4.796875 -11.15625 C 3.773438 -10.144531 3.265625 -8.910156 3.265625 -7.453125 C 3.265625 -5.984375 3.773438 -4.742188 4.796875 -3.734375 C 5.816406 -2.722656 7.070312 -2.21875 8.5625 -2.21875 C 10.101562 -2.21875 11.476562 -2.804688 12.6875 -3.984375 L 14.171875 -2.328125 C 13.410156 -1.578125 12.519531 -0.984375 11.5 -0.546875 C 10.488281 -0.109375 9.46875 0.109375 8.4375 0.109375 C 6.257812 0.109375 4.425781 -0.613281 2.9375 -2.0625 C 1.457031 -3.507812 0.71875 -5.300781 0.71875 -7.4375 C 0.71875 -9.539062 1.46875 -11.304688 2.96875 -12.734375 C 4.476562 -14.171875 6.328125 -14.890625 8.515625 -14.890625 Z M 8.515625 -14.890625 "/></g></g></g><g fill="#000000" fill-opacity="1"><g transform="translate(141.108973, 223.377654)"><g><path d="M 2.984375 -12.734375 C 4.492188 -14.171875 6.359375 -14.890625 8.578125 -14.890625 C 10.796875 -14.890625 12.660156 -14.171875 14.171875 -12.734375 C 15.679688 -11.304688 16.4375 -9.53125 16.4375 -7.40625 C 16.4375 -5.289062 15.679688 -3.507812 14.171875 -2.0625 C 12.660156 -0.613281 10.796875 0.109375 8.578125 0.109375 C 6.359375 0.109375 4.492188 -0.613281 2.984375 -2.0625 C 1.472656 -3.507812 0.71875 -5.289062 0.71875 -7.40625 C 0.71875 -9.53125 1.472656 -11.304688 2.984375 -12.734375 Z M 8.609375 -12.65625 C 7.140625 -12.65625 5.878906 -12.148438 4.828125 -11.140625 C 3.785156 -10.128906 3.265625 -8.890625 3.265625 -7.421875 C 3.265625 -5.953125 3.789062 -4.703125 4.84375 -3.671875 C 5.894531 -2.648438 7.144531 -2.140625 8.59375 -2.140625 C 10.050781 -2.140625 11.296875 -2.648438 12.328125 -3.671875 C 13.359375 -4.703125 13.875 -5.953125 13.875 -7.421875 C 13.875 -8.890625 13.359375 -10.128906 12.328125 -11.140625 C 11.296875 -12.148438 10.054688 -12.65625 8.609375 -12.65625 Z M 8.609375 -12.65625 "/></g></g></g><g fill="#000000" fill-opacity="1"><g transform="translate(162.238936, 223.377654)"><g><path d="M 14.8125 0 L 12.359375 0 L 4.453125 -10.640625 L 4.453125 0 L 1.953125 0 L 1.953125 -14.828125 L 4.40625 -14.828125 L 12.359375 -4.171875 L 12.359375 -14.828125 L 14.8125 -14.828125 Z M 14.8125 0 "/></g></g></g><g fill="#000000" fill-opacity="1"><g transform="translate(182.987863, 223.377654)"><g><path d="M 14.8125 0 L 12.359375 0 L 4.453125 -10.640625 L 4.453125 0 L 1.953125 0 L 1.953125 -14.828125 L 4.40625 -14.828125 L 12.359375 -4.171875 L 12.359375 -14.828125 L 14.8125 -14.828125 Z M 14.8125 0 "/></g></g></g><g fill="#000000" fill-opacity="1"><g transform="translate(203.736793, 223.377654)"><g><path d="M 12.546875 -12.578125 L 4.453125 -12.578125 L 4.453125 -8.578125 L 11.703125 -8.578125 L 11.703125 -6.328125 L 4.453125 -6.328125 L 4.453125 -2.25 L 12.796875 -2.25 L 12.796875 0 L 1.953125 0 L 1.953125 -14.828125 L 12.546875 -14.828125 Z M 12.546875 -12.578125 "/></g></g></g><g fill="#000000" fill-opacity="1"><g transform="translate(221.606793, 223.377654)"><g><path d="M 8.515625 -14.890625 C 9.554688 -14.890625 10.578125 -14.6875 11.578125 -14.28125 C 12.578125 -13.882812 13.4375 -13.328125 14.15625 -12.609375 L 12.6875 -10.78125 C 12.15625 -11.363281 11.519531 -11.820312 10.78125 -12.15625 C 10.050781 -12.5 9.3125 -12.671875 8.5625 -12.671875 C 7.070312 -12.671875 5.816406 -12.164062 4.796875 -11.15625 C 3.773438 -10.144531 3.265625 -8.910156 3.265625 -7.453125 C 3.265625 -5.984375 3.773438 -4.742188 4.796875 -3.734375 C 5.816406 -2.722656 7.070312 -2.21875 8.5625 -2.21875 C 10.101562 -2.21875 11.476562 -2.804688 12.6875 -3.984375 L 14.171875 -2.328125 C 13.410156 -1.578125 12.519531 -0.984375 11.5 -0.546875 C 10.488281 -0.109375 9.46875 0.109375 8.4375 0.109375 C 6.257812 0.109375 4.425781 -0.613281 2.9375 -2.0625 C 1.457031 -3.507812 0.71875 -5.300781 0.71875 -7.4375 C 0.71875 -9.539062 1.46875 -11.304688 2.96875 -12.734375 C 4.476562 -14.171875 6.328125 -14.890625 8.515625 -14.890625 Z M 8.515625 -14.890625 "/></g></g></g><g fill="#000000" fill-opacity="1"><g transform="translate(240.344701, 223.377654)"><g><path d="M 12.078125 -12.578125 L 7.375 -12.578125 L 7.375 0 L 4.875 0 L 4.875 -12.578125 L 0.1875 -12.578125 L 0.1875 -14.828125 L 12.078125 -14.828125 Z M 12.078125 -12.578125 "/></g></g></g></svg>