<svg xmlns="http://www.w3.org/2000/svg" xmlns:xlink="http://www.w3.org/1999/xlink" width="204" zoomAndPan="magnify" viewBox="0 0 153 107.249998" height="143" preserveAspectRatio="xMidYMid meet" version="1.0"><defs><g/><clipPath id="63a4792763"><path d="M 43 2 L 110 2 L 110 67.273438 L 43 67.273438 Z M 43 2 " clip-rule="nonzero"/></clipPath></defs><g clip-path="url(#63a4792763)"><path fill="#000000" d="M 107.230469 35.054688 C 107.230469 30.359375 106.171875 25.902344 104.265625 21.917969 C 103.527344 20.363281 102.660156 18.878906 101.675781 17.472656 C 99.621094 14.550781 97.070312 12 94.148438 9.941406 C 95.234375 9.347656 96.226562 8.863281 97.140625 8.460938 C 101.34375 6.589844 103.714844 6.570312 104.378906 7.234375 C 105.042969 7.902344 105.023438 10.273438 103.160156 14.476562 C 104.214844 15.835938 105.171875 17.285156 106.015625 18.804688 C 108.898438 13.265625 110.71875 7.269531 107.53125 4.082031 C 104.347656 0.898438 98.34375 2.714844 92.804688 5.605469 C 91.742188 6.15625 90.703125 6.746094 89.703125 7.347656 C 85.71875 5.445312 81.261719 4.386719 76.566406 4.386719 C 71.867188 4.386719 67.410156 5.449219 63.425781 7.347656 C 57.179688 3.59375 49.390625 0.285156 45.59375 4.082031 C 41.796875 7.878906 45.105469 15.664062 48.859375 21.917969 C 46.960938 25.902344 45.894531 30.355469 45.894531 35.054688 C 45.894531 39.753906 46.957031 44.207031 48.859375 48.191406 C 48.253906 49.199219 47.660156 50.238281 47.109375 51.304688 C 44.226562 56.84375 42.40625 62.839844 45.59375 66.027344 C 46.78125 67.214844 48.359375 67.707031 50.164062 67.707031 C 53.191406 67.707031 56.847656 66.3125 60.320312 64.503906 C 61.382812 63.953125 62.421875 63.363281 63.421875 62.761719 C 67.40625 64.664062 71.863281 65.722656 76.566406 65.722656 C 81.261719 65.722656 85.714844 64.660156 89.699219 62.761719 C 93.996094 65.339844 99.011719 67.707031 102.960938 67.707031 C 104.765625 67.707031 106.347656 67.214844 107.53125 66.027344 C 111.328125 62.230469 108.019531 54.445312 104.265625 48.191406 C 106.164062 44.207031 107.230469 39.753906 107.230469 35.054688 Z M 85.164062 10.292969 C 84.164062 10.988281 83.152344 11.722656 82.128906 12.496094 C 79.816406 14.222656 77.453125 16.132812 75.105469 18.167969 C 72.40625 20.507812 69.71875 23.015625 67.121094 25.613281 C 65.15625 27.582031 63.234375 29.601562 61.394531 31.652344 C 60.746094 30.871094 60.109375 30.09375 59.496094 29.316406 C 57.429688 26.714844 55.578125 24.152344 54.007812 21.738281 C 58.574219 14.03125 66.972656 8.847656 76.566406 8.847656 C 79.578125 8.847656 82.472656 9.359375 85.164062 10.292969 Z M 50.355469 35.054688 C 50.355469 32.046875 50.875 29.160156 51.808594 26.46875 C 53.222656 28.503906 54.800781 30.605469 56.507812 32.726562 C 57.128906 33.5 57.769531 34.277344 58.425781 35.054688 C 56.859375 36.917969 55.371094 38.785156 54.003906 40.613281 C 53.230469 41.636719 52.496094 42.652344 51.804688 43.65625 C 50.867188 40.957031 50.355469 38.066406 50.355469 35.054688 Z M 48.746094 7.238281 C 49.558594 6.425781 52.902344 6.644531 58.988281 9.949219 C 56.0625 12.003906 53.511719 14.554688 51.457031 17.480469 C 48.152344 11.394531 47.9375 8.050781 48.746094 7.238281 Z M 55.992188 61.652344 C 51.785156 63.519531 49.414062 63.542969 48.746094 62.875 C 48.082031 62.207031 48.101562 59.832031 49.964844 55.636719 C 50.371094 54.726562 50.863281 53.722656 51.453125 52.640625 C 53.503906 55.566406 56.054688 58.121094 58.984375 60.171875 C 57.898438 60.761719 56.902344 61.25 55.992188 61.652344 Z M 54.003906 48.378906 C 54.589844 47.472656 55.210938 46.558594 55.871094 45.621094 C 57.511719 43.304688 59.371094 40.890625 61.390625 38.460938 C 61.933594 37.8125 62.484375 37.167969 63.042969 36.519531 C 63.46875 36.027344 63.894531 35.542969 64.332031 35.054688 C 66.234375 32.921875 68.226562 30.808594 70.273438 28.761719 C 72.796875 26.238281 75.40625 23.808594 78.027344 21.539062 C 81.101562 18.875 84.183594 16.441406 87.125 14.363281 C 88.0625 13.703125 88.980469 13.078125 89.878906 12.492188 C 97.59375 17.058594 102.769531 25.460938 102.769531 35.054688 C 102.769531 44.644531 97.59375 53.042969 89.886719 57.613281 C 86.152344 55.1875 82.078125 52.085938 78.027344 48.574219 C 75.40625 46.304688 72.800781 43.875 70.273438 41.347656 C 68.933594 40.011719 67.621094 38.648438 66.34375 37.265625 C 65.984375 37.664062 65.636719 38.0625 65.289062 38.464844 C 64.648438 39.203125 64.027344 39.9375 63.417969 40.675781 C 64.628906 41.96875 65.867188 43.246094 67.121094 44.5 C 69.722656 47.101562 72.410156 49.605469 75.105469 51.945312 C 78.496094 54.882812 81.910156 57.550781 85.160156 59.808594 C 82.464844 60.746094 79.574219 61.265625 76.566406 61.265625 C 66.972656 61.265625 58.570312 56.085938 54.003906 48.378906 Z M 104.382812 62.875 C 103.570312 63.6875 100.226562 63.472656 94.140625 60.164062 C 97.066406 58.109375 99.617188 55.558594 101.667969 52.632812 C 104.976562 58.71875 105.191406 62.0625 104.382812 62.875 Z M 104.382812 62.875 " fill-opacity="1" fill-rule="nonzero"/></g><g fill="#000000" fill-opacity="1"><g transform="translate(6.05574, 96.223346)"><g><path d="M 8.453125 -14.796875 C 9.492188 -14.796875 10.507812 -14.59375 11.5 -14.1875 C 12.488281 -13.789062 13.34375 -13.234375 14.0625 -12.515625 L 12.609375 -10.71875 C 12.078125 -11.289062 11.445312 -11.742188 10.71875 -12.078125 C 9.988281 -12.421875 9.25 -12.59375 8.5 -12.59375 C 7.03125 -12.59375 5.785156 -12.085938 4.765625 -11.078125 C 3.742188 -10.078125 3.234375 -8.851562 3.234375 -7.40625 C 3.234375 -5.945312 3.742188 -4.710938 4.765625 -3.703125 C 5.785156 -2.703125 7.03125 -2.203125 8.5 -2.203125 C 10.03125 -2.203125 11.398438 -2.785156 12.609375 -3.953125 L 14.078125 -2.3125 C 13.316406 -1.570312 12.429688 -0.984375 11.421875 -0.546875 C 10.410156 -0.109375 9.394531 0.109375 8.375 0.109375 C 6.21875 0.109375 4.398438 -0.609375 2.921875 -2.046875 C 1.453125 -3.484375 0.71875 -5.265625 0.71875 -7.390625 C 0.71875 -9.484375 1.460938 -11.238281 2.953125 -12.65625 C 4.453125 -14.082031 6.285156 -14.796875 8.453125 -14.796875 Z M 8.453125 -14.796875 "/></g></g></g><g fill="#000000" fill-opacity="1"><g transform="translate(24.676532, 96.223346)"><g><path d="M 2.96875 -12.65625 C 4.46875 -14.082031 6.316406 -14.796875 8.515625 -14.796875 C 10.722656 -14.796875 12.578125 -14.082031 14.078125 -12.65625 C 15.578125 -11.238281 16.328125 -9.472656 16.328125 -7.359375 C 16.328125 -5.253906 15.578125 -3.484375 14.078125 -2.046875 C 12.578125 -0.609375 10.722656 0.109375 8.515625 0.109375 C 6.316406 0.109375 4.46875 -0.609375 2.96875 -2.046875 C 1.46875 -3.484375 0.71875 -5.253906 0.71875 -7.359375 C 0.71875 -9.472656 1.46875 -11.238281 2.96875 -12.65625 Z M 8.546875 -12.5625 C 7.085938 -12.5625 5.835938 -12.0625 4.796875 -11.0625 C 3.753906 -10.0625 3.234375 -8.828125 3.234375 -7.359375 C 3.234375 -5.898438 3.753906 -4.660156 4.796875 -3.640625 C 5.847656 -2.628906 7.097656 -2.125 8.546875 -2.125 C 9.992188 -2.125 11.226562 -2.628906 12.25 -3.640625 C 13.269531 -4.660156 13.78125 -5.898438 13.78125 -7.359375 C 13.78125 -8.828125 13.269531 -10.0625 12.25 -11.0625 C 11.226562 -12.0625 9.992188 -12.5625 8.546875 -12.5625 Z M 8.546875 -12.5625 "/></g></g></g><g fill="#000000" fill-opacity="1"><g transform="translate(45.674882, 96.223346)"><g><path d="M 14.71875 0 L 12.265625 0 L 4.421875 -10.5625 L 4.421875 0 L 1.9375 0 L 1.9375 -14.734375 L 4.375 -14.734375 L 12.265625 -4.140625 L 12.265625 -14.734375 L 14.71875 -14.734375 Z M 14.71875 0 "/></g></g></g><g fill="#000000" fill-opacity="1"><g transform="translate(66.294507, 96.223346)"><g><path d="M 14.71875 0 L 12.265625 0 L 4.421875 -10.5625 L 4.421875 0 L 1.9375 0 L 1.9375 -14.734375 L 4.375 -14.734375 L 12.265625 -4.140625 L 12.265625 -14.734375 L 14.71875 -14.734375 Z M 14.71875 0 "/></g></g></g><g fill="#000000" fill-opacity="1"><g transform="translate(86.914129, 96.223346)"><g><path d="M 12.453125 -12.5 L 4.421875 -12.5 L 4.421875 -8.53125 L 11.625 -8.53125 L 11.625 -6.296875 L 4.421875 -6.296875 L 4.421875 -2.234375 L 12.71875 -2.234375 L 12.71875 0 L 1.9375 0 L 1.9375 -14.734375 L 12.453125 -14.734375 Z M 12.453125 -12.5 "/></g></g></g><g fill="#000000" fill-opacity="1"><g transform="translate(104.672272, 96.223346)"><g><path d="M 8.453125 -14.796875 C 9.492188 -14.796875 10.507812 -14.59375 11.5 -14.1875 C 12.488281 -13.789062 13.34375 -13.234375 14.0625 -12.515625 L 12.609375 -10.71875 C 12.078125 -11.289062 11.445312 -11.742188 10.71875 -12.078125 C 9.988281 -12.421875 9.25 -12.59375 8.5 -12.59375 C 7.03125 -12.59375 5.785156 -12.085938 4.765625 -11.078125 C 3.742188 -10.078125 3.234375 -8.851562 3.234375 -7.40625 C 3.234375 -5.945312 3.742188 -4.710938 4.765625 -3.703125 C 5.785156 -2.703125 7.03125 -2.203125 8.5 -2.203125 C 10.03125 -2.203125 11.398438 -2.785156 12.609375 -3.953125 L 14.078125 -2.3125 C 13.316406 -1.570312 12.429688 -0.984375 11.421875 -0.546875 C 10.410156 -0.109375 9.394531 0.109375 8.375 0.109375 C 6.21875 0.109375 4.398438 -0.609375 2.921875 -2.046875 C 1.453125 -3.484375 0.71875 -5.265625 0.71875 -7.390625 C 0.71875 -9.484375 1.460938 -11.238281 2.953125 -12.65625 C 4.453125 -14.082031 6.285156 -14.796875 8.453125 -14.796875 Z M 8.453125 -14.796875 "/></g></g></g><g fill="#000000" fill-opacity="1"><g transform="translate(123.293062, 96.223346)"><g><path d="M 12 -12.5 L 7.328125 -12.5 L 7.328125 0 L 4.84375 0 L 4.84375 -12.5 L 0.1875 -12.5 L 0.1875 -14.734375 L 12 -14.734375 Z M 12 -12.5 "/></g></g></g></svg>