<svg xmlns="http://www.w3.org/2000/svg" xmlns:xlink="http://www.w3.org/1999/xlink" width="500" zoomAndPan="magnify" viewBox="0 0 375 374.999991" height="500" preserveAspectRatio="xMidYMid meet" version="1.0"><defs><g/><clipPath id="c64d07b79b"><path d="M 94 121 L 161 121 L 161 187.128906 L 94 187.128906 Z M 94 121 " clip-rule="nonzero"/></clipPath></defs><g clip-path="url(#c64d07b79b)"><path fill="#000000" d="M 158.742188 154.683594 C 158.742188 149.953125 157.675781 145.46875 155.757812 141.457031 C 155.015625 139.890625 154.144531 138.394531 153.148438 136.980469 C 151.082031 134.035156 148.515625 131.464844 145.570312 129.394531 C 146.664062 128.796875 147.664062 128.308594 148.582031 127.902344 C 152.816406 126.019531 155.207031 126 155.875 126.667969 C 156.542969 127.34375 156.523438 129.726562 154.644531 133.960938 C 155.707031 135.332031 156.671875 136.789062 157.519531 138.320312 C 160.425781 132.742188 162.257812 126.703125 159.046875 123.496094 C 155.839844 120.289062 149.796875 122.117188 144.214844 125.027344 C 143.148438 125.582031 142.101562 126.175781 141.09375 126.785156 C 137.082031 124.867188 132.59375 123.800781 127.863281 123.800781 C 123.132812 123.800781 118.644531 124.871094 114.632812 126.78125 C 108.339844 123.003906 100.5 119.671875 96.675781 123.496094 C 92.855469 127.316406 96.183594 135.160156 99.964844 141.457031 C 98.054688 145.46875 96.980469 149.953125 96.980469 154.683594 C 96.980469 159.414062 98.046875 163.898438 99.964844 167.914062 C 99.355469 168.925781 98.757812 169.972656 98.203125 171.046875 C 95.300781 176.625 93.46875 182.664062 96.675781 185.871094 C 97.875 187.070312 99.460938 187.5625 101.277344 187.5625 C 104.328125 187.5625 108.007812 186.160156 111.507812 184.339844 C 112.574219 183.785156 113.621094 183.191406 114.628906 182.582031 C 118.640625 184.5 123.128906 185.566406 127.863281 185.566406 C 132.59375 185.566406 137.078125 184.496094 141.089844 182.585938 C 145.417969 185.179688 150.46875 187.5625 154.445312 187.5625 C 156.261719 187.5625 157.855469 187.070312 159.046875 185.871094 C 162.867188 182.050781 159.539062 174.210938 155.757812 167.910156 C 157.671875 163.898438 158.742188 159.414062 158.742188 154.683594 Z M 136.523438 129.75 C 135.515625 130.449219 134.496094 131.1875 133.464844 131.964844 C 131.140625 133.707031 128.761719 135.628906 126.394531 137.679688 C 123.675781 140.035156 120.972656 142.558594 118.355469 145.175781 C 116.375 147.15625 114.4375 149.191406 112.585938 151.257812 C 111.933594 150.46875 111.292969 149.6875 110.675781 148.90625 C 108.597656 146.285156 106.730469 143.707031 105.148438 141.273438 C 109.746094 133.511719 118.207031 128.292969 127.867188 128.292969 C 130.898438 128.292969 133.8125 128.808594 136.523438 129.75 Z M 101.472656 154.683594 C 101.472656 151.65625 101.992188 148.75 102.9375 146.035156 C 104.359375 148.085938 105.949219 150.203125 107.664062 152.339844 C 108.292969 153.117188 108.9375 153.902344 109.597656 154.683594 C 108.019531 156.5625 106.523438 158.4375 105.144531 160.28125 C 104.367188 161.3125 103.628906 162.335938 102.929688 163.34375 C 101.988281 160.628906 101.472656 157.714844 101.472656 154.683594 Z M 99.851562 126.671875 C 100.667969 125.855469 104.035156 126.074219 110.164062 129.402344 C 107.21875 131.472656 104.648438 134.039062 102.582031 136.984375 C 99.25 130.855469 99.035156 127.492188 99.851562 126.671875 Z M 107.148438 181.464844 C 102.910156 183.347656 100.523438 183.371094 99.851562 182.699219 C 99.183594 182.027344 99.203125 179.636719 101.078125 175.410156 C 101.488281 174.492188 101.980469 173.484375 102.578125 172.390625 C 104.640625 175.339844 107.210938 177.910156 110.160156 179.976562 C 109.066406 180.570312 108.066406 181.0625 107.148438 181.464844 Z M 105.144531 168.097656 C 105.734375 167.191406 106.363281 166.269531 107.027344 165.324219 C 108.679688 162.988281 110.550781 160.558594 112.585938 158.113281 C 113.128906 157.460938 113.683594 156.8125 114.246094 156.15625 C 114.675781 155.664062 115.105469 155.175781 115.542969 154.683594 C 117.460938 152.535156 119.464844 150.410156 121.527344 148.347656 C 124.066406 145.808594 126.699219 143.355469 129.335938 141.070312 C 132.429688 138.390625 135.535156 135.941406 138.5 133.847656 C 139.441406 133.183594 140.367188 132.554688 141.273438 131.964844 C 149.039062 136.5625 154.253906 145.023438 154.253906 154.683594 C 154.253906 164.339844 149.039062 172.800781 141.277344 177.398438 C 137.515625 174.957031 133.417969 171.832031 129.335938 168.296875 C 126.699219 166.011719 124.070312 163.566406 121.527344 161.023438 C 120.179688 159.675781 118.859375 158.300781 117.570312 156.910156 C 117.210938 157.308594 116.859375 157.714844 116.507812 158.117188 C 115.863281 158.863281 115.238281 159.597656 114.625 160.34375 C 115.84375 161.644531 117.089844 162.933594 118.355469 164.195312 C 120.972656 166.816406 123.679688 169.335938 126.394531 171.691406 C 129.808594 174.648438 133.25 177.335938 136.519531 179.613281 C 133.804688 180.554688 130.894531 181.078125 127.863281 181.078125 C 118.203125 181.078125 109.742188 175.863281 105.144531 168.097656 Z M 155.875 182.699219 C 155.058594 183.515625 151.691406 183.296875 145.5625 179.96875 C 148.507812 177.898438 151.078125 175.332031 153.144531 172.386719 C 156.472656 178.515625 156.691406 181.878906 155.875 182.699219 Z M 155.875 182.699219 " fill-opacity="1" fill-rule="nonzero"/></g><g fill="#000000" fill-opacity="1"><g transform="translate(169.585995, 150.564511)"><g><path d="M 8.515625 -14.890625 C 9.554688 -14.890625 10.578125 -14.6875 11.578125 -14.28125 C 12.578125 -13.882812 13.4375 -13.328125 14.15625 -12.609375 L 12.6875 -10.78125 C 12.15625 -11.363281 11.519531 -11.820312 10.78125 -12.15625 C 10.050781 -12.5 9.3125 -12.671875 8.5625 -12.671875 C 7.070312 -12.671875 5.816406 -12.164062 4.796875 -11.15625 C 3.773438 -10.144531 3.265625 -8.910156 3.265625 -7.453125 C 3.265625 -5.984375 3.773438 -4.742188 4.796875 -3.734375 C 5.816406 -2.722656 7.070312 -2.21875 8.5625 -2.21875 C 10.101562 -2.21875 11.476562 -2.804688 12.6875 -3.984375 L 14.171875 -2.328125 C 13.410156 -1.578125 12.519531 -0.984375 11.5 -0.546875 C 10.488281 -0.109375 9.46875 0.109375 8.4375 0.109375 C 6.257812 0.109375 4.425781 -0.613281 2.9375 -2.0625 C 1.457031 -3.507812 0.71875 -5.300781 0.71875 -7.4375 C 0.71875 -9.539062 1.46875 -11.304688 2.96875 -12.734375 C 4.476562 -14.171875 6.328125 -14.890625 8.515625 -14.890625 Z M 8.515625 -14.890625 "/></g></g></g><g fill="#000000" fill-opacity="1"><g transform="translate(186.472462, 150.564511)"><g><path d="M 2.984375 -12.734375 C 4.492188 -14.171875 6.359375 -14.890625 8.578125 -14.890625 C 10.796875 -14.890625 12.660156 -14.171875 14.171875 -12.734375 C 15.679688 -11.304688 16.4375 -9.53125 16.4375 -7.40625 C 16.4375 -5.289062 15.679688 -3.507812 14.171875 -2.0625 C 12.660156 -0.613281 10.796875 0.109375 8.578125 0.109375 C 6.359375 0.109375 4.492188 -0.613281 2.984375 -2.0625 C 1.472656 -3.507812 0.71875 -5.289062 0.71875 -7.40625 C 0.71875 -9.53125 1.472656 -11.304688 2.984375 -12.734375 Z M 8.609375 -12.65625 C 7.140625 -12.65625 5.878906 -12.148438 4.828125 -11.140625 C 3.785156 -10.128906 3.265625 -8.890625 3.265625 -7.421875 C 3.265625 -5.953125 3.789062 -4.703125 4.84375 -3.671875 C 5.894531 -2.648438 7.144531 -2.140625 8.59375 -2.140625 C 10.050781 -2.140625 11.296875 -2.648438 12.328125 -3.671875 C 13.359375 -4.703125 13.875 -5.953125 13.875 -7.421875 C 13.875 -8.890625 13.359375 -10.128906 12.328125 -11.140625 C 11.296875 -12.148438 10.054688 -12.65625 8.609375 -12.65625 Z M 8.609375 -12.65625 "/></g></g></g><g fill="#000000" fill-opacity="1"><g transform="translate(205.753114, 150.564511)"><g><path d="M 14.8125 0 L 12.359375 0 L 4.453125 -10.640625 L 4.453125 0 L 1.953125 0 L 1.953125 -14.828125 L 4.40625 -14.828125 L 12.359375 -4.171875 L 12.359375 -14.828125 L 14.8125 -14.828125 Z M 14.8125 0 "/></g></g></g><g fill="#000000" fill-opacity="1"><g transform="translate(224.652392, 150.564511)"><g><path d="M 14.8125 0 L 12.359375 0 L 4.453125 -10.640625 L 4.453125 0 L 1.953125 0 L 1.953125 -14.828125 L 4.40625 -14.828125 L 12.359375 -4.171875 L 12.359375 -14.828125 L 14.8125 -14.828125 Z M 14.8125 0 "/></g></g></g><g fill="#000000" fill-opacity="1"><g transform="translate(243.551667, 150.564511)"><g><path d="M 12.546875 -12.578125 L 4.453125 -12.578125 L 4.453125 -8.578125 L 11.703125 -8.578125 L 11.703125 -6.328125 L 4.453125 -6.328125 L 4.453125 -2.25 L 12.796875 -2.25 L 12.796875 0 L 1.953125 0 L 1.953125 -14.828125 L 12.546875 -14.828125 Z M 12.546875 -12.578125 "/></g></g></g><g fill="#000000" fill-opacity="1"><g transform="translate(259.569446, 150.564511)"><g><path d="M 8.515625 -14.890625 C 9.554688 -14.890625 10.578125 -14.6875 11.578125 -14.28125 C 12.578125 -13.882812 13.4375 -13.328125 14.15625 -12.609375 L 12.6875 -10.78125 C 12.15625 -11.363281 11.519531 -11.820312 10.78125 -12.15625 C 10.050781 -12.5 9.3125 -12.671875 8.5625 -12.671875 C 7.070312 -12.671875 5.816406 -12.164062 4.796875 -11.15625 C 3.773438 -10.144531 3.265625 -8.910156 3.265625 -7.453125 C 3.265625 -5.984375 3.773438 -4.742188 4.796875 -3.734375 C 5.816406 -2.722656 7.070312 -2.21875 8.5625 -2.21875 C 10.101562 -2.21875 11.476562 -2.804688 12.6875 -3.984375 L 14.171875 -2.328125 C 13.410156 -1.578125 12.519531 -0.984375 11.5 -0.546875 C 10.488281 -0.109375 9.46875 0.109375 8.4375 0.109375 C 6.257812 0.109375 4.425781 -0.613281 2.9375 -2.0625 C 1.457031 -3.507812 0.71875 -5.300781 0.71875 -7.4375 C 0.71875 -9.539062 1.46875 -11.304688 2.96875 -12.734375 C 4.476562 -14.171875 6.328125 -14.890625 8.515625 -14.890625 Z M 8.515625 -14.890625 "/></g></g></g><g fill="#000000" fill-opacity="1"><g transform="translate(276.455918, 150.564511)"><g><path d="M 12.078125 -12.578125 L 7.375 -12.578125 L 7.375 0 L 4.875 0 L 4.875 -12.578125 L 0.1875 -12.578125 L 0.1875 -14.828125 L 12.078125 -14.828125 Z M 12.078125 -12.578125 "/></g></g></g><g fill="#000000" fill-opacity="1"><g transform="translate(169.585995, 171.56451)"><g><path d="M 11.53125 -3.34375 L 4.046875 -3.34375 L 2.625 0 L 0.015625 0 L 6.5625 -14.828125 L 9.125 -14.828125 L 15.609375 0 L 12.953125 0 Z M 10.578125 -5.578125 L 7.78125 -12.15625 L 4.984375 -5.578125 Z M 10.578125 -5.578125 "/></g></g></g><g fill="#000000" fill-opacity="1"><g transform="translate(187.341149, 171.56451)"><g><path d="M 11.359375 -11.265625 L 6.234375 1.546875 C 5.535156 3.328125 4.3125 4.21875 2.5625 4.21875 C 1.59375 4.21875 0.722656 3.898438 -0.046875 3.265625 L 1 1.375 C 1.507812 1.738281 1.992188 1.921875 2.453125 1.921875 C 3.222656 1.921875 3.796875 1.503906 4.171875 0.671875 L 4.5625 -0.171875 L -0.109375 -11.265625 L 2.421875 -11.265625 L 5.78125 -2.734375 L 8.921875 -11.265625 Z M 11.359375 -11.265625 "/></g></g></g><g fill="#000000" fill-opacity="1"><g transform="translate(200.710492, 171.56451)"><g><path d="M 12.03125 -11.265625 L 12.03125 0 L 9.59375 0 L 9.59375 -2.203125 C 8.863281 -0.703125 7.523438 0.0546875 5.578125 0.078125 C 4.285156 0.078125 3.269531 -0.304688 2.53125 -1.078125 C 1.800781 -1.859375 1.4375 -2.921875 1.4375 -4.265625 L 1.4375 -11.265625 L 3.875 -11.265625 L 3.875 -4.9375 C 3.875 -4.09375 4.109375 -3.425781 4.578125 -2.9375 C 5.046875 -2.445312 5.6875 -2.203125 6.5 -2.203125 C 7.445312 -2.210938 8.195312 -2.546875 8.75 -3.203125 C 9.3125 -3.859375 9.59375 -4.695312 9.59375 -5.71875 L 9.59375 -11.265625 Z M 12.03125 -11.265625 "/></g></g></g><g fill="#000000" fill-opacity="1"><g transform="translate(216.664714, 171.56451)"><g><path d="M 12.546875 -15.71875 L 12.546875 0 L 10.109375 0 L 10.109375 -1.921875 C 9.273438 -0.566406 7.953125 0.109375 6.140625 0.109375 C 4.535156 0.109375 3.234375 -0.421875 2.234375 -1.484375 C 1.234375 -2.554688 0.734375 -3.953125 0.734375 -5.671875 C 0.734375 -7.367188 1.226562 -8.742188 2.21875 -9.796875 C 3.207031 -10.847656 4.503906 -11.375 6.109375 -11.375 C 7.910156 -11.375 9.242188 -10.691406 10.109375 -9.328125 L 10.109375 -15.71875 Z M 4.15625 -2.953125 C 4.800781 -2.265625 5.628906 -1.921875 6.640625 -1.921875 C 7.660156 -1.921875 8.492188 -2.265625 9.140625 -2.953125 C 9.785156 -3.640625 10.109375 -4.519531 10.109375 -5.59375 C 10.109375 -6.675781 9.785156 -7.5625 9.140625 -8.25 C 8.492188 -8.945312 7.660156 -9.296875 6.640625 -9.296875 C 5.628906 -9.296875 4.800781 -8.945312 4.15625 -8.25 C 3.519531 -7.5625 3.191406 -6.675781 3.171875 -5.59375 C 3.191406 -4.519531 3.519531 -3.640625 4.15625 -2.953125 Z M 4.15625 -2.953125 "/></g></g></g><g fill="#000000" fill-opacity="1"><g transform="translate(233.233365, 171.56451)"><g><path d="M 8.5625 0 L 8.5625 -1.375 C 7.757812 -0.382812 6.515625 0.109375 4.828125 0.109375 C 3.628906 0.109375 2.671875 -0.21875 1.953125 -0.875 C 1.234375 -1.53125 0.875 -2.367188 0.875 -3.390625 C 0.875 -4.421875 1.242188 -5.238281 1.984375 -5.84375 C 2.734375 -6.457031 3.78125 -6.769531 5.125 -6.78125 L 8.53125 -6.78125 L 8.53125 -7.125 C 8.53125 -7.84375 8.300781 -8.398438 7.84375 -8.796875 C 7.382812 -9.191406 6.71875 -9.390625 5.84375 -9.390625 C 4.757812 -9.390625 3.648438 -9.003906 2.515625 -8.234375 L 1.53125 -9.9375 C 2.382812 -10.445312 3.15625 -10.8125 3.84375 -11.03125 C 4.53125 -11.25 5.375 -11.359375 6.375 -11.359375 C 7.8125 -11.359375 8.925781 -11.007812 9.71875 -10.3125 C 10.507812 -9.613281 10.914062 -8.640625 10.9375 -7.390625 L 10.953125 0 Z M 5.34375 -1.828125 C 6.195312 -1.828125 6.925781 -2.023438 7.53125 -2.421875 C 8.132812 -2.828125 8.46875 -3.34375 8.53125 -3.96875 L 8.53125 -5 L 5.484375 -5 C 4.679688 -5 4.09375 -4.878906 3.71875 -4.640625 C 3.34375 -4.410156 3.15625 -4.03125 3.15625 -3.5 C 3.15625 -2.988281 3.347656 -2.582031 3.734375 -2.28125 C 4.128906 -1.976562 4.664062 -1.828125 5.34375 -1.828125 Z M 5.34375 -1.828125 "/></g></g></g></svg>