<?xml version="1.0" encoding="UTF-8"?>
<svg xmlns="http://www.w3.org/2000/svg" id="a" width="865.76" height="682.89" viewBox="0 0 865.76 682.89">
  <g>
    <circle cx="704.27" cy="181.27" r="10.87" fill="#002346"></circle>
    <path d="M693.35,178.44c1.56-6.02,7.73-9.66,13.76-8.09s9.66,7.73,8.09,13.76c-1.56,6.02-7.73,9.66-13.76,8.09s-9.66-7.73-8.09-13.76Zm.81,.21c-1.45,5.58,1.92,11.29,7.49,12.74,5.58,1.45,11.29-1.92,12.74-7.49s-1.92-11.29-7.49-12.74c-5.58-1.45-11.29,1.92-12.74,7.49Z" fill="#0d2445"></path>
  </g>
  <g>
    <path d="M582.45,85.47h-220c-13.53,0-24.5,10.97-24.5,24.5s10.97,24.5,24.5,24.5h220c13.53,0,24.5-10.96,24.5-24.5s-10.97-24.5-24.5-24.5Z" fill="#fff"></path>
    <path d="M582.45,134.97h-220c-13.79,0-25-11.21-25-25s11.21-25,25-25h220c13.79,0,25,11.21,25,25s-11.21,25-25,25Zm-220-49c-13.23,0-24,10.77-24,24s10.77,24,24,24h220c13.23,0,24-10.77,24-24s-10.77-24-24-24h-220Z" fill="#002346"></path>
  </g>
  <g>
    <path d="M411.63,85.47v49h-49.18c-13.53,0-24.5-10.96-24.5-24.5s10.97-24.5,24.5-24.5h49.18Z" fill="#E7CEF2"></path>
    <path d="M412.13,134.96h-49.68c-13.78,0-25-11.21-25-25s11.21-25,25-25h49.68v49.99Zm-49.68-49c-13.24,0-24,10.77-24,24s10.77,24,24,24h48.69v-48.01h-48.69Z" fill="#002346"></path>
  </g>
  <polygon points="221.46 72.28 163.8 72.28 163.8 128.15 183.58 128.15 193.55 139.25 201.78 128.15 221.46 128.15 221.46 72.28" fill="#fff"></polygon>
  <g>
    <path d="M164.3,127.65h19.5l9.71,10.81,8-10.81h19.43v-54.87h-56.64v54.87Z" fill="#fff"></path>
    <path d="M193.55,139.25l-9.97-11.1h-19.78v-55.87h57.64v55.87h-19.68l-8.21,11.1Zm-28.75-12.1h19.22l9.45,10.52,7.79-10.52h19.18v-53.87h-55.64v53.87Z" fill="#002346"></path>
  </g>
  <g>
    <path d="M183.15,93.22h5.13c-.01-2.41,1.93-4.37,4.34-4.38h.13c1.76-.06,3.37,1.01,4,2.65,.55,1.36,.42,2.9-.36,4.15-.87,1.43-2.78,2.73-6.23,2.13v11.6h5.07v-6.82c4.27-1.26,7.18-5.22,7.1-9.67,0-7.49-6.72-9.23-9.59-9.23-2.19,0-9.69,.53-9.59,9.57Z" fill="#E7CEF2"></path>
    <path d="M195.73,109.87h-6.06v-12.68l.58,.1c3.59,.62,5.13-.92,5.72-1.9,.7-1.11,.82-2.5,.32-3.71-.56-1.45-1.96-2.41-3.52-2.34h-.15c-1.03,0-2,.41-2.73,1.14s-1.12,1.71-1.12,2.74v.5s-6.12,0-6.12,0v-.49c-.04-3.13,.81-5.59,2.52-7.32,2.37-2.39,5.75-2.75,7.56-2.75,2.8,0,10.08,1.75,10.08,9.72,.08,4.53-2.82,8.6-7.1,10.03v6.95Zm-5.07-.99h4.08v-6.7l.36-.1c4.05-1.19,6.82-4.97,6.75-9.19,0-7.17-6.57-8.74-9.09-8.74-1.65,0-4.75,.32-6.86,2.45-1.43,1.44-2.18,3.5-2.24,6.12h4.16c.11-1.11,.59-2.14,1.38-2.94,.91-.92,2.13-1.43,3.43-1.44h.13c1.93-.08,3.75,1.13,4.46,2.97,.61,1.49,.46,3.21-.4,4.59-.55,.91-2.25,2.92-6.15,2.44v10.53Z" fill="#002346"></path>
  </g>
  <g>
    <rect x="190.16" y="111.7" width="5.14" height="4.8" fill="#E7CEF2"></rect>
    <path d="M195.8,117h-6.13v-5.79h6.13v5.79Zm-5.14-.99h4.15v-3.81h-4.15v3.81Z" fill="#002346"></path>
  </g>
  <g>
    <path d="M319.21,327.97v33.93h-76.95v144.79h-37.28V172.15h132.87v33.92h-95.59v121.9h76.95Z" fill="#e6e7e8"></path>
    <path d="M242.76,507.19h-38.28V171.65h133.87v34.92h-95.59v120.9h76.95v34.93h-76.95v144.79Zm-37.28-1h36.28v-144.79h76.95v-32.93h-76.95v-122.9h95.59v-32.92H205.48V506.19Z" fill="#002346"></path>
  </g>
  <g>
    <path d="M374.28,439.3l-12.9,67.39h-34.4l64-334.54h54l64,334.54h-37.2l-12.91-67.39h-84.59Zm4.8-32h74.53l-37.75-193.1-36.78,193.1Z" fill="#e6e7e8"></path>
    <path d="M509.59,507.19h-38.22l-12.91-67.39h-83.76l-12.9,67.39h-35.42l.11-.59,64.08-334.95h54.83l.08,.41,64.11,335.13Zm-37.39-1h36.18l-63.81-333.54h-53.17l-63.81,333.54h33.38l12.9-67.39h85.42l12.91,67.39Zm-17.98-98.39h-75.74l.11-.59,37.26-195.64,38.36,196.24Zm-74.53-1h73.32l-37.14-189.96-36.18,189.96Z" fill="#002346"></path>
  </g>
  <g>
    <path d="M678.55,252.97v173c0,20.55-4.3,38.71-12.91,52.09,3.83,8.13,10,10.52,20.56,10.52h4.79v33h-6.21c-21,0-34.89-7.64-42.54-21.5-10.52,6.21-24.37,10-40.63,10-51.13,0-76.46-33.46-76.46-84.12V252.97c0-51.14,25.33-84.12,76.46-84.12,51.61-.05,76.94,32.93,76.94,84.12Zm-116.61-2v176.86c0,30.59,12.9,48.27,39.66,48.27s39.68-17.68,39.68-48.27V250.97c0-30.11-12.44-48.26-39.68-48.26s-39.66,18.15-39.66,48.26Z" fill="#e6e7e8"></path>
    <path d="M691.49,522.08h-6.71c-20.34,0-34.71-7.17-42.73-21.31-11.09,6.42-25.06,9.81-40.44,9.81-48.91,0-76.96-30.84-76.96-84.62V252.97c0-26.21,6.45-46.92,19.18-61.57,13.3-15.3,32.74-23.05,57.78-23.05h.12c25.2,0,44.74,7.74,58.08,23.02,12.77,14.62,19.24,35.34,19.24,61.6v173c0,20.92-4.44,38.94-12.84,52.12,3.52,7.27,8.97,9.99,19.99,9.99h5.29v34Zm-49.06-22.69l.25,.45c7.78,14.09,21.95,21.24,42.1,21.24h5.71v-32h-4.29c-9.56,0-16.79-1.84-21.01-10.81l-.12-.25,.15-.23c8.39-13.04,12.83-30.96,12.83-51.82V252.97c0-26.01-6.39-46.52-18.99-60.95-13.14-15.04-32.43-22.67-57.33-22.67h-.12c-48.27,0-75.96,30.48-75.96,83.62v172.99c0,53.14,27.69,83.62,75.96,83.62,15.41,0,29.37-3.43,40.38-9.93l.44-.26Zm-40.83-22.79c-26.27,0-40.16-16.86-40.16-48.77V250.97c0-31.44,14.26-48.76,40.16-48.76s40.18,16.86,40.18,48.76v176.86c0,32.36-13.52,48.77-40.18,48.77Zm0-273.39c-25.62,0-39.16,16.51-39.16,47.76v176.86c0,31.25,13.54,47.77,39.16,47.77s39.18-16.07,39.18-47.77V250.97c0-31.25-13.55-47.76-39.18-47.76Z" fill="#002346"></path>
  </g>
  <g>
    <path d="M351.13,439.3l-12.91,67.39h-34.41l64-334.54h54l64,334.54h-37.19l-12.9-67.39h-84.59Zm4.79-32h74.53l-37.77-193.1-36.76,193.1Z" fill="#fff"></path>
    <path d="M486.42,507.19h-38.21l-.08-.41-12.82-66.98h-83.76l-12.91,67.39h-35.43l.11-.59,64.08-334.95h54.83l.08,.41,64.11,335.13Zm-37.38-1h36.17l-63.81-333.54h-53.17l-63.81,333.54h33.39l12.91-67.39h85.42l.08,.41,12.82,66.98Zm-17.98-98.39h-75.74l.11-.59,37.24-195.64,38.38,196.24Zm-74.53-1h73.32l-37.16-189.96-36.16,189.96Z" fill="#002346"></path>
  </g>
  <g>
    <path d="M304.12,328.1v33.93h-76.94v144.85h-37.28V172.34h132.86v33.93h-95.58v121.83h76.94Z" fill="#fff"></path>
    <path d="M227.68,507.38h-38.28V171.84h133.86v34.93h-95.58v120.83h76.94v34.93h-76.94v144.85Zm-37.28-1h36.28v-144.85h76.94v-32.93h-76.94v-122.83h95.58v-32.93H190.4V506.38Z" fill="#002346"></path>
  </g>
  <g>
    <path d="M655.39,252.56v173c0,20.55-4.3,38.72-12.9,52.1,3.82,8.12,10,10.51,20.55,10.51h4.8v32.94h-6.21c-21,0-34.9-7.65-42.53-21.51-10.52,6.21-24.38,10-40.63,10-51.14,0-76.46-33.46-76.46-84.12V252.48c0-51.14,25.32-84.12,76.46-84.12,51.59,.12,76.92,33.09,76.92,84.2Zm-116.64-1.87v176.83c0,30.59,12.9,48.26,39.66,48.26s39.67-17.67,39.67-48.26V250.69c0-30.11-12.43-48.28-39.67-48.28s-39.66,18.17-39.66,48.28Z" fill="#fff"></path>
    <path d="M668.34,521.61h-6.71c-20.35,0-34.72-7.17-42.72-21.32-11.09,6.42-25.06,9.81-40.44,9.81-48.91,0-76.96-30.84-76.96-84.62V252.48c0-26.21,6.45-46.93,19.17-61.57,13.3-15.3,32.74-23.05,57.79-23.05,25.25,.06,44.83,7.85,58.18,23.15,12.76,14.63,19.24,35.34,19.24,61.55v173c0,20.93-4.44,38.95-12.83,52.14,3.51,7.27,8.96,9.97,19.98,9.97h5.3v33.94Zm-49.05-22.7l.25,.45c7.76,14.1,21.92,21.25,42.09,21.25h5.71v-31.94h-4.3c-9.56,0-16.79-1.84-21-10.8l-.12-.25,.15-.23c8.39-13.05,12.82-30.97,12.82-51.83V252.56c0-53.86-27.14-83.58-76.42-83.7-48.27,0-75.96,30.48-75.96,83.62v173c0,53.14,27.69,83.62,75.96,83.62,15.41,0,29.37-3.43,40.38-9.93l.44-.26Zm-40.88-22.63c-26.27,0-40.16-16.86-40.16-48.76V250.69c0-31.46,14.26-48.78,40.16-48.78s40.17,16.87,40.17,48.78v176.83c0,32.36-13.51,48.76-40.17,48.76Zm0-273.37c-25.62,0-39.16,16.52-39.16,47.78v176.83c0,31.25,13.54,47.76,39.16,47.76s39.17-16.07,39.17-47.76V250.69c0-31.26-13.54-47.78-39.17-47.78Z" fill="#002346"></path>
  </g>
  <g>
    <path d="M673.29,315.54s-9.48,32.95,.47,100.91c2.77,13.96,3.34,28.26,1.69,42.39,0,0-10.19,37.66-11.84,79.57l21.07,1.42s21.55-80,20.37-98l-1.19-44s-1.78-33.23-.79-49c.07-1.19,1.8-1.25,1.96-.07,1.95,14.84,6.42,49.02,8.07,62.56l4.74,30.08c1.58,13.23,1.58,26.6,0,39.83,0,0-1.71,16,1.15,39l2.16,18.76h22.5l2.37-62.29,.9-68.95c.03-2.06-.09-4.11-.37-6.15-1.95-14.62-10.52-76.64-17.82-91.65-.03-.09-44.9,5.83-55.44,5.59Z" fill="#E7CEF2"></path>
    <path d="M685.06,540.36l-21.96-1.48,.02-.49c1.63-41.49,11.76-79.3,11.86-79.68,1.64-14.03,1.07-28.24-1.7-42.16-9.86-67.31-.55-100.82-.46-101.15l.11-.37h.39c8.4,.2,39.14-3.59,50.71-5.02q5.06-.62,5.19-.22c7.18,14.76,15.47,73.96,17.84,91.74,.27,2.05,.4,4.15,.37,6.22l-.9,68.95-2.39,62.78h-23.43l-2.21-19.2c-2.83-22.79-1.17-38.95-1.15-39.11,1.58-13.18,1.58-26.54,0-39.72l-4.74-30.06c-1.66-13.62-6.2-48.29-8.07-62.57-.05-.4-.38-.42-.49-.42-.07,0-.44,.04-.47,.45-.98,15.56,.77,48.61,.79,48.94l1.19,44.01c1.17,17.86-19.51,94.87-20.39,98.14l-.11,.4Zm-20.93-2.41l20.17,1.36c1.64-6.13,21.37-80.38,20.25-97.44l-1.19-44.02c-.02-.32-1.77-33.42-.78-49.04,.05-.79,.64-1.36,1.43-1.39,.83-.04,1.42,.5,1.52,1.29,1.88,14.28,6.42,48.96,8.07,62.56l4.74,30.06c1.59,13.27,1.59,26.71,0,39.97-.02,.15-1.67,16.21,1.15,38.88l2.11,18.32h21.57l2.35-61.81,.9-68.94c.03-2.03-.09-4.07-.36-6.08-1.67-12.55-10.33-75.57-17.63-91.19-.65,.07-2.25,.27-4.29,.52-11.3,1.4-40.85,5.04-50.18,5.04-.09,0-.19,0-.28,0-.97,3.81-8.68,37.05,.58,100.33,2.78,14,3.35,28.32,1.69,42.52-.12,.45-10.13,37.87-11.82,79.05Z" fill="#002346"></path>
  </g>
  <path d="M743.14,291.66s.14,.68,1.56,.38c.35-.26,.68-.55,1-.85-.87-.33-1.86-.15-2.56,.47Z" fill="#E7CEF2"></path>
  <g opacity=".3">
    <path d="M743.14,291.66s.14,.68,1.56,.38c.35-.26,.68-.55,1-.85-.87-.33-1.86-.15-2.56,.47Z"></path>
  </g>
  <g>
    <path d="M694.36,223.17s-5.68,1-15.15,6.09c0,0-5.92,2.48-4.27,40.61,0,0-2.77,33.68-4.51,44.86-.17,1.12,.59,2.17,1.71,2.34,.14,.02,.28,.03,.43,.02,10.22-.59,47.76-2.93,61.29-6.27,1.38-.34,2.27-1.67,2.05-3.07l-7.46-48.54-7.14-32.39c-3.28-1.68-6.77-2.91-10.38-3.65h-16.57Z" fill="#F4F4F4"></path>
    <path d="M672.46,317.59c-.13,0-.26,0-.39-.03-1.39-.21-2.35-1.52-2.13-2.91,1.72-11.04,4.48-44.49,4.51-44.82-1.62-37.34,3.94-40.76,4.58-41.03,9.39-5.05,15.02-6.08,15.26-6.12h.09s16.67,0,16.67,0c3.66,.75,7.19,1.99,10.51,3.7l.21,.11,7.19,32.62,7.47,48.57c.26,1.67-.78,3.23-2.43,3.63-13.45,3.32-50.38,5.65-61.38,6.28-.05,0-.09,0-.14,0Zm21.95-93.92c-.52,.1-6.1,1.27-14.96,6.03-.08,.04-5.59,3.46-4.01,40.15-.03,.4-2.79,33.89-4.52,44.96-.13,.84,.45,1.64,1.29,1.77,.11,.02,.22,.02,.32,.02,10.98-.63,47.83-2.96,61.2-6.26,1.13-.28,1.86-1.36,1.68-2.51l-7.46-48.54-7.08-32.13c-3.16-1.6-6.52-2.77-9.99-3.49h-16.47Z" fill="#002346"></path>
  </g>
  <g>
    <path d="M720.65,190.77s3.52,28.71-9.71,28.42v9.63c-.65,2.37-2.38,4.3-4.68,5.18-3.01,1.24-6.45,.89-9.15-.93-.6-.41-1.15-.89-1.64-1.43-.71-.8-1.11-1.83-1.11-2.9v-21.89l1.66-6.6v-1.9c3.38-.79,6.53-2.33,9.24-4.5,0,0,13.49-13.26,15.39-3.08Z" fill="#f2b3c1"></path>
    <path d="M702.55,235.23c-2,0-4-.59-5.71-1.75-.63-.43-1.21-.94-1.73-1.51-.8-.89-1.23-2.04-1.24-3.23l.02-22.01,1.64-6.54v-2.23l.38-.09c3.29-.77,6.41-2.29,9.04-4.41,.31-.31,8.54-8.33,13.26-6.84,1.52,.48,2.5,1.84,2.92,4.06v.03c.1,.79,2.29,19.32-4.05,26.33-1.52,1.68-3.42,2.57-5.65,2.64l-.02,9.27c-.68,2.51-2.54,4.57-4.98,5.51-1.25,.52-2.57,.77-3.89,.77Zm-7.7-28.32v21.83c0,.95,.35,1.86,.98,2.57,.46,.51,.99,.96,1.55,1.35,2.57,1.74,5.82,2.07,8.69,.88,2.13-.82,3.76-2.61,4.38-4.79v-10.07h.5c2.18,.05,3.97-.72,5.4-2.31,5.97-6.6,3.88-24.91,3.81-25.54-.34-1.82-1.1-2.92-2.24-3.29-4.15-1.29-12.24,6.56-12.32,6.64-2.68,2.15-5.8,3.71-9.09,4.54l-.02,1.63-1.64,6.54Z" fill="#002346"></path>
  </g>
  <path d="M722.45,186.97s4.2,19.19,2.11,28.57c-.64,2.78-3.01,4.83-5.86,5.05l-7.76,.64v-2.04c12.73,.79,9.93-26.56,9.93-26.56-.26-3.82-1.47-4.7-1.47-4.7-4.14-4.02-14.14,5.92-14.14,5.92-5.69,4.5-9.24,4.5-9.24,4.5v1.9l-1.66,6.6v15.34s-5.13,.53-9.96-.49c-3.05-.64-5.09-3.51-4.76-6.61,1.6-14.77,8.04-59.02,26.32-37.54,0,0,10.11-7.91,15.35,5.28,0,0,.36,1.15,1.14,4.14Z" fill="#002346"></path>
  <g>
    <path d="M721.32,226.82l7.13,32.39s6.53,9.26,14.22,14.49c.87,.59,1.37,1.59,1.32,2.64l-.86,15.32s8.06-3.79,8.29,10.18c0,0,13.26-15.16,5.21-32.92l-13.51-19.63c-1.15-1.68-2.41-3.27-3.78-4.78-3.89-4.28-12.22-13.24-18.02-17.69Z" fill="#F4F4F4"></path>
    <path d="M750.94,303.15l-.02-1.3c-.08-4.96-1.21-8.26-3.26-9.54-2.01-1.25-4.3-.21-4.32-.19l-.76,.36,.91-16.16c.04-.87-.38-1.71-1.1-2.2-7.68-5.22-14.28-14.52-14.35-14.62l-.08-.18-7.42-33.73,1.09,.83c5.33,4.09,12.78,11.91,18.08,17.75,1.38,1.52,2.67,3.15,3.82,4.83l13.51,19.63c8.13,17.92-5.11,33.38-5.25,33.53l-.85,.98Zm-5.51-12.46c.85,0,1.82,.18,2.76,.77,2.18,1.36,3.41,4.38,3.68,9,2.73-3.71,10.93-16.71,4.31-31.33l-13.47-19.55c-1.13-1.65-2.39-3.24-3.74-4.73-4.04-4.45-11.38-12.28-16.86-16.76l6.81,30.92c.66,.92,6.89,9.42,14.04,14.29,1.01,.68,1.6,1.86,1.54,3.08l-.82,14.57c.45-.13,1.06-.25,1.76-.25Z" fill="#002346"></path>
  </g>
  <g>
    <path d="M697.2,292.6s5.82-7.91,9.19-9.68c.72-.4,1.63-.14,2.02,.58,.13,.24,.2,.51,.19,.78-.12,.96-.46,1.88-1,2.68-.06,.09,.05,.21,.14,.15,1.43-.9,5.95-3.29,14.22-3.94,.42-.03,.81,.24,.92,.65,.27,1.08-.29,3.16-7.87,4.21-.3,.04-.52,.31-.52,.61h0c0,.33,.27,.6,.6,.6,.02,0,.03,0,.05,0l7.4-.49c1.83-.13,3.42,1.24,3.55,3.07,.02,.25,0,.51-.03,.76-.44,2.47-2.88,5.62-11.1,8.07-5.66,2.48-11.64,4.16-17.76,5v-13.05Z" fill="#f2b3c1"></path>
    <path d="M696.71,306.22v-13.78l.1-.13c.24-.33,5.93-8.02,9.36-9.82,.95-.52,2.16-.18,2.68,.78,.17,.32,.26,.68,.25,1.04-.07,.6-.22,1.18-.45,1.73,2.2-1.14,6.49-2.82,13.28-3.35,.64-.04,1.26,.38,1.43,1.01,.15,.62,.04,1.24-.34,1.79-.96,1.42-3.63,2.44-7.94,3.04-.05,0-.1,.06-.1,.12l.11,.61v-.49l7.42-.49c1.02-.07,2,.25,2.77,.92,.77,.67,1.24,1.59,1.31,2.61,.02,.29,0,.58-.04,.87-.63,3.54-4.48,6.39-11.44,8.46-5.65,2.47-11.67,4.17-17.83,5.02l-.56,.08Zm.98-13.45v12.32c5.88-.86,11.62-2.5,17.07-4.88,8.25-2.46,10.43-5.55,10.81-7.71,.03-.2,.04-.42,.03-.64-.05-.75-.4-1.44-.97-1.93-.57-.49-1.3-.74-2.05-.68l-7.4,.49h0c-.37,0-.64-.11-.85-.32-.21-.21-.32-.48-.32-.77,0-.54,.4-1.01,.94-1.09,5.02-.7,6.72-1.8,7.27-2.61,.22-.32,.28-.65,.2-.99-.04-.17-.21-.29-.4-.28-8.08,.63-12.48,2.91-14,3.86-.24,.15-.55,.11-.74-.09-.2-.2-.23-.51-.07-.75,.5-.74,.81-1.59,.92-2.47,0-.14-.04-.32-.13-.48-.27-.48-.88-.66-1.36-.39-3.01,1.58-8.17,8.39-8.94,9.41Zm9.79-6.07s0,0,0,0c0,0,0,0,0,0Z" fill="#002346"></path>
  </g>
  <g>
    <path d="M697.68,568.97c-14.21,4-37.18-2.37-37.18-2.37l3.08-28.18,21.07,1.42-3.79,16.13c-.94,6.63,2.13,7.1,2.13,7.1l14.69,5.9Z" fill="#f2b3c1"></path>
    <path d="M686.5,570.77c-12.62,0-25.95-3.65-26.13-3.69l-.4-.11,3.18-29.06,22.12,1.49-3.92,16.69c-.84,5.95,1.71,6.5,1.74,6.5l.1,.03,16.03,6.44-1.39,.39c-3.41,.96-7.33,1.32-11.32,1.32Zm-25.46-4.53c3.01,.79,22.14,5.53,35.06,2.63l-13.25-5.32c-.5-.12-3.41-1.07-2.48-7.64l3.67-15.61-20.02-1.35-2.98,27.29Z" fill="#002346"></path>
  </g>
  <g>
    <path d="M762.09,569.67c-26.52,1.42-39.31-3.31-39.31-3.31,1.42-9.71-1.66-27.47-1.66-27.47h22.5l-1.87,18.92c-.11,1.07,.18,2.14,.83,3,5.33,7.06,17.22,8.64,19.22,8.86h.29Z" fill="#f2b3c1"></path>
    <path d="M752.51,570.43c-19.89,0-29.79-3.56-29.9-3.6l-.37-.14,.06-.39c1.39-9.52-1.63-27.14-1.66-27.32l-.1-.58h23.63l-1.92,19.46c-.1,.95,.16,1.89,.73,2.66,5.17,6.84,16.63,8.42,18.88,8.67h.24s.03,.98,.03,.98c-3.43,.18-6.63,.26-9.61,.26Zm-29.18-4.4c2.13,.68,13.34,3.91,33.9,3.35-4.63-1.05-11.34-3.37-15.04-8.27-.72-.96-1.05-2.15-.93-3.35l1.82-18.38h-21.38c.52,3.13,2.78,17.78,1.62,26.64Z" fill="#002346"></path>
  </g>
  <g>
    <path d="M780.8,577.49l-59.68,.06c-.35-3.81,.22-7.65,1.66-11.19,0,0,12.79,4.73,39.31,3.31,22.97,4.03,18.71,7.82,18.71,7.82Z" fill="#F4F4F4"></path>
    <path d="M720.67,578.05l-.04-.45c-.36-3.87,.23-7.82,1.7-11.42l.18-.45,.45,.17c.13,.05,13.02,4.67,39.11,3.28h.06s.06,0,.06,0c12.12,2.13,18.64,4.51,19.37,7.08,.22,.78-.15,1.38-.41,1.61l-.14,.13h-.19l-60.14,.06Zm2.41-11.07c-1.23,3.19-1.74,6.65-1.49,10.07l58.97-.06c.05-.1,.09-.27,.02-.49-.3-.98-2.72-3.56-18.52-6.33-23.53,1.26-36.45-2.38-38.99-3.19Z" fill="#002346"></path>
  </g>
  <g>
    <path d="M716.87,577.55h-57.78c-.93-8,1.41-11,1.41-11,0,0,23,6.4,37.18,2.37,20.13,1.94,19.19,8.63,19.19,8.63Z" fill="#F4F4F4"></path>
    <path d="M717.31,578.05h-58.66l-.05-.44c-.94-8.11,1.41-11.24,1.51-11.37l.21-.26,.32,.09c.23,.06,23.03,6.31,36.91,2.37l.09-.03h.09c12.15,1.18,16.8,4.1,18.57,6.34,1.23,1.56,1.07,2.81,1.06,2.86l-.06,.43Zm-57.77-1h56.8c-.07-.39-.28-1.01-.88-1.74-1.67-2.06-6.11-4.75-17.74-5.88-13.18,3.7-34.01-1.51-37-2.3-.49,.86-1.81,3.86-1.19,9.92Z" fill="#002346"></path>
  </g>
  <g>
    <ellipse cx="694.6" cy="202.82" rx="3.69" ry="5.09" fill="#f2b3c1"></ellipse>
    <path d="M694.6,208.4c-2.31,0-4.18-2.5-4.18-5.58s1.88-5.58,4.18-5.58,4.18,2.5,4.18,5.58-1.88,5.58-4.18,5.58Zm0-10.18c-1.76,0-3.2,2.06-3.2,4.6s1.43,4.6,3.2,4.6,3.2-2.06,3.2-4.6-1.43-4.6-3.2-4.6Z" fill="#002346"></path>
  </g>
  <g>
    <path d="M697.2,292.6v13.09s-58.5-.06-58.38-13.09c0,0-1.53-1.65,4.63-12.55,0,0,24.39-60.15,37.18-50,0,0,9.47,4.78-1.42,27l-11.28,23.8s-3.88,4.61,2,5.91c.04,.05,11.17,2.29,27.27,5.84Z" fill="#F4F4F4"></path>
    <path d="M697.7,306.19h-.5c-1.94,0-47.68-.16-57.12-9.7-1.14-1.15-1.73-2.41-1.76-3.75-.4-.79-.6-3.57,4.69-12.94,.76-1.89,19.46-47.67,32.82-51.19,1.88-.49,3.58-.15,5.07,1.01,.83,.45,9.45,5.81-1.25,27.64l-11.35,23.9s-1.54,1.86-1.04,3.32c.29,.84,1.22,1.44,2.77,1.78l.18,.04c.4,.09,1.57,.33,3.11,.66,4.57,.96,13.07,2.73,23.98,5.14l.39,.09v13.99Zm-20.26-76.8c-.44,0-.89,.06-1.36,.19-12.87,3.39-31.98,50.18-32.17,50.66-5.67,10.04-4.7,12.05-4.69,12.07l.13,.15-.04,.15c-.01,1.13,.47,2.17,1.47,3.18,8.64,8.73,50.82,9.36,55.91,9.4v-12.19c-10.72-2.36-19.07-4.11-23.58-5.05-2.14-.45-2.95-.62-3.29-.72v.02c-1.92-.42-3.1-1.24-3.5-2.44-.63-1.85,.89-3.87,1.18-4.23l11.25-23.75c10.5-21.43,1.73-26.29,1.64-26.34-.95-.74-1.91-1.1-2.96-1.1Z" fill="#002346"></path>
  </g>
  <path d="M716.39,292.62c-.24,0-.45-.17-.49-.41-.05-.27,.13-.53,.41-.58l6.17-1.09c.27-.05,.53,.13,.58,.41,.05,.27-.13,.53-.41,.58l-6.17,1.09s-.06,0-.09,0Z" fill="#002346"></path>
  <path d="M726.06,292.58c-3,1.59-6.29,2.56-9.67,2.83,3-1.59,6.29-2.55,9.67-2.83Z" fill="#f7a48b"></path>
  <g>
    <path d="M723.45,277.65l-2,.09c-.42,.02-.77,.31-.87,.72l-7.42,30.7c-.08,.35,.13,.7,.48,.78,.05,.01,.1,.02,.16,.02h2.58l7.07-32.31Z" fill="#fff"></path>
    <path d="M713.78,310.46c-.08,0-.17-.01-.26-.03-.29-.07-.55-.25-.71-.51s-.21-.57-.14-.87l7.42-30.7c.15-.62,.7-1.07,1.33-1.1l2.65-.12-7.3,33.34h-3Zm9.04-32.28l-1.35,.06c-.19,0-.36,.15-.41,.34l-7.42,30.7c-.02,.07,.04,.16,.11,.18h2.22s6.84-31.28,6.84-31.28Z" fill="#002346"></path>
  </g>
  <g>
    <path d="M715.23,308.89l7.63-30.58c.09-.39,.43-.66,.83-.66h13.16c.48,0,.86,.4,.86,.88,0,.07-.01,.14-.03,.21l-8.18,30.58c-.11,.38-.45,.64-.84,.64h-12.59c-.47,0-.86-.38-.87-.85,0-.07,0-.15,.03-.22Z" fill="#E7CEF2"></path>
    <path d="M716.06,310.46c-.74,0-1.35-.6-1.36-1.35,0-.11,.01-.23,.04-.34h0s7.63-30.58,7.63-30.58c.14-.61,.68-1.04,1.31-1.04h13.16c.37,0,.71,.15,.97,.41,.25,.26,.39,.61,.39,.97,0,.11-.02,.22-.04,.33l-8.18,30.58c-.17,.59-.71,1.01-1.32,1.01h-12.6Zm-.35-1.45h0s-.01,.06-.01,.09c0,.2,.16,.36,.36,.36h12.59c.16,0,.31-.11,.36-.28l8.18-30.57c.01-.19-.02-.28-.09-.35-.07-.07-.16-.11-.26-.11h-13.16c-.17,0-.3,.11-.34,.27l-7.63,30.59Z" fill="#002346"></path>
  </g>
  <g>
    <path d="M751.45,301.84s-1.65,5.92-17.76,7.58c0,0-7.37,2.2-6.65-2.22,0,0-7.32-.15-4.48-4.18-.93,.09-1.87,0-2.76-.27-.74-.25-1.14-1.05-.89-1.78,.12-.36,.37-.65,.71-.82,.78-.33,1.62-.49,2.47-.44h7.43c.52,0,.94-.43,.93-.95,0-.02,0-.03,0-.05h0c-.04-.51-.49-.89-1-.86l-10.87,.39c-.93,.03-1.71-.69-1.74-1.62,0-.02,0-.04,0-.06h0c0-.91,.71-1.65,1.61-1.69l16.66-1.08c-.7-1.64-1.75-3.09-3.08-4.27,0,0-1.89-1.65-.47-3.31,0,0,.71-1.9,5.45,3.08,0,0,4.8,6.18,8.68,1.9-.02,0,5.51-.72,5.76,10.65Z" fill="#f2b3c1"></path>
    <path d="M730.14,310.47c-1.07,0-2.15-.2-2.85-.82-.55-.48-.81-1.15-.79-1.98-1.23-.09-4.06-.46-4.87-2.06-.31-.61-.29-1.3,.06-2.07-.68-.02-1.36-.12-2.03-.32-.5-.17-.89-.51-1.12-.96-.23-.46-.26-.97-.1-1.45,.16-.48,.51-.88,.96-1.1,.87-.38,1.8-.54,2.71-.49h7.4c.24,0,.44-.21,.44-.45-.02-.26-.24-.43-.48-.43l-10.89,.39c-1.21,.04-2.21-.9-2.25-2.09,0-1.25,.91-2.21,2.08-2.26l15.93-1.03c-.65-1.31-1.56-2.49-2.66-3.46-.77-.67-1.87-2.36-.56-3.95,.12-.22,.38-.47,.78-.55,1.17-.24,2.94,.93,5.44,3.56,.06,.07,2.49,3.16,5.12,3.25,1.01,.02,1.96-.4,2.8-1.3,.08-.12,.25-.21,.56-.22,.98-.03,5.87,.46,6.11,11.14v.07s-.02,.07-.02,.07c-.07,.25-1.93,6.26-18.18,7.94-.24,.08-1.92,.56-3.6,.56Zm-6.56-8.03l-.61,.87c-.54,.77-.69,1.39-.46,1.86,.61,1.2,3.56,1.52,4.54,1.54h.57s-.09,.57-.09,.57c-.12,.75,.01,1.28,.41,1.63,1.19,1.05,4.46,.38,5.62,.04,14.7-1.52,17.17-6.59,17.41-7.19-.14-5.64-1.61-8.09-2.82-9.15-.94-.83-1.86-.93-2.22-.94-1.02,1.05-2.17,1.55-3.47,1.51-3.09-.12-5.71-3.46-5.82-3.6-2.97-3.12-4.17-3.28-4.46-3.24-.12,.01-.15,.06-.16,.07l-.07,.11c-1.09,1.28,.36,2.57,.42,2.62,1.38,1.22,2.49,2.76,3.21,4.45l.27,.64-17.35,1.12c-.66,.03-1.16,.55-1.15,1.2,.02,.7,.56,1.19,1.23,1.19l10.87-.39c.75-.07,1.44,.54,1.51,1.31,0,.88-.63,1.53-1.42,1.53h-7.43c-.79-.05-1.57,.1-2.28,.4-.19,.1-.36,.29-.44,.52-.16,.48,.1,1,.58,1.16,.82,.24,1.69,.33,2.56,.25l1.06-.1Z" fill="#002346"></path>
  </g>
  <g>
    <path d="M128.95,532.43v10.24c2.82,1.84,4.63,4.89,4.87,8.25,0,0,3.66-2.85,11.77-3.62v-14.87h-16.64Z" fill="#f2b3c1"></path>
    <path d="M133.4,551.87l-.07-.91c-.23-3.19-1.97-6.13-4.65-7.87l-.22-.15v-11h17.62v15.81l-.45,.04c-7.84,.75-11.48,3.49-11.51,3.52l-.72,.56Zm-3.96-9.46c2.58,1.77,4.32,4.57,4.78,7.66,1.4-.84,4.9-2.58,10.88-3.21v-13.93h-15.66v9.49Z" fill="#002346"></path>
  </g>
  <g>
    <path d="M140.95,268.62c-4.06,10.29-10.95,19.22-19.87,25.76-2.39,1.74-4.65,3.66-6.76,5.74l-2.87,2.85c2.94,4.17,7.63,6.75,12.73,7,0,0,25.53-15,30.78-26.26l-14.01-15.09Z" fill="#f2b3c1"></path>
    <path d="M124.31,310.47h-.15c-5.29-.26-10.06-2.89-13.11-7.21l-.24-.34,3.16-3.14c2.12-2.09,4.41-4.03,6.82-5.79,8.86-6.49,15.67-15.32,19.7-25.54l.29-.73,14.77,15.9-.14,.3c-5.25,11.27-29.93,25.86-30.98,26.48l-.13,.07Zm-12.21-7.45c2.85,3.84,7.18,6.18,11.96,6.45,1.93-1.15,25.08-15.12,30.31-25.67l-13.25-14.28c-4.13,10.08-10.95,18.8-19.75,25.25-2.37,1.73-4.63,3.64-6.71,5.69l-2.57,2.55Z" fill="#002346"></path>
  </g>
  <g>
    <path d="M231.11,252.14l-2.08,24-4.16-.69,.83,51.92,.09,6.08c-42.28,12.24-69.78-.7-69.78-.7,.28-1.31,.62-3.87,1-7.18,1.67-15.34,3.86-46.89,3.86-46.89l-4.39,6.7-16.87-18.25c4.1-7.07,8.66-13.86,13.64-20.34,6.22-8.3,17-11.8,22-13,1.69-.42,2.72-.58,2.72-.58l16.45-2.36h4.19c35.33,2.28,32.5,21.29,32.5,21.29Z" fill="#E7CEF2"></path>
    <path d="M190.2,339.18c-21.34,0-34.21-5.89-34.4-5.97l-.36-.17,.08-.39c.25-1.18,.58-3.51,.99-7.13,1.41-12.98,3.22-37.88,3.72-44.95l-3.69,5.63-17.55-18.99,.19-.32c4.1-7.06,8.7-13.92,13.68-20.39,6.46-8.62,17.73-12.09,22.28-13.18,1.69-.42,2.72-.58,2.76-.59l16.46-2.36h4.26c14.34,.92,24.23,4.64,29.41,11.06,4.26,5.27,3.64,10.39,3.59,10.78l-2.13,24.53-4.1-.68,.92,57.78-.37,.11c-13.52,3.92-25.59,5.25-35.73,5.25Zm-33.62-6.72c3.35,1.42,29.87,11.75,68.71,.62l-.08-5.7-.84-52.52,4.22,.7,2.04-23.49s.67-5.03-3.4-10.05c-4.94-6.09-14.84-9.78-28.64-10.67h-4.16s-16.38,2.36-16.38,2.36c0,0-1.03,.16-2.67,.57-4.45,1.07-15.45,4.45-21.72,12.81-4.88,6.35-9.39,13.07-13.42,19.97l16.18,17.51,5.09-7.77-.13,1.91c-.02,.32-2.21,31.74-3.86,46.91-.38,3.34-.68,5.53-.93,6.83Z" fill="#002346"></path>
  </g>
  <g>
    <path d="M198.56,230.85c-3.67,11.52-11.59,10.89-11.59,10.89-6.65-.74-10.49-5.91-11.77-8,1.69-.42,2.72-.58,2.72-.58l16.45-2.36,4.19,.05Z" fill="#F4F4F4"></path>
    <path d="M187.13,242.25c-.12,0-.19,0-.2,0-6.89-.77-10.8-6.02-12.16-8.24l-.36-.58,.66-.17c1.69-.42,2.72-.58,2.76-.59l16.46-2.36,4.94,.05-.21,.64c-3.42,10.75-10.63,11.24-11.91,11.24Zm-11.12-8.18c1.55,2.31,5.13,6.52,11.03,7.18,.28,.02,7.27,.41,10.84-9.9l-3.5-.04-16.37,2.36s-.75,.12-1.99,.41Z" fill="#002346"></path>
  </g>
  <g>
    <path d="M112.44,289.81l12.6,41.3h34.87c.06,0,.11-.06,.09-.12l-11.72-39.85-35.78-1.4s-.06,.03-.05,.07Z" fill="#F4F4F4"></path>
    <path d="M159.91,331.61h-35.24l-12.78-41.9,.33-.46h.3s36.14,1.4,36.14,1.4l11.9,40.43-.17,.29c-.11,.15-.29,.24-.48,.24Zm-34.5-1h33.96l-11.47-38.98-34.8-1.36,12.31,40.34Z" fill="#002346"></path>
  </g>
  <g>
    <path d="M150.43,289.27l-2.15,1.71,11.71,39.81c.03,.09,.12,.14,.21,.11l2.43-.78-11.93-40.76c-.03-.12-.18-.16-.27-.09Z" fill="#fff"></path>
    <path d="M160.15,331.4c-.11,0-.22-.03-.31-.08-.16-.08-.28-.23-.33-.4l-11.81-40.13,2.42-1.92c.18-.14,.41-.18,.62-.11,.21,.07,.38,.24,.44,.45l12.07,41.22-2.89,.93c-.07,.02-.13,.03-.2,.03Zm-11.3-40.24l11.52,39.15,1.64-.53-11.66-39.82-1.5,1.19Z" fill="#002346"></path>
  </g>
  <g>
    <path d="M156.01,332.78l-40,63.78s-15.71,22.18-11.32,51.76c0,0,4.16,52.69,17.56,84.11h18.84l.11,4.86c.9,.74,1.86,1.41,2.86,2,4.33,2.63,13.14,6.48,23.25,2.61,1.03-.39,2.03-.85,3-1.37,0,0,23.54-108.65,40.14-165.74,.86-2.97,2.05-5.82,3.56-8.52,3.26-5.8,9.46-18.27,11.79-32.79,0,0-36.52,12.49-69.79-.7Zm-3.62,105.38l-5.62,36.74-8.32-42.06,21.72-30.5-7.78,35.82Z" fill="#F4F4F4"></path>
    <path d="M158.53,544.05c-6.39,0-11.65-2.46-14.73-4.33-1.02-.6-2-1.29-2.92-2.04l-.18-.15-.1-4.6h-18.68l-.13-.3c-13.28-31.13-17.56-83.74-17.6-84.27-4.37-29.4,11.25-51.87,11.41-52.09l40.21-64.11,.39,.15c32.35,12.83,67.93,1.2,69.43,.69l.17-.03h.59l-.09,.58c-2.32,14.46-8.42,26.86-11.85,32.96-1.49,2.66-2.67,5.49-3.51,8.41-16.41,56.42-39.9,164.62-40.13,165.71l-.05,.23-.2,.11c-.98,.52-2.01,.99-3.06,1.4-3.14,1.2-6.16,1.68-8.96,1.68Zm-16.83-7c.83,.66,1.71,1.27,2.62,1.81,4.27,2.59,12.9,6.37,22.82,2.57,.94-.36,1.86-.78,2.74-1.24,1.22-5.62,24.05-110.34,40.1-165.55,.87-3,2.08-5.9,3.6-8.62,3.33-5.93,9.21-17.86,11.6-31.82-5.61,1.74-38.62,11.03-68.96-.81l-39.78,63.43c-.17,.24-15.56,22.39-11.25,51.42,.05,.56,4.28,52.66,17.4,83.68h19l.12,5.12Zm5.14-59.25l-8.91-45.07,23.26-32.66-8.29,38.19-6.05,39.54Zm-7.85-44.84l7.72,39.05,5.19-33.95,7.26-33.44-20.18,28.34Z" fill="#002346"></path>
  </g>
  <g>
    <path d="M150.69,547.68c1.05,3.79,1.82,7.66,2.31,11.56l-2.31,16.4h-54.14l-6.4-7.16,15.3-11.09,18.14-9.5c1.12-.58,2.07-1.45,2.76-2.51,.73-1.05,1.12-2.3,1.14-3.58,3.62,1.66,6.06,5.15,6.38,9.12,5.02-3.1,11.01-4.26,16.82-3.24Z" fill="#E7CEF2"></path>
    <path d="M151.13,576.14h-54.8l-6.92-7.74,15.75-11.42,18.2-9.54c1.05-.54,1.94-1.35,2.57-2.34,.68-.99,1.04-2.13,1.06-3.32v-.77s.71,.32,.71,.32c3.54,1.62,6.01,4.93,6.58,8.75,4.99-2.87,10.81-3.9,16.5-2.91l.31,.05,.08,.31c1.05,3.8,1.83,7.71,2.32,11.63v.07s0,.07,0,.07l-2.37,16.83Zm-54.35-1h53.48l2.24-15.9c-.47-3.74-1.21-7.48-2.2-11.12-5.6-.9-11.33,.24-16.16,3.23l-.7,.43-.07-.82c-.28-3.54-2.34-6.69-5.44-8.38-.14,1.1-.54,2.16-1.17,3.08-.72,1.12-1.74,2.05-2.94,2.67l-18.14,9.5-14.79,10.73,5.88,6.58Z" fill="#002346"></path>
  </g>
  <g>
    <path d="M106.18,556.97s.84,6,10.55,3c0,0,16.38-7.84,35-8.08l-1-4.17s-6.7-2.31-16.87,3.24c-.31-3.98-2.75-7.47-6.38-9.12,0,.68-.11,1.36-.33,2-.61,1.78-1.89,3.26-3.56,4.12l-17.41,9.01Z" fill="#F4F4F4"></path>
    <path d="M111.88,561.31c-1.57,0-2.88-.34-3.93-1.01-1.96-1.25-2.25-3.18-2.26-3.26l-.05-.35,17.72-9.17c1.57-.81,2.75-2.17,3.32-3.84,.2-.59,.31-1.21,.3-1.84v-.78s.71,.32,.71,.32c3.57,1.62,6.04,4.94,6.59,8.79,9.88-5.15,16.34-3.02,16.62-2.92l.26,.09,1.21,5.05h-.62c-18.29,.24-34.63,7.96-34.79,8.04-1.91,.59-3.6,.89-5.07,.89Zm-5.12-4.07c.16,.52,.6,1.52,1.75,2.24,1.76,1.1,4.55,1.11,8.08,.02,.1-.05,16.26-7.69,34.52-8.09l-.79-3.28c-1.3-.33-7.47-1.49-16.21,3.28l-.68,.37-.06-.77c-.27-3.55-2.33-6.69-5.43-8.37-.05,.47-.16,.93-.31,1.38-.65,1.91-2.01,3.47-3.8,4.4l-17.06,8.83Z" fill="#002346"></path>
  </g>
  <g>
    <path d="M105.45,557.39s.7,3-8.55,7.39c0,0-3.69,2.31-3,4.16h19.78s8.64-.24,12.34,5.54h15.13s-.11-14.38,13.1-15c.49,0,.91,.34,1,.82l2.2,15.09c.1,.54-.26,1.06-.8,1.16-.06,.01-.13,.02-.2,.02H88.6c-1.64,0-3.09-1.05-3.6-2.6-.87-2.68-.67-6.9,6.77-10.11l13.68-6.47Z" fill="#F4F4F4"></path>
    <path d="M156.47,577.07H88.6c-1.85,0-3.49-1.18-4.07-2.94-.82-2.52-.99-7.26,7.05-10.73l14.23-6.73,.14,.6c.08,.35,.52,3.52-8.82,7.96-.75,.47-2.79,2.03-2.8,3.21h19.37c.35,0,8.73-.18,12.61,5.54h14.38c.14-2.61,1.46-14.43,13.56-15,0,0,.02,0,.03,0,.74,0,1.36,.51,1.49,1.23l2.2,15.11c.15,.8-.4,1.58-1.21,1.73-.09,.02-.18,.02-.27,.02Zm-51.7-18.81l-12.79,6.05c-6.96,3-7.38,6.82-6.51,9.5,.45,1.35,1.7,2.25,3.12,2.25h67.85l.2,.48-.09-.49c.27-.05,.45-.31,.4-.58l-2.2-15.11c-.04-.22-.26-.44-.5-.39-12.55,.59-12.61,13.93-12.61,14.5v.5s-15.9,0-15.9,0l-.15-.23c-3.51-5.48-11.81-5.31-11.91-5.31h-20.14l-.12-.33c-.81-2.17,2.79-4.5,3.2-4.76,5.94-2.82,7.65-5,8.13-6.09Z" fill="#002346"></path>
  </g>
  <g>
    <path d="M177.27,221.41l.69,12.47s3.24,5.09,8.55,4.39c0,0,6-.23,7.86-6l-.83-25.1h-3.79l-12.48,14.24Z" fill="#f2b3c1"></path>
    <path d="M185.46,238.83c-4.87,0-7.79-4.48-7.92-4.69l-.07-.11v-.13s-.71-12.67-.71-12.67l.13-.15,12.63-14.41h4.49l.85,25.66-.03,.08c-1.94,6.03-8.25,6.34-8.31,6.34-.36,.05-.72,.07-1.07,.07Zm-7.02-5.12c.48,.69,3.47,4.66,8,4.07,.27-.01,5.67-.3,7.43-5.58l-.81-24.54h-3.09l-12.2,13.92,.67,12.13Z" fill="#002346"></path>
  </g>
  <g>
    <rect x="166.13" y="187.61" width="28" height="37" rx="14" ry="14" fill="#f2b3c1"></rect>
    <path d="M180.13,225.1c-7.99,0-14.49-6.5-14.49-14.49v-9c0-7.99,6.5-14.49,14.49-14.49s14.49,6.5,14.49,14.49v9c0,7.99-6.5,14.49-14.49,14.49Zm0-37c-7.45,0-13.51,6.06-13.51,13.51v9c0,7.45,6.06,13.51,13.51,13.51s13.51-6.06,13.51-13.51v-9c0-7.45-6.06-13.51-13.51-13.51Z" fill="#002346"></path>
  </g>
  <g>
    <path d="M166.5,188.91s-4.48-.12-3.56,5c0,0,1.09,4.19,6.33,1.06,0,0,1.76,1.71,7.31,.09,0-.03-7.22-2.09-10.08-6.15Z" fill="#002346"></path>
    <path d="M165.86,196.63c-.49,0-.94-.09-1.36-.26-1.58-.65-2.02-2.27-2.04-2.34-.33-1.83-.06-3.25,.79-4.24,1.23-1.43,3.18-1.39,3.27-1.39h.25s.14,.21,.14,.21c2.27,3.22,7.51,5.2,9.67,5.91,.2,.07,.5,.17,.5,.53v.38l-.36,.1c-4.54,1.33-6.72,.48-7.48,.02-1.26,.71-2.4,1.07-3.39,1.07Zm-2.42-2.81s.34,1.19,1.45,1.63c1.03,.42,2.42,.11,4.13-.91l.33-.2,.28,.27s1.35,1.15,5.22,.37c-2.77-1.04-6.55-2.86-8.58-5.56-.47,.04-1.56,.22-2.26,1.04-.64,.75-.83,1.88-.56,3.37h0Z" fill="#002346"></path>
  </g>
  <g>
    <path d="M190.45,195.5l.46,10.16,2.71,3.67,.19,5.86s6.12-.05,5.88-6.52c-.24-6.47,0-5.9,0-5.9,0,0,5.08-1,.8-7.27,0,0-2-3-4.06-3h-2.89l-3.09,3Z" fill="#002346"></path>
    <path d="M193.33,215.7l-.2-6.19-2.71-3.67-.48-10.54,3.4-3.3h3.09c2.3,0,4.39,3.09,4.48,3.22,1.65,2.41,2.17,4.4,1.55,5.92-.54,1.31-1.76,1.85-2.35,2.03-.03,.47-.05,1.79,.08,5.48,.08,2.11-.48,3.81-1.66,5.04-1.87,1.96-4.6,2-4.72,2h-.49Zm-1.92-10.21l2.71,3.67,.18,5.49c.79-.1,2.38-.46,3.52-1.66,.98-1.03,1.44-2.48,1.37-4.3-.23-6.29-.12-6.31,.38-6.42l.27-.06c.43-.15,1.33-.55,1.7-1.46,.47-1.17-.03-2.89-1.45-4.97-.52-.78-2.18-2.78-3.65-2.78h-2.69l-2.78,2.7,.44,9.78Z" fill="#002346"></path>
  </g>
  <g>
    <ellipse cx="192.41" cy="205.84" rx="2.89" ry="3.75" fill="#f2b3c1"></ellipse>
    <path d="M192.41,210.08c-1.87,0-3.38-1.9-3.38-4.24s1.52-4.24,3.38-4.24,3.38,1.9,3.38,4.24-1.52,4.24-3.38,4.24Zm0-7.5c-1.32,0-2.4,1.46-2.4,3.26s1.08,3.26,2.4,3.26,2.4-1.46,2.4-3.26-1.08-3.26-2.4-3.26Z" fill="#002346"></path>
  </g>
  <g>
    <path d="M114.38,305.78c2.66,2.5,6.11,3.99,9.76,4.21,16.29,1,14.77,3.15,14.77,3.15,0,1.85-12.71,2.08-12.71,2.08,17.33,2.08,14.75,4.84,14.75,4.84-.57,1-7.41,1-12.88,.84-.28,.01-.5,.25-.49,.53,0,.22,.16,.41,.37,.47,5.11,1.08,11,2.61,9.4,3.69-2.3,1.54-8.36,.47-10.16,.11-.08-.02-.11,.1-.04,.14,2.73,1.44,3.97,2.56,4.5,3.38,.47,.74,0,1.75-.88,1.83-10.8,1.08-26.75-10.08-26.75-10.08-5.78-4.61,0-13,0-13,0,0,3.43-6.38,7.43-5l2.93,2.81Z" fill="#f2b3c1"></path>
    <path d="M129.23,331.62c-10.73,0-24.87-9.81-25.49-10.25-6.09-4.86-.18-13.59-.12-13.68,.12-.23,3.65-6.69,8-5.19l.18,.11,2.93,2.81c2.57,2.42,5.93,3.87,9.45,4.08,9.36,.58,14.47,1.62,15.18,3.09,.13,.26,.11,.51,.04,.69-.25,1.29-3.98,1.91-7.86,2.2,6.08,1.02,9.43,2.28,9.96,3.75,.2,.56-.03,.96-.14,1.11-.28,.48-1.09,1.42-13.3,1.06,9.73,2.08,9.94,3.15,10.04,3.66,.04,.21,.03,.61-.47,.95-1.79,1.2-5.48,.97-8.22,.58,1.29,.84,2.19,1.64,2.66,2.38,.32,.49,.35,1.11,.09,1.64-.26,.53-.76,.89-1.34,.94-.52,.05-1.05,.08-1.59,.08Zm-18.93-28.35c-3.15,0-5.82,4.88-5.85,4.94-.08,.13-5.48,8.11-.13,12.38,.13,.09,15.91,11.02,26.39,9.98,.24-.02,.44-.17,.55-.39,.11-.23,.1-.48-.03-.68-.41-.64-1.49-1.72-4.31-3.21-.25-.14-.37-.43-.27-.7l.14-.4,.49,.04c3.62,.73,8.09,1.11,9.79-.03,0,0,0,0,0,0-.28-.29-1.71-1.21-9.23-2.8-.45-.13-.74-.5-.76-.93-.01-.27,.08-.52,.27-.72s.43-.31,.7-.32c11.06,.32,12.34-.45,12.48-.61,.05-.08,.08-.14,.03-.26-.23-.52-1.96-2.33-14.42-3.83l.05-.98c6.27-.11,11.87-.85,12.23-1.62v-.15c-.24-.31-2-1.72-14.31-2.48-3.75-.22-7.33-1.77-10.07-4.34h0s-2.85-2.74-2.85-2.74c-.3-.09-.6-.13-.89-.13Z" fill="#002346"></path>
  </g>
  <g>
    <path d="M167.33,541.89v6.26c-8.09-2.08-16.87,3.23-16.87,3.23-.23-6.24-6.38-9.12-6.38-9.12v-3c4.37,2.65,13.14,6.5,23.25,2.63Z" fill="#f2b3c1"></path>
    <path d="M150,552.24l-.03-.83c-.22-5.87-6.04-8.67-6.1-8.69l-.28-.13v-4.19l.75,.45c4.28,2.59,12.93,6.38,22.82,2.59l.67-.26v7.61l-.61-.16c-7.8-2.01-16.41,3.12-16.49,3.17l-.72,.43Zm-5.43-10.28c1.2,.64,5.72,3.37,6.32,8.61,2.19-1.18,9.16-4.49,15.95-3.04v-4.94c-9.46,3.33-17.73,.11-22.27-2.47v1.84Z" fill="#002346"></path>
  </g>
  <g>
    <path d="M167.33,548.15c1.05,3.79,1.82,7.65,2.31,11.55l-2.31,16.41h-54.14l-6.4-7.14,15.25-11.09,18.14-9.5c1.12-.58,2.07-1.44,2.76-2.5,.72-1.06,1.12-2.31,1.14-3.59,3.62,1.66,6.06,5.15,6.38,9.12,5.03-3.13,11.04-4.29,16.87-3.26Z" fill="#E7CEF2"></path>
    <path d="M167.77,576.61h-54.8l-6.92-7.72,15.7-11.42,18.2-9.54c1.04-.54,1.93-1.35,2.57-2.33,.68-.99,1.04-2.14,1.06-3.33v-.76s.71,.32,.71,.32c3.54,1.62,6.01,4.93,6.58,8.75,5-2.89,10.84-3.93,16.55-2.92l.31,.05,.08,.3c1.05,3.8,1.83,7.71,2.32,11.62v.07s0,.07,0,.07l-2.37,16.84Zm-54.35-1h53.48l2.24-15.91c-.47-3.73-1.21-7.47-2.2-11.11-5.62-.91-11.37,.24-16.21,3.25l-.7,.43-.07-.82c-.28-3.54-2.34-6.69-5.44-8.38-.14,1.11-.54,2.16-1.17,3.09-.73,1.12-1.75,2.04-2.94,2.66l-18.14,9.5-14.74,10.72,5.88,6.56Z" fill="#002346"></path>
  </g>
  <g>
    <path d="M122.04,557.85s.69,3-8.55,7.4c0,0-3.7,2.31-3,4.16h19.77s8.65-.25,12.35,5.53h15.13s-.11-14.37,13.1-15c.49,0,.91,.34,1,.82l2.24,15.08c.1,.54-.26,1.06-.8,1.16-.06,.01-.13,.02-.2,.02H105.24c-1.64,.01-3.09-1.04-3.6-2.6-.87-2.68-.67-6.9,6.77-10.11l13.63-6.46Z" fill="#F4F4F4"></path>
    <path d="M173.11,577.52H105.21c-1.85,0-3.47-1.18-4.05-2.95-.82-2.52-.99-7.26,7.05-10.72l14.18-6.72,.14,.61c.08,.35,.51,3.52-8.82,7.96-.75,.47-2.8,2.03-2.8,3.21h19.36c.34,0,8.74-.19,12.62,5.53h14.38c.14-2.6,1.46-14.42,13.56-15,0,0,.02,0,.03,0,.74,0,1.35,.51,1.49,1.23l2.24,15.1c.15,.8-.39,1.58-1.21,1.73-.09,.02-.18,.02-.26,.02Zm-.02-1l.2,.48-.09-.49c.27-.05,.45-.31,.4-.58l-2.24-15.1c-.04-.22-.25-.39-.49-.39h0c-12.55,.6-12.61,13.93-12.61,14.5v.5s-15.9,0-15.9,0l-.15-.23c-3.5-5.47-11.83-5.3-11.92-5.3h-20.13l-.12-.32c-.82-2.17,2.79-4.5,3.2-4.76,5.92-2.82,7.64-5,8.13-6.1l-12.73,6.03c-6.96,3-7.38,6.82-6.51,9.5,.44,1.35,1.68,2.25,3.1,2.25h67.87Z" fill="#002346"></path>
  </g>
  <g>
    <path d="M122.82,557.44s.84,6,10.54,2.95c0,0,16.39-7.83,35-8.07l-1-4.17s-6.7-2.31-16.87,3.23c-.31-3.98-2.75-7.47-6.38-9.12,0,.68-.11,1.36-.34,2-.61,1.78-1.88,3.26-3.55,4.13l-17.4,9.05Z" fill="#F4F4F4"></path>
    <path d="M128.47,561.76c-1.54,0-2.84-.33-3.88-.99-1.96-1.24-2.25-3.17-2.26-3.26l-.05-.35,17.71-9.21c1.57-.81,2.74-2.18,3.31-3.85,.21-.6,.32-1.21,.31-1.84v-.78s.71,.32,.71,.32c3.56,1.62,6.04,4.94,6.59,8.79,9.88-5.14,16.34-3.01,16.62-2.91l.26,.09,1.21,5.04h-.62c-18.28,.24-34.63,7.95-34.79,8.03-1.93,.61-3.64,.91-5.11,.91Zm-5.07-4.05c.16,.51,.6,1.51,1.74,2.23,1.76,1.1,4.54,1.09,8.07-.02,.1-.05,16.27-7.68,34.52-8.08l-.79-3.28c-1.3-.33-7.47-1.5-16.21,3.27l-.68,.37-.06-.77c-.27-3.55-2.33-6.69-5.43-8.37-.06,.47-.17,.93-.32,1.38-.65,1.91-2,3.48-3.79,4.41l-17.05,8.87Z" fill="#002346"></path>
  </g>
  <g>
    <path d="M545.1,549.63c-2.46,15.73-9.86,26.55-19.61,33.93-21.59,16.35-54.72,15.82-71.11,14.33-4.44-.37-8.83-1.17-13.12-2.39-12-3.52-26-.19-26-.19-39.82,7.28-59.5,0-59.5,0-34.56-11-45.16-36.19-47.9-55.65h0c-1.25-8.55-1.17-17.25,.23-25.78,7.29-67.52,43.29-79.87,43.29-79.87l59-16.88,51.64,27.54c35.43,15.52,56.82,38,56.82,38,38.66,21.83,26.26,66.96,26.26,66.96Z" fill="#fff"></path>
    <path d="M469.63,599.09c-5.75,0-10.98-.31-15.29-.7-4.46-.38-8.9-1.18-13.21-2.41-11.73-3.44-25.61-.22-25.75-.19-39.52,7.23-59.59,.06-59.79-.02-34.89-11.11-45.48-36.61-48.22-56.05-1.25-8.61-1.18-17.34,.23-25.93,3.78-34.98,15.4-54.93,24.49-65.5,9.89-11.5,18.75-14.63,19.13-14.76l59.22-16.94,.18,.09,51.64,27.54c34.24,15,55.68,36.79,56.89,38.04,38.07,21.55,26.8,66.09,26.44,67.46-2.27,14.49-8.93,26-19.8,34.22-16.17,12.24-38.61,15.13-56.17,15.13Zm-40.84-5.69c4.01,0,8.44,.4,12.61,1.62,4.24,1.2,8.63,2,13.02,2.37,17.34,1.58,49.57,1.82,70.77-14.23,10.66-8.07,17.19-19.38,19.42-33.61v-.06c.13-.45,11.86-45.01-26.01-66.39l-.12-.09c-.21-.22-21.74-22.59-56.66-37.89l-51.5-27.46-58.81,16.82c-.33,.12-35.76,13.07-42.93,79.44-1.4,8.52-1.47,17.14-.23,25.65,2.7,19.16,13.14,44.29,47.56,55.25,.22,.08,20.06,7.15,59.26-.02,.08-.02,6.11-1.42,13.62-1.42Z" fill="#002346"></path>
  </g>
  <g>
    <path d="M388.85,404.07l-23,8.47s-9.93,3.31-13.24,17.21l-9.28,31.25c-1.83,6.16,2.06,12.57,8.37,13.77,8.39,1.58,19.16,2.89,24.73,.67l.67,23.17,45.68,6s4.49-1,5.88-13.38l.74-23,3.31,6.62s21.84-4.64,33.76-24.5l-21.19-26.48s-9.84-12.65-19.84-15.96l-8.81-2.5-27.79-1.33Z" fill="#F4F4F4"></path>
    <path d="M422.81,505.11h-.09s-46.1-6.07-46.1-6.07l-.66-22.9c-5.88,1.94-16.41,.62-24.35-.88-3.14-.59-5.9-2.5-7.56-5.23-1.67-2.74-2.11-6.08-1.2-9.17l9.28-31.25c3.33-13.98,13.14-17.4,13.56-17.54l23.08-8.5,28,1.35,8.81,2.5c10.05,3.33,19.69,15.61,20.1,16.13l21.4,26.75-.18,.3c-11.89,19.82-33.86,24.69-34.08,24.73l-.38,.08-2.6-5.2-.68,21.03c-1.42,12.63-6.07,13.81-6.27,13.85l-.09,.02Zm-45.21-6.95l45.15,5.93c.53-.2,4.2-1.99,5.43-12.93l.8-24.93,4.02,8.03c2.91-.73,22.03-6.1,32.88-23.88l-20.97-26.21c-.1-.13-9.87-12.58-19.61-15.8l-8.73-2.48-27.63-1.32-22.9,8.43c-.11,.04-9.73,3.41-12.93,16.86l-9.29,31.27c-.83,2.81-.44,5.86,1.09,8.36,1.52,2.49,4.03,4.23,6.9,4.77,8.12,1.53,18.95,2.89,24.46,.69l.67-.27,.68,23.46Z" fill="#002346"></path>
  </g>
  <g>
    <path d="M465.31,452.18l27.69,28.55-31.49,9.4-18.73-19s12.06-4.46,22.53-18.95Z" fill="#f2b3c1"></path>
    <path d="M461.37,490.69l-19.47-19.75,.71-.26c.12-.04,12.05-4.59,22.3-18.78l.34-.48,28.66,29.55-32.55,9.72Zm-17.73-19.38l18.01,18.27,30.43-9.08-26.72-27.55c-8.93,12.13-19.03,17.17-21.72,18.36Z" fill="#002346"></path>
  </g>
  <g>
    <path d="M366.99,502.12s-18.31,38.19-4.41,50.77l68.19-4,35.75-26.12,6.62-15.59-39.79-3.21-2.58-2.7s-37.52,5.7-63.78,.85Z" fill="#E7CEF2"></path>
    <path d="M362.4,553.4l-.16-.14c-14.02-12.68,3.54-49.78,4.29-51.36l.17-.35,.38,.07c25.88,4.78,63.24-.8,63.61-.85l.26-.04,2.63,2.75,40.29,3.25-6.95,16.35-.11,.08-35.87,26.21h-.15s-68.4,4.02-68.4,4.02Zm4.88-50.72c-1.76,3.82-17.01,38-4.52,49.7l67.83-3.98,35.52-25.95,6.29-14.83-39.29-3.17-2.53-2.65c-3.36,.49-38.42,5.36-63.31,.88Z" fill="#002346"></path>
  </g>
  <g>
    <path d="M399.11,347.49s-8.92-7.06-20.84,4.2c0,0-5.64,4.42-6.65,17.91,0,0-4.63,41.49-19.82,26.71-.87-.85-2.34-.07-2.13,1.12,.94,5.39,3.71,14.56,11.7,17.77,0,0,.64-1,5.79-3.14l21.69-8,4.64-1.32,2.65-13.9s-1.8-1.07-2.22-2.23c0,0-10.39-2.31-9.38-14.32,.21-2.97,1.11-5.86,2.62-8.43l1.69-6.32,10.26-10.06Z" fill="#002346"></path>
    <path d="M361.55,415.8l-.36-.12c-8.26-3.32-11.07-12.8-12-18.15-.13-.76,.23-1.49,.92-1.86,.69-.37,1.5-.25,2.05,.29,2.7,2.63,5.21,3.56,7.46,2.75,8.5-3.05,11.49-28.91,11.52-29.17,1.01-13.54,6.6-18.06,6.84-18.25,12.06-11.4,21.37-4.27,21.46-4.2l.44,.35-10.57,10.36-1.71,6.31c-1.46,2.49-2.35,5.33-2.55,8.21-.96,11.45,8.89,13.77,8.99,13.8l.27,.06,.09,.26c.29,.81,1.55,1.7,2.01,1.97l.3,.18-2.77,14.55-4.94,1.4-21.65,7.99c-4.75,1.97-5.53,2.92-5.56,2.96l-.23,.3Zm-10.61-19.34c-.14,0-.27,.04-.37,.09-.24,.13-.47,.4-.4,.8,.89,5.08,3.51,14.02,11.09,17.27,.54-.48,1.98-1.46,5.72-3.01l21.71-8.01,4.38-1.25,2.53-13.26c-.53-.35-1.57-1.13-2.03-2.05-1.63-.47-10.46-3.55-9.52-14.78,.22-3,1.13-5.97,2.65-8.58l1.71-6.39,9.93-9.73c-1.96-1.24-9.66-5-19.72,4.5-.09,.07-5.51,4.51-6.49,17.58-.12,1.11-3.09,26.76-12.18,30.01-2.64,.94-5.49-.06-8.49-2.98-.16-.16-.34-.22-.51-.22Z" fill="#002346"></path>
  </g>
  <g>
    <path d="M410.05,535.73s28.78,21.26,54.96,33.3c1.59,.73,3.48,.08,4.26-1.49l15.77-31.8-57.78-29.13s-27.14-15.89-37.74-8.61c0,0-31.2,22.81-32.15,44.18,0,0-.29,10.11,14.28,17.39,1.51,.57,3.08,.97,4.68,1.19,7.05,.99,14.12-1.73,18.68-7.2l15.04-17.82Z" fill="#E7CEF2"></path>
    <path d="M466.39,569.84c-.53,0-1.07-.11-1.58-.35-24.31-11.18-51.18-30.53-54.67-33.08l-14.74,17.46c-4.7,5.64-11.86,8.39-19.13,7.37-1.63-.23-3.24-.64-4.79-1.22-14.73-7.36-14.62-17.45-14.6-17.87,.95-21.37,31.07-43.63,32.35-44.57,10.75-7.39,37.17,7.93,38.29,8.58l58.2,29.34-15.99,32.25c-.65,1.32-1.96,2.08-3.33,2.08Zm-56.42-34.78l.38,.28c.29,.21,29.04,21.37,54.87,33.25,1.36,.63,2.94,.07,3.6-1.26l15.55-31.36-57.34-28.91c-.3-.17-27.02-15.66-37.23-8.64-.3,.22-31,22.91-31.93,43.79,0,.09-.07,9.89,14,16.92,1.43,.53,2.97,.93,4.53,1.14,6.93,.98,13.74-1.65,18.23-7.03l15.34-18.18Z" fill="#002346"></path>
  </g>
  <g>
    <path d="M485.04,538.56c3.14-1.3,6.41-2.25,9.75-2.83,0,0,10.59-3.31,10.59,7.94s-9.7,13.23-31,13.57l8.53-17.21,2.13-1.47Z" fill="#f2b3c1"></path>
    <path d="M473.58,557.75l8.95-18.05,2.33-1.59c3.17-1.31,6.48-2.27,9.85-2.86,.14-.05,4.88-1.49,8.18,.94,1.98,1.46,2.99,3.98,2.99,7.49,0,11.6-9.71,13.71-31.48,14.06h-.81Zm9.71-17.37l-8.11,16.37c20.54-.37,29.71-2.43,29.71-13.06,0-3.18-.87-5.43-2.58-6.69-2.9-2.13-7.32-.79-7.37-.78-3.35,.59-6.58,1.52-9.66,2.79l-1.98,1.37Z" fill="#002346"></path>
  </g>
  <g>
    <polygon points="441.78 456.24 434.74 509.06 510.45 509.06 516.63 456.11 441.78 456.24" fill="#fff"></polygon>
    <path d="M510.9,509.56h-76.73l7.17-53.82,75.85-.14-.06,.56-6.23,53.4Zm-75.58-1h74.69l6.07-51.95-73.85,.13-6.91,51.82Z" fill="#002346"></path>
  </g>
  <g>
    <polygon points="441.78 456.24 438.51 456.29 433.22 505.94 426.08 505.94 428.96 507.5 434.74 509.06 441.78 456.24" fill="#fff"></polygon>
    <path d="M435.16,509.69l-6.44-1.75-4.61-2.5h8.66l5.29-49.64,4.29-.07-7.19,53.96Zm-6.01-2.66l5.17,1.4,6.89-51.68-2.25,.03-5.29,49.66h-5.62l1.09,.59Z" fill="#002346"></path>
  </g>
  <g>
    <path d="M525.45,583.56c-16.3,28-75.18,21.82-75.18,21.82-14.7,.15-67,4.79-67,4.79-82.49,6.86-75.52-69.5-75.42-70.51,2.74,19.46,13.34,44.64,47.9,55.65,0,0,19.68,7.28,59.5,0,0,0,14-3.33,26,.19,4.29,1.22,8.68,2.02,13.12,2.39,16.4,1.49,49.53,2.02,71.08-14.33Z" fill="#e6e7e8"></path>
    <path d="M373.13,611.11c-20.7,0-36.88-5.79-48.18-17.27-20.61-20.93-17.62-53.89-17.59-54.22l.41-4.16,.58,4.14c2.7,19.15,13.14,44.28,47.56,55.24,.22,.08,20.06,7.15,59.26-.02,.12-.03,14.24-3.31,26.23,.2,4.24,1.2,8.63,2,13.02,2.37,17.34,1.57,49.58,1.82,70.74-14.23l1.99-1.51-1.26,2.16c-16.27,27.96-75.07,22.13-75.66,22.07-14.46,.15-66.38,4.74-66.9,4.79-3.51,.29-6.91,.44-10.19,.44Zm-64.94-66.56c.01,9.88,1.88,32.74,17.47,48.58,12.88,13.08,32.25,18.64,57.58,16.54,.52-.05,52.49-4.64,67.04-4.79,.62,.06,55.62,5.51,73.33-19.36-21.4,14.68-52.36,14.41-69.27,12.87-4.46-.37-8.9-1.18-13.21-2.41-11.73-3.44-25.61-.22-25.75-.19-39.52,7.23-59.59,.06-59.79-.02-32.07-10.22-43.61-32.59-47.4-51.23Z" fill="#002346"></path>
  </g>
  <g>
    <path d="M388.85,404.07l-5.71,2.19s10,10.25,23.43,8.95c0,0,10-1.45,15.33-8.32l-5.24-1.49-27.81-1.33Z" fill="#E7CEF2"></path>
    <path d="M404.25,415.82c-12.33,0-21.37-9.11-21.47-9.21l-.53-.54,6.52-2.5h.1s27.92,1.35,27.92,1.35l5.95,1.69-.45,.58c-5.39,6.95-15.24,8.45-15.65,8.51-.81,.08-1.61,.12-2.39,.12Zm-20.19-9.38c2.28,2.06,11.2,9.35,22.46,8.27,.07-.01,9.27-1.42,14.51-7.55l-4.45-1.27-27.65-1.32-4.87,1.87Z" fill="#002346"></path>
  </g>
  <g>
    <path d="M399.11,357.78c-8.94-.53-12,6.09-12,6.09,0,0-3.61-4.71,1.69-10.43,0,0,9.79-11.81,17.15-2.15-2.21,.92-4.12,2.44-5.51,4.39l-1.33,2.1Z" fill="#E7CEF2"></path>
    <path d="M387.22,364.83l-.5-.65s-3.8-5.11,1.72-11.07c.19-.23,5.13-6.11,10.79-6.11,.06,0,.11,0,.17,0,2.64,.05,4.98,1.4,6.96,3.99l.39,.52-.6,.25c-2.13,.88-3.96,2.34-5.29,4.22l-1.47,2.33-.29-.02c-8.48-.48-11.4,5.54-11.52,5.8l-.35,.75Zm12.01-16.84c-5.19,0-9.99,5.71-10.04,5.77-3.83,4.13-2.78,7.68-2.08,9.12,1.16-1.77,4.65-5.9,11.73-5.62l1.17-1.85c1.33-1.87,3.09-3.35,5.14-4.32-1.69-2.02-3.63-3.06-5.78-3.1-.05,0-.1,0-.15,0Z" fill="#002346"></path>
  </g>
  <g>
    <path d="M412.17,357.48c-8.84,0-16,7.16-16,16v10c0,1.28,.17,2.52,.45,3.71l-3.17,15.57-4.64,1.32c.43,.51,.89,.99,1.38,1.43,5.06,4.57,12.07,6.29,18.67,4.6,5.84-1.51,7.76-4.7,7.76-4.7l-2.65-1.4,.09-4.64c7.94-.94,14.11-7.68,14.11-15.88v-10c0-8.84-7.16-16-16-16Z" fill="#f2b3c1"></path>
    <path d="M403.79,411.24c-5.09,0-10.05-1.87-13.93-5.37-.51-.46-.99-.96-1.43-1.48l-.49-.58,5.08-1.45,3.09-15.17c-.29-1.26-.44-2.5-.44-3.71v-10c0-9.09,7.4-16.49,16.49-16.49s16.49,7.4,16.49,16.49v10c0,8.21-6.04,15.15-14.12,16.31l-.07,3.92,2.84,1.5-.27,.45c-.08,.14-2.09,3.38-8.06,4.92-1.72,.44-3.47,.66-5.2,.66Zm-14.09-6.91c.26,.28,.54,.55,.82,.81,4.95,4.47,11.76,6.15,18.22,4.49,4.3-1.11,6.4-3.17,7.14-4.06l-2.41-1.27,.1-5.38,.43-.05c7.8-.92,13.68-7.53,13.68-15.39v-10c0-8.55-6.96-15.51-15.51-15.51s-15.51,6.96-15.51,15.51v10c0,1.17,.15,2.38,.44,3.59l.03,.11-.02,.11-3.23,15.86-4.17,1.19Z" fill="#002346"></path>
  </g>
  <g>
    <path d="M424.61,542.97s-4,3.31-2,7.28c0,0,2.63,19.83,13.23,21.17l-11.23-28.45Z" fill="#E7CEF2"></path>
    <path d="M436.62,572.02l-.84-.11c-10.61-1.34-13.43-19.92-13.65-21.52-2.07-4.24,2.12-7.78,2.17-7.81l.53-.44,11.79,29.88Zm-12.2-28.18c-.95,1-2.75,3.42-1.36,6.18l.05,.16c.02,.19,2.55,18.36,11.94,20.58l-10.63-26.92Z" fill="#002346"></path>
  </g>
  <g>
    <path d="M425.89,546.26s-10.55,3.37-35,3.37c0,0-12.58-.66-5.3,13.91,0,0,1.33,5.95,16.55,4,0,0,15.38-2.59,28.54-9.24l-4.79-12.04Z" fill="#f2b3c1"></path>
    <path d="M396.51,568.42c-9.68,0-11.21-4.1-11.38-4.71-2.54-5.09-2.97-8.97-1.3-11.52,2.14-3.27,6.89-3.06,7.09-3.05,24.04,0,34.72-3.31,34.83-3.35l.44-.14,5.13,12.88-.4,.2c-13.08,6.61-28.53,9.26-28.68,9.29-2.16,.28-4.06,.4-5.71,.4Zm-5.83-18.3c-.89,0-4.43,.16-6.04,2.62-1.47,2.25-1,5.81,1.38,10.59l.04,.11s1.52,5.47,16.01,3.62c.13-.02,15.13-2.6,27.98-8.99l-4.46-11.21c-2.25,.62-13.18,3.27-34.71,3.27,0,0-.08,0-.21,0Z" fill="#002346"></path>
  </g>
  <g>
    <path d="M435.25,486.91l-1.47,13.84-.43,3.2-2.58-2.7c-12.58,3.31-44.36,2.65-44.36,2.65-17.87-.66-26.48-3.23-26.48-3.23-11.25-1.9-8.15-25.9-8.15-25.9,17.66,4,24.7,.66,24.7,.66l.22,7.55,48.86,7.15c2.55-2.54,6.13-3.73,9.69-3.22Z" fill="#f2b3c1"></path>
    <path d="M433.7,505.03l-3.09-3.23c-12.69,3.21-43.9,2.6-44.21,2.59-17.74-.65-26.52-3.22-26.61-3.25-11.52-1.94-8.63-25.43-8.5-26.43l.07-.54,.53,.12c17.23,3.9,24.31,.73,24.38,.69l.68-.32,.23,7.88,48.21,7.06c2.63-2.51,6.32-3.71,9.93-3.18l.47,.07-1.52,14.31-.57,4.23Zm-81.49-29.66c-.36,3.52-1.94,23.17,7.8,24.82,.14,.04,8.83,2.57,26.42,3.22,.31,0,31.85,.62,44.22-2.63l.28-.07,2.07,2.17,.29-2.19,1.42-13.34c-3.24-.32-6.49,.84-8.8,3.14l-.17,.17-.24-.04-49.27-7.21-.21-7.27c-2.13,.72-9.36,2.42-23.8-.77Z" fill="#002346"></path>
  </g>
  <g>
    <path d="M515.63,465.11s2.71-2.44,5.17-1.35c.92,.41,1.22,1.58,.67,2.43-.62,.95-1.78,2.34-3.97,3.94l-2,1.4s4.63,2.58,2,7.21c1.54,1.63,1.81,4.08,.66,6-.09,2.06-1.39,3.88-3.31,4.63,0,0,.66,4-3.31,4.64,0,0-7.28,2-7.28-1.33,0,0,.37-1.57,1.8-2.51,0,0-1.14-2.78,2.17-2.78,0,0-5.3-.67-.66-4.64,0,0-5.06-.59-1.99-2.9,.64-.48,1.38-.82,2.15-1.06l6.46-2,1.44-11.68Z" fill="#f2b3c1"></path>
    <path d="M507.44,495.1c-1.09,0-2.16-.17-2.85-.7-.54-.41-.82-1-.82-1.72v-.11c.03-.07,.39-1.55,1.72-2.59-.12-.49-.23-1.35,.24-2.06,.17-.25,.38-.45,.65-.61-.5-.28-.96-.68-1.13-1.27-.26-.87,.15-1.85,1.27-2.98-.92-.22-2.13-.67-2.37-1.55-.18-.66,.21-1.35,1.14-2.05,.64-.48,1.41-.86,2.3-1.13l6.16-1.91,1.43-11.55,.14-.12c.12-.11,2.98-2.64,5.7-1.43,.55,.25,.97,.72,1.15,1.32,.18,.62,.09,1.28-.26,1.83-.6,.93-1.8,2.39-4.1,4.07l-1.42,1c.71,.54,1.82,1.6,2.25,3.15,.36,1.28,.18,2.62-.53,4,1.44,1.74,1.67,4.23,.55,6.21-.14,2.08-1.4,3.92-3.27,4.79,.04,.65,0,2.01-.82,3.14-.65,.9-1.64,1.46-2.94,1.67-.3,.08-2.28,.61-4.18,.61Zm-2.69-2.36c.01,.38,.15,.66,.43,.87,1.29,.98,4.93,.28,6.23-.08,3.48-.56,2.98-3.94,2.95-4.09l-.06-.39,.37-.15c1.74-.68,2.92-2.33,3-4.19v-.12s.07-.11,.07-.11c1.03-1.73,.79-3.95-.6-5.41l-.25-.26,.18-.32c.71-1.25,.91-2.44,.6-3.55-.5-1.8-2.19-2.85-2.4-2.97l-.64,5.19-6.76,2.1c-.78,.24-1.45,.57-2,.98-.65,.49-.83,.84-.78,1.01,.12,.44,1.41,.87,2.54,1.01l1.12,.13-.85,.73c-1.28,1.09-1.88,2.03-1.7,2.63,.22,.74,1.63,1.08,2.1,1.15l-.06,.98c-.86,0-1.42,.2-1.68,.58-.39,.59-.03,1.51-.03,1.52l.15,.38-.34,.22c-1.11,.73-1.5,1.9-1.58,2.16Zm11.34-27.38l-.7,5.64,1.82-1.27c2.17-1.59,3.29-2.95,3.84-3.81,.19-.3,.25-.67,.14-1.01-.1-.32-.31-.57-.6-.7-1.85-.82-3.96,.71-4.51,1.15Z" fill="#002346"></path>
  </g>
  <g>
    <path d="M495.45,531.1c-6.28,5.18-45.13,33.72-55.65,41.45-1.35,.99-3.26,.47-3.93-1.07h0s-11.26-28.51-11.26-28.51l43.28-33.85c4.87-4.47,10.32-8.26,16.21-11.26,18.41-8.89,26.35,2.3,26.35,2.3,13,15.4-15,30.94-15,30.94Z" fill="#E7CEF2"></path>
    <path d="M438.27,573.56c-.27,0-.55-.04-.82-.11-.92-.25-1.66-.89-2.04-1.77l-11.4-28.87,.29-.23,43.28-33.85c4.87-4.48,10.36-8.3,16.29-11.31,18.59-8.98,26.9,2.34,26.99,2.46,2.92,3.46,4.05,7.26,3.32,11.25-2.02,11.02-17.34,19.78-18.44,20.4-6.36,5.23-44.18,33.03-55.64,41.44-.54,.4-1.18,.6-1.83,.6Zm-13.05-30.42l11.12,28.16c.25,.58,.75,1.01,1.38,1.18,.62,.17,1.27,.05,1.79-.33,11.47-8.42,49.39-36.29,55.63-41.43l.08-.05c.16-.09,16.02-9.01,17.99-19.73,.67-3.68-.38-7.2-3.12-10.45-.34-.47-7.97-10.76-25.75-2.17-5.84,2.97-11.25,6.73-16.09,11.18l-43.02,33.65Z" fill="#002346"></path>
  </g>
  <g>
    <polygon points="139.6 267.16 142.66 262.01 160.04 279.97 156.47 285.41 139.6 267.16" fill="#F4F4F4"></polygon>
    <path d="M156.54,286.22l-17.56-18.99,3.58-6.03,18.11,18.72-4.14,6.31Zm-16.32-19.12l16.18,17.51,3-4.57-16.65-17.2-2.54,4.27Z" fill="#002346"></path>
  </g>
  <g>
    <path d="M224.87,275.48l-2.77,18c-3.24,20.34-11.56,20.34-11.56,20.34-10.12,.7-18.94-3.64-25.68-8.78h0c-5.41-4.18-10.15-9.16-14.05-14.78-9-3-16.94-14.1-16.94-14.1l1.86,3.79c.13,.25,.19,.54,.19,.82,0,1.03-.85,1.86-1.89,1.85-.63,0-1.21-.33-1.55-.85l-3.11-4.76c-2.95-4,1.1-4.35,1.1-4.35-.69-3.46,2.5-3.23,2.5-3.23-1.65-4.85,8.82-2.54,8.82-2.54l-9.93-8.32c-3.93-2.31-2-3.8-2-3.8,8.14-1.73,28.37,23.44,28.37,23.44,5.32,3.24,21.95,11.32,21.95,11.32l4.27-18.44,20.42,4.39Z" fill="#f2b3c1"></path>
    <path d="M208.35,314.39c-7.98,0-15.98-3.01-23.78-8.96-5.42-4.18-10.15-9.14-14.06-14.76-5.85-2.01-11.17-7.25-14.26-10.78,.11,.28,.17,.58,.17,.88,0,.63-.26,1.22-.71,1.67-.45,.44-1,.71-1.68,.68-.8,0-1.53-.41-1.96-1.08l-3.11-4.76c-1.07-1.45-1.4-2.68-.97-3.63,.4-.88,1.33-1.24,1.93-1.39-.11-1,.09-1.81,.61-2.39,.54-.61,1.29-.82,1.83-.9-.13-.77,.03-1.43,.49-1.94,1.35-1.51,4.97-1.27,7.22-.94l-8.52-7.14c-1.67-.97-2.58-2.01-2.65-3.04-.05-.76,.39-1.31,.66-1.52l.2-.09c8.21-1.72,27.39,21.8,28.8,23.55,4.76,2.88,18.36,9.56,21.28,10.98l4.24-18.31,21.35,4.59-2.84,18.46c-3.27,20.52-11.69,20.76-12.05,20.76-.73,.05-1.46,.08-2.2,.08Zm-54.07-38.51c.08,.11,7.95,11,16.69,13.92l.16,.05,.09,.13c3.88,5.59,8.57,10.52,13.95,14.67,8.32,6.35,16.85,9.26,25.34,8.68,.11,0,7.99-.35,11.11-19.93l2.7-17.54-19.49-4.19-4.3,18.57-.55-.27c-.17-.08-16.71-8.13-21.99-11.34l-.13-.11c-.2-.25-19.88-24.65-27.75-23.29-.09,.1-.24,.32-.21,.63,.03,.38,.36,1.19,2.23,2.29l11.54,9.66-1.96-.43c-1.82-.4-6.82-1.12-8.11,.31-.33,.37-.37,.89-.14,1.59l.24,.7-.74-.05s-1.1-.06-1.68,.6c-.38,.44-.48,1.12-.3,2.04l.11,.54-.54,.05c-.36,.03-1.34,.26-1.63,.91-.27,.59,.04,1.51,.89,2.66l3.13,4.78c.25,.39,.68,.63,1.15,.63,0,0,0,0,.01,0,.75,0,1.37-.61,1.38-1.37,0-.21-.05-.41-.14-.6l-1.86-3.79,.84-.5Z" fill="#002346"></path>
  </g>
  <g>
    <polygon points="202.22 270.62 203.15 262.77 229.68 268.63 229.03 276.17 202.22 270.62" fill="#F4F4F4"></polygon>
    <path d="M229.48,276.78l-27.81-5.76,1.05-8.85,27.5,6.07-.74,8.54Zm-26.71-6.55l25.81,5.34,.56-6.54-25.56-5.65-.81,6.85Z" fill="#002346"></path>
  </g>
  <path d="M161.55,274.21c-.08,0-.15-.02-.22-.05l-8.58-4.28c-.25-.12-.35-.42-.22-.67,.12-.25,.42-.35,.67-.22l8.58,4.28c.25,.12,.35,.42,.22,.67-.09,.17-.26,.28-.45,.28Z" fill="#002346"></path>
  <path d="M160.17,402.84s-.07,0-.1,0c-.27-.05-.45-.32-.39-.59l9.47-46.66c.06-.27,.32-.45,.59-.39,.27,.05,.45,.32,.39,.59l-9.47,46.66c-.05,.24-.26,.4-.49,.4Z" fill="#002346"></path>
  <path d="M141.09,532.93s-.03,0-.05,0c-.28-.03-.48-.27-.45-.55l5.68-57.53c.03-.28,.28-.46,.55-.45,.28,.03,.48,.27,.45,.55l-5.68,57.53c-.03,.26-.24,.45-.5,.45Z" fill="#002346"></path>
  <g>
    <path d="M112.48,289.51l2.15-2.4,35.69,1.98c.11,0,.15,.14,.07,.21l-2.11,1.67-35.77-1.4s-.05-.04-.03-.07Z" fill="#F4F4F4"></path>
    <path d="M148.45,291.48h-.19s-36.09-1.42-36.09-1.42l-.28-.61,.22-.27,2.31-2.58h.24s35.69,2,35.69,2c.26,.01,.48,.18,.55,.43,.08,.25,0,.51-.21,.67l-2.25,1.79Zm-34.94-2.37l34.61,1.35,1.17-.93-34.45-1.91-1.34,1.49Z" fill="#002346"></path>
  </g>
  <path d="M507.57,483.25c-.26,0-.48-.2-.5-.46-.02-.28,.18-.52,.46-.54,.04,0,4.12-.35,9.15-3.17,.24-.13,.55-.05,.68,.19s.05,.55-.19,.68c-5.24,2.93-9.39,3.28-9.57,3.29-.01,0-.03,0-.04,0Z" fill="#002346"></path>
  <path d="M507.57,487.94c-.26,0-.48-.2-.5-.47-.02-.28,.19-.51,.47-.53,.05,0,4.97-.35,7.82-2.25,.23-.15,.54-.09,.69,.14,.15,.23,.09,.54-.14,.69-3.08,2.05-8.09,2.4-8.31,2.42-.01,0-.02,0-.03,0Z" fill="#002346"></path>
  <path d="M509.67,491.1c-1.97,0-3.63-.42-3.74-.44-.27-.07-.43-.34-.36-.61,.07-.27,.35-.43,.61-.36,.04,0,3.74,.93,6.42-.03,.26-.09,.55,.04,.64,.3,.09,.26-.04,.55-.3,.64-1.04,.37-2.2,.5-3.27,.5Z" fill="#002346"></path>
  <path d="M709.96,219.76c-1.67,0-4.92-.51-7.21-4.11-.15-.23-.08-.54,.15-.69,.23-.15,.54-.08,.69,.15,2.82,4.44,7.2,3.6,7.24,3.59,.26-.06,.54,.12,.59,.39,.05,.27-.12,.54-.39,.59-.01,0-.43,.08-1.08,.08Z" fill="#002346"></path>
  <path d="M376.48,475.93c-.28,0-.5-.22-.5-.5v-32.32c0-.28,.22-.5,.5-.5s.5,.22,.5,.5v32.32c0,.28-.22,.5-.5,.5Z" fill="#002346"></path>
  <path d="M429.41,468.72c-.28,0-.5-.22-.5-.5v-8.88c0-.1,.03-.2,.08-.28,.08-.12,7.92-12.07,.02-22.47-.17-.22-.12-.53,.1-.7,.22-.17,.53-.12,.7,.1,7.88,10.37,.96,22.12,.1,23.5v8.74c0,.28-.22,.5-.5,.5Z" fill="#002346"></path>
  <path d="M731.19,303.52h-8.63c-.28,0-.5-.22-.5-.5s.22-.5,.5-.5h8.63c.28,0,.5,.22,.5,.5s-.22,.5-.5,.5Z" fill="#002346"></path>
  <path d="M734.15,307.7h-7.1c-.28,0-.5-.22-.5-.5s.22-.5,.5-.5h7.1c.28,0,.5,.22,.5,.5s-.22,.5-.5,.5Z" fill="#002346"></path>
  <g>
    <path d="M371.95,119.93c-5.79,0-10.5-4.71-10.5-10.5s4.71-10.5,10.5-10.5,10.5,4.71,10.5,10.5-4.71,10.5-10.5,10.5Zm0-20c-5.24,0-9.5,4.26-9.5,9.5s4.26,9.5,9.5,9.5,9.5-4.26,9.5-9.5-4.26-9.5-9.5-9.5Z" fill="#002346"></path>
    <path d="M387.64,121c-.11,0-.22-.04-.31-.11l-6.96-5.49c-.22-.17-.25-.49-.08-.7,.17-.22,.49-.25,.7-.08l6.96,5.49c.22,.17,.25,.49,.08,.7-.1,.12-.25,.19-.39,.19Z" fill="#002346"></path>
  </g>
  <g>
    <path d="M393.92,386.62s-11.69-2.41-9-17c0,0,2-12.49,14.23-11.87,0,0,5.63-11.3,17.55-6,0,0,3.31,.66,7.28,5.3l6,4s8.13,4.78,6.11,13.13c-.63,2.62-2.21,4.91-4.3,6.59-1.01,.81-2.28,1.78-3.62,2.7v-10s0-8-6.77-11.11c0,0-2,10.6-18.53,14.57l-6.62,11.92c-.94-.55-1.74-1.32-2.33-2.24Z" fill="#002346"></path>
    <path d="M396.44,389.55l-.44-.26c-.95-.55-1.77-1.32-2.39-2.23-1.6-.43-11.73-3.73-9.18-17.53,.02-.12,2.2-12.67,14.43-12.29,1.02-1.77,6.91-10.86,18-5.96,.49,.12,3.68,1.01,7.46,5.4l5.94,3.96c.06,.04,8.4,5.06,6.32,13.67-.63,2.61-2.22,5.05-4.47,6.87-1.26,1.01-2.49,1.93-3.66,2.72l-.78,.53v-10.94c0-.07-.08-7.28-5.94-10.39-.71,2.38-4.18,10.76-18.53,14.28l-6.76,12.17Zm1.83-31.32c-10.88,0-12.78,10.99-12.86,11.47-2.57,13.93,8.15,16.34,8.61,16.43l.21,.04,.11,.18c.45,.71,1.04,1.32,1.73,1.8l6.47-11.65,.21-.05c15.99-3.84,18.14-14.08,18.16-14.18l.12-.62,.58,.26c6.98,3.2,7.06,11.48,7.06,11.56v9.04c.91-.64,1.85-1.36,2.81-2.13,2.08-1.68,3.55-3.93,4.13-6.32,1.9-7.88-5.56-12.4-5.88-12.58l-6.13-4.11c-3.79-4.43-6.97-5.13-7-5.13l-.1-.03c-11.33-5.04-16.68,5.32-16.9,5.77l-.15,.29-.33-.02c-.29-.01-.57-.02-.85-.02Z" fill="#002346"></path>
  </g>
  <g>
    <ellipse cx="397.75" cy="382.89" rx="4.92" ry="6.62" fill="#f2b3c1"></ellipse>
    <path d="M397.75,389.95c-2.96,0-5.36-3.17-5.36-7.06s2.4-7.06,5.36-7.06,5.36,3.17,5.36,7.06-2.4,7.06-5.36,7.06Zm0-13.24c-2.48,0-4.49,2.77-4.49,6.18s2.01,6.18,4.49,6.18,4.49-2.77,4.49-6.18-2.01-6.18-4.49-6.18Z" fill="#002346"></path>
  </g>
  <ellipse cx="421.17" cy="369.48" rx="9.5" ry="6.5" fill="#002346"></ellipse>
  <path d="M412.65,399.98c-2.28,0-6.69-.81-10.39-6.3-.15-.23-.09-.54,.14-.69,.23-.15,.54-.09,.69,.14,4.73,7.02,10.61,5.8,10.86,5.75,.26-.06,.54,.11,.6,.38,.06,.27-.11,.54-.38,.6-.08,.02-.64,.14-1.52,.14Z" fill="#002346"></path>
  <g>
    <ellipse cx="181.21" cy="194.86" rx="5" ry="12.07" transform="translate(-21.3 367.48) rotate(-87.52)" fill="#002346"></ellipse>
    <path d="M182.27,200.45c-.43,0-.86,0-1.3-.03-7.08-.31-12.51-2.99-12.38-6.11,.07-1.58,1.51-2.96,4.05-3.88,2.39-.87,5.52-1.27,8.81-1.13,7.08,.31,12.51,2.99,12.38,6.11h0c-.13,2.92-5.1,5.04-11.56,5.04Zm-2.13-10.05c-2.68,0-5.17,.38-7.12,1.09-2.06,.75-3.27,1.8-3.31,2.87-.09,2.14,4.43,4.63,11.3,4.93,6.87,.31,11.59-1.79,11.69-3.93h0c.09-2.14-4.43-4.63-11.3-4.93-.42-.02-.84-.03-1.25-.03Z" fill="#002346"></path>
  </g>
  <g>
    <path d="M168.45,183.86s6.39-9.34,13.3-11.34c1.7-.5,3.53-.29,5.08,.56,2.76,1.52,7.11,5.5,8.49,15.58l-11.23,4.49-14.36-4.24-1.28-5.05Z" fill="#E7CEF2"></path>
    <path d="M184.12,193.68l-14.8-4.37-1.4-5.54,.13-.19c.27-.39,6.57-9.51,13.57-11.54,1.81-.53,3.8-.31,5.46,.6,2.65,1.46,7.31,5.47,8.74,15.95l.05,.39-11.75,4.7Zm-13.97-5.17l13.92,4.11,10.71-4.28c-1.43-9.76-5.73-13.47-8.18-14.82-1.43-.79-3.14-.98-4.7-.52-6.13,1.77-11.97,9.66-12.9,10.96l1.15,4.55Z" fill="#002346"></path>
  </g>
  <g>
    <path d="M194.37,194.32c2.49-1.12,2.56-2.93,2.13-4.26-.42-1.24-1.73-1.94-3-1.6-13.22,3.23-21.38-2-24.19-4.23-.73-.58-1.79-.47-2.38,.26-.02,.03-.04,.06-.06,.09-.82,1.19-1.11,2.68-.79,4.09,.16,.81,.62,1.52,1.29,2,3.26,2.3,14.52,9.3,27,3.65Z" fill="#E7CEF2"></path>
    <path d="M184.46,196.98c-7.91,0-14.39-3.8-17.38-5.9-.78-.56-1.3-1.38-1.49-2.31-.35-1.53-.03-3.17,.87-4.47,.03-.04,.06-.08,.09-.12,.36-.45,.88-.74,1.46-.8,.59-.07,1.15,.1,1.61,.47,2.88,2.29,10.97,7.26,23.76,4.14,1.51-.41,3.09,.43,3.59,1.92,.68,2.11-.19,3.88-2.4,4.88-3.51,1.59-6.93,2.21-10.12,2.21Zm-16.2-12.62s-.09,0-.13,0c-.32,.04-.6,.19-.8,.44-.78,1.13-1.04,2.48-.76,3.75,.14,.69,.53,1.3,1.09,1.7,4.05,2.85,14.74,8.93,26.5,3.6h0c1.76-.79,2.39-2.02,1.86-3.65-.33-.98-1.39-1.54-2.39-1.27-13.24,3.24-21.64-1.94-24.63-4.32-.21-.17-.47-.26-.74-.26Z" fill="#002346"></path>
  </g>
  <path d="M171.09,186s-.08,0-.11-.01c-.27-.06-.44-.33-.37-.6,.97-4.14,4.04-9.06,4.17-9.27,.15-.23,.46-.3,.69-.16,.23,.15,.3,.46,.16,.69-.03,.05-3.12,4.99-4.04,8.97-.05,.23-.26,.39-.49,.39Z" fill="#002346"></path>
  <path d="M176.58,188.56s-.05,0-.08,0c-.27-.04-.46-.3-.42-.57,1.45-9.54,5.08-15.48,5.24-15.73,.15-.23,.45-.31,.69-.16,.23,.15,.31,.45,.16,.69-.04,.06-3.69,6.03-5.1,15.35-.04,.25-.25,.42-.49,.42Z" fill="#002346"></path>
  <path d="M187.05,189.94s-.03,0-.04,0c-.28-.02-.48-.26-.46-.54,.89-11.81-2.28-16.73-2.31-16.78-.15-.23-.09-.54,.14-.69,.23-.16,.54-.09,.69,.14,.14,.21,3.4,5.21,2.48,17.41-.02,.26-.24,.46-.5,.46Z" fill="#002346"></path>
  <path d="M191.41,189.41s-.05,0-.08,0c-.27-.04-.46-.3-.41-.57,1.23-7.43-1.8-13.42-1.83-13.48-.13-.25-.03-.55,.21-.67,.25-.13,.55-.03,.67,.21,.13,.25,3.22,6.33,1.93,14.1-.04,.25-.25,.42-.49,.42Z" fill="#002346"></path>
</svg>
