<?xml version="1.0" encoding="UTF-8"?>
<svg xmlns="http://www.w3.org/2000/svg" id="a" width="865.76" height="682.89" viewBox="0 0 865.76 682.89">
  <g>
    <rect x="164.41" y="104.14" width="513.08" height="323.94" rx="10.75" ry="10.75" fill="#fff"></rect>
    <path d="M666.74,428.58H175.16c-6.2,0-11.25-5.05-11.25-11.25V114.89c0-6.2,5.05-11.25,11.25-11.25h491.58c6.2,0,11.25,5.05,11.25,11.25V417.33c0,6.2-5.05,11.25-11.25,11.25ZM175.16,104.64c-5.65,0-10.25,4.6-10.25,10.25V417.33c0,5.65,4.6,10.25,10.25,10.25h491.58c5.65,0,10.25-4.6,10.25-10.25V114.89c0-5.65-4.6-10.25-10.25-10.25H175.16Z" fill="#002346"></path>
  </g>
  <g>
    <rect x="178.88" y="122.36" width="245.1" height="243.47" fill="#e6e7e8"></rect>
    <path d="M423.98,366.33H178.88c-.28,0-.5-.22-.5-.5V122.36c0-.28,.22-.5,.5-.5h245.1c.28,0,.5,.22,.5,.5v243.47c0,.28-.22,.5-.5,.5Zm-244.6-1h244.1V122.86H179.38v242.47Z" fill="#0d2445"></path>
  </g>
  <g>
    <polygon points="423.98 305.88 423.98 365.83 178.88 365.83 178.88 244.11 229.37 199.91 304.34 273.03 344.18 244.1 423.98 305.88" fill="#fff"></polygon>
    <path d="M424.48,366.33H178.38v-122.45l.17-.15,50.84-44.5,75,73.15,39.8-28.9,80.29,62.16v60.7Zm-245.1-1h244.1v-59.21l-79.31-61.4-39.88,28.96-.3-.29-74.64-72.8-49.97,43.75v120.99Z" fill="#002346"></path>
  </g>
  <polygon points="417.34 312.23 165.72 362.22 127.84 171.53 115.74 110.6 367.36 60.61 389.04 169.78 417.34 312.23" fill="#fafafa"></polygon>
  <g>
    <path d="M286.82,338.05l71.1-14.12c-2.7-11.8-6.23-23.39-10.57-34.69-1.39-3.44-2.7-6.34-3.91-8.79-4.07-8.29-6.92-11.29-6.92-11.29l-14.93,.48-37.37,1.19c-.12,9.07,.32,18.13,1.3,27.15,.08,.76,.14,1.48,.21,2.18l1,17.2,.09,20.69Z" fill="#fff"></path>
    <path d="M286.32,338.65l-.09-21.3-1.08-18.04c-.04-.42-.08-.85-.12-1.29-.98-9-1.42-18.15-1.3-27.21v-.48s53.01-1.69,53.01-1.69l.15,.16c.12,.12,2.95,3.15,7.01,11.41,1.31,2.66,2.63,5.63,3.92,8.82,4.34,11.29,7.9,22.98,10.59,34.77l.11,.5-.5,.1-71.69,14.24Zm-1.61-67.34c-.1,8.86,.34,17.81,1.3,26.61,.05,.45,.09,.88,.13,1.3l.08,.88,1,17.22,.09,20.11,70-13.9c-2.67-11.57-6.18-23.04-10.43-34.12-1.28-3.16-2.59-6.11-3.89-8.75-3.47-7.07-6.06-10.28-6.69-11l-51.59,1.65Z" fill="#002346"></path>
  </g>
  <g>
    <path d="M218.33,351.76l68.83-13.71-1.73-6.4-3.52-16.9c-1.21-6.9-2.95-16.34-4.9-23.63-.47-1.8-.95-3.48-1.45-5l-1.47,.36-2.55,.6-6.62,1.64-11.26,2.71-11.17,2.73-2.57,.6-15.23,3.66c-.1,.13-.18,.27-.23,.43-1.22,2.66-7.01,16.44-6.13,52.91Z" fill="#2F2E41"></path>
    <path d="M217.85,352.36v-.59c-.86-34.96,4.5-49.51,6.16-53.13,.05-.16,.15-.35,.29-.53l.11-.14,51.49-12.45,.14,.44c.47,1.44,.95,3.08,1.46,5.03,1.97,7.37,3.75,17.04,4.91,23.67l3.52,16.88,1.86,6.89-69.94,13.93Zm7.15-53.51s-.04,.09-.06,.14c-1.65,3.61-6.88,17.83-6.12,52.15l67.72-13.49-1.59-5.88-3.53-16.93c-1.16-6.63-2.93-16.26-4.89-23.6-.45-1.73-.88-3.22-1.3-4.53l-35.19,8.53-15.04,3.61Z" fill="#002346"></path>
  </g>
  <g>
    <path d="M362.25,68.25l20.55,103.42,26.93,135.44-238.84,47.46-36.16-181.81-11.33-57.05,238.85-47.46m5.11-7.64L115.73,110.61l12.1,60.93,37.93,190.69,251.64-50-28.33-142.48-21.71-109.14Z" fill="#2F2E41"></path>
    <path d="M165.37,362.82l-.1-.49-37.93-190.69-12.2-61.42,.49-.1,252.12-50.1,.1,.49,21.71,109.14,28.43,142.97-.49,.1-252.13,50.1ZM116.32,111l12,60.44,37.83,190.2,250.66-49.8-28.23-141.99-21.61-108.65L116.32,111Zm54.18,244.16l-.1-.49-36.16-181.81-11.43-57.54,.49-.1,239.34-47.55,20.65,103.91,27.02,135.93-.49,.1-239.33,47.55ZM123.99,116.1l11.23,56.56,36.06,181.32,237.86-47.26-26.83-134.95-20.45-102.93L123.99,116.1Z" fill="#002346"></path>
  </g>
  <g>
    <g>
      <circle cx="198.39" cy="147.15" r="12.21" fill="#002346"></circle>
      <path d="M185.91,149.39c-1.23-6.88,3.36-13.48,10.24-14.71s13.48,3.36,14.71,10.24-3.36,13.48-10.24,14.71c-6.88,1.23-13.48-3.36-14.71-10.24Zm.92-.17c1.14,6.37,7.25,10.62,13.62,9.48s10.62-7.25,9.48-13.62-7.25-10.62-13.62-9.48-10.62,7.25-9.48,13.62Z" fill="#0d2445"></path>
    </g>
    <g>
      <circle cx="206.76" cy="153.24" r="9.39" fill="#2F2E41"></circle>
      <path d="M197.06,154.98c-.96-5.35,2.61-10.48,7.96-11.44,5.35-.96,10.49,2.61,11.44,7.96s-2.61,10.48-7.96,11.44c-5.35,.96-10.49-2.61-11.44-7.96Zm.92-.17c.87,4.84,5.51,8.07,10.35,7.21s8.07-5.51,7.21-10.35c-.87-4.84-5.51-8.07-10.35-7.21s-8.07,5.51-7.21,10.35Z" fill="#002346"></path>
    </g>
  </g>
  <g>
    <g>
      <circle cx="715.56" cy="167.07" r="12.21" fill="#002346"></circle>
      <path d="M715.56,179.75c-6.99,0-12.68-5.69-12.68-12.68s5.69-12.68,12.68-12.68,12.68,5.69,12.68,12.68-5.69,12.68-12.68,12.68Zm0-24.41c-6.47,0-11.74,5.27-11.74,11.74s5.27,11.74,11.74,11.74,11.74-5.27,11.74-11.74-5.27-11.74-11.74-11.74Z" fill="#0d2445"></path>
    </g>
    <g>
      <circle cx="708.39" cy="174.54" r="9.39" fill="#2F2E41"></circle>
      <path d="M708.39,184.4c-5.44,0-9.86-4.42-9.86-9.86s4.42-9.86,9.86-9.86,9.86,4.42,9.86,9.86-4.42,9.86-9.86,9.86Zm0-18.78c-4.92,0-8.92,4-8.92,8.92s4,8.92,8.92,8.92,8.92-4,8.92-8.92-4-8.92-8.92-8.92Z" fill="#002346"></path>
    </g>
  </g>
  <g>
    <path d="M368.66,386.47c-5.37-4.82-11.68,1.71-11.68,1.71,0,0-6.29-6.53-11.68-1.71-7.68,6.87,3.48,19.18,11.68,21.65,8.14-2.45,19.3-14.78,11.68-21.65Z" fill="#e6e7e8"></path>
    <path d="M356.98,408.62s-.1,0-.14-.02c-5.66-1.7-12.95-8.07-14.37-14.47-.7-3.16,.16-5.94,2.5-8.03,4.92-4.4,10.55,.08,12.01,1.4,1.46-1.32,7.1-5.8,12.01-1.4t0,0c2.32,2.09,3.17,4.87,2.46,8.03-1.44,6.42-8.71,12.77-14.34,14.47-.05,.01-.1,.02-.14,.02Zm-7.23-23.43c-1.35,0-2.76,.44-4.11,1.65-2.08,1.86-2.82,4.24-2.2,7.07,1.3,5.84,8.18,12,13.54,13.68,5.33-1.68,12.19-7.83,13.5-13.68,.63-2.83-.09-5.21-2.16-7.07-4.94-4.44-10.74,1.43-10.99,1.69-.09,.1-.22,.15-.36,.15h0c-.14,0-.27-.06-.36-.15-.18-.18-3.28-3.34-6.87-3.34Z" fill="#0d2445"></path>
  </g>
  <g>
    <polygon points="420.95 409.03 411.96 402.5 402.98 409.03 402.98 383.8 420.95 383.8 420.95 409.03" fill="#e6e7e8"></polygon>
    <path d="M420.95,409.53c-.1,0-.21-.03-.29-.1l-8.7-6.32-8.69,6.32c-.15,.11-.35,.13-.52,.04-.17-.08-.27-.26-.27-.45v-25.23c0-.28,.22-.5,.5-.5h17.97c.28,0,.5,.22,.5,.5v25.23c0,.19-.11,.36-.27,.45-.07,.04-.15,.05-.23,.05Zm-8.99-7.53c.1,0,.21,.03,.29,.1l8.2,5.95v-23.75h-16.97v23.75l8.19-5.95c.09-.06,.19-.1,.29-.1Z" fill="#0d2445"></path>
  </g>
  <g>
    <rect x="527.09" y="123.1" width="102.32" height="11.44" rx="5.72" ry="5.72" fill="#e6e7e8"></rect>
    <path d="M623.69,135.04h-90.88c-3.43,0-6.22-2.79-6.22-6.22s2.79-6.22,6.22-6.22h90.88c3.43,0,6.22,2.79,6.22,6.22s-2.79,6.22-6.22,6.22Zm-90.88-11.44c-2.88,0-5.22,2.34-5.22,5.22s2.34,5.22,5.22,5.22h90.88c2.88,0,5.22-2.34,5.22-5.22s-2.34-5.22-5.22-5.22h-90.88Z" fill="#0d2445"></path>
  </g>
  <g>
    <path d="M532.1,145.1h79.61c2.77,0,5.01,2.56,5.01,5.72h0c0,3.16-2.24,5.72-5.01,5.72h-79.61c-2.77,0-5.01-2.56-5.01-5.72h0c0-3.16,2.24-5.72,5.01-5.72Z" fill="#e6e7e8"></path>
    <path d="M611.72,157.04h-79.61c-3.04,0-5.51-2.79-5.51-6.22s2.47-6.22,5.51-6.22h79.61c3.04,0,5.51,2.79,5.51,6.22s-2.47,6.22-5.51,6.22Zm-79.61-11.44c-2.49,0-4.51,2.34-4.51,5.22s2.02,5.22,4.51,5.22h79.61c2.49,0,4.51-2.34,4.51-5.22s-2.02-5.22-4.51-5.22h-79.61Z" fill="#0d2445"></path>
  </g>
  <g>
    <rect x="453.04" y="194.19" width="102.32" height="11.44" rx="5.72" ry="5.72" fill="#e6e7e8"></rect>
    <path d="M549.64,206.13h-90.88c-3.43,0-6.22-2.79-6.22-6.22s2.79-6.22,6.22-6.22h90.88c3.43,0,6.22,2.79,6.22,6.22s-2.79,6.22-6.22,6.22Zm-90.88-11.44c-2.88,0-5.22,2.34-5.22,5.22s2.34,5.22,5.22,5.22h90.88c2.88,0,5.22-2.34,5.22-5.22s-2.34-5.22-5.22-5.22h-90.88Z" fill="#0d2445"></path>
  </g>
  <g>
    <rect x="453.04" y="216.97" width="192.67" height="11.44" rx="5.72" ry="5.72" fill="#e6e7e8"></rect>
    <path d="M639.99,228.91h-181.23c-3.43,0-6.22-2.79-6.22-6.22s2.79-6.22,6.22-6.22h181.23c3.43,0,6.22,2.79,6.22,6.22s-2.79,6.22-6.22,6.22Zm-181.23-11.44c-2.88,0-5.22,2.34-5.22,5.22s2.34,5.22,5.22,5.22h181.23c2.88,0,5.22-2.34,5.22-5.22s-2.34-5.22-5.22-5.22h-181.23Z" fill="#0d2445"></path>
  </g>
  <g>
    <rect x="453.04" y="239.76" width="183.89" height="11.44" rx="5.72" ry="5.72" fill="#e6e7e8"></rect>
    <path d="M631.21,251.7h-172.45c-3.43,0-6.22-2.79-6.22-6.22s2.79-6.22,6.22-6.22h172.45c3.43,0,6.22,2.79,6.22,6.22s-2.79,6.22-6.22,6.22Zm-172.45-11.44c-2.88,0-5.22,2.34-5.22,5.22s2.34,5.22,5.22,5.22h172.45c2.88,0,5.22-2.34,5.22-5.22s-2.34-5.22-5.22-5.22h-172.45Z" fill="#0d2445"></path>
  </g>
  <g>
    <rect x="453.04" y="262.55" width="192.67" height="11.44" rx="5.72" ry="5.72" fill="#e6e7e8"></rect>
    <path d="M639.99,274.49h-181.23c-3.43,0-6.22-2.79-6.22-6.22s2.79-6.22,6.22-6.22h181.23c3.43,0,6.22,2.79,6.22,6.22s-2.79,6.22-6.22,6.22Zm-181.23-11.44c-2.88,0-5.22,2.34-5.22,5.22s2.34,5.22,5.22,5.22h181.23c2.88,0,5.22-2.34,5.22-5.22s-2.34-5.22-5.22-5.22h-181.23Z" fill="#0d2445"></path>
  </g>
  <g>
    <rect x="453.04" y="285.34" width="141.52" height="11.44" rx="5.72" ry="5.72" fill="#e6e7e8"></rect>
    <path d="M588.84,297.28h-130.08c-3.43,0-6.22-2.79-6.22-6.22s2.79-6.22,6.22-6.22h130.08c3.43,0,6.22,2.79,6.22,6.22s-2.79,6.22-6.22,6.22Zm-130.08-11.44c-2.88,0-5.22,2.34-5.22,5.22s2.34,5.22,5.22,5.22h130.08c2.88,0,5.22-2.34,5.22-5.22s-2.34-5.22-5.22-5.22h-130.08Z" fill="#0d2445"></path>
  </g>
  <g>
    <path d="M606.43,340.7c0,2.2-1.78,3.98-3.98,3.98-2.2,0-3.98-1.78-3.98-3.98s1.78-3.98,3.98-3.98h0c2.18,0,3.95,1.77,3.95,3.95h0l.03,.03Z" fill="#e6e7e8"></path>
    <path d="M602.44,345.18c-2.47,0-4.48-2.01-4.48-4.48s2.01-4.48,4.48-4.48,4.39,1.93,4.45,4.33c.02,.05,.03,.11,.03,.16,0,2.47-2.01,4.48-4.48,4.48Zm0-7.97c-1.92,0-3.48,1.56-3.48,3.48s1.56,3.48,3.48,3.48,3.41-1.49,3.48-3.35c-.02-.05-.03-.11-.03-.16,0-1.9-1.55-3.45-3.45-3.45Z" fill="#0d2445"></path>
  </g>
  <g>
    <path d="M626.08,340.7c-.02,2.18-1.8,3.94-3.98,3.92s-3.94-1.8-3.92-3.98c.02-2.17,1.78-3.92,3.95-3.92,2.18,0,3.95,1.77,3.95,3.95,0,.01,0,.02,0,.03Z" fill="#e6e7e8"></path>
    <path d="M622.12,345.12h-.03c-2.46-.02-4.44-2.03-4.42-4.49,.02-2.44,2.02-4.42,4.45-4.42s4.45,2,4.45,4.45v.03c0,1.19-.48,2.3-1.33,3.14-.84,.83-1.95,1.28-3.12,1.28Zm0-7.91c-1.89,0-3.44,1.54-3.45,3.43-.01,1.9,1.52,3.47,3.43,3.48h.03c1.89,0,3.44-1.53,3.45-3.42v-.03c0-1.9-1.55-3.45-3.45-3.45Zm3.95,3.48h0Z" fill="#0d2445"></path>
  </g>
  <g>
    <path d="M645.73,340.7c0,2.2-1.78,3.98-3.98,3.98-2.2,0-3.98-1.78-3.98-3.98s1.78-3.98,3.98-3.98h0c2.18,0,3.95,1.77,3.95,3.95h0l.03,.03Z" fill="#e6e7e8"></path>
    <path d="M641.75,345.18c-2.47,0-4.48-2.01-4.48-4.48s2.01-4.48,4.48-4.48,4.38,1.93,4.45,4.33c.02,.05,.03,.11,.03,.16,0,2.47-2.01,4.48-4.48,4.48Zm0-7.97c-1.92,0-3.48,1.56-3.48,3.48s1.56,3.48,3.48,3.48,3.41-1.49,3.48-3.35c-.02-.05-.03-.11-.03-.16,0-1.9-1.55-3.45-3.45-3.45Z" fill="#0d2445"></path>
  </g>
  <g opacity=".1">
    <path d="M655.86,281.53l-12.06-4.9c4.24-2.36,8.28-5.06,12.09-8.07-.06,3.85-.08,8.15-.03,12.97Z"></path>
  </g>
  <g>
    <path d="M711.81,172.53s-6.54-12.05-24.69-7.54c-20,4.9-27.18,44.55-12.1,81s46.92,31.52,48.76,14.25-2.17-36.57-.54-56.18-5.55-30.73-11.43-31.53Z" fill="#002346"></path>
    <path d="M707.09,273.9c-10.32,0-23.99-7.09-32.52-27.73-9.94-24.02-10.84-51.54-2.25-68.48,3.63-7.17,8.71-11.73,14.7-13.2,16.95-4.21,24.09,5.93,25.12,7.57,5.76,1.05,13.3,11.77,11.62,32.03-.81,9.71-.22,19.38,.34,28.72,.58,9.64,1.13,18.74,.2,27.47-.75,7.01-6.3,12.27-14.16,13.4-.97,.14-1.99,.21-3.04,.21Zm-12.15-109.44c-2.28,0-4.84,.3-7.69,1.01-5.69,1.39-10.55,5.78-14.04,12.68-8.46,16.7-7.55,43.88,2.29,67.65,9.19,22.2,24.32,28.38,34.5,26.91,7.39-1.06,12.61-5.98,13.31-12.52,.92-8.65,.37-17.71-.2-27.3-.57-9.38-1.15-19.09-.34-28.87,1.58-19.03-5.37-30.23-11-30.99l-.25-.03-.12-.22c-.22-.4-4.7-8.3-16.44-8.3Z" fill="#0d2445"></path>
  </g>
  <g>
    <polygon points="607.08 590.56 620.8 592.98 626.43 574.25 631.58 557.06 615.74 551.54 611.14 572.18 607.08 590.56" fill="#f2b3c1"></polygon>
    <path d="M621.15,593.55l-14.68-2.58,4.17-18.89,4.72-21.19,16.83,5.86-11.04,36.8Zm-13.48-3.39l12.77,2.25,10.51-35.04-14.86-5.18-8.42,37.96Z" fill="#002346"></path>
  </g>
  <g>
    <path d="M623.89,592.6c.23-1.53-18.57-3.61-18.57-3.61,0,0-13.43,9.63-25.06,10.33-11.63,.7-6.55,8.44,5.87,10.56l30.74,5.43c8.83,1.56,4.64-6.94,7.03-22.71Z" fill="#E7CEF2"></path>
    <path d="M618.71,616c-.58,0-1.22-.06-1.94-.19l-30.74-5.43c-7.36-1.26-12.99-4.73-12.82-7.9,.07-1.21,1.06-3.29,7.01-3.65,11.35-.68,24.67-10.14,24.8-10.23l.16-.11,.19,.02c4.12,.46,17.67,2.07,18.86,3.62,.17,.22,.18,.42,.16,.56h0c-.78,5.15-.86,9.52-.92,13.03-.08,4.79-.14,7.96-1.93,9.43-.7,.57-1.62,.86-2.83,.86Zm-13.26-26.48c-1.61,1.13-14.06,9.64-25.17,10.31-3.72,.22-5.99,1.24-6.07,2.71-.13,2.3,4.66,5.61,11.99,6.86l30.74,5.43c1.91,.34,3.17,.2,3.96-.45,1.44-1.19,1.49-4.17,1.57-8.68,.06-3.51,.13-7.86,.91-13.02-1.07-.85-9.81-2.25-17.92-3.16Z" fill="#002346"></path>
  </g>
  <g>
    <polygon points="678.74 590.87 692.68 590.87 694.98 571.74 697.04 554.06 680.49 551.45 679.56 572.34 678.74 590.87" fill="#f2b3c1"></polygon>
    <path d="M693.12,591.37h-14.9l1.79-40.5,17.58,2.77-2.12,18.16-2.35,19.57Zm-13.85-1h12.97l2.25-18.69,2.01-17.2-15.53-2.45-1.7,38.34Z" fill="#002346"></path>
  </g>
  <g>
    <path d="M695.67,590.54c0-1.54-19-.34-19-.34,0,0-11.63,11.83-22.92,14.49s-4.9,9.42,7.64,9.42h31.2c9.06,0,3.44-7.65,3.08-23.58Z" fill="#E7CEF2"></path>
    <path d="M692.6,614.61h-31.2c-7.47,0-13.61-2.48-13.98-5.65-.14-1.2,.48-3.41,6.22-4.76,11.01-2.6,22.56-14.24,22.67-14.35l.13-.14h.19c4.17-.27,17.88-1.03,19.29,.29,.2,.18,.24,.38,.24,.52,.12,5.18,.8,9.48,1.34,12.94,.75,4.74,1.24,7.86-.28,9.64-.88,1.03-2.35,1.5-4.64,1.5Zm-15.7-23.92c-1.4,1.39-12.25,11.95-23.02,14.49-3.59,.85-5.63,2.22-5.46,3.67,.27,2.3,5.55,4.76,12.98,4.76h31.2c1.97,0,3.21-.37,3.88-1.15,1.22-1.43,.75-4.38,.05-8.84-.55-3.46-1.22-7.75-1.35-12.93-1.21-.64-10.09-.51-18.28,0Z" fill="#002346"></path>
  </g>
  <g>
    <path d="M607.91,572.07l23.45,4.09c17.63-43.9,30.17-80.55,39-111,4.78-16.42,8.4-31,11.26-44l-.88,47.81-6.51,106.93,24.51,.67c43.16-204.25,12.59-252.28,12.59-252.28l-51.62-8.58c-2.04,9.57-3.49,19.25-4.33,29l-2.39,17.13-20.19,104.32-24.89,105.91Z" fill="#2F2E41"></path>
    <path d="M699.15,577.08l-25.45-.7,.03-.52,6.51-106.93,.79-42.85c-2.96,13.01-6.31,25.89-10.19,39.21-9.62,33.17-22.74,70.53-39.02,111.05l-.15,.38-24.37-4.25,25.01-106.43,20.19-104.3,2.39-17.1c.84-9.71,2.3-19.48,4.34-29.04l.1-.47,52.31,8.69,.12,.19c.31,.5,7.74,12.54,9.97,49.79,2.05,34.28-.18,97.3-22.49,202.87l-.09,.41Zm-24.39-1.67l23.58,.65c22.17-105.05,24.42-167.82,22.4-201.98-2.05-34.63-8.78-47.67-9.72-49.33l-50.92-8.46c-1.98,9.36-3.4,18.94-4.22,28.47l-2.39,17.16-20.19,104.35-24.77,105.41,22.53,3.93c16.19-40.34,29.25-77.54,38.83-110.58,4.35-14.94,8.03-29.32,11.25-43.97l.99,.12-.88,47.81-6.48,106.43Z" fill="#002346"></path>
  </g>
  <g>
    <path d="M669.16,242.68c-4.2-4.57-11.48-4.3-15.35,.55-5.93,7.44-14.33,16.61-20.08,17.23-8.56,.92-40.07-31.31-47.76-39.32-.17-.71-1.14-4.43-2.7-5.39-1.73-1.06-13.69-3.89-15-2.78s-2.49,10.87-.35,12.36c1.63,1.13,8.22,1.94,11.74,2.11,7.9,10,37.96,47.09,51.07,49.06,15.16,2.27,44-27.77,44-27.77l-5.57-6.06Z" fill="#f2b3c1"></path>
    <path d="M632.43,277.13c-.61,0-1.21-.04-1.78-.13-13.1-1.96-42.35-37.8-51.24-49.06-3.11-.18-9.97-.93-11.78-2.19-.81-.56-1.27-1.95-1.37-4.13-.15-3.29,.59-8.09,1.68-9.02,1.64-1.39,13.91,1.71,15.58,2.73,1.62,.99,2.59,4.36,2.89,5.57,18.59,19.37,40.72,39.79,47.25,39.07,5.56-.6,13.81-9.6,19.74-17.05,1.94-2.43,4.84-3.89,7.94-4,3.07-.14,6.07,1.14,8.17,3.42l5.88,6.4-.33,.34c-1.14,1.19-27.11,28.05-42.65,28.05Zm-62.9-63.92c-.47,0-.8,.05-.94,.16-.62,.53-1.5,4.7-1.33,8.21,.12,2.52,.7,3.19,.94,3.36,1.44,1,7.71,1.83,11.48,2.03h.23s.14,.19,.14,.19c17.86,22.63,40.57,47.35,50.75,48.87,13.87,2.08,40.01-24,43.24-27.29l-5.25-5.71c-1.9-2.07-4.6-3.19-7.4-3.1-2.81,.1-5.44,1.42-7.19,3.62-6.06,7.6-14.52,16.78-20.42,17.42-.13,.01-.26,.02-.4,.02-9.16,0-38.8-30.13-47.78-39.49l-.09-.1-.03-.13c-.47-1.93-1.4-4.42-2.48-5.08-1.64-1-10.45-2.98-13.47-2.98Z" fill="#002346"></path>
  </g>
  <path d="M716.15,238.47s-15.24,12.37-29.41,12.16-19.17-16.14-19.17-16.14c0,0,22-6.51,48.58,3.98Z" fill="#f9b499"></path>
  <g>
    <rect x="499.76" y="191.03" width="124.72" height="30.85" rx="15.42" ry="15.42" transform="translate(-36.67 199.06) rotate(-19.46)" fill="#E7CEF2"></rect>
    <path d="M517.88,238.02c-6.56,0-12.72-4.09-15.03-10.62-1.42-4.01-1.19-8.33,.65-12.17,1.83-3.84,5.05-6.73,9.06-8.15l.17,.47-.17-.47,88.51-31.27c4.01-1.42,8.33-1.19,12.17,.65,3.84,1.83,6.73,5.05,8.15,9.06,1.42,4.01,1.19,8.33-.65,12.17s-5.05,6.73-9.06,8.15l-88.51,31.27c-1.75,.62-3.53,.91-5.29,.91Zm88.5-62.13c-1.68,0-3.36,.29-4.98,.86l-88.51,31.27c-7.76,2.74-11.84,11.28-9.1,19.04s11.28,11.84,19.04,9.1l88.51-31.27c3.76-1.33,6.78-4.04,8.49-7.64,1.72-3.6,1.93-7.65,.61-11.41-1.33-3.76-4.04-6.78-7.64-8.5-2.04-.97-4.23-1.47-6.42-1.47Z" fill="#002346"></path>
  </g>
  <g>
    <rect x="510.96" y="200.76" width="102.32" height="11.44" rx="5.72" ry="5.72" transform="translate(-36.69 212.28) rotate(-20.72)" fill="#fff"></rect>
    <path d="M519.63,228.78c-2.51,0-4.88-1.53-5.82-4.02-.59-1.55-.54-3.24,.15-4.76s1.92-2.67,3.47-3.26l85-32.16c1.55-.59,3.24-.54,4.76,.15,1.51,.68,2.67,1.92,3.26,3.47,1.21,3.21-.41,6.8-3.62,8.02l-85,32.16c-.72,.27-1.46,.4-2.19,.4Zm-1.85-11.1h0c-1.3,.49-2.34,1.46-2.91,2.74s-.62,2.69-.12,3.99c1.02,2.69,4.04,4.06,6.73,3.04l85-32.16c2.69-1.02,4.05-4.04,3.03-6.73-.49-1.3-1.47-2.34-2.74-2.91-1.27-.57-2.69-.62-3.99-.12l-85,32.16Z" fill="#002346"></path>
  </g>
  <g>
    <path d="M581.23,219.89c-2-3,.13-5.18,.13-5.18,.84-1-1.83-4.07-1.89-5.4s.5-1.32,.5-1.32c4,3.45,5.48,5.21,6.05,13.32" fill="#f2b3c1"></path>
    <path d="M586.02,221.82c-.26,0-.48-.2-.5-.46-.55-7.76-1.86-9.48-5.52-12.66-.03,.13-.05,.32-.03,.61,.02,.43,.49,1.28,.91,2.04,.81,1.47,1.58,2.86,.87,3.71-.1,.1-1.84,1.97-.1,4.58,.15,.23,.09,.54-.14,.69-.23,.15-.54,.09-.69-.14-2.2-3.3,.17-5.78,.19-5.81,.25-.3-.56-1.76-1-2.55-.52-.93-1-1.81-1.03-2.47-.03-.74,.1-1.26,.4-1.57,.25-.26,.54-.27,.61-.27,.12,0,.23,.04,.32,.12,4.15,3.58,5.65,5.56,6.22,13.66,.02,.28-.19,.51-.46,.53-.01,0-.02,0-.04,0Z" fill="#002346"></path>
  </g>
  <path d="M270.07,190.16s-10.77,12.79-31.31,33c-2,2-28.78-10.28-28.78-10.28l-7.58,4.91s30.07,24,35.95,22.59c6.37-1.48,35.21-25.45,35.21-25.45l-3.49-24.77Z" fill="#407bff"></path>
  <g>
    <path d="M270.07,190.16s-10.77,12.79-31.31,33c-2,2-28.78-10.28-28.78-10.28l-7.58,4.91s30.07,24,35.95,22.59c6.37-1.48,35.21-25.45,35.21-25.45l-3.49-24.77Z" fill="#E7CEF2"></path>
    <path d="M237.84,240.93c-7.03,0-32.75-20.36-35.74-22.75l-.54-.43,8.39-5.44,.25,.12c12.85,5.89,26.92,11.38,28.22,10.38,20.28-19.96,31.17-32.84,31.28-32.97l.72-.86,3.69,26.15-.21,.18c-1.18,.98-29,24.06-35.42,25.55-.19,.04-.4,.07-.63,.07Zm-34.58-23.1c8.71,6.91,30.46,23.15,34.98,22.06,5.9-1.37,32.14-22.98,34.79-25.17l-3.3-23.4c-2.74,3.17-13.24,15.09-30.62,32.19-2.05,2.05-22.45-7.03-29.09-10.07l-6.77,4.38Z" fill="#002346"></path>
  </g>
  <g>
    <path d="M209.71,223.31s6.17-5.23,5.93-7.25-4.15-9.6-5.85-10-10.08,4.76-9.94,7.36,1.75,6.81,2.75,7.33c2.32,.98,4.69,1.84,7.11,2.56Z" fill="#f2b3c1"></path>
    <path d="M209.83,223.86l-.26-.08c-2.43-.73-4.84-1.59-7.16-2.58-1.3-.67-2.92-5.2-3.05-7.76-.06-1.04,.85-2.34,2.68-3.88,2.52-2.11,6.51-4.32,7.87-4,2.13,.5,6.01,8.55,6.23,10.43,.26,2.18-5.04,6.79-6.1,7.69l-.21,.17Zm-.28-17.33c-.96,0-4.26,1.61-6.88,3.8-1.49,1.25-2.36,2.39-2.32,3.05,.14,2.6,1.76,6.54,2.48,6.91,2.18,.92,4.46,1.75,6.76,2.45,2.46-2.11,5.69-5.46,5.55-6.63-.25-2.08-4.15-9.26-5.47-9.57-.04,0-.08-.01-.13-.01Z" fill="#002346"></path>
  </g>
  <g>
    <path d="M267.99,227.56s16.95,26.85,24.33,31.91,45.75,14.32,45.75,14.32c0,0,4.69,8,6.66,6.53s3.82-4.59,3.59-5.8c-1.55-3.36-3.35-6.6-5.38-9.69-.52-.59-7.28,.34-7.28,.34l-35.31-14.91c-1.95-.89-21.72-33.13-21.72-33.13l-10.64,10.43Z" fill="#f2b3c1"></path>
    <path d="M344.18,281c-.11,0-.22-.01-.34-.04-2.21-.45-5.38-5.55-6.09-6.74-3.35-.81-38.54-9.43-45.71-14.34-7.38-5.06-23.78-30.95-24.47-32.05l-.22-.34,11.38-11.15,.33,.54c7.54,12.29,20.04,32.1,21.51,32.94l35.16,14.85c6.9-.94,7.42-.35,7.59-.16,2.08,3.16,3.9,6.44,5.46,9.81l.04,.12c.28,1.45-1.7,4.74-3.78,6.29-.25,.19-.54,.28-.85,.28Zm-75.55-53.37c2,3.13,17.21,26.79,23.97,31.42,7.22,4.95,45.2,14.15,45.58,14.25l.21,.05,.11,.18c1.37,2.34,4.09,6.15,5.54,6.45,.21,.04,.32-.01,.39-.07,1.92-1.43,3.51-4.3,3.41-5.25-1.52-3.27-3.28-6.46-5.25-9.47-.66-.2-4.02,.08-6.86,.47l-.14,.02-.13-.05-35.31-14.91c-1.94-.89-17.67-26.35-21.62-32.79l-9.9,9.71Z" fill="#002346"></path>
  </g>
  <path d="M271.78,236.58c.2-.06,.38-.16,.53-.3,.73-.51,1.4-1.11,2-1.78,5.32-5.7,6.92-16.17,6.92-16.17,0,0-7.33-13.94-12.73-13.93h0s-.67,7.93-.68,15.92c-.06,8.84,.69,17.71,3.96,16.26Z" fill="#0071f2"></path>
  <g opacity=".2">
    <path d="M271.78,236.58c.2-.06,.38-.16,.53-.3,.73-.51,1.4-1.11,2-1.78,5.32-5.7,6.92-16.17,6.92-16.17,0,0-7.33-13.94-12.73-13.93h0s-.67,7.93-.68,15.92c-.06,8.84,.69,17.71,3.96,16.26Z"></path>
  </g>
  <g>
    <path d="M203.84,152.25s2.75-13.42,21.42-14.41c20.56-1.12,39,34.67,35.22,73.93-3.78,39.26-35.68,43.84-42.49,27.86s-8.58-35.63-15.88-53.92-3.66-30.98,1.73-33.46Z" fill="#002346"></path>
    <path d="M231.9,248.75c-6.51,0-11.98-3.31-14.37-8.93-3.44-8.07-5.57-16.94-7.82-26.32-2.19-9.12-4.45-18.55-8.07-27.61-7.53-18.86-3.44-31.31,1.77-33.99,.51-1.86,4.39-13.64,21.82-14.56,6.15-.34,12.36,2.56,17.93,8.36,13.14,13.7,20.3,40.27,17.82,66.11-2.36,24.48-15.47,35.07-25.98,36.69-1.05,.16-2.09,.24-3.1,.24Zm-5.71-110.44c-.3,0-.6,0-.91,.02-18.04,.96-20.85,13.48-20.96,14.01l-.05,.25-.23,.11c-5.16,2.38-8.55,15.1-1.48,32.82,3.64,9.13,5.91,18.59,8.11,27.75,2.24,9.34,4.36,18.17,7.77,26.16,2.58,6.06,9.02,9.23,16.4,8.09,10.16-1.57,22.83-11.89,25.14-35.8,2.46-25.57-4.59-51.82-17.54-65.33-5.09-5.3-10.69-8.08-16.25-8.08Z" fill="#0d2445"></path>
  </g>
  <g>
    <path d="M201.29,216.21c1.44,3.27,2.74,6.53,3.95,9.44,1.64,3.91,3.09,7.55,4.42,10.95,2.48,6.34,4.44,11.85,6.06,16.8,4.09,12.39,7.53,32,9,45l50.84-12.24c-.18-13.3,.06-27.37-.48-36.58-.34-5.56-.7-10.43-1.09-14.71-.76-8.56-1.64-14.7-2.34-19.05-1.63-9.8-3.27-11.1-3.46-11.21-.01-.06-.01-.12,0-.18h-.27c-1.73,0-12.43,0-21.78,.67-7.89,.86-15.71,2.28-23.4,4.25-7.31,1.77-14.48,4.06-21.45,6.86Z" fill="#2F2E41"></path>
    <path d="M224.29,299.02l-.06-.56c-1.47-12.97-4.9-32.55-8.98-44.9-1.76-5.38-3.74-10.87-6.05-16.78-1.65-4.22-3.01-7.59-4.42-10.94-.34-.82-.69-1.67-1.05-2.54-.92-2.24-1.87-4.55-2.9-6.89l-.21-.47,.48-.19c6.97-2.8,14.21-5.12,21.52-6.88,7.68-1.97,15.57-3.4,23.46-4.26,8.47-.61,18.09-.67,21.83-.67h.86l-.08,.46c.66,.67,2.06,3.04,3.44,11.35,.62,3.87,1.54,10.05,2.35,19.09,.39,4.29,.75,9.11,1.09,14.72,.35,6.02,.37,14.12,.4,22.69,.01,4.57,.02,9.29,.09,13.91v.4s-51.77,12.47-51.77,12.47Zm-22.33-82.54c.96,2.19,1.84,4.35,2.7,6.44,.36,.87,.71,1.72,1.05,2.54,1.4,3.35,2.77,6.73,4.42,10.96,2.32,5.93,4.3,11.43,6.07,16.83,4.04,12.24,7.45,31.52,8.96,44.54l49.9-12.01c-.06-4.5-.07-9.08-.08-13.52-.02-8.56-.04-16.64-.39-22.64-.34-5.6-.7-10.41-1.09-14.69-.8-9-1.72-15.17-2.34-19.02-1.6-9.62-3.16-10.82-3.23-10.86l-.15-.11c-3.83,0-13.28,.07-21.6,.67-7.82,.85-15.67,2.28-23.31,4.24-7.1,1.72-14.13,3.95-20.91,6.65Z" fill="#002346"></path>
  </g>
  <g>
    <path d="M242.95,205.06c-.86-1.34-1.62-3.54-1.84-7.14-.1-2.18-.05-4.37,.15-6.54l-15.79-1.81s6.13,10.19,2.13,18.31c-4.44,1.24-9.12,2.93-13.91,5.22,0,0,16.07,11.26,30.2,10.05,14.13-1.21,18-17.47,18-17.47,0,0-7.56-1.64-18.94-.62Z" fill="#f2b3c1"></path>
    <path d="M241.69,223.74c-13.52,0-27.66-9.79-28.28-10.23l-.7-.49,.77-.37c4.43-2.12,9.06-3.86,13.77-5.19,3.64-7.75-2.15-17.53-2.2-17.63l-.52-.87,17.29,1.98-.04,.49c-.2,2.14-.25,4.32-.15,6.47,.17,2.87,.71,5.1,1.6,6.64,11.16-.96,18.71,.64,18.78,.65l.5,.11-.12,.5c-.04,.17-4.12,16.63-18.44,17.85-.74,.06-1.49,.09-2.25,.09Zm-26.98-10.57c3.28,2.13,17.03,10.5,29.14,9.48,12.21-1.05,16.62-13.86,17.42-16.58-1.89-.34-8.78-1.36-18.27-.51l-.3,.03-.16-.25c-1.08-1.69-1.73-4.17-1.92-7.38-.09-2.04-.06-4.1,.11-6.13l-14.34-1.64c1.4,2.67,5.11,10.95,1.67,17.92l-.1,.2-.21,.06c-4.45,1.24-8.82,2.86-13.03,4.82Z" fill="#002346"></path>
  </g>
  <g>
    <path d="M201.7,216.02c-4.49,2.14-7.81,13.07-7.81,13.07l21.81,20.45-.72-10.18c-.66-9.37-5.55-17.93-13.28-23.26v-.08Z" fill="#2F2E41"></path>
    <path d="M216.29,250.77l-22.97-21.54,.09-.3c.14-.46,3.44-11.17,8.07-13.38l.71-.34v.61c7.77,5.46,12.61,14,13.28,23.49l.81,11.45Zm-21.83-21.84l20.65,19.36-.63-8.91c-.65-9.19-5.34-17.48-12.88-22.76-3.69,2.15-6.59,10.61-7.14,12.3Z" fill="#002346"></path>
  </g>
  <path d="M171.62,195.39c3.53-1.64,2-14-1.19-21.25-1.52-3.44-4.24-2.79-13.27,4.55-2.58,2.1,4.6,20,8.17,18.88s6.29-2.18,6.29-2.18Z" fill="#ebb376"></path>
  <g>
    <path d="M350.44,283.84l-13.21-19.19c-1.13-1.64-1.88-3.52-2.16-5.49-1.5-10.68-2.09-21.48-1.77-32.27,0-1.19,.1-2.4,.17-3.66,.24-5.2,.68-11,1.4-17.81-.01-.25,.01-.5,.08-.74,.38-3.4,.8-7.07,1.29-11,.3-2.38,.62-4.87,.98-7.5,.2-1.45-.85-2.79-2.3-2.93-6.58-.63-13.19-.84-19.8-.63-7.94,.15-15.85,.87-23.68,2.16-10.03,1.98-21.37,5.37-21.37,5.37,0,0-1.56,.7-.49,11.57,1.01,9.72,3.83,28.53,12.16,61.47,.82,3.24,1.22,6.57,1.19,9.91l-.19,21.78c-.02,1.89,1.66,3.35,3.53,3.07l62.09-9.33c2.25-.34,3.36-2.91,2.08-4.78Z" fill="#E7CEF2"></path>
    <path d="M285.82,298.49c-.85,0-1.69-.31-2.34-.88-.79-.69-1.24-1.68-1.23-2.73l.19-21.78c.03-3.28-.37-6.57-1.18-9.78-8.1-32.01-11.09-51.13-12.17-61.54-1-10.14,.21-11.82,.78-12.08,.17-.06,11.54-3.44,21.48-5.4,7.84-1.29,15.83-2.02,23.77-2.17,6.6-.21,13.28,0,19.85,.63,.83,.08,1.58,.49,2.1,1.15,.52,.66,.76,1.52,.65,2.35-.35,2.62-.68,5.11-.98,7.49-.52,4.15-.96,8.06-1.29,10.99-.07,.27-.09,.46-.08,.66-.69,6.6-1.15,12.42-1.4,17.86l-.06,.93c-.06,.94-.11,1.82-.11,2.7-.32,10.74,.27,21.57,1.76,32.2,.26,1.85,.98,3.68,2.08,5.27l13.21,19.19c.7,1.02,.83,2.31,.33,3.45s-1.52,1.93-2.75,2.11l-62.09,9.33c-.18,.03-.36,.04-.53,.04Zm-15.49-107.88c-.2,.27-1.13,2.09-.25,11.08,1.08,10.37,4.06,29.44,12.15,61.39,.83,3.29,1.24,6.67,1.21,10.04l-.19,21.78c0,.75,.32,1.47,.89,1.97,.57,.5,1.32,.71,2.07,.6l62.09-9.33c.88-.13,1.62-.7,1.98-1.52,.35-.82,.27-1.75-.24-2.48l-13.21-19.19c-1.19-1.72-1.96-3.7-2.24-5.7-1.5-10.69-2.09-21.57-1.77-32.35,0-.9,.06-1.8,.12-2.75l.06-.92c.25-5.46,.71-11.3,1.4-17.83-.02-.22,.01-.53,.09-.82,.31-2.86,.76-6.77,1.28-10.93,.3-2.38,.62-4.88,.98-7.5,.08-.57-.08-1.14-.44-1.59-.35-.45-.86-.72-1.42-.77-6.53-.63-13.16-.85-19.73-.63-7.89,.15-15.84,.87-23.62,2.15-9.35,1.85-19.99,4.97-21.2,5.32Z" fill="#002346"></path>
  </g>
  <g opacity=".2">
    <path d="M285.54,173.91c1.25,1.81,2.38,3.7,3.37,5.67,9.52-4.54,9.46-15,9.46-15l-12.83,9.33Z"></path>
  </g>
  <path d="M257.55,146.36s2.84,11,13.43,11.44,25.31-19.21,15.25-25.86-27.7,.37-28.68,14.42Z" fill="#263238"></path>
  <path d="M276.75,141.23c-.17,0-.34-.09-.44-.25-.14-.24-.05-.55,.19-.68,2.03-1.15,4.53-1.29,6.68-.38,.25,.11,.37,.4,.26,.66-.11,.25-.4,.37-.66,.26-1.87-.79-4.03-.67-5.8,.33-.08,.04-.16,.06-.25,.06Z" fill="#263238"></path>
  <g>
    <path d="M321.07,184.26c-1.31,0-2.63-.1-3.94-.11-1.35,0-2.7,.04-4.05,.09-2.29,.08-4.58-.03-6.86-.34h0c-10.79-3.46-7.86-19.33-7.86-19.33l-12.83,9.34c1.25,1.81,2.38,3.7,3.37,5.67,1.36,2.77,1.87,4.83,1.95,6.37-2.51,.52-5.01,1.11-7.5,1.77l-3.45,1c-3.88,1.01-6.62,1.93-7.75,2.32-.26,.09-.33,.43-.13,.62,1.68,1.53,3.47,2.93,5.37,4.18,1.31,.89,2.67,1.71,4.07,2.44,4.9,2.56,11,4.57,17.26,3.41,5.58-1.28,10.94-3.4,15.88-6.3,1.75-.96,3.42-1.94,5-2.95,3.76-2.31,7.4-4.8,10.9-7.47,.26-.2,.15-.62-.17-.66-3.07-.38-6.16,.11-9.27-.05Z" fill="#f2b3c1"></path>
    <path d="M295.02,202.52c-4.32,0-8.94-1.27-13.78-3.8-1.42-.74-2.81-1.57-4.12-2.47-1.9-1.25-3.73-2.68-5.42-4.22-.23-.21-.32-.51-.26-.81,.06-.3,.27-.54,.56-.65,1.28-.45,3.99-1.35,7.79-2.34l3.44-1c2.28-.61,4.6-1.17,7.11-1.69-.16-1.62-.79-3.55-1.86-5.75-.97-1.94-2.1-3.82-3.33-5.61l-.28-.4,14.24-10.37-.23,1.23c-.03,.15-2.73,15.48,7.52,18.76,2.17,.29,4.45,.4,6.69,.32,1.35-.05,2.71-.08,4.06-.09,.63,0,1.26,.03,1.89,.05,.68,.03,1.37,.05,2.05,.05h.03c1.3,.07,2.64,.02,3.93-.03,1.76-.07,3.58-.14,5.38,.09,.35,.04,.63,.29,.72,.63,.09,.35-.03,.71-.31,.92-3.51,2.67-7.19,5.2-10.94,7.5-1.58,1-3.27,2-5.02,2.96-4.98,2.92-10.37,5.06-16.01,6.35-1.25,.23-2.52,.35-3.82,.35Zm-22.48-11.08c1.61,1.45,3.34,2.79,5.14,3.98,1.29,.88,2.64,1.69,4.03,2.41,6.1,3.18,11.79,4.31,16.94,3.36,5.52-1.26,10.81-3.37,15.72-6.24,1.75-.96,3.42-1.94,4.98-2.94,3.64-2.24,7.21-4.67,10.61-7.25-1.61-.17-3.28-.1-4.89-.04-1.31,.05-2.66,.1-4,.04-.69,0-1.39-.03-2.08-.06-.62-.02-1.24-.05-1.85-.05-1.34,0-2.68,.04-4.02,.09-2.29,.08-4.63-.03-6.94-.34-9.39-3-8.87-14.91-8.44-18.73l-11.49,8.36c1.15,1.7,2.21,3.49,3.13,5.33,1.24,2.51,1.91,4.72,2,6.57l.02,.43-.42,.09c-2.65,.55-5.09,1.13-7.47,1.77l-3.44,1c-3.58,.93-6.18,1.78-7.51,2.24Z" fill="#002346"></path>
  </g>
  <g opacity=".2">
    <path d="M315.33,332.51l1.63-.34c-.57-1.64-1.45-4.45-2.22-6.54,.08-.05,.15,1.98,.59,6.88Z"></path>
  </g>
  <g>
    <path d="M324.35,236.16l-19,.47c-2.08-1.57-4.4-2.79-6.87-3.61-3.27-.83-12.17-3.77-13.77-1.93s-2.26,13.07,.65,14.71,16.6,1.63,19.85-.39l19.91,1.89-.77-11.14Z" fill="#f2b3c1"></path>
    <path d="M325.66,247.85l-20.34-1.93c-3.68,2.05-17.25,1.98-20.21,.31-.96-.54-1.62-1.87-1.98-3.96-.7-4.03-.07-10.05,1.2-11.51,1.43-1.64,6.63-.35,12.29,1.23,.77,.22,1.45,.41,1.98,.54,2.51,.83,4.82,2.03,6.91,3.59l19.3-.48,.84,12.21Zm-20.57-2.96l19.49,1.85-.7-10.07-18.7,.46-.14-.1c-2.04-1.54-4.3-2.73-6.73-3.53-.5-.13-1.19-.32-1.97-.54-3.29-.92-10.14-2.84-11.27-1.54-.97,1.12-1.64,6.83-.97,10.69,.3,1.73,.83,2.89,1.49,3.26,2.67,1.5,16.24,1.55,19.34-.38l.14-.09Z" fill="#002346"></path>
  </g>
  <g>
    <path d="M334.28,185.89c.91-1.57,3.11-1.77,4.3-.4,8.79,10.13,38.9,53.83,40.77,63.2s-53.64,1.48-64.18-.1c-1-.15-1.74-.99-1.77-2l-.44-13.54c-.04-1.25,1.02-2.26,2.27-2.15l34.54,3.12s-9.72-12-15.81-18.2c-4.24-5.92-5.45-13.49-3.27-20.44,1.38-4.93,2.61-7.81,3.59-9.5Z" fill="#E7CEF2"></path>
    <path d="M363.62,253.68c-16,0-39.37-3.23-48.52-4.6-1.23-.18-2.16-1.22-2.2-2.47l-.44-13.54c-.02-.74,.27-1.46,.81-1.96,.54-.51,1.27-.76,2.01-.7l33.36,3.01c-2.4-2.93-10-12.13-15.03-17.25-4.35-6.08-5.6-13.88-3.39-20.94,1.2-4.27,2.42-7.51,3.64-9.6h0c.51-.89,1.4-1.45,2.42-1.55,1.04-.1,2.01,.3,2.69,1.08,8.68,10,38.94,53.73,40.88,63.43,.18,.88-.06,1.66-.69,2.32-1.93,2.03-7.9,2.77-15.54,2.77Zm-48.57-22.28c-.4,0-.79,.15-1.09,.43-.33,.31-.51,.75-.5,1.2l.44,13.54c.02,.77,.59,1.4,1.35,1.52,26.34,3.93,58.69,6.85,63.19,2.13,.41-.43,.55-.88,.44-1.44-1.86-9.33-32.24-53.28-40.65-62.97-.46-.54-1.13-.81-1.84-.74-.7,.07-1.3,.45-1.65,1.06-1.17,2.02-2.36,5.18-3.54,9.38-2.12,6.78-.93,14.25,3.2,20.01,5.99,6.09,15.69,18.06,15.79,18.18l.74,.92-35.72-3.22s-.09,0-.14,0Z" fill="#002346"></path>
  </g>
  <path d="M164.07,297.16s-44.54,27.37-48.22,16.23,22.06-67.29,27.21-70.15l4.38,17,3.39,13.17s-3.49,4.65-7.1,9.8c-4.27,6.11-8.71,13-7.78,13.74,1.63,1.44,20.72-10.8,20.72-10.8l7.4,11.01Z" fill="#407bff"></path>
  <g>
    <polygon points="118.31 593.64 134.77 596.53 141.53 574.1 147.68 553.5 128.71 546.89 123.21 571.63 118.31 593.64" fill="#f2b3c1"></polygon>
    <path d="M135.12,597.1l-17.41-3.05,10.63-47.81,19.95,6.95-6.29,21.06-6.88,22.86Zm-16.21-3.86l15.51,2.72,6.63-22.01,6.01-20.14-17.99-6.26-10.16,45.69Z" fill="#002346"></path>
  </g>
  <g>
    <polygon points="185.23 597.96 201.73 597.96 204.43 574.99 206.88 553.94 187.31 550.75 186.2 575.75 185.23 597.96" fill="#f2b3c1"></polygon>
    <path d="M202.17,598.46h-17.46l2.12-48.29,20.6,3.36-5.25,44.93Zm-16.42-1h15.53l5.04-43.1-18.54-3.03-2.03,46.12Z" fill="#002346"></path>
  </g>
  <g>
    <path d="M118.41,573.61l25,3.15c18-45,23.9-82.53,33-113.69,4.01-13.76,7.35-26.29,10.04-37.64,.22-.93,1.59-.76,1.58,.2l-.61,41.43-8,111.18h26c44.2-210.79,12.88-259,12.88-259l-53-9c-2.1,9.76-3.58,19.64-4.43,29.58l-2.39,17.48-20.72,106.76-19.35,109.54Z" fill="#fff"></path>
    <path d="M205.83,578.75h-26.94l8.04-111.72,.61-41.41c0-.25-.19-.3-.27-.31-.1-.01-.27,0-.32,.23-2.67,11.29-6.06,23.96-10.05,37.66-2.87,9.84-5.44,20.35-8.15,31.48-5.88,24.12-12.54,51.45-24.87,82.25l-.14,.36-25.9-3.26,.09-.52,19.35-109.54,20.72-106.77,2.39-17.45c.85-9.9,2.34-19.87,4.44-29.62l.1-.47,53.69,9.12,.12,.18c.32,.5,7.93,12.6,10.21,50.7,2.1,35.07-.18,99.74-23.02,208.68l-.08,.4Zm-25.87-1h25.06c22.71-108.43,25.01-172.84,22.94-207.8-2.1-35.47-9.01-48.59-9.96-50.25l-52.3-8.88c-2.04,9.55-3.49,19.32-4.32,29.05l-2.39,17.5-20.72,106.79-19.26,109.01,24.1,3.04c12.2-30.59,18.83-57.77,24.68-81.76,2.72-11.14,5.28-21.66,8.16-31.53,3.99-13.68,7.36-26.33,10.04-37.61,.16-.67,.74-1.07,1.42-.99,.68,.08,1.15,.63,1.14,1.32l-.61,41.43-7.96,110.67Z" fill="#002346"></path>
  </g>
  <g>
    <path d="M180.55,595.51c0-1.75,21.49-.39,21.49-.39,0,0,13.19,13.42,26.01,16.41,12.83,2.98,5.65,10.75-8.73,10.75h-35.39c-10.16,.04-3.8-8.64-3.39-26.77Z" fill="#E7CEF2"></path>
    <path d="M183.86,622.78c-2.49,0-4.09-.52-5.05-1.64-1.69-1.97-1.13-5.5-.29-10.85,.62-3.95,1.4-8.86,1.54-14.8,0-.14,.05-.35,.25-.55,1.62-1.52,18.42-.54,21.77-.33h.19s.13,.15,.13,.15c.13,.13,13.23,13.36,25.77,16.27,6.49,1.51,7.2,4,7.04,5.34-.41,3.59-7.39,6.4-15.88,6.4h-35.47Zm-2.81-27.14c-.15,5.95-.92,10.86-1.55,14.81-.8,5.07-1.33,8.42,.06,10.04,.76,.89,2.18,1.27,4.37,1.29h35.4c8.53,0,14.58-2.85,14.89-5.51,.2-1.7-2.15-3.29-6.28-4.25-12.12-2.82-24.67-14.98-26.12-16.41-9.39-.59-19.55-.73-20.78,.03Z" fill="#002346"></path>
  </g>
  <g>
    <path d="M114.73,593.26c0-1.77,21.8-.39,21.8-.39,0,0,13.36,13.6,26.35,16.63,12.98,3.02,5.73,10.9-8.84,10.9h-35.85c-10.31,.05-3.85-8.75-3.45-27.13Z" fill="#E7CEF2"></path>
    <path d="M118.09,620.9c-2.52,0-4.15-.53-5.12-1.66-1.71-2-1.15-5.57-.3-10.97,.63-4,1.42-8.99,1.55-15.01,0-.14,.05-.36,.25-.55,1.64-1.54,18.67-.55,22.07-.34h.19s.13,.15,.13,.15c.13,.13,13.41,13.54,26.1,16.49,6.56,1.53,7.28,4.04,7.12,5.41-.42,3.63-7.48,6.48-16.08,6.48h-35.93Zm-2.87-27.5c-.14,6.04-.93,11.02-1.56,15.03-.81,5.13-1.34,8.52,.07,10.16,.78,.9,2.15,1.34,4.44,1.31h35.85c8.64,0,14.78-2.89,15.09-5.59,.2-1.73-2.18-3.35-6.36-4.32-12.27-2.86-25-15.18-26.45-16.63-9.53-.59-19.84-.74-21.08,.04Z" fill="#002346"></path>
  </g>
  <g>
    <path d="M295.72,312.36l12.11,6.18s4.9-1.4,7-.26,11.63,11.34,11.29,13.23-9.21,8.17-11.89,6.88-9.71-11.3-10-12.51l-13.29-5.8,4.78-7.72Z" fill="#f2b3c1"></path>
    <path d="M315.13,339.06c-.43,0-.8-.08-1.11-.22-2.72-1.31-9.27-10.52-10.18-12.59l-13.63-5.95,5.33-8.6,12.35,6.3c.96-.26,5.15-1.27,7.18-.17,1.7,.92,11.97,11.37,11.54,13.76-.27,1.48-4.18,4.53-7.37,6.16-1.7,.87-3.08,1.31-4.12,1.31Zm-23.45-19.21l12.99,5.67,.06,.24c.26,1.07,7.25,10.98,9.73,12.18,.73,.35,2.32-.04,4.34-1.07,3.5-1.79,6.69-4.62,6.84-5.45,.25-1.47-8.75-11.46-11.04-12.7-1.57-.85-5.31-.07-6.62,.3l-.19,.05-11.88-6.06-4.23,6.84Z" fill="#002346"></path>
  </g>
  <g>
    <g>
      <path d="M512.72,149.17c0,6.21-1.92,11.98-5.2,16.74-5.33,7.73-14.24,12.8-24.35,12.8s-19.02-5.08-24.35-12.8c-3.28-4.76-5.2-10.53-5.2-16.74,0-16.32,13.23-29.55,29.55-29.55s29.55,13.23,29.55,29.55Z" fill="#fff"></path>
      <path d="M483.17,179.3c-9.91,0-19.19-4.88-24.82-13.05-3.47-5.04-5.31-10.94-5.31-17.07,0-16.61,13.52-30.13,30.13-30.13s30.13,13.51,30.13,30.13c0,6.13-1.83,12.03-5.3,17.07-5.64,8.17-14.92,13.06-24.82,13.06Zm0-59.1c-15.97,0-28.97,13-28.97,28.97,0,5.89,1.76,11.57,5.1,16.42,5.42,7.86,14.34,12.55,23.87,12.55s18.45-4.69,23.87-12.55c3.34-4.85,5.1-10.52,5.1-16.41,0-15.97-13-28.97-28.97-28.97Z" fill="#002346"></path>
    </g>
    <g>
      <g>
        <path d="M507.52,165.91c-5.33,7.73-14.24,12.8-24.35,12.8s-19.02-5.08-24.35-12.8c3.74-9.79,13.23-16.74,24.35-16.74s20.6,6.95,24.35,16.74Z" fill="#2F2E41"></path>
        <path d="M483.17,179.3c-9.91,0-19.19-4.88-24.82-13.05l-.17-.25,.11-.29c3.91-10.24,13.91-17.12,24.89-17.12s20.97,6.88,24.89,17.12l.11,.29-.17,.25c-5.64,8.17-14.92,13.05-24.82,13.05Zm-23.69-13.46c5.44,7.71,14.27,12.3,23.69,12.3s18.26-4.59,23.69-12.3c-3.82-9.64-13.3-16.09-23.69-16.09s-19.88,6.45-23.69,16.09Z" fill="#002346"></path>
      </g>
      <g>
        <circle cx="482.59" cy="137.58" r="11.01" fill="#2F2E41"></circle>
        <path d="M482.59,149.17c-6.39,0-11.59-5.2-11.59-11.59s5.2-11.59,11.59-11.59,11.59,5.2,11.59,11.59-5.2,11.59-11.59,11.59Zm0-22.02c-5.75,0-10.43,4.68-10.43,10.43s4.68,10.43,10.43,10.43,10.43-4.68,10.43-10.43-4.68-10.43-10.43-10.43Z" fill="#002346"></path>
      </g>
    </g>
  </g>
  <path d="M713.75,294.42c-.48,3.69-.89,7.49-1.23,11.24-6.31-2.07-12.03-4.26-16.01-5.85-1.26,.47-2.77,.85-3.78,.53-2-.64-11.85-7.9-11.86-9.65,0-.07,.03-.17,.05-.26-.33-.26-.6-.45-.8-.58-1.61-1.02,3.91-5.25,7.69-6.8,.87-.51,1.67-.78,2.24-.63,2.09,.54,7.64,5.73,9.78,8.14,3.81,1.13,8.88,2.59,13.92,3.86Z" fill="#0071f2"></path>
  <g>
    <path d="M735.29,249.07c1.13,2.25,.74,4.96-.97,6.81h0s-11.87,12.8-11.87,12.8l-1.24,1.34c-2.2,2.38-3.78,5.27-4.59,8.41v.05c-1.16,4.57-2.11,10.11-2.87,15.94-5.04-1.27-10.11-2.73-13.92-3.86-2.14-2.41-7.69-7.6-9.78-8.14-.57-.15-1.37,.12-2.24,.63-3.78,1.55-9.3,5.78-7.69,6.8,.2,.13,.47,.32,.8,.58-.02,.09-.05,.19-.05,.26,.01,1.75,9.86,9.01,11.86,9.65,1.01,.32,2.52-.06,3.78-.53,3.98,1.59,9.7,3.78,16.01,5.85-.61,6.75-.99,13.31-1.2,18.67l-51.62-8.58c-1.36-23.74-2-41.92-2.03-54.6-3.19-3.9-5.42-9.55-6.77-13.78-1.18-3.68,.1-7.69,3.18-10.03,2.08-1.58,4.55-3.12,6.81-3.66,0,0,.01,.02,.02,.05,.1-.01,11.8-1.08,21.99-1.08,7.93,.27,15.83,1.11,23.64,2.5,7.41,1.21,14.72,2.96,21.87,5.23-.01,.05-.03,.1-.05,.15,2.75,1.12,5.32,5.33,6.93,8.54Z" fill="#2F2E41"></path>
    <path d="M711.8,324.92l-52.57-8.74-.02-.4c-1.31-22.88-1.99-41.19-2.03-54.45-3.21-4-5.44-9.7-6.75-13.8-1.23-3.86,.11-8.12,3.35-10.58,2.65-2.01,5-3.28,7-3.75l.39-.09,.05,.1c2.03-.18,12.5-1.05,21.69-1.05,7.91,.27,15.88,1.11,23.73,2.51,7.39,1.21,14.77,2.97,21.93,5.25l.43,.14-.04,.21c2.72,1.38,5.18,5.39,6.79,8.6h0c1.22,2.42,.79,5.38-1.05,7.38l-13.11,14.14c-2.14,2.31-3.69,5.14-4.47,8.2-1.08,4.31-2.04,9.65-2.86,15.93l-.07,.56-.55-.14c-4.05-1.02-8.61-2.29-13.94-3.86l-.14-.04-.09-.11c-2.24-2.52-7.67-7.51-9.53-7.99-.39-.11-1.06,.11-1.86,.58-3.58,1.47-7.63,4.72-7.73,5.84,0,.06,0,.08,.05,.11,.21,.14,.5,.34,.84,.61l.25,.2-.11,.48c.05,1.31,9.38,8.47,11.51,9.16,.72,.23,1.94,.04,3.45-.52l.18-.07,.18,.07c5.55,2.22,10.93,4.18,15.98,5.84l.38,.12-.04,.4c-.68,7.56-1.03,14.31-1.2,18.64l-.02,.57Zm-51.62-9.59l50.67,8.42c.17-4.27,.51-10.63,1.14-17.73-4.91-1.62-10.12-3.52-15.48-5.67-1.68,.6-3,.76-3.92,.47-1.87-.6-12.2-7.93-12.21-10.12,0-.02,0-.04,0-.05-.21-.16-.38-.28-.52-.37-.37-.23-.55-.6-.51-1.04,.17-1.92,5.14-5.35,8.28-6.64,1.01-.6,1.89-.82,2.56-.65,2.35,.61,8.02,6.06,9.93,8.18,5.02,1.49,9.35,2.69,13.22,3.68,.81-6.07,1.75-11.27,2.8-15.44,.84-3.26,2.46-6.25,4.72-8.68l13.11-14.14c1.56-1.69,1.92-4.2,.89-6.25h0c-2.28-4.53-4.65-7.48-6.67-8.3l-.46-.19,.04-.11c-6.96-2.18-14.12-3.88-21.29-5.05-7.8-1.39-15.73-2.23-23.58-2.49-10.09,0-21.81,1.07-21.92,1.08l-.3,.03c-1.79,.5-3.9,1.67-6.28,3.49-2.9,2.21-4.11,6.02-3,9.48,1.3,4.07,3.51,9.73,6.68,13.61l.11,.14v.18c.03,13.17,.71,31.4,2.01,54.17Z" fill="#002346"></path>
  </g>
  <g>
    <rect x="651.24" y="235.75" width="30.85" height="124.72" rx="15.42" ry="15.42" transform="translate(140.08 804.09) rotate(-67.95)" fill="#e6e7e8"></rect>
    <path d="M710.16,331.66c-2.02,0-4.05-.39-5.98-1.17l-87-35.24c-3.94-1.6-7.03-4.63-8.69-8.55-1.66-3.92-1.69-8.25-.1-12.19h0c1.6-3.94,4.63-7.03,8.55-8.69,3.92-1.66,8.25-1.69,12.19-.1l87,35.24c8.14,3.3,12.08,12.6,8.78,20.74-1.6,3.94-4.63,7.03-8.55,8.69-2,.85-4.1,1.27-6.21,1.27Zm-87.01-66.11c-1.97,0-3.95,.4-5.82,1.19-3.67,1.55-6.52,4.45-8.01,8.14h0c-1.5,3.7-1.46,7.75,.09,11.42,1.55,3.67,4.45,6.52,8.14,8.01l87,35.24c3.69,1.5,7.75,1.46,11.42-.09,3.67-1.55,6.52-4.45,8.01-8.14,3.09-7.63-.6-16.35-8.23-19.44l-87-35.24c-1.81-.73-3.71-1.1-5.6-1.1Zm-14.29,9.14h0Z" fill="#0d2445"></path>
  </g>
  <g>
    <rect x="660.95" y="246.95" width="11.44" height="102.32" rx="5.72" ry="5.72" transform="translate(140.08 804.11) rotate(-67.95)" fill="#fff"></rect>
    <path d="M708.79,321.4c-.79,0-1.58-.15-2.34-.46l-84.23-34.12c-3.18-1.29-4.72-4.92-3.43-8.1h0c1.29-3.18,4.92-4.72,8.1-3.43l84.23,34.12c1.54,.62,2.74,1.81,3.39,3.34,.65,1.53,.66,3.22,.04,4.76-.62,1.54-1.81,2.75-3.34,3.39-.78,.33-1.6,.5-2.42,.5Zm-89.07-42.3c-1.08,2.67,.21,5.72,2.88,6.8l84.23,34.12c1.29,.52,2.71,.51,4-.03,1.28-.54,2.28-1.56,2.8-2.85s.51-2.71-.03-4-1.55-2.28-2.85-2.8l-84.23-34.12c-2.67-1.08-5.72,.21-6.8,2.88h0Z" fill="#002346"></path>
  </g>
  <g>
    <path d="M680.87,290.69c3.36,4.2,9.86,9.01,11.86,9.65,1.01,.32,2.52-.06,3.78-.53,3.98,1.59,9.7,3.78,16.01,5.85,19.04,6.27,43.35,11.54,40.68-3.57-2.67-15.13-12.08-33.99-18.88-46.21l-11.87,12.8c4.42,7.89,13.99,25.91,10.6,28.23-2.01,1.38-10.62-.29-19.3-2.49-5.04-1.27-10.11-2.73-13.92-3.86-2.14-2.41-7.69-7.6-9.78-8.14-.57-.15-1.37,.12-2.24,.63-3.78,1.55-9.3,5.78-7.69,6.8l.75,.84Z" fill="#f2b3c1"></path>
    <path d="M741.89,312.43c-6.92,0-16.79-2.1-29.52-6.29-5.02-1.65-10.36-3.59-15.86-5.79-1.68,.6-3,.76-3.92,.47-2.15-.69-8.69-5.55-12.09-9.8l-.7-.78c-.33-.24-.49-.59-.45-1,.17-1.92,5.14-5.35,8.28-6.64,1.01-.6,1.89-.82,2.56-.65,2.35,.61,8.02,6.06,9.93,8.18,5.25,1.56,9.76,2.8,13.76,3.81,14.38,3.64,18.01,3.17,18.89,2.56,2.09-1.43-2.03-12-10.75-27.57l-.18-.32,12.59-13.57,.33,.6c7.18,12.91,16.3,31.43,18.94,46.37,.61,3.44-.11,6.07-2.14,7.83-2,1.73-5.23,2.59-9.67,2.59Zm-45.37-13.15l.18,.07c5.55,2.22,10.93,4.18,15.98,5.84,20.25,6.67,33.46,8.02,38.22,3.89,1.77-1.53,2.36-3.79,1.81-6.9-2.57-14.57-11.4-32.64-18.49-45.45l-11.15,12.03c6.61,11.83,13.67,26.24,10.27,28.57-.68,.46-2.74,1.88-19.71-2.42-4.05-1.02-8.61-2.29-13.94-3.86l-.14-.04-.09-.11c-2.24-2.52-7.67-7.51-9.53-7.99-.39-.11-1.06,.11-1.86,.58-3.58,1.47-7.63,4.72-7.73,5.84,0,.06,0,.08,.05,.11l.11,.09,.77,.86c3.39,4.24,9.79,8.9,11.62,9.49,.72,.23,1.94,.04,3.45-.52l.18-.07Z" fill="#002346"></path>
  </g>
  <g>
    <path d="M694.68,244.35c7.16-3.56,10.51-9.32,10.51-9.32-8.17-7.77-2.41-19.25-2.41-19.25l-15.65,3c.35,2.16,.55,4.34,.6,6.53,.12,9.48-4.17,7.58-4.17,7.58-.89,1.63-.94,3.64-.6,5.63,.94,5.42,6.79,8.28,11.72,5.83Z" fill="#f2b3c1"></path>
    <path d="M690.94,245.74c-1.34,0-2.68-.31-3.92-.94-2.43-1.23-4.1-3.49-4.56-6.2-.42-2.4-.2-4.4,.65-5.95l.22-.4,.42,.19s.84,.35,1.65-.19c.86-.58,1.88-2.25,1.82-6.92-.05-2.15-.25-4.33-.59-6.46l-.08-.48,17.12-3.28-.45,.91c-.06,.11-5.49,11.25,2.31,18.66l.29,.27-.2,.34c-.14,.24-3.51,5.92-10.72,9.51h0c-1.26,.63-2.61,.94-3.95,.94Zm-7.13-12.25c-.59,1.3-.71,2.96-.37,4.94,.41,2.39,1.88,4.39,4.03,5.47,2.2,1.11,4.74,1.11,6.97,0h0c5.98-2.98,9.27-7.54,10.09-8.79-6.62-6.64-3.75-15.79-2.61-18.66l-14.25,2.73c.31,2.02,.48,4.08,.53,6.12,.05,4.13-.72,6.75-2.28,7.79-.81,.54-1.63,.5-2.13,.4Z" fill="#002346"></path>
  </g>
  <g>
    <rect x="675" y="174.55" width="36.45" height="49.16" rx="18.22" ry="18.22" transform="translate(59.01 -144.35) rotate(12.41)" fill="#f2b3c1"></rect>
    <path d="M691.86,224.06c-1.33,0-2.68-.14-4.03-.44-4.88-1.08-9.06-3.99-11.75-8.2-2.69-4.21-3.58-9.22-2.51-14.11l2.73-12.41c2.22-10.08,12.23-16.48,22.31-14.26,4.88,1.08,9.06,3.99,11.75,8.2,2.69,4.21,3.58,9.22,2.51,14.11l-2.73,12.41c-1.92,8.73-9.69,14.7-18.28,14.7Zm2.73-48.87c-8.14,0-15.49,5.65-17.31,13.92l-2.73,12.41c-1.02,4.62-.17,9.37,2.38,13.36s6.5,6.75,11.12,7.76c9.54,2.1,19.02-3.96,21.12-13.5l2.73-12.41c1.02-4.62,.17-9.37-2.38-13.36s-6.5-6.75-11.12-7.76c-1.28-.28-2.55-.42-3.81-.42Z" fill="#002346"></path>
  </g>
  <g>
    <path d="M709.32,198.75s-5.73-11.44-4.29-20.05c0,0-26.31-12.47-29.12,14.71,0,0-1.31-24.4,22.06-23.66s18.86,39.64,6.26,49.15c0,.03,10-9,5.09-20.15Z" fill="#002346"></path>
    <path d="M704.24,219.4c-.06,0-.13-.02-.2-.05l-.82-.33,.7-.53c.3-.27,9.61-8.91,4.95-19.54-.3-.61-5.61-11.41-4.39-19.96-2.01-.87-12.51-5.02-20.06-.76-4.53,2.55-7.23,7.67-8.01,15.22l-1-.03c-.02-.46-.53-11.46,6.39-18.54,3.88-3.97,9.33-5.86,16.19-5.65,9.78,.31,13.92,6.95,15.67,12.47,3.97,12.5-.55,31.11-9.13,37.58h0c-.11,.08-.19,.11-.29,.11Zm-11.79-44.08c6.53,0,12.44,2.75,12.79,2.92l.34,.16-.06,.37c-1.4,8.35,4.19,19.63,4.24,19.74v.02c1.64,3.69,1.69,7.14,1.01,10.13,3.35-8.12,4.42-18.8,1.93-26.66-1.65-5.21-5.55-11.48-14.75-11.77-6.57-.2-11.76,1.59-15.44,5.35-2.67,2.73-4.18,6.14-5.03,9.24,1.46-3.38,3.62-5.88,6.44-7.47,2.68-1.51,5.66-2.04,8.53-2.04Z" fill="#0d2445"></path>
  </g>
  <g>
    <path d="M673.62,184.98c3.87-3.55,10-3.81,15.42-3.06,.82-1.81,2.04-3.42,3.57-4.69-.87,1.54-1.55,3.19-2,4.9,3.45,.61,6.83,1.55,10.09,2.81,1-3.36,6.08-7.87,6.08-7.87-28.01-13.04-33.16,7.91-33.16,7.91Z" fill="#002346"></path>
    <path d="M672.74,186.46l.4-1.61c.07-.3,1.89-7.38,9.02-10.8,6.32-3.03,14.68-2.17,24.84,2.56l.69,.32-.57,.51s-4.99,4.46-5.93,7.64l-.15,.52-.5-.19c-3.23-1.25-6.59-2.18-10-2.79l-.54-.09,.14-.53c.19-.72,.42-1.44,.69-2.14-.52,.71-.96,1.46-1.32,2.26l-.15,.34-.37-.05c-4.68-.65-11.09-.67-15.01,2.93l-1.22,1.12Zm18.5-4.73c3.11,.58,6.19,1.44,9.16,2.55,1.06-2.71,4.2-5.86,5.49-7.08-9.56-4.32-17.39-5.08-23.29-2.26-4.73,2.26-7.01,6.35-7.94,8.59,3.31-2.19,8.13-2.93,14.09-2.16,.84-1.74,2.06-3.3,3.55-4.53l2.1-1.75-1.35,2.38c-.76,1.35-1.37,2.78-1.81,4.26Z" fill="#0d2445"></path>
  </g>
  <path d="M681.62,421.66s-.04,0-.07,0c-.27-.04-.47-.29-.43-.56,.03-.24,3.04-23.94-1.89-46.59-.06-.27,.11-.54,.38-.59,.27-.06,.54,.11,.6,.38,4.96,22.82,1.93,46.69,1.9,46.93-.03,.25-.25,.44-.5,.44Z" fill="#002346"></path>
  <path d="M688.23,293.4c-.12,0-.24-.04-.33-.13l-6.5-5.79c-.21-.18-.22-.5-.04-.71,.18-.21,.5-.22,.71-.04l6.5,5.79c.21,.18,.22,.5,.04,.71-.1,.11-.24,.17-.37,.17Z" fill="#002346"></path>
  <path d="M691.23,291.4c-.12,0-.24-.04-.33-.13l-6.5-5.79c-.21-.18-.22-.5-.04-.71,.18-.21,.5-.22,.71-.04l6.5,5.79c.21,.18,.22,.5,.04,.71-.1,.11-.24,.17-.37,.17Z" fill="#002346"></path>
  <path d="M694.23,289.4c-.12,0-.24-.04-.33-.13l-6.5-5.79c-.21-.18-.22-.5-.04-.71,.18-.21,.5-.22,.71-.04l6.5,5.79c.21,.18,.22,.5,.04,.71-.1,.11-.24,.17-.37,.17Z" fill="#002346"></path>
  <g>
    <path d="M313.57,402.82c1.97-1.74,3.16-3.98,3.16-6.42,0-5.52-6.04-10-13.5-10s-13.5,4.48-13.5,10,6.04,10,13.5,10c2.7,0,5.2-.59,7.31-1.6l4.69,4.1-1.66-6.08Z" fill="#e6e7e8"></path>
    <path d="M315.23,409.4c-.12,0-.24-.04-.33-.12l-4.44-3.89c-2.19,.99-4.68,1.51-7.23,1.51-7.72,0-14-4.71-14-10.5s6.28-10.5,14-10.5,14,4.71,14,10.5c0,2.4-1.1,4.73-3.09,6.59l1.58,5.78c.06,.21-.03,.44-.22,.56-.08,.05-.17,.08-.27,.08Zm-4.69-5.1c.12,0,.24,.04,.33,.12l3.44,3.01-1.22-4.48c-.05-.18,0-.38,.15-.51,1.93-1.7,2.99-3.85,2.99-6.05,0-5.24-5.83-9.5-13-9.5s-13,4.26-13,9.5,5.83,9.5,13,9.5c2.52,0,4.97-.54,7.1-1.55,.07-.03,.14-.05,.22-.05Z" fill="#0d2445"></path>
  </g>
  <g>
    <ellipse cx="711.98" cy="202.62" rx="6.19" ry="5" transform="translate(300.23 817.79) rotate(-72.09)" fill="#f2b3c1"></ellipse>
    <path d="M711.34,209.2c-.47,0-.95-.07-1.41-.22-2.89-.93-4.31-4.55-3.18-8.05,1.13-3.51,4.4-5.61,7.29-4.67,2.89,.93,4.31,4.55,3.18,8.05-.95,2.94-3.41,4.89-5.88,4.89Zm1.28-12.17c-2.04,0-4.1,1.68-4.92,4.2-.96,2.98,.17,6.03,2.53,6.8,2.36,.76,5.07-1.04,6.03-4.03h0c.96-2.98-.17-6.03-2.53-6.79-.37-.12-.74-.17-1.11-.17Z" fill="#002346"></path>
  </g>
  <path d="M317.78,338.24c-.14,0-.28-.06-.38-.18l-8.71-10.29c-.18-.21-.15-.53,.06-.71,.21-.18,.53-.15,.7,.06l8.71,10.29c.18,.21,.15,.53-.06,.71-.09,.08-.21,.12-.32,.12Z" fill="#002346"></path>
  <path d="M321.78,336.24c-.14,0-.28-.06-.38-.18l-8.71-10.29c-.18-.21-.15-.53,.06-.71s.53-.15,.7,.06l8.71,10.29c.18,.21,.15,.53-.06,.71-.09,.08-.21,.12-.32,.12Z" fill="#002346"></path>
  <path d="M324.78,333.24c-.14,0-.28-.06-.38-.18l-8.71-10.29c-.18-.21-.15-.53,.06-.71s.53-.15,.7,.06l8.71,10.29c.18,.21,.15,.53-.06,.71-.09,.08-.21,.12-.32,.12Z" fill="#002346"></path>
  <g>
    <g>
      <circle cx="300.75" cy="111.52" r="12.21" fill="#002346"></circle>
      <path d="M304.6,123.6c-6.66,2.13-13.8-1.56-15.93-8.22s1.56-13.8,8.22-15.93,13.8,1.56,15.93,8.22-1.56,13.8-8.22,15.93Zm-7.42-23.26c-6.17,1.97-9.58,8.58-7.61,14.75s8.58,9.58,14.75,7.61,9.58-8.58,7.61-14.75-8.58-9.58-14.75-7.61Z" fill="#0d2445"></path>
    </g>
    <g>
      <circle cx="296.19" cy="120.81" r="9.39" fill="#E7CEF2"></circle>
      <path d="M299.18,130.21c-5.18,1.65-10.74-1.22-12.39-6.39s1.21-10.74,6.39-12.39,10.74,1.22,12.39,6.39-1.21,10.74-6.39,12.39Zm-5.71-17.89c-4.69,1.5-7.28,6.52-5.79,11.21s6.52,7.28,11.21,5.79,7.28-6.52,5.79-11.21-6.52-7.28-11.21-5.79Z" fill="#002346"></path>
    </g>
  </g>
  <g>
    <rect x="264.24" y="128.74" width="37.09" height="48.66" rx="18.54" ry="18.54" transform="translate(-38.72 147.53) rotate(-27.44)" fill="#f2b3c1"></rect>
    <path d="M285.47,177.26c-1.93,0-3.87-.3-5.77-.9-4.85-1.54-8.81-4.87-11.16-9.38l-5.33-10.27c-4.84-9.32-1.19-20.84,8.13-25.68,9.32-4.84,20.84-1.19,25.68,8.12l5.33,10.27c4.84,9.32,1.19,20.84-8.13,25.68-2.75,1.43-5.74,2.15-8.75,2.15Zm-5.39-47.36c-2.8,0-5.63,.65-8.28,2.03-8.83,4.58-12.28,15.5-7.7,24.33l5.33,10.27c2.22,4.28,5.97,7.43,10.57,8.89,4.6,1.45,9.48,1.03,13.76-1.19h0c8.83-4.58,12.28-15.5,7.7-24.33l-5.33-10.27c-3.21-6.18-9.52-9.73-16.04-9.73Z" fill="#002346"></path>
  </g>
  <g>
    <path d="M267.24,136.01s7.42,14.55,30.7,7.33c0,0,6.29,7.56,6.29,18.56,0,0,12.31-3.49,7.62-25.73s-24.4-26.6-36.19-18.14c-5.72,1.53-10.97,4.46-15.28,8.52-5.51,4.9-12.56,25.94,4.85,33.35,0-.02-8-16,2.01-23.89Z" fill="#002346"></path>
    <path d="M303.73,162.56v-.66c0-9.58-4.9-16.57-5.97-17.98-20.6,6.25-28.99-4.58-30.65-7.15-8.52,7.33-2.21,21.29-1.45,22.88l.06,.25v.76l-.7-.3c-6.21-2.64-10.04-7.35-11.06-13.6-1.4-8.53,2.71-17.58,6.08-20.58,4.32-4.07,9.65-7.05,15.4-8.6,5.99-4.26,13.99-5.23,20.9-2.55,8.12,3.15,13.79,10.62,15.99,21.04,4.73,22.44-7.85,26.28-7.98,26.31l-.64,.18Zm-5.62-19.8l.21,.26c.26,.31,6.14,7.5,6.39,18.16,2.42-1.06,10.61-6.1,6.64-24.91-2.13-10.08-7.59-17.29-15.38-20.32-6.64-2.58-14.31-1.62-20.03,2.48l-.16,.08c-5.62,1.5-10.83,4.41-15.07,8.4-3.28,2.92-7.06,11.81-5.77,19.68,.91,5.57,4.03,9.71,9.28,12.3-1.71-4.12-5.88-16.52,2.7-23.28l.48-.38,.28,.54c.3,.58,7.53,14.08,30.11,7.08l.32-.1Z" fill="#0d2445"></path>
  </g>
  <g>
    <ellipse cx="297.89" cy="146.3" rx="4.5" ry="6.56" transform="translate(-33.16 122.9) rotate(-22.11)" fill="#f2b3c1"></ellipse>
    <path d="M299.15,153.12c-.89,0-1.83-.3-2.73-.9-1.34-.88-2.46-2.32-3.16-4.03-1.47-3.61-.58-7.39,1.97-8.42,2.56-1.04,5.83,1.05,7.29,4.66,.7,1.72,.89,3.52,.55,5.09-.36,1.63-1.25,2.82-2.53,3.33-.45,.18-.92,.27-1.41,.27Zm-2.5-12.63c-.36,0-.7,.06-1.04,.2-2.04,.83-2.68,4.03-1.42,7.12,.62,1.53,1.61,2.8,2.78,3.57,1.11,.73,2.25,.93,3.21,.54,.96-.39,1.64-1.32,1.92-2.62,.3-1.37,.12-2.97-.5-4.5-1.05-2.59-3.11-4.31-4.95-4.31Z" fill="#002346"></path>
  </g>
  <g>
    <ellipse cx="270.73" cy="139.39" rx="9.5" ry="8.5" fill="#002346"></ellipse>
    <path d="M270.73,148.4c-5.51,0-10-4.04-10-9s4.49-9,10-9,10,4.04,10,9-4.49,9-10,9Zm0-17c-4.96,0-9,3.59-9,8s4.04,8,9,8,9-3.59,9-8-4.04-8-9-8Z" fill="#0d2445"></path>
  </g>
  <path d="M296.73,235.9s-.06,0-.1,0l-12.43-2.43c-.27-.05-.45-.32-.4-.59,.05-.27,.32-.45,.59-.39l12.43,2.43c.27,.05,.45,.32,.4,.59-.05,.24-.26,.4-.49,.4Z" fill="#002346"></path>
  <path d="M296.73,239.9s-.06,0-.1,0l-12.43-2.43c-.27-.05-.45-.32-.4-.59,.05-.27,.32-.46,.59-.39l12.43,2.43c.27,.05,.45,.32,.4,.59-.05,.24-.26,.4-.49,.4Z" fill="#002346"></path>
  <path d="M296.73,243.9s-.06,0-.1,0l-12.43-2.43c-.27-.05-.45-.32-.4-.59,.05-.27,.32-.45,.59-.39l12.43,2.43c.27,.05,.45,.32,.4,.59-.05,.24-.26,.4-.49,.4Z" fill="#002346"></path>
  <g>
    <rect x="210.27" y="148.07" width="37.72" height="48.75" rx="18.86" ry="18.86" transform="translate(-51.11 111.59) rotate(-24.71)" fill="#f2b3c1"></rect>
    <path d="M231.45,196.82c-2.26,0-4.53-.4-6.72-1.21-4.85-1.79-8.71-5.37-10.87-10.07l-4.61-10.02c-2.16-4.7-2.37-9.96-.57-14.81s5.37-8.71,10.07-10.87,9.96-2.37,14.81-.57c4.85,1.79,8.71,5.37,10.87,10.07l4.61,10.02c2.16,4.7,2.37,9.96,.57,14.81-1.79,4.85-5.37,8.71-10.07,10.87h0c-2.58,1.19-5.33,1.78-8.08,1.78Zm-4.63-47.76c-2.61,0-5.22,.57-7.67,1.69-4.46,2.05-7.85,5.71-9.55,10.31-1.7,4.6-1.51,9.59,.54,14.04l4.61,10.02c2.05,4.46,5.71,7.85,10.31,9.55,4.6,1.7,9.59,1.51,14.04-.54h0c4.46-2.05,7.85-5.71,9.55-10.31,1.7-4.6,1.51-9.59-.54-14.04l-4.61-10.02c-2.05-4.46-5.71-7.85-10.31-9.55-2.07-.77-4.23-1.15-6.38-1.15Z" fill="#002346"></path>
  </g>
  <g>
    <path d="M213.87,176.61s2.13-12.66-1.73-20.44c0,0,21.5-19.61,32.16,5.64,0,0-5.88-23.71-28-16.2-21.17,7.19-13.19,37.61,.54,44.94,.48,.25,.97-.29,.66-.73-1.72-2.48-4.55-7.58-3.63-13.21Z" fill="#002346"></path>
    <path d="M217.1,191.12c-.17,0-.33-.04-.49-.12-8.48-4.53-14.64-17.3-13.72-28.48,.7-8.54,5.41-14.71,13.26-17.38,6.49-2.2,12.25-1.97,17.12,.69,8.68,4.75,11.42,15.41,11.53,15.87l-.95,.31c-2.97-7.03-7.06-11.16-12.15-12.28-8.46-1.86-17.27,5.16-18.93,6.57,3.65,7.84,1.7,19.85,1.61,20.39-.89,5.45,1.85,10.39,3.55,12.84,.27,.39,.24,.89-.07,1.24-.2,.22-.47,.34-.75,.34Zm7.39-46.48c-2.52,0-5.2,.48-8.03,1.44-7.45,2.53-11.92,8.39-12.58,16.51-.87,10.63,5.17,23.24,13.2,27.52-1.78-2.59-4.64-7.78-3.7-13.58h0c.02-.13,2.06-12.6-1.68-20.14l-.17-.34,.28-.25c.41-.38,10.23-9.21,20.09-7.05,3.17,.7,5.96,2.46,8.35,5.26-1.72-2.7-4.15-5.49-7.48-7.31-2.51-1.37-5.28-2.06-8.29-2.06Z" fill="#0d2445"></path>
  </g>
  <g>
    <path d="M244,153.02c-4.73-2.28-10.67-.72-15.65,1.63-1.3-1.5-2.94-2.67-4.77-3.43,1.25,1.24,2.35,2.63,3.27,4.13-3.12,1.6-6.08,3.49-8.84,5.64-1.93-2.93-8.17-5.75-8.17-5.75,23.23-20.75,34.16-2.22,34.16-2.22Z" fill="#002346"></path>
    <path d="M217.89,161.71l-.3-.45c-1.83-2.77-7.9-5.54-7.96-5.57l-.7-.32,.57-.51c8.47-7.56,16.3-10.84,23.27-9.76,7.77,1.21,11.5,7.4,11.65,7.66l.84,1.42-1.49-.72c-4.81-2.32-10.93-.39-15.22,1.63l-.34,.16-.25-.29c-.62-.71-1.32-1.35-2.09-1.9,.5,.65,.96,1.32,1.39,2.01l.28,.46-.48,.25c-3.09,1.58-6.03,3.46-8.76,5.59l-.43,.33Zm-7.15-6.6c1.61,.79,5.56,2.88,7.37,5.17,2.52-1.92,5.21-3.65,8.03-5.12-.84-1.29-1.81-2.5-2.91-3.58l-1.8-1.79,2.34,.97c1.78,.74,3.4,1.87,4.7,3.28,4-1.84,9.41-3.51,14.12-2.1-1.53-1.85-4.85-5.06-9.98-5.85-6.51-1.01-13.86,2.03-21.87,9.02Z" fill="#0d2445"></path>
  </g>
  <g>
    <ellipse cx="212.89" cy="183.3" rx="4.5" ry="6.56" transform="translate(-63.13 131) rotate(-30)" fill="#f2b3c1"></ellipse>
    <path d="M214.53,189.91c-2.11,0-4.49-1.55-5.97-4.11-.93-1.6-1.37-3.37-1.24-4.97,.13-1.67,.86-2.96,2.04-3.65,1.19-.69,2.67-.67,4.18,.05,1.45,.69,2.75,1.96,3.68,3.56h0c1.95,3.37,1.59,7.24-.8,8.62-.58,.33-1.22,.49-1.89,.49Zm-3.25-12.22c-.52,0-.99,.12-1.42,.36-.89,.52-1.44,1.53-1.55,2.86-.11,1.4,.29,2.96,1.11,4.39,1.67,2.89,4.59,4.35,6.49,3.25,1.91-1.1,2.1-4.36,.43-7.25h0c-.83-1.43-1.98-2.55-3.24-3.16-.64-.3-1.26-.46-1.83-.46Z" fill="#002346"></path>
  </g>
  <g opacity=".3">
    <polygon points="260.69 88.59 157.81 282.14 124.72 115.6 128.8 114.8 174.65 105.69 229.54 94.79 260.69 88.59" fill="#fff"></polygon>
  </g>
  <g opacity=".3">
    <polygon points="343.02 72.24 196.75 362.85 174.72 367.23 170.7 347.01 303.53 80.08 343.02 72.24" fill="#fff"></polygon>
  </g>
  <g>
    <path d="M164.07,297.16s-44.54,27.37-48.22,16.23,22.06-67.29,27.21-70.15l4.38,17,3.39,13.17s-3.49,4.65-7.1,9.8c-4.27,6.11-8.71,13-7.78,13.74,1.63,1.44,20.72-10.8,20.72-10.8l7.4,11.01Z" fill="#E7CEF2"></path>
    <path d="M120.78,316.54c-1.08,0-2.03-.13-2.83-.42-1.3-.48-2.17-1.34-2.58-2.58-3.64-11.01,21.77-67.59,27.44-70.74l.57-.31,7.99,31.03-.14,.19s-3.53,4.7-7.09,9.79c-7.28,10.42-7.81,12.66-7.82,13.08,1.5,.28,11.3-5.22,20.08-10.85l.41-.26,7.96,11.85-.44,.27c-1.36,.84-31.01,18.96-43.55,18.96Zm21.99-72.44c-5.85,5.85-29.88,58.72-26.44,69.12,.31,.94,.96,1.58,1.97,1.95,9.01,3.28,40.91-15.67,45.07-18.18l-6.84-10.17c-6.05,3.86-19.22,11.98-20.91,10.49-.52-.41-1.52-1.21,7.7-14.4,3.16-4.51,6.27-8.69,6.97-9.62l-7.52-29.19Z" fill="#002346"></path>
  </g>
  <g>
    <path d="M164.49,236.56c-2.19,5.54,4.91,9.1,4.91,9.1,13.07-3.26,16.34-9.31,16.34-9.31-9.29-6.94-3.91-21.42-3.91-21.42l-2.22,.67-14.95,.47s2.76,8.37,3,10.21h0c1.18,9.69-3.17,10.28-3.17,10.28Z" fill="#f2b3c1"></path>
    <path d="M169.34,246.19l-.17-.08c-.08-.04-7.48-3.83-5.15-9.73l.11-.27,.29-.04c.09-.02,3.83-.79,2.75-9.72-.23-1.77-2.95-10.03-2.98-10.11l-.21-.63,15.55-.49,3.12-.94-.35,.94c-.05,.14-5.14,14.21,3.74,20.85l.35,.26-.21,.38c-.14,.26-3.53,6.28-16.66,9.56l-.18,.04Zm-4.47-9.21c-1.58,4.53,3.58,7.6,4.6,8.15,10.71-2.71,14.67-7.36,15.61-8.67-7.64-6.12-4.99-17.47-4.01-20.78l-1.44,.42-14.28,.45c.65,2.01,2.61,8.08,2.81,9.67,1.06,8.67-2.23,10.43-3.29,10.76Z" fill="#002346"></path>
  </g>
  <g>
    <path d="M167.68,169.01s15.51-9.18,25.07-.26c6.84,6.37,4.26,16.52,4.26,16.52" fill="#002346"></path>
    <path d="M197.5,185.39l-.97-.25c.03-.1,2.42-9.94-4.12-16.03-9.17-8.56-24.32,.23-24.47,.32l-.51-.86c.16-.09,15.94-9.26,25.67-.19,6.98,6.5,4.43,16.9,4.4,17.01Z" fill="#0d2445"></path>
  </g>
  <g>
    <path d="M143.01,243.28s11.27-4.43,21.39-7.21c7.89-1.98,15.91-3.39,24-4.23,7.63-.86,15.32-1.17,23-.92-.23,3.7-.4,7.19-.54,10.48-.2,4.33-.33,8.35-.43,12.07-.16,7-.15,13,0,18.31,.43,14.21-1.32,26.79,.92,37.58l-46.58,5.8h-3.27c-11.34-32.68-16.21-50.31-18-60.18-1.96-10.98-.49-11.7-.49-11.7Z" fill="#f2b3c1"></path>
    <path d="M161.5,315.66h-.36l-.12-.34c-10-28.81-15.89-48.52-18.02-60.25-1.83-10.25-.76-11.97-.22-12.24l.04-.02c.11-.04,11.41-4.47,21.44-7.23,7.89-1.98,15.99-3.41,24.08-4.25,7.63-.86,15.39-1.17,23.07-.92l.51,.02-.03,.51c-.2,3.26-.37,6.59-.54,10.47-.17,3.72-.31,7.56-.43,12.06-.16,6.79-.16,12.78,0,18.28,.16,5.13,.03,10.02-.1,14.75-.21,8.18-.42,15.9,1.01,22.74l.11,.53-47.12,5.87h-3.33Zm.36-1h2.91l45.98-5.73c-1.33-6.82-1.13-14.42-.92-22.44,.12-4.71,.25-9.59,.1-14.69-.16-5.53-.16-11.52,0-18.34,.12-4.51,.26-8.35,.43-12.08,.16-3.68,.32-6.87,.51-9.97-7.46-.22-15,.1-22.41,.93-8.05,.83-16.1,2.25-23.93,4.22-9.45,2.6-20.06,6.7-21.22,7.15-.17,.28-.92,2.15,.69,11.19,2.11,11.64,7.96,31.19,17.86,59.77Z" fill="#002346"></path>
  </g>
  <g>
    <path d="M156.05,360.49l4.05-45.85s-23.47-57.48-17.09-71.36c2.18-1.65,5.15-2.53,7.82-3.27,.18-.05,.35,.1,.32,.28-.27,1.79,.53,13.29,14.07,12.61,20-1,32-22,32-22,0,0,10.15-1.29,14.09,.12v19.69c.1,7.47,.3,16.34,.67,25.05,.3,10.22,1.14,20.41,2.5,30.54,0,0,11.06,19.26,13.94,37.01,.2,1.24-.56,2.43-1.78,2.73l-67.63,16.98c-1.6,.4-3.11-.89-2.97-2.53Z" fill="#E7CEF2"></path>
    <path d="M158.42,363.59c-.68,0-1.33-.24-1.87-.7-.72-.62-1.09-1.51-1-2.46l4.04-45.73c-1.47-3.62-23.35-57.9-17.04-71.64l.05-.11,.1-.08c2.17-1.65,5.02-2.53,7.99-3.36,.25-.07,.51,0,.71,.16,.19,.17,.28,.42,.24,.67-.11,.73-.04,5.15,2.94,8.44,2.38,2.62,5.95,3.83,10.61,3.6,19.49-.97,31.47-21.54,31.59-21.75l.12-.22,.25-.03c.42-.05,10.32-1.29,14.33,.15l.33,.12v20.04c.12,8.84,.35,17.5,.67,25.03,.3,10.14,1.14,20.36,2.48,30.4,.81,1.43,11.19,20.06,13.95,37.1,.24,1.51-.68,2.93-2.15,3.3l-67.63,16.98c-.24,.06-.48,.09-.72,.09Zm-15-119.99c-6.04,13.73,16.92,70.28,17.15,70.85l.05,.11-4.06,45.97c-.05,.62,.18,1.2,.66,1.61,.47,.4,1.09,.55,1.69,.4l67.63-16.98c.96-.24,1.57-1.17,1.41-2.17-2.83-17.46-13.76-36.65-13.88-36.84l-.06-.18c-1.36-10.1-2.2-20.39-2.5-30.59-.32-7.53-.55-16.2-.67-25.06v-19.33c-3.64-1.07-11.79-.2-13.29-.02-1.37,2.26-13.34,21.09-32.28,22.03-4.98,.26-8.81-1.07-11.4-3.93-2.92-3.23-3.29-7.4-3.23-8.89-2.71,.76-5.28,1.58-7.21,3.02Z" fill="#002346"></path>
  </g>
  <g>
    <path d="M211.39,230.97c7.35-1.86,46.08,54.91,46.08,54.91l43.92,27.09-5.64,11.19s-38.2-16.83-50-25.72c-8.56-6.45-23.32-23.64-30.78-32.59-3.28-3.93-5.32-8.73-5.91-13.81-.34-2.92-.55-5.85-.62-8.79,.11-4.25,1.12-8.44,2.96-12.27Z" fill="#E7CEF2"></path>
    <path d="M295.99,324.81l-.43-.19c-.38-.17-38.39-16.96-50.1-25.78-8.51-6.41-22.99-23.22-30.86-32.67-3.34-4.01-5.42-8.88-6.03-14.08-.34-2.92-.55-5.89-.63-8.84,.11-4.38,1.12-8.57,3.01-12.5l.1-.21,.23-.06c7.41-1.9,42.29,48.78,46.56,55.02l44.22,27.28-6.06,12.02Zm-84.25-93.39c-1.75,3.73-2.7,7.71-2.8,11.83,.08,2.89,.29,5.83,.62,8.72,.58,5.01,2.59,9.7,5.8,13.55,7.85,9.42,22.27,26.16,30.7,32.51,10.94,8.25,45.2,23.58,49.47,25.47l5.22-10.36-43.62-26.9-.06-.09c-15.19-22.27-39.46-54.75-45.23-54.75-.03,0-.07,0-.1,0Z" fill="#002346"></path>
  </g>
  <g>
    <rect x="159.23" y="172.89" width="38" height="52" rx="19" ry="19" fill="#f2b3c1"></rect>
    <path d="M178.23,225.4c-10.75,0-19.5-8.75-19.5-19.5v-14c0-10.75,8.75-19.5,19.5-19.5s19.5,8.75,19.5,19.5v14c0,10.75-8.75,19.5-19.5,19.5Zm0-52c-10.2,0-18.5,8.3-18.5,18.5v14c0,10.2,8.3,18.5,18.5,18.5s18.5-8.3,18.5-18.5v-14c0-10.2-8.3-18.5-18.5-18.5Z" fill="#002346"></path>
  </g>
  <g>
    <path d="M192.68,183.96s1.13,14.33-12.45,20.49c0,0-5.83,14.87-14.41,15.09-11.7,.29-22-16.34-18-33.32,5.3-21.98,38.6-23.78,44.86-2.26Z" fill="#002346"></path>
    <path d="M165.52,220.04c-4.53,0-8.98-2.41-12.55-6.81-5.75-7.08-7.91-17.47-5.63-27.13,2.9-12.03,13.79-17.63,23.3-17.86,10.86-.25,19.7,5.86,22.53,15.57l.02,.1c.01,.15,.99,14.62-12.56,20.9-.75,1.83-6.41,15-14.79,15.22-.11,0-.21,0-.32,0Zm5.76-50.8c-.21,0-.41,0-.62,0-9.13,.21-19.58,5.58-22.35,17.09-2.2,9.36-.12,19.43,5.44,26.27,3.46,4.26,7.73,6.56,12.07,6.43,8.15-.21,13.9-14.63,13.96-14.77l.07-.19,.18-.08c12.7-5.76,12.21-19.04,12.16-19.95-2.66-9.05-10.82-14.8-20.91-14.8Z" fill="#0d2445"></path>
  </g>
  <g>
    <g>
      <circle cx="135.75" cy="187.69" r="13.97" fill="#002346"></circle>
      <path d="M125.43,197.89c-5.62-5.69-5.57-14.9,.12-20.52,5.69-5.63,14.9-5.57,20.52,.12s5.57,14.9-.12,20.52c-5.69,5.63-14.9,5.57-20.52-.12Zm.76-.76c5.21,5.27,13.73,5.32,19,.11,5.27-5.21,5.32-13.73,.11-19s-13.73-5.32-19-.11-5.32,13.73-.11,19Z" fill="#0d2445"></path>
    </g>
    <g>
      <circle cx="147.6" cy="188" r="10.75" fill="#E7CEF2"></circle>
      <path d="M139.57,195.94c-4.37-4.43-4.33-11.59,.09-15.96,4.43-4.38,11.59-4.33,15.96,.09s4.33,11.59-.09,15.96c-4.43,4.38-11.59,4.33-15.96-.09Zm.76-.76c3.96,4.01,10.44,4.04,14.44,.09s4.04-10.44,.09-14.44c-3.96-4.01-10.44-4.04-14.44-.09-4.01,3.96-4.04,10.44-.09,14.44Z" fill="#002346"></path>
    </g>
  </g>
  <g>
    <path d="M169.84,167.3s22.23-6.14,25.23,9.39c4.28,21.54-16.3,23.47-16.3,23.47,0,0,5.4,17-13.07,19.37-30.7,4.03-35.06-60.94,4.14-52.23Z" fill="#002346"></path>
    <path d="M162.99,220.21c-7.05,0-13.1-3.69-17.22-10.6-6.4-10.72-6.25-26.25,.33-35.36,3.61-4.99,10.66-10.33,23.73-7.47,1.38-.36,12.82-3.18,20.14,1.36,2.99,1.85,4.87,4.7,5.6,8.45,1.34,6.72,.42,12.26-2.71,16.47-4.29,5.76-11.35,7.21-13.44,7.52,.48,1.88,1.65,7.92-1.52,12.89-2.3,3.61-6.38,5.82-12.12,6.55-.94,.12-1.87,.18-2.77,.18Zm-.08-53.22c-8.34,0-13.23,4.03-15.99,7.85-6.36,8.8-6.49,23.85-.28,34.26,4.43,7.43,11.18,10.96,19,9.93,5.43-.7,9.26-2.75,11.4-6.09,3.47-5.44,1.28-12.56,1.26-12.63l-.19-.59,.62-.06c.09,0,8.62-.89,13.33-7.2,2.96-3.97,3.81-9.24,2.53-15.67-.67-3.47-2.4-6.09-5.14-7.79-7.26-4.5-19.35-1.25-19.47-1.21l-.12,.03-.12-.03c-2.5-.56-4.77-.8-6.82-.8Z" fill="#0d2445"></path>
  </g>
  <g>
    <ellipse cx="181.23" cy="206.39" rx="4.5" ry="7" fill="#f2b3c1"></ellipse>
    <path d="M181.23,213.9c-2.76,0-5-3.36-5-7.5s2.24-7.5,5-7.5,5,3.36,5,7.5-2.24,7.5-5,7.5Zm0-14c-2.21,0-4,2.92-4,6.5s1.79,6.5,4,6.5,4-2.92,4-6.5-1.79-6.5-4-6.5Z" fill="#002346"></path>
  </g>
</svg>
