<svg id="b874e4dd-b6d2-4b92-b14f-5659b4d218b2" data-name="Layer 1" xmlns="http://www.w3.org/2000/svg" width="865.76" height="682.89" viewBox="0 0 865.76 682.89"><rect x="101.24" y="512.67" width="657.08" height="140.12" fill="#ccc"/><polygon points="668.35 480.77 758.32 512.67 758.32 535.53 101.24 535.53 101.24 512.67 194.16 481.35 668.35 480.77" fill="#ccc"/><polygon points="668.35 480.77 758.32 512.67 758.32 535.53 101.24 535.53 101.24 512.67 194.16 481.35 668.35 480.77" opacity="0.2"/><polygon points="399.52 279.85 418.19 271.99 438.55 307.33 464.42 372.23 487.98 307.1 498.25 284.46 504.84 291.39 510.61 357.22 524.47 423.73 521.7 480.77 459.8 480.77 414.3 396.02 400.5 341.28 399.52 279.85" fill="#e6e7e8"/><path d="M454,216.71l-16.86,41.5a25.16,25.16,0,0,1-17.95,15.26l-1,.2s1.34,21.05,8.86,31a15.5,15.5,0,0,0,2.46,2.53,30.47,30.47,0,0,1,10.56,20.14,46.59,46.59,0,0,0,.86,5.9c1,4.35,2.93,11.06,6.43,14.43,0,0,12.85,16.76,16.55,30,0,0,3.27-2.83,4.14-11.1,0,0,1.3-13.06,11.32-20.9,0,0,5.67-5.84,6.36-16.34a64.35,64.35,0,0,1,2.44-13.48c2.78-9.67,7-24.37,8.18-27.67,0,0-.23-3.12-8.71-11l-28.74-43L460,216.2Z" fill="#f9b499"/><path d="M404.45,280.83c2.32-1.79,8.56-5.93,20.12-9.2,0,0-3.68-6.71-26.19,2.8,0,0-8.26-2-36,12.25,0,0-17.26,5.26-26.76,26.52A36.89,36.89,0,0,0,331.85,329l-5.25,44s-2.76,88.29-12.26,107.8H486.67a65.36,65.36,0,0,0-6.76-15s-8,13.51-14,9.26c0,0-9.45-9.21-11.9-48.13a6.42,6.42,0,0,1,.86-3.61,59.15,59.15,0,0,1,7.79-10.54s-4.76-1-13.26-9.75l-27.26-48.53s-5.5-8.25-11-35.76c0,0-8.09-27.13-8-35.2A3.42,3.42,0,0,1,404.45,280.83Z" fill="#E7CEF2"/><path d="M502.63,300.93s-6.08-14.18-11.18-19.9c0,0,14.88-.26,17.43,3.22l6.26,5.33s25.54,9,26.9,11.35c0,0,31.27,24.57,31.5,54.46,0,0,4.4,53.77,7.88,60,0,0,21.09,37.54,18.54,65.35H513.75L511.9,371.15s-13-3.47-11.82-24.8A224,224,0,0,1,502.63,300.93Z" fill="#E7CEF2"/><path d="M559.12,488.21H524.53a2.33,2.33,0,0,1-2.32-2.11l-3.7-37.43a2,2,0,0,1,2-2.21h40.56a2,2,0,0,1,2,2.1L561.45,486A2.33,2.33,0,0,1,559.12,488.21Z" fill="#2f2e41"/><path d="M519.66,460.32s-4.18-4.78-8.14-.82c0,0-7.26,5.94-2.14,12.54,0,0,2.86,4.79,12,5.61l.46,4.61A25.17,25.17,0,0,1,509.19,478a14,14,0,0,1-4.51-16.88c1.76-4,5.7-7.64,14.36-7.07Z" fill="#2f2e41"/><path d="M754.65,109.67H647.11a9.87,9.87,0,0,0-9.77,8.51H623.23l14,8.83v25.75a9.87,9.87,0,0,0,9.88,9.87H754.65a9.87,9.87,0,0,0,9.88-9.87V119.54A9.87,9.87,0,0,0,754.65,109.67Z" fill="#d1d3d4"/><rect x="651.99" y="124.6" width="98.29" height="1.17" fill="#fff"/><rect x="651.99" y="135.57" width="98.29" height="1.17" fill="#fff"/><rect x="651.99" y="147.02" width="41.89" height="1.17" fill="#fff"/><circle cx="606.35" cy="120.05" r="10.38" fill="#d1d3d4"/><path d="M754.65,269.74H647.11a9.88,9.88,0,0,0-9.77,8.51H623.23l14,8.83v25.75a9.87,9.87,0,0,0,9.88,9.87H754.65a9.87,9.87,0,0,0,9.88-9.87V279.62A9.88,9.88,0,0,0,754.65,269.74Z" fill="#d1d3d4"/><rect x="651.99" y="284.67" width="98.29" height="1.17" fill="#fff"/><rect x="651.99" y="295.64" width="98.29" height="1.17" fill="#fff"/><rect x="651.99" y="307.09" width="41.89" height="1.17" fill="#fff"/><circle cx="606.35" cy="280.12" r="10.38" fill="#d1d3d4"/><path d="M605.84,189.24H713.39a9.87,9.87,0,0,1,9.76,8.51h14.11l-14,8.83v25.75a9.87,9.87,0,0,1-9.87,9.87H605.84a9.87,9.87,0,0,1-9.87-9.87V199.11A9.87,9.87,0,0,1,605.84,189.24Z" fill="#bcbec0"/><rect x="610.21" y="204.17" width="98.29" height="1.17" fill="#fff"/><rect x="610.21" y="215.14" width="98.29" height="1.17" fill="#fff"/><rect x="666.61" y="226.59" width="41.89" height="1.17" fill="#fff"/><circle cx="754.15" cy="199.62" r="10.38" fill="#bcbec0"/><path d="M605.84,30.1H713.39a9.87,9.87,0,0,1,9.76,8.51h14.11l-14,8.83V73.19a9.87,9.87,0,0,1-9.87,9.87H605.84A9.87,9.87,0,0,1,596,73.19V40A9.87,9.87,0,0,1,605.84,30.1Z" fill="#bcbec0"/><rect x="610.21" y="45.03" width="98.29" height="1.17" fill="#fff"/><rect x="610.21" y="56" width="98.29" height="1.17" fill="#fff"/><rect x="666.61" y="67.45" width="41.89" height="1.17" fill="#fff"/><circle cx="754.15" cy="40.48" r="10.38" fill="#bcbec0"/><path d="M481.92,122.86s.25-23.51-15.26-35l-1.25,5.5s-3.75-5.5-7.76-3c0,0-10.75,8.25-8.25,10.5l3.5,4.5-1.78-.39a8.56,8.56,0,0,0-8.73,3.23c-2.15,2.87-4.11,6.5-2.49,8.67,0,0,.5,2,4.25,2,0,0-11.71,5.25-5.36,7.75a18.59,18.59,0,0,0,6.86.3,27.74,27.74,0,0,1,8,.34c1.85.36,3.61.91,4.38,1.76C458,129,472.66,121.86,481.92,122.86Z" fill="#2f2e41"/><path d="M548.13,287.47,533.9,319l-6.72,12.38s15.05,2.4,51.26-10.92a4.17,4.17,0,0,1,3.92.48L596,292.77l-4.34-4.13Z" fill="#2f2e41"/><g opacity="0.2"><polygon points="533.18 331.65 532.6 331.5 551.26 292.06 595.66 292.48 595.97 292.77 595.83 293.06 551.63 292.65 533.18 331.65"/></g><path d="M490.07,279.59l-3.4-3.82s-21.43-11.09-29.1-43.63C457.57,232.14,448.28,280.43,490.07,279.59Z" fill="#f4a289"/><ellipse cx="504.84" cy="213.11" rx="68.1" ry="41.45" transform="translate(97.13 579.24) rotate(-64.81)" fill="#f9b499"/><ellipse cx="456.65" cy="199.48" rx="8.75" ry="18.09" fill="#f9b499"/><path d="M460.26,232.73c.75.18,1.8-.18,2.81-2.65l1.19-4a138,138,0,0,0,4-17c1.37-8.14,4.18-20.66,8.82-23.2,0,0,6.17-4,8.67-7.17,0,0-.59,3.71-2.06,5.53a2,2,0,0,0-.44,1.2c0,.86.52,1.85,3.67.44,0,0,8.5-2.67,11.84-15.84,0,0,.82,19.51,6.08,23,0,0,3.25,1.17.75-7.84h0a1.19,1.19,0,0,1,1.16.91c.44,1.79,1.53,5.67,2.68,5.93a45.51,45.51,0,0,1,10.29,2.86,1.13,1.13,0,0,0,1.57-.78,80.1,80.1,0,0,0,1.48-18.92s3.66-.67,3.5,8.17c0,0,.16,13.84,1.83,15,0,0,17.16,14.27,20.51,15.72,0,0-9.87,18.46-12.8,27.1a17.78,17.78,0,0,0-.83,3.88,34.91,34.91,0,0,1-3.48,12.07,4.19,4.19,0,0,0-.46,1.37c-.11.86.06,2,1.73,1.89,0,0,9.16-2.6,12.11-18.85.3-1.63.49-3.28.63-4.94.27-3.33,1.55-14.61,6.77-20.39a3.32,3.32,0,0,0,5.26-1s6.37-10.73,7.08-32.7a45.6,45.6,0,0,0-11-31.41c-5.81-6.7-14.68-14.3-28.21-21.61A71.26,71.26,0,0,0,458,129l-1.36.73s-12.12,7-15.6,19.82c0,0-13.06,15-8.06,35.49,0,0-6.75,22.15,12.63,32.52a35.34,35.34,0,0,0-.22,4.28s-11.32,8.92-3.26,9.36l.65,12.84L454,216.71s-8.81-6-4.66-27.09c0,0,2.69-6.41,4.5-7.26a14.19,14.19,0,0,0,4,4.53,6.37,6.37,0,0,1,2.71,4.42c.85,5.82,2.17,17.82.1,26.26,0,0-2.09,9.68-1.56,13.77A1.62,1.62,0,0,0,460.26,232.73Z" fill="#2f2e41"/><path d="M548.13,450.45h8.26c9,0,16.31,7.91,16.31,17.66h0c0,9.76-7.31,17.67-16.31,17.67h-6.64a4,4,0,0,1-3.81-4.13h0a4,4,0,0,1,3.81-4.13h4.51a1.19,1.19,0,0,0,1.2-1.19h0a1.19,1.19,0,0,0-1.2-1.19h-5.58a2.86,2.86,0,0,1-2.74-3h0a2.86,2.86,0,0,1,2.74-3h5.86a1,1,0,0,0,1-1h0a1,1,0,0,0-1-1h-6.43a2.26,2.26,0,0,1-2.17-2.35h0a2.27,2.27,0,0,1,2.17-2.36h6.81a1,1,0,0,0,1-1h0a1,1,0,0,0-1-1h-7.18a1.87,1.87,0,0,1-1.8-2h0a1.87,1.87,0,0,1,1.8-1.94h7.92a.67.67,0,0,0,.66-.66h0a.67.67,0,0,0-.66-.67h-7.53a2.28,2.28,0,0,1-2.19-2.37h0A2.28,2.28,0,0,1,548.13,450.45Z" fill="#f9b499"/><path d="M555.87,363.64h7.79l2.14-4.88S557.86,362.75,555.87,363.64Z" fill="#6c63ff"/><path d="M508.08,356.07l-45.42,56.67s-6.94,7.71-8.6,12.91c0,0,1.34,33.69,11,48.14a4.21,4.21,0,0,0,4.47,1.82c2.37-.57,5.87-2.88,10.4-9.85l47.53-90.71s32.31-11.57,43-19.12a7.16,7.16,0,0,0,3-5.86V348s1.48-.74,3.19-1.72a9.81,9.81,0,0,0,4.88-8.5h0s.52-.36,1.22-1a5.15,5.15,0,0,0,.18-7.66l-1.13-1.06a3.58,3.58,0,0,0,1.81-1.71,4.17,4.17,0,0,0,.15-3.87h0a4.18,4.18,0,0,0-5.3-2.11c-9,3.49-33,12-51.26,10.92L533.9,319s-13.18,7.27-18.56,8.61c0,0-8.88,3.5-7,12.91Z" fill="#f9b499"/></svg>