<svg id="b87c464e-2138-45e9-9a58-324c434bbe29" data-name="Layer 1" xmlns="http://www.w3.org/2000/svg" width="865.76" height="682.89" viewBox="0 0 865.76 682.89"><path d="M294.65,336.09l-.39-.92s2-.86,5.64-2.11l.33.94C296.64,335.25,294.67,336.08,294.65,336.09Z" fill="#E7CEF2"/><path d="M629.16,376.22c-3.93,0-8-.16-12.07-.36l0-1c4.07.19,8.12.32,12,.35Zm12.08-.16,0-1c4.1-.15,8.14-.4,12-.76l.09,1C649.41,375.66,645.36,375.91,641.24,376.06Zm-36.2-1c-3.91-.33-7.95-.73-12-1.2l.12-1c4,.46,8.07.86,12,1.19Zm60.24-1.24-.15-1c4.07-.64,8-1.42,11.78-2.32l.23,1C673.37,372.39,669.38,373.17,665.28,373.82Zm-84.21-1.5c-3.91-.56-7.92-1.18-11.92-1.85l.17-1c4,.67,8,1.3,11.89,1.85Zm-23.79-4c-3.87-.74-7.85-1.54-11.83-2.38l.21-1c4,.84,7.94,1.64,11.8,2.38Zm131.48-.22-.33-.95a102.27,102.27,0,0,0,10-4l1.1-.53.45.89-1.13.55A106.75,106.75,0,0,1,688.76,368.12Zm-155.09-4.78c-3.88-.91-7.83-1.86-11.72-2.84l.24-1c3.89,1,7.83,1.93,11.71,2.83Zm-23.39-5.89q-3-.81-5.82-1.61t-5.79-1.67l.28-1q2.88.85,5.78,1.67t5.81,1.6Zm199.82-.6-.64-.76a55.67,55.67,0,0,0,8.26-8.6l.79.61A56.28,56.28,0,0,1,710.1,356.85Zm-222.94-6.3c-3.72-1.23-7.56-2.56-11.4-3.95l.34-.94c3.83,1.38,7.66,2.71,11.37,3.94Zm-22.69-8.2c-3.26-1.27-6.64-2.63-10-4l-1.16-.48.38-.92,1.16.47c3.39,1.4,6.76,2.75,10,4Zm260.43-4.56-.9-.44a57.87,57.87,0,0,0,3.14-7.87c-.8.14-1.59.28-2.36.4l-.16-1c.93-.14,1.88-.31,2.85-.49.22-.75.43-1.5.62-2.25l1,.24c-.15.6-.32,1.2-.49,1.8,2.5-.5,5.11-1.1,7.78-1.8l.25,1c-2.87.76-5.67,1.4-8.35,1.92A60.25,60.25,0,0,1,724.9,337.79ZM442,333.66c-3.78-1.29-7.65-2.48-11.49-3.54l.27-1c3.86,1.06,7.74,2.26,11.54,3.55ZM712.7,330.9a43.67,43.67,0,0,1-12-1.58l.28-1a42.11,42.11,0,0,0,11.76,1.54Zm-401-.43-.26-1c3.81-1,7.75-2,11.73-2.87l.21,1C319.43,328.47,315.5,329.43,311.71,330.47Zm107.15-3.23c-3.88-.84-7.86-1.58-11.81-2.21l.15-1c4,.62,8,1.37,11.88,2.22Zm-83.65-1.86-.16-1c3.95-.64,8-1.19,12-1.63l.11,1C343.15,324.19,339.14,324.74,335.21,325.38Zm413-1.52-.32-.94q1.86-.63,3.78-1.32c2.52-.9,5-1.87,7.47-2.89l.39.92c-2.46,1-5,2-7.52,2.91C750.68,323,749.41,323.44,748.17,323.86Zm-353-.37c-4-.41-8-.7-12-.89l.05-1c4,.19,8.07.49,12,.89Zm294.94-.13a24.31,24.31,0,0,1-6.27-10.43l1-.29a23.36,23.36,0,0,0,6,10Zm-331-.62-.06-1c4-.23,8.06-.36,12.07-.39v1C367.13,322.38,363.09,322.51,359.1,322.74Zm411.36-8.18-.46-.89c3.58-1.82,7.1-3.8,10.47-5.88l.52.85C777.6,310.73,774.06,312.72,770.46,314.56Zm-39.72-.19-1,0c0-.51,0-1,0-1.55a50.37,50.37,0,0,0-1.06-10.31l1-.2a50.93,50.93,0,0,1,1.08,10.51C730.77,313.32,730.76,313.85,730.74,314.37ZM791,301.88l-.59-.81c3.22-2.38,6.36-4.91,9.34-7.53l.66.75C797.42,296.93,794.25,299.48,791,301.88Zm-107.54-.94-1-.1a27.19,27.19,0,0,1,3.94-11.52l.85.53A26,26,0,0,0,683.47,300.94Zm41.4-9.71a26.08,26.08,0,0,0-7.14-9.3l.62-.79a27.11,27.11,0,0,1,7.41,9.65Zm84.27-5.33-.73-.69a114.58,114.58,0,0,0,7.81-9.1l.8.61A116.93,116.93,0,0,1,809.14,285.9Zm-113.53-4.23-.5-.86a24.69,24.69,0,0,1,8.39-3.06,23.8,23.8,0,0,1,3.3-.33l0,1a21.85,21.85,0,0,0-3.15.32A23.53,23.53,0,0,0,695.61,281.67Zm128.17-15-.86-.5a76.25,76.25,0,0,0,5.19-10.77l.93.36A76.63,76.63,0,0,1,823.78,266.68Zm8.56-22.58-1-.17a57.19,57.19,0,0,0,.93-10.24q0-.83,0-1.65l1,0q0,.84,0,1.68A59,59,0,0,1,832.34,244.1Zm-1.66-23.88a66.72,66.72,0,0,0-3.81-11.32l.91-.4A67,67,0,0,1,831.65,220Zm-9.43-21.89-.2-.33-9.65-6.14.54-.85,9.89,6.36.27.43Zm-20-13-10.16-6.48.54-.84,10.16,6.48Zm-20.32-12.95L770.76,166l.54-.85,10.16,6.48Zm-20.32-13L750.44,153l.54-.84,10.16,6.48Zm-20.32-12.95L730.12,140l.53-.85,10.16,6.48Zm-491.06-.45c-4.06-.06-8.12-.18-12.06-.36l.05-1c3.93.18,8,.3,12,.36Zm12.06,0v-1c4-.06,8-.19,12-.37l0,1C269.31,145.87,265.25,146,261.28,146.06ZM285.39,145l-.07-1c4-.28,8-.62,12-1l.1,1C293.42,144.37,289.37,144.71,285.39,145Zm-60.27-.05c-4.05-.33-8.09-.73-12-1.2l.11-1c3.91.46,7.93.87,12,1.2Zm84.29-2.28-.12-1c3.95-.48,8-1,11.94-1.6l.14,1C317.4,141.64,313.37,142.18,309.41,142.66Zm-108.25-.59c-4-.64-8-1.37-11.87-2.17l.2-1c3.86.79,7.84,1.52,11.83,2.16Zm132.13-2.9-.16-1c4-.67,7.95-1.4,11.85-2.16l.19,1C341.27,137.76,337.27,138.49,333.29,139.17Zm-155.76-2c-3.95-1-7.85-2.12-11.62-3.3l.3-.95c3.75,1.17,7.64,2.28,11.57,3.28ZM357,134.54l-.22-1c4.11-.91,8.06-1.84,11.72-2.78l.25,1C365.07,132.69,361.11,133.62,357,134.54Zm363-1-10.16-6.48.54-.84,10.16,6.48ZM154.49,130c-3.8-1.43-7.56-3-11.17-4.59l.41-.91c3.59,1.61,7.33,3.14,11.11,4.57Zm225.91-1.34-.26-1c3.87-1,7.8-2.05,11.67-3l.25,1C388.19,126.56,384.26,127.58,380.4,128.61Zm23.36-5.87-.23-1c3.88-.92,7.84-1.82,11.76-2.68l.21,1C411.59,120.93,407.64,121.83,403.76,122.74Zm295.87-2.13-10.16-6.48.54-.84,10.16,6.47Zm-272.35-3-.2-1c3.93-.8,7.92-1.58,11.83-2.32l.19,1C435.19,116,431.21,116.77,427.28,117.57ZM451,113.12l-.17-1c3.92-.67,7.92-1.33,11.9-2l.15,1C458.86,111.78,454.86,112.44,451,113.12Zm227.72-3.37c-3.65-.68-7.65-1.34-11.88-2l.15-1c4.24.63,8.25,1.29,11.91,2Zm-203.93-.37-.14-1c4-.56,8-1.09,12-1.59l.12,1C482.72,108.29,478.7,108.82,474.74,109.38Zm23.9-3-.11-1c4-.44,8-.85,12-1.22l.09,1C506.65,105.54,502.62,106,498.64,106.39Zm156.22-.21c-3.92-.48-8-.92-12-1.32l.1-1c4,.39,8.06.84,12,1.32Zm-132.24-2.05-.08-1c4-.31,8-.6,12-.84l.06,1C530.63,103.54,526.58,103.82,522.62,104.13Zm108.27-.32c-3.93-.31-8-.58-12-.82l.06-1c4,.24,8.09.51,12,.82Zm-84.23-1.17,0-1c4-.19,8.09-.34,12-.46l0,1C554.73,102.31,550.68,102.46,546.66,102.64Zm60.19-.23c-4-.16-8-.28-12-.37l0-1c4,.09,8.09.21,12,.37Zm-36.12-.47v-1q6.16-.09,12.06,0v1Q576.89,101.86,570.73,101.94Z" fill="#E7CEF2"/><path d="M132.41,120c-1.78-.94-3.55-1.92-5.27-2.9l.5-.87c1.71,1,3.47,2,5.24,2.89Z" fill="#E7CEF2"/><path d="M240.77,211.72l24.36-22.53H350.9a23.14,23.14,0,0,0,23.36-22.91V95.22a22.71,22.71,0,0,0-22.92-22.49H239.49a23.35,23.35,0,0,0-23.57,23.12v69.4a24.18,24.18,0,0,0,24.42,23.94h.43Z" fill="#fff"/><path d="M240.18,213.06V189.78a24.8,24.8,0,0,1-24.85-24.53V95.85a24,24,0,0,1,24.16-23.7H351.34a23.32,23.32,0,0,1,23.51,23.07v71.06a23.75,23.75,0,0,1-24,23.5H265.36Zm-.69-139.74a22.79,22.79,0,0,0-23,22.53v69.4a23.63,23.63,0,0,0,23.83,23.36h1v21.77l23.55-21.77h86a22.59,22.59,0,0,0,22.78-22.33V95.22a22.14,22.14,0,0,0-22.34-21.9Z" fill="#E7CEF2"/><path d="M335.6,166.82s11.91,21.69,23.06,17.23l9.07-8.32L371.5,165l-17.95-11.8-13.07,1.5Z" fill="#2f2e41"/><path d="M483.54,335.63l22.86-21.55h80.48a21.93,21.93,0,0,0,21.93-21.93v-68a21.51,21.51,0,0,0-21.51-21.51h-105a22.12,22.12,0,0,0-22.12,22.12v66.39a22.91,22.91,0,0,0,22.91,22.91h.41Z" fill="#fff"/><path d="M483,337V314.66a23.51,23.51,0,0,1-23.31-23.49V224.78a22.73,22.73,0,0,1,22.7-22.71h105a22.12,22.12,0,0,1,22.09,22.1v68a22.54,22.54,0,0,1-22.51,22.52H506.63Zm-.61-133.74a21.55,21.55,0,0,0-21.53,21.53v66.39a22.34,22.34,0,0,0,22.32,22.32h1v20.79l22.05-20.79h80.71a21.36,21.36,0,0,0,21.34-21.34v-68a20.94,20.94,0,0,0-20.92-20.92Z" fill="#E7CEF2"/><path d="M608.81,253.36v43.41a26.89,26.89,0,0,1-10.08,14s-2.06-4.91-5.17-10.59L593,314.08H513.2l-2.59-35.92L489.17,287s-14.47,7.24-21.2-2.58l-20.4-29.21,16-12.14,16.79,17.83,21.44-20.68s17.86-18.6,45.12-16l17.47.53,18.82,1.55S606.48,231.65,608.81,253.36Z" fill="#E7CEF2"/><path d="M593.56,300.13s2.33-30.75,9.31-44.7v51.64a23.47,23.47,0,0,1-4.14,3.65Z" opacity="0.2"/><path d="M524.43,226.71l27.32,60.57,33.15-60.57-1.67-.48-5.39-.45-26.63,47.13L531.07,225S526,226.19,524.43,226.71Z" fill="#fff" opacity="0.4"/><path d="M531.07,225l20.14,47.94,26.63-47.13-13.43-1.1-17.47-.53S537.36,223.34,531.07,225Z" fill="#fff" opacity="0.4"/><path d="M732.3,200.64l-24,20.1v-20.1h-1a22.7,22.7,0,0,1-22.7-22.7V115.25a22.9,22.9,0,0,1,22.9-22.9H808.09a22.19,22.19,0,0,1,22.18,22.18v67a19.14,19.14,0,0,1-19.14,19.13Z" fill="#fff"/><path d="M707.67,222V201.23h-.39A23.32,23.32,0,0,1,684,177.94V115.25a23.51,23.51,0,0,1,23.49-23.48H808.09a22.79,22.79,0,0,1,22.76,22.76v67a19.74,19.74,0,0,1-19.72,19.72H732.52Zm-.19-129.06a22.35,22.35,0,0,0-22.32,22.31v62.69a22.15,22.15,0,0,0,22.12,22.11h1.57v19.44l23.24-19.44h79a18.57,18.57,0,0,0,18.55-18.54v-67a21.61,21.61,0,0,0-21.59-21.59Z" fill="#E7CEF2"/><path d="M114.66,525.14,74.46,624.8a3.65,3.65,0,0,1-3.39,2.29H58.12a2.66,2.66,0,0,1-2.38-3.85l51.83-103.12Q110.93,522.7,114.66,525.14Z" fill="#a7a9ac"/><path d="M192.36,548.17l-30.59,75.29a2.64,2.64,0,0,0,2.45,3.63h10a5.08,5.08,0,0,0,4.88-3.66l21.81-75.26Z" fill="#a7a9ac"/><path d="M326.23,627.24c3.59,0,9.2,0,13.09-.08a2.74,2.74,0,0,0,2.4-4l-46.25-92-9.1,6.2,35.18,86.64A5.11,5.11,0,0,0,326.23,627.24Z" fill="#a7a9ac"/><path d="M70.54,297.59s65.57,17.91,138.36,8A9.75,9.75,0,0,1,219.78,313c2.32,10.23,5.66,29.25,6.49,56.43,0,0,11.75,61.43,21.56,75.65,0,0,5.44,11.71,47.64,17.57,0,0,18.65,4.6,38.31,2.93,0,0,17.15-3.77,13.39,16.73,0,0-5.29,56-100.33,70.88L139.91,520.84,72.32,435.08,61.86,373.59Z" fill="#d1d3d4"/><path d="M147,454.42S124.67,508,200.24,517H230.3a6.45,6.45,0,0,1,6.17,4.53C242,539.28,263,604.19,279.83,627.09l24.63-4s-6.53-67.36-15.08-90.48l61.83,61.33,25.14-20.11-58.06-78.17S306,470.26,277.57,462.72L237.74,445,223,432.56Z" fill="#2f2e41"/><path d="M286.37,383.29l-4.28,27.16C273.55,445.37,263,443.74,263,443.74a7.68,7.68,0,0,1-5.75.63v0s0,0,0,0a11.35,11.35,0,0,1-1.32-.44,14.34,14.34,0,0,1-2-1.12,14.88,14.88,0,0,1-1.71-1.25l-.63-.53a33.08,33.08,0,0,1-3.9-4.17,74.24,74.24,0,0,1-8.06-13.06c-.2-.4-.38-.8-.57-1.22-.05-.09-.09-.2-.14-.3a1.47,1.47,0,0,1-.06-.14s0-.06-.05-.09v0a.75.75,0,0,0-.05-.14,7.89,7.89,0,0,0-1.39-2.64l-.11-.11A.27.27,0,0,0,237,419a.65.65,0,0,0-.54-.13.25.25,0,0,0-.14,0,.28.28,0,0,0-.13.09.67.67,0,0,0-.14.11,1,1,0,0,0-.13.16.83.83,0,0,0-.13.18,1.62,1.62,0,0,0-.1.18,2.68,2.68,0,0,0-.17.34h0a7.26,7.26,0,0,0-.46,2c0,.21,0,.47,0,.74v14.22c-.13,3.76,2.12,7.28,2.67,8.09l.11.15-.06,0c-.41-.24-.82-.47-1.24-.67l-.31-.15a32.71,32.71,0,0,0-14.54-2.85,67.55,67.55,0,0,0-14.11,1.71h-.06c-2,.46-3.88.94-5.42,1.38a34.91,34.91,0,0,0-4.7,1.77s0,0,0,0l-.08,0c-.94.42-1.85.88-2.77,1.36l-.89.46h0c-6.15,3-13.6,4.72-20.72,5.62h0a135.87,135.87,0,0,1-25.9.6c-4.63-1.33-4.22-6.49-3.43-9.76a22.22,22.22,0,0,1,1.44-4c7.13-16.05,1.34-49,1.34-49-2-14.27-2.15-23.69-1.73-29.69a26,26,0,0,1,8-17.3c9.78-9.08,18.66-3.22,18.66-3.22,25.64,17.17,58,11.22,58,11.22,3.13-.69,6.26,1.4,8.46,3.4a24,24,0,0,1,4,4.91c4.89,7.81,11.58,21.45,15,28.64l.32.66c.43.89.79,1.66,1.09,2.29l.14.31.53,1.11.18.4,4.27-13.81Z" fill="#E7CEF2"/><path d="M261.74,391.84l10-46.18a3.29,3.29,0,0,1,3.21-2.58h17.21L283.41,387a2.42,2.42,0,0,1-2,1.93Z" fill="#2f2e41"/><path d="M292.15,343.08l.33-1.55a1.64,1.64,0,0,0-1.6-2h-17.5a2.92,2.92,0,0,0-2.85,2.28l-11,50h2.21L271.67,346a3.65,3.65,0,0,1,3.58-2.89Z" fill="#2f2e41"/><path d="M292.15,343.08l.33-1.55a1.64,1.64,0,0,0-1.6-2h-17.5a2.92,2.92,0,0,0-2.85,2.28l-11,50h2.21L271.67,346a3.65,3.65,0,0,1,3.58-2.89Z" fill="#231f20" opacity="0.2"/><path d="M257.25,444.35v0l0,0a5.2,5.2,0,0,1-1.32-.44,14.34,14.34,0,0,1-2-1.12c-.51-.34-1.09-.75-1.71-1.25l-.63-.53a31.83,31.83,0,0,1-3.7-3.82l-.23-.27a64.12,64.12,0,0,1-8-13.14c-.2-.4-.38-.8-.57-1.22-.05-.09-.09-.2-.14-.3a1.47,1.47,0,0,1-.06-.14s0-.06-.05-.09v0a.75.75,0,0,0-.05-.14,7.79,7.79,0,0,0-1.39-2.64l-.11-.11A.27.27,0,0,0,237,419a.56.56,0,0,0-.2-.11l-.17,0-.17,0-.14,0-.13.09-.14.11-.13.16a.83.83,0,0,0-.13.18c0,.06-.07.11-.1.18a2.68,2.68,0,0,0-.17.34h0a3.91,3.91,0,0,0-.46,2c0,.21,0,.47,0,.74v14.22a12.78,12.78,0,0,0,2.67,8.09l.11.15-.06,0a11,11,0,0,0-1.24-.67l-.31-.15a35.24,35.24,0,0,0-14.54-2.85,59.07,59.07,0,0,0-14.11,1.71h-.06a81.52,81.52,0,0,0-10.12,3.15s0,0,0,0l-.08,0-3.66,1.82h0c-.45.25-7.8,4.19-20.72,5.62h0l-.4,0a3.6,3.6,0,0,1-3.12-1.79c-3.63-6.36-14.14-27.44-15.19-60.21,0,0,7.54,37.2,21.37,46.5,0,0,7,4,16.83-2.27,0,0,32.44-14.58,44.75-36.18a17.17,17.17,0,0,1-3.78-5l1.74-5.28a4.5,4.5,0,0,0,3.54-1.51s-3.67,12.82,4.71,12.07c0,0,6.86-1.52,13.39-10.56l.32.66,1.09,2.29.14.31.53,1.11.18.4L253.44,418S249.76,433.31,257.25,444.35Z" fill="#231f20" opacity="0.2"/><path d="M177.29,369.47s10.55,20.61,12.82,35.69c0,0,16.77-11.35,29.77-20.52a60.19,60.19,0,0,0,12.58-11.9c1.27-1.61,2.68-3.4,4.14-5.28,0,0-19.69,14-33.4,17.05a13.9,13.9,0,0,1-12.4-3.38C187.7,378.31,182.79,373.93,177.29,369.47Z" fill="#231f20" opacity="0.2"/><path d="M177.29,369.47s9.38,15.41,15.67,27.07a2.69,2.69,0,0,0,3.62,1.1L215,388.07l-24.88,17.09S187.84,389.83,177.29,369.47Z" fill="#231f20" opacity="0.2"/><path d="M247.83,437.19l-.23-.27a64.12,64.12,0,0,1-8-13.14c-.2-.4-.38-.8-.57-1.22-.05-.09-.09-.2-.14-.3a1.47,1.47,0,0,1-.06-.14s0-.06-.05-.09v0a.75.75,0,0,0-.05-.14,7.89,7.89,0,0,0-1.39-2.64l-.11-.11A.27.27,0,0,0,237,419a.56.56,0,0,0-.2-.11l-.17,0-.17,0-.14,0-.13.09-.14.11-.13.16a.83.83,0,0,0-.13.18c0,.06-.07.11-.1.18a2.68,2.68,0,0,0-.17.34h0a7.26,7.26,0,0,0-.46,2c0,.21,0,.47,0,.74V405.17s5,19,12.56,31.67Z" fill="#231f20" opacity="0.2"/><path d="M259,394.35,257.46,391s-5.16,19.34-4,27Z" fill="#231f20" opacity="0.2"/><path d="M295.47,624.54l-15.64,2.55s-16.35-18.58-43.36-105.55c0,0-.54-4.53-7.57-4.53H200.24S145,513.49,143.9,473.53c0,0-.35-10.57,3.07-19.11,0,0,19.72.55,25.9-.6,0,0,15.24-2.06,21.64-6.09,0,0-18.9,10.3-5.49,16,0,0,15.41.34,16.42,23.8a53.21,53.21,0,0,0,8.22,18.89A19,19,0,0,0,227,514c6.91.79,18.22,4.82,24,21.79C251,535.77,269.21,605.07,295.47,624.54Z" fill="#231f20" opacity="0.2"/><path d="M351.21,593.92l9.94-7.95s-30.22-13.58-51-42.59a24.68,24.68,0,0,1-4-9.21c-2.34-10.93-10-38.18-29.17-48,0,0-61.61-33.2-45.61-43.58a57.49,57.49,0,0,0-36.82,5.13L192.36,449s40.22,17.7,59.66,28.76c0,0,22.54,8.54,28.32,25.13l9,29.66Z" fill="#231f20" opacity="0.2"/><path d="M226.88,378.87s1.25,13.12,6.45,16l1.25-3.78a2.81,2.81,0,0,1,1.78-1.82,7.7,7.7,0,0,0,2.25-1.19,17.11,17.11,0,0,0,8.22-7.54s3.85-7.68,6.44-3.7c0,0,4.53,7.41,2.85-5.69,0,0,0-6.3-6-5.68a.63.63,0,0,1-.56-1.06c.89-.92,2.83-2,7-2.37,0,0,3.78-.58,5.62-3.29a1.1,1.1,0,0,0-1.13-1.68,49.25,49.25,0,0,1-9.07,1.08,14.32,14.32,0,0,0-5.15.89c-3.3,1.27-8.27,3.86-10.17,8.43C236.6,367.46,230,376.09,226.88,378.87Z" fill="#f9b499"/><path d="M285.21,377.92l1-4.82s-9.69-8.24-7.51-12.09c0,0-3.69-5.1,1.34-4.39,0,0-1.29-5.89,4.19-3.49,0,0,1.34-6.2,8-1.5a13.78,13.78,0,0,1,7.23,13.82,6.32,6.32,0,0,1-1.56,3.58C295.48,371.72,290.31,377,285.21,377.92Z" fill="#f9b499"/><line x1="280.5" y1="362.35" x2="289.22" y2="369.47" fill="none" stroke="#f7a48b" stroke-miterlimit="10"/><path d="M282.18,357.66s8.12,2.91,11.06,8" fill="none" stroke="#f7a48b" stroke-miterlimit="10"/><path d="M286.37,354.14s8.21,2,10.89,8.21" fill="none" stroke="#f7a48b" stroke-miterlimit="10"/><path d="M283.2,626.55s-.79,16.72,7.15,22l23.85,15.62s5.28,2.92,16.13,0l11.69-4s8.25-2.11,0-7.67l-27.59-16.95a27.39,27.39,0,0,1-10-12.52Z" fill="#E7CEF2"/><path d="M354.38,591.39s4.54,15.61,16.46,13.49L410,598.23s23.3-1.8,18.27-6.84c0,0-6.32-7.45-26.86-6.52A41.32,41.32,0,0,1,384.15,582c-4.08-1.64-8-3.94-9.27-7Z" fill="#E7CEF2"/><path d="M510.61,278.16,489.17,287s-14.47,7.24-21.2-2.58a48.14,48.14,0,0,0,20.68-1.55s9.54-2.91,14.69-8.15a6.53,6.53,0,0,0,1.8-3.84L507,254Z" opacity="0.2"/><path d="M471.74,251.67s.32,11,8.81,14.66a1.67,1.67,0,0,0,2.34-1.37l.65-7.15-3.16,3Z" opacity="0.2"/><path d="M550.62,242a3.83,3.83,0,0,0-.8-3.07,6.75,6.75,0,0,1-1.41-3.21l-.6-2.77,10.31,1.13,1.63,1.13a10.77,10.77,0,0,1-2,3.82,4.53,4.53,0,0,0-1.25,3.24l.91,20-6.16,10.68-4.28-10.14Z" fill="#2f2e41"/><path d="M447.57,246.51l-5.5-8.52a5.24,5.24,0,0,0-1.93-1.78c-3.59-1.93-13.83-8.48-6.68-17.31a2.84,2.84,0,0,0,0-3.54c-2.2-2.79-5.86-7.91-4.42-9.35,0,0,1.29-4.84,12.72,9.84a.31.31,0,0,0,.56-.2,17.34,17.34,0,0,1,.32-6.28.74.74,0,0,1,1.11-.38c.57.38,1.26,1.25,1.48,3.23a3.67,3.67,0,0,0,.57,1.59,24.73,24.73,0,0,1,3.79,11.58,8.44,8.44,0,0,0,2.15,5.37l6.86,7.46Z" fill="#f9b499"/><path d="M803.22,126.25l-.67,74.23H753.29V188.4a15.56,15.56,0,0,0-.91-5.23c-1.11-3.15-3.12-8.73-5.12-13.85l0-.12c-.81-2.19-12.74-36.23,14.15-47.58a37.78,37.78,0,0,1,5.65-1.9s11.41-3.32,19.76,0Z" fill="#E7CEF2"/><path d="M761.37,121.6v0a27.06,27.06,0,0,0-13.27,11.21h0c-8.57,14.52-1.5,34.68-.88,36.36a10.52,10.52,0,0,0-3,5.19,12.85,12.85,0,0,1-1.86,4.11c-3.93,5.5-7.78,3.86-10.08,1.91a12.29,12.29,0,0,1-2.14-2.38c-2.4-4.14-4.93-5.45-6.42-5.85a21.26,21.26,0,0,1-5-2c-3.75-2.18-5-4.24-5-4.24-7.37-9.38,5.7-13.06,5.7-13.06,7.39-3.57,13-11,15.31-14.37a28.09,28.09,0,0,0,1.73-3C744.76,119.18,761.37,121.6,761.37,121.6Z" fill="#E7CEF2"/><path d="M761.37,121.6v0a27.06,27.06,0,0,0-13.27,11.21h0c-8.57,14.52-1.5,34.68-.88,36.36a10.52,10.52,0,0,0-3,5.19,12.85,12.85,0,0,1-1.86,4.11c-3.93,5.5-7.78,3.86-10.08,1.91a12.29,12.29,0,0,1-2.14-2.38c-2.4-4.14-4.93-5.45-6.42-5.85a21.26,21.26,0,0,1-5-2c-3.75-2.18-5-4.24-5-4.24-7.37-9.38,5.7-13.06,5.7-13.06,7.39-3.57,13-11,15.31-14.37a28.09,28.09,0,0,0,1.73-3C744.76,119.18,761.37,121.6,761.37,121.6Z" fill="#fff" opacity="0.4"/><path d="M748.1,132.84c-8.57,14.52-1.5,34.68-.88,36.36a10.52,10.52,0,0,0-3,5.19,12.85,12.85,0,0,1-1.86,4.11c-6.22,8.71-12.22-.47-12.22-.47s10.39,1.67,10.39-13.74c0,0-2-24.38,7.55-31.46Z" fill="#fff" opacity="0.2"/><path d="M830.27,166.28v17.5a16.7,16.7,0,0,0-10.61,2.86c-5.8,3.86-9.85,5.16-12.65,5-5.33-.37-6.22-6.09-6.22-9.9a55,55,0,0,0-.94-10.65,99.58,99.58,0,0,0-4.28-15.4c-11.75-25,7.65-29.43,7.65-29.43,6.62-.88,11.23,2.7,14.06,6.16a24.77,24.77,0,0,1,4.2,7.78Z" fill="#E7CEF2"/><path d="M830.27,166.28v17.5a16.7,16.7,0,0,0-10.61,2.86c-5.8,3.86-9.85,5.16-12.65,5-5.33-.37-6.22-6.09-6.22-9.9a55,55,0,0,0-.94-10.65,99.58,99.58,0,0,0-4.28-15.4c-11.75-25,7.65-29.43,7.65-29.43,6.62-.88,11.23,2.7,14.06,6.16a24.77,24.77,0,0,1,4.2,7.78Z" fill="#fff" opacity="0.4"/><path d="M830.27,183.78c-6.15,20.74-25.38,16.33-25.38,16.33l3.38-2.71c2-2-1.09-5.63-1.26-5.77,2.8.17,6.85-1.13,12.65-5A16.7,16.7,0,0,1,830.27,183.78Z" fill="#f9b499"/><path d="M732.3,180.41c-7.19,8.37-17.1,12-20.71,13.15a7.3,7.3,0,0,1-3,.32c-16.74-1.93-48-39.31-48-39.31-6.88-2.68-17.6-12.06-17.6-12.06h24.63c1.5,1.84,2.19,5.52,2.19,5.52l34.76,22.39a4.23,4.23,0,0,0,5.27-.58l3.86-3.88s1.24,2.06,5,4.24a21.26,21.26,0,0,0,5,2c1.49.4,4,1.71,6.42,5.85A12.29,12.29,0,0,0,732.3,180.41Z" fill="#f9b499"/><rect x="636.5" y="116.95" width="32.67" height="25.56" fill="#E7CEF2"/><path d="M650.84,112.17c-1.26-.5-2.47-1.08-3.69-1.66s-2.39-1.2-3.55-1.84-2.58-1-3.4-2a7.44,7.44,0,0,1-1.14-1.75,7,7,0,0,1-.7-2.32l.29-.38a6.88,6.88,0,0,1,2.43.09,7.8,7.8,0,0,1,2,.65c1.25.52,1.91,1.82,2.83,2.77s1.82,2,2.69,3,1.74,2.06,2.55,3.15Z" fill="#2f2e41"/><path d="M654,111.8c.82-1.09,1.69-2.12,2.55-3.15s1.77-2,2.69-3,1.58-2.25,2.84-2.77a7.56,7.56,0,0,1,2-.66,7.09,7.09,0,0,1,2.42-.08l.29.38a7,7,0,0,1-.69,2.32,8.13,8.13,0,0,1-1.14,1.75c-.83,1.08-2.25,1.39-3.41,2s-2.34,1.26-3.55,1.84-2.42,1.16-3.69,1.66Z" fill="#2f2e41"/><path d="M332.7,72.74c0,10-3.88,18.59-9.5,22.6h0a12.08,12.08,0,0,1-7.09,2.39,11.73,11.73,0,0,1-6.16-1.79c-6.13-3.67-10.44-12.68-10.44-23.2,0-13.81,7.43-25,16.6-25S332.7,58.93,332.7,72.74Z" fill="#f9b499"/><path d="M323.2,95.34l1.8,13.15c3.69-.33,6.37,2.68,6.37,2.68,10.56,2.51,27.31,17.26,27.31,17.26l15.58,14.41c0-11.39-21.11-33.85-21.11-33.85-10.39-8.71-10.39-22.45-10.39-22.45,1-25.47-5.36-32.17-5.36-32.17-16.75-17.76-27.14-6.63-27.14-6.63-12.4.4-13.07,5.29-13.07,5.29-7.38,11.39,2.5,23.47,2.5,23.47s-1.32-12.45,4.37-21c0,0,22.19,25.66,28.52,20.3C332.58,75.82,331.79,89.39,323.2,95.34Z" fill="#2f2e41"/><ellipse cx="332.21" cy="77.66" rx="6.53" ry="5.03" transform="translate(212.23 397.03) rotate(-82.57)" fill="#f9b499"/><path d="M307.7,94.3s-9.49,16.37-13.25,18.76c0,0,8.56-5.78,14.47-5.16l1-12A11.82,11.82,0,0,1,307.7,94.3Z" fill="#2f2e41"/><path d="M325,108.49c-3.78,6.11-9.56,5.2-9.56,5.2a6.23,6.23,0,0,1-6.54-5.79l1-12a11.73,11.73,0,0,0,6.16,1.79,12.08,12.08,0,0,0,7.09-2.39h0Z" fill="#f9b499"/><path d="M309.94,95.94s3.89,6.63,9.38,6.44a2.2,2.2,0,0,1,2.34,2c.17,2.44,0,6.2-1.89,8.67,0,0,3.73-1.34,5.24-4.57L323.2,95.34S317.74,100.31,309.94,95.94Z" fill="#f7a48b"/><path d="M294.45,113.06s-29.16,20.31-40.73,32.14c0,0-9.2-27.61-25-26l-12.82,8.68v8.41s15.46,24.81,30.66,33.87a15.73,15.73,0,0,0,11.5,1.8,56.51,56.51,0,0,0,25.09-12.8s7.88,15.25,5.25,30.77H332.7s.35-9.79,1.07-16.18a21.92,21.92,0,0,1,1.69-6.31c1.5-3.46,4.11-9.63,5-12.75,0,0,14.06,10.89,23.64,16.86A2.55,2.55,0,0,1,365,175c-2.49,4.15-8.22,12.91-13.19,14.9,0,0,17.87-2.11,22.47-19.46v-27.6s-27-27.31-42.89-31.67l-18.2,6.16-11.09-8.2A36.19,36.19,0,0,0,294.45,113.06Z" fill="#E7CEF2"/><path d="M258.09,171.93s17.9-9.74,18.4-17c0,0-1.5-14.89,3-20.51,0,0,1,18.33,3.66,24.74C283.17,159.13,274.37,168.35,258.09,171.93Z" opacity="0.2"/><path d="M327.77,134.39s5.07,17.77,12.71,20.27l-4.88,12.16a22.53,22.53,0,0,0-1.52,6.42L332.7,189.9H320s12.12-6.05,11-27.76C331,162.14,326.51,139.51,327.77,134.39Z" opacity="0.2"/><path d="M203.35,110.42s4.45,8.44,11.57,8.54l2.51,3.27,8-5.53L222,110.42Z" fill="#f9b499"/><path d="M738,73l-10.56-2.64a18.53,18.53,0,1,1,9-15.89,18.55,18.55,0,0,1-2.74,9.7Z" fill="#E7CEF2"/><circle cx="723.71" cy="54.55" r="2.76" fill="#fff"/><circle cx="711.48" cy="61.34" r="1.84" fill="#fff"/><circle cx="711.48" cy="46.51" r="1.84" fill="#fff"/><rect x="716.65" y="45.34" width="0.88" height="10.12" transform="translate(315.04 646.32) rotate(-60.01)" fill="#fff"/><rect x="712.62" y="58.01" width="9.44" height="0.88" transform="translate(61.44 354.73) rotate(-28.97)" fill="#fff"/><path d="M360.93,54.48l10.55-2.64A18.53,18.53,0,1,0,381,17.41a18.53,18.53,0,0,0-15.79,28.24Z" fill="#E7CEF2"/><path d="M521,158.59l-9.59-2.48a16.27,16.27,0,0,1-8.66,2.48c-9.3,0-16.84-7.82-16.84-17.45s7.54-17.44,16.84-17.44,16.84,7.8,16.84,17.44a17.88,17.88,0,0,1-2.49,9.14Z" fill="#E7CEF2"/><rect x="636.5" y="128.45" width="32.67" height="3.06" fill="#2f2e41"/><rect x="650.07" y="116.95" width="4.11" height="25.56" fill="#2f2e41"/><path d="M373.94,30.22h1.64a0,0,0,0,1,0,0V42.28a0,0,0,0,1,0,0h-1.64a5.14,5.14,0,0,1-5.14-5.14V35.36a5.14,5.14,0,0,1,5.14-5.14Z" fill="#fff"/><path d="M378,30.22V41.37a.91.91,0,0,0,.91.91h8.2a4.53,4.53,0,0,0,4.53-4.52v-3a4.52,4.52,0,0,0-4.53-4.52h-.89a1.4,1.4,0,0,1-1.4-1.4V24.7a.78.78,0,0,0-1.36-.52Z" fill="#fff"/><path d="M503.41,138.15s2.08-4.45,5.82-3.56a4.84,4.84,0,0,1,3.59,3.9c.48,2.83-.62,7.54-10.71,11.56,0,0-13.23-7-7.87-14.08C494.24,136,499.34,131.11,503.41,138.15Z" fill="#fff"/><circle cx="425.95" cy="181.81" r="22.56" fill="#E7CEF2"/><path d="M426,201.17a19.36,19.36,0,1,1,19.36-19.36A19.38,19.38,0,0,1,426,201.17ZM426,163a18.78,18.78,0,1,0,18.77,18.78A18.8,18.8,0,0,0,426,163Z" fill="#fff"/><rect x="426.75" y="167.35" width="0.59" height="30.41" fill="#fff"/><path d="M426.86,193h-4.71v-.58h4.71a4.8,4.8,0,0,0,4.79-4.8V187a4.11,4.11,0,0,0-4.1-4.1,5.7,5.7,0,1,1,0-11.4H432V172h-4.4a5.11,5.11,0,0,0,0,10.22,4.69,4.69,0,0,1,4.69,4.69v.69A5.38,5.38,0,0,1,426.86,193Z" fill="#fff"/><path d="M229.24,352.63c-6.28,5.72-16.37,6.67-22.57,6.66a37.4,37.4,0,0,1-12.4-2.12c-13.6-4.87-23-15.77-23-15.77l9.5.6a8.23,8.23,0,0,0,7.17-3.33,25.61,25.61,0,0,0,4.37-11.09,33.6,33.6,0,0,0,.4-7.53c8.9,13.84,21,12.64,21,12.64l0,1,.19,5.79a11.49,11.49,0,0,0,.31,2.26h0a10,10,0,0,0,2.46,4.66C221.54,351.5,229.24,352.63,229.24,352.63Z" fill="#f9b499"/><path d="M214.19,341.71a92.63,92.63,0,0,1-21.89-14.13.08.08,0,0,0-.05-.05,37,37,0,0,0,.45-7.48c7.39,14.26,21,12.64,21,12.64,0,.28,0,.69,0,1l.19,5.79A11.49,11.49,0,0,0,214.19,341.71Z" fill="#f7a48b"/><ellipse cx="211.96" cy="304.26" rx="23.11" ry="28.56" fill="#f9b499"/><path d="M167.48,317.44s7.29,9.4,23.63,15.38c0,0,2.42-8.92,1.59-12.78a32.18,32.18,0,0,1-2.51-6.18l-4.6-15.66s2.73-1.45,3.9-.61c0,0-1.26,8.15-.45,10.32,0,0,2.16-6.56,5.29-8.53a11.29,11.29,0,0,0,3.61-3.33,12.38,12.38,0,0,0,1.91-4.93,1.57,1.57,0,0,1,1.51-1.43,22.24,22.24,0,0,1,10.43,2.37,2.43,2.43,0,0,0,2.63-.28l5.93-4.83-2,5.54a.82.82,0,0,0,.55,1.06l3.89,1.05a1.77,1.77,0,0,0,2.08-1l2.69-5.86a.19.19,0,0,1,.37.08v6.56a2.11,2.11,0,0,0,1.28,1.94c1.64.7,4.42,2.07,5.64,3.67,0,0,2.42,13.49-6.78,24.76,0,0-5.36,7.12-14.36,8l.13,4.14,21.59-1.35a2.81,2.81,0,0,0,2.63-2.68A78.51,78.51,0,0,1,241,314.43s8.16-31.5-5.89-43.06c0,0-26.15-19.51-45.35,2.16-.49.55-1,1.1-1.52,1.62-2.23,2.18-9.59,10.63-12.42,29.11C175.78,304.26,173.1,315.43,167.48,317.44Z" fill="#2f2e41"/><ellipse cx="188.85" cy="304.26" rx="6.28" ry="8.42" fill="#f9b499"/><path d="M246.83,553.22c-64.19,2.06-105.57-10.6-132.17-28.08q-3.73-2.45-7.09-5c-35.75-27.34-40.12-63.33-40-74.82a73.17,73.17,0,0,0-.51-9.24C54.59,336.49,33,287.48,33,287.48c50.74-18.42,40.24,43,40.24,43l-1.5,66.65c-1.51,41,59.82,57.61,59.82,57.61l58.3,17.5c7.57,3,8.39,13.72,7.8,22-.72,10.09,1,22.55,9.29,31.25C224.68,544.05,246.83,553.22,246.83,553.22Z" fill="#bcbec0"/><path d="M784.57,122.71a15.18,15.18,0,0,1-1.41,1h0c-5.57,3.39-9,.56-10.58-1.65a5.15,5.15,0,0,1-.93-3.73l1.05-8,.68-5.22h12.38l1.42,11.49A6.74,6.74,0,0,1,784.57,122.71Z" fill="#f9b499"/><path d="M784.57,122.71a15.18,15.18,0,0,1-1.41,1h0v-6.83a1.91,1.91,0,0,0-1.63-1.88,16,16,0,0,1-8.83-4.71l.68-5.22h12.38l1.42,11.49A6.74,6.74,0,0,1,784.57,122.71Z" fill="#f7a48b"/><ellipse cx="779.89" cy="87.74" rx="18.25" ry="22.49" fill="#f9b499"/><path d="M761.64,87.74s-3.92-25.42,18.25-26.4c0,0,9.45-.32,16.3,6.52,0,0,9.45-10.1,15.31-2.61,0,0,9.13,12.72-8.8,15.32,0,0-.68,14.68-6.86,18.1,0,0-1.84-10.93-8.24-13.21,0,0-12.27-4.23-15.53-15.32C772.07,70.14,764.9,70.47,761.64,87.74Z" fill="#2f2e41"/><ellipse cx="796.05" cy="98.67" rx="4.27" ry="3.18" transform="translate(312.57 738.73) rotate(-60)" fill="#f9b499"/><rect x="633.73" y="110.23" width="37.7" height="6.71" fill="#E7CEF2"/><rect x="633.73" y="110.23" width="37.7" height="6.71" fill="#fff" opacity="0.2"/><rect x="198.58" y="84.86" width="32.67" height="25.56" fill="#E7CEF2"/><path d="M212.92,80.09c-1.26-.51-2.47-1.09-3.69-1.66s-2.39-1.21-3.55-1.85-2.58-1-3.4-2a7.44,7.44,0,0,1-1.14-1.75,7,7,0,0,1-.69-2.32l.28-.37a6.9,6.9,0,0,1,2.43.08,7.8,7.8,0,0,1,2,.65c1.26.52,1.91,1.82,2.83,2.78s1.82,1.94,2.69,3,1.74,2.05,2.55,3.15Z" fill="#2f2e41"/><path d="M216.11,79.72c.82-1.1,1.69-2.12,2.55-3.15s1.77-2,2.69-3,1.58-2.25,2.84-2.77a7.55,7.55,0,0,1,2-.65,6.67,6.67,0,0,1,2.43-.08l.28.37a7,7,0,0,1-.69,2.32,8.13,8.13,0,0,1-1.14,1.75c-.82,1.09-2.25,1.39-3.41,2s-2.34,1.26-3.55,1.85-2.42,1.15-3.69,1.66Z" fill="#2f2e41"/><rect x="198.58" y="96.37" width="32.67" height="3.06" fill="#2f2e41"/><rect x="212.15" y="84.86" width="4.11" height="25.56" fill="#2f2e41"/><rect x="195.81" y="78.15" width="37.7" height="6.71" fill="#E7CEF2"/><rect x="195.81" y="78.15" width="37.7" height="6.71" fill="#fff" opacity="0.2"/><polygon points="446.01 247.67 449.04 254.04 463.58 243.02 459.45 237.59 446.01 247.67" fill="#e6e7e8"/><path d="M537.08,224.11l7.69,11.15a2.16,2.16,0,0,0,2.44.84l4.93-1.56a4,4,0,0,1,2.84.15l3.87,1.72a4.41,4.41,0,0,0,4.8-.81l10.81-10.09-10.05-.83-17.47-.53A82.27,82.27,0,0,0,537.08,224.11Z" fill="#E7CEF2"/><path d="M556.85,232.62a8.77,8.77,0,0,1-1.25.33c-3.63.12-5.87-2.17-7.19-4.49A12.09,12.09,0,0,1,547,221l1.06-8.21,14.39-4.21,1.79,11.73A11.18,11.18,0,0,1,556.85,232.62Z" fill="#f9b499"/><path d="M556.85,232.62c2.93-3.33,3.91-9,4.24-12.13a2,2,0,0,0-2-2.26c-8,0-8.75-5.08-8.75-5.08a15.41,15.41,0,0,0,12.17-4.62l1.79,11.73A11.18,11.18,0,0,1,556.85,232.62Z" fill="#f7a48b"/><ellipse cx="551.75" cy="190.28" rx="17.72" ry="22.95" fill="#f9b499"/><path d="M553.87,179.29c-5.35,2.23-18.18,6.51-22.52-1.76,0,0-6-13.07,12.07-15.11,0,0,7.54-1.23,20.35,2.79a6,6,0,0,1,5.69-3,3.42,3.42,0,0,0-1.33,3.64s2.93-2.51,4.61-1.93c0,0-2.26,1.65-1.34,3.38,0,0,9.24,4.58,3.51,23.53l-5.84,4.24A25.7,25.7,0,0,1,557,180.72,2.37,2.37,0,0,0,553.87,179.29Z" fill="#2f2e41"/><ellipse cx="571.08" cy="194.08" rx="5.44" ry="3.62" transform="translate(133.5 609.2) rotate(-62.26)" fill="#f9b499"/><path d="M308.91,107.9a8.76,8.76,0,0,0-4.3-.46,3.94,3.94,0,0,0-3.09,4.69c.66,3,2.73,7.59,9.28,7.34,0,0-9.17,22.49-15.46,29.65l1,8.93s14.2-10.56,17-32.93l2.78,26.52,6.26,9.8,2.65-8s-6.79-22.25-6.67-33.31c0,0,9,.86,12.32-6.79a4,4,0,0,0-.8-4.41,3.53,3.53,0,0,0-4.85-.4,10,10,0,0,1-9.56,5.2S309.92,114.19,308.91,107.9Z" fill="#E7CEF2"/><path d="M308.91,107.9a8.76,8.76,0,0,0-4.3-.46,3.94,3.94,0,0,0-3.09,4.69c.66,3,2.73,7.59,9.28,7.34,0,0-9.17,22.49-15.46,29.65l1,8.93s14.2-10.56,17-32.93l2.78,26.52,6.26,9.8,2.65-8s-6.79-22.25-6.67-33.31c0,0,9,.86,12.32-6.79a4,4,0,0,0-.8-4.41,3.53,3.53,0,0,0-4.85-.4,10,10,0,0,1-9.56,5.2S309.92,114.19,308.91,107.9Z" fill="#fff" opacity="0.4"/><polygon points="228.74 119.17 225.47 116.7 215.92 122.23 215.92 127.85 228.74 119.17" fill="#e6e7e8"/></svg>