<?xml version="1.0" encoding="UTF-8"?>
<svg xmlns="http://www.w3.org/2000/svg" id="a" width="865.76" height="682.89" viewBox="0 0 865.76 682.89">
  <g>
    <path d="M432.19,27.9v111.75c0,5.3-4.6,9.59-10.27,9.59h-146.72c-5.67,0-10.27-4.29-10.27-9.59V27.9c0-5.3,4.6-9.59,10.27-9.59h146.72c5.67-.02,10.27,4.27,10.27,9.59Z" fill="#fff"></path>
    <path d="M421.92,149.74h-146.72c-5.94,0-10.77-4.53-10.77-10.09V27.9c0-5.56,4.83-10.09,10.77-10.09h146.76c2.95,0,5.79,1.15,7.81,3.16,1.88,1.88,2.92,4.34,2.92,6.93v111.75c0,5.56-4.83,10.09-10.77,10.09ZM275.2,18.81c-5.39,0-9.77,4.08-9.77,9.09v111.75c0,5.01,4.38,9.09,9.77,9.09h146.72c5.39,0,9.77-4.08,9.77-9.09V27.9c0-2.32-.93-4.53-2.63-6.22-1.83-1.83-4.42-2.87-7.11-2.87h-146.76Z" fill="#0d2445"></path>
  </g>
  <g>
    <rect x="274.49" y="28.07" width="146.14" height="112.24" rx="6.51" ry="6.51" fill="#f69074"></rect>
    <path d="M414.12,140.81h-133.12c-3.87,0-7.01-3.14-7.01-7.01V34.58c0-3.87,3.14-7.01,7.01-7.01h133.12c3.87,0,7.01,3.14,7.01,7.01v99.22c0,3.87-3.14,7.01-7.01,7.01ZM281,28.57c-3.31,0-6.01,2.7-6.01,6.01v99.22c0,3.31,2.7,6.01,6.01,6.01h133.12c3.31,0,6.01-2.7,6.01-6.01V34.58c0-3.31-2.7-6.01-6.01-6.01h-133.12Z" fill="#002346"></path>
  </g>
  <g>
    <path d="M363.13,62.6s2,24.24-1.59,36.13l-40.88,2.74c1.74-18.88,2.75-43.43,2.75-43.43l39.72,4.56Z" fill="#002346"></path>
    <path d="M320.11,102.01l.05-.58c1.72-18.65,2.74-43.16,2.75-43.4l.02-.54,.53,.06,40.13,4.61,.03,.41c.08,.99,1.97,24.47-1.61,36.32l-.1,.33-41.81,2.8Zm3.78-43.41c-.16,3.67-1.13,25.28-2.68,42.33l39.95-2.68c3.14-10.92,1.74-32.01,1.5-35.21l-38.78-4.45Z" fill="#0d2445"></path>
  </g>
  <polygon points="301.63 612.26 296.02 606.66 290.41 612.26 290.41 596.86 301.63 596.86 301.63 612.26" fill="#d1d3d4"></polygon>
  <g>
    <rect x="279.92" y="415.18" width="272.9" height="181.4" fill="#fbe493"></rect>
    <path d="M553.32,597.08H279.42v-182.4h273.9v182.4Zm-272.9-1h271.9v-180.4H280.42v180.4Z" fill="#002346"></path>
  </g>
  <g>
    <rect x="290.35" y="425.77" width="252.03" height="154.02" fill="#fff"></rect>
    <path d="M542.88,580.29h-253.03v-155.02h253.03v155.02Zm-252.03-1h251.03v-153.02h-251.03v153.02Z" fill="#0d2445"></path>
  </g>
  <g>
    <rect x="396.02" y="590.38" width="40.7" height="50.4" fill="#fbe493"></rect>
    <path d="M437.22,641.28h-41.7v-51.4h41.7v51.4Zm-40.7-1h39.7v-49.4h-39.7v49.4Z" fill="#002346"></path>
  </g>
  <g>
    <rect x="379.49" y="640.25" width="73.76" height="8.82" fill="#fbe493"></rect>
    <path d="M453.75,649.57h-74.76v-9.82h74.76v9.82Zm-73.76-1h72.76v-7.82h-72.76v7.82Z" fill="#002346"></path>
  </g>
  <g>
    <rect x="317.97" y="443.11" width="61.19" height="61.34" fill="#e6e7e8"></rect>
    <path d="M379.66,504.95h-62.19v-62.34h62.19v62.34Zm-61.19-1h60.19v-60.34h-60.19v60.34Z" fill="#0d2445"></path>
  </g>
  <g>
    <g>
      <path d="M335.76,477.56h21.5c3.11,0,5.64,2.53,5.64,5.64h0v21.25h-32.73v-21.25c0-3.1,2.49-5.61,5.59-5.64Z" fill="#fff"></path>
      <path d="M363.4,504.95h-33.73v-21.75c0-3.36,2.73-6.11,6.09-6.14h21.5c3.39,0,6.14,2.75,6.14,6.14v21.75Zm-32.73-1h31.73v-20.75c0-2.83-2.31-5.14-5.14-5.14h-21.5c-2.81,.03-5.09,2.33-5.09,5.14v20.75Z" fill="#0d2445"></path>
    </g>
    <g>
      <ellipse cx="346.53" cy="463.85" rx="10.09" ry="10.11" fill="#fff"></ellipse>
      <path d="M346.53,474.46c-5.84,0-10.59-4.76-10.59-10.61s4.75-10.61,10.59-10.61,10.59,4.76,10.59,10.61-4.75,10.61-10.59,10.61Zm0-20.22c-5.29,0-9.59,4.31-9.59,9.61s4.3,9.61,9.59,9.61,9.59-4.31,9.59-9.61-4.3-9.61-9.59-9.61Z" fill="#0d2445"></path>
    </g>
  </g>
  <g>
    <rect x="385.91" y="443.11" width="61.19" height="61.34" fill="#e6e7e8"></rect>
    <path d="M447.6,504.95h-62.19v-62.34h62.19v62.34Zm-61.19-1h60.19v-60.34h-60.19v60.34Z" fill="#0d2445"></path>
  </g>
  <g>
    <g>
      <path d="M405.76,477.56h21.5c3.11,0,5.64,2.53,5.64,5.64h0v21.25h-32.79v-21.25c0-3.11,2.53-5.64,5.64-5.64h0Z" fill="#fff"></path>
      <path d="M433.4,504.95h-33.79v-21.75c0-3.39,2.75-6.14,6.14-6.14h21.51c3.39,0,6.14,2.75,6.14,6.14v21.75Zm-32.79-1h31.79v-20.75c0-2.83-2.31-5.14-5.14-5.14h-21.51c-2.83,0-5.14,2.31-5.14,5.14v20.75Z" fill="#0d2445"></path>
    </g>
    <g>
      <ellipse cx="416.5" cy="463.85" rx="10.09" ry="10.11" fill="#fff"></ellipse>
      <path d="M416.5,474.46c-5.84,0-10.59-4.76-10.59-10.61s4.75-10.61,10.59-10.61,10.59,4.76,10.59,10.61-4.75,10.61-10.59,10.61Zm0-20.22c-5.29,0-9.59,4.31-9.59,9.61s4.3,9.61,9.59,9.61,9.59-4.31,9.59-9.61-4.3-9.61-9.59-9.61Z" fill="#0d2445"></path>
    </g>
  </g>
  <g>
    <rect x="453.85" y="443.11" width="61.19" height="61.34" fill="#e6e7e8"></rect>
    <path d="M515.54,504.95h-62.19v-62.34h62.19v62.34Zm-61.19-1h60.19v-60.34h-60.19v60.34Z" fill="#0d2445"></path>
  </g>
  <g>
    <g>
      <path d="M473.69,477.56h21.5c3.11,0,5.64,2.53,5.64,5.64h0v21.25h-32.78v-21.25c0-3.11,2.53-5.64,5.64-5.64Z" fill="#fff"></path>
      <path d="M501.33,504.95h-33.78v-21.75c0-3.39,2.75-6.14,6.14-6.14h21.5c3.39,0,6.14,2.75,6.14,6.14v21.75Zm-32.78-1h31.78v-20.75c0-2.83-2.31-5.14-5.14-5.14h-21.5c-2.83,0-5.14,2.31-5.14,5.14v20.75Z" fill="#0d2445"></path>
    </g>
    <g>
      <ellipse cx="484.44" cy="463.85" rx="10.09" ry="10.11" fill="#fff"></ellipse>
      <path d="M484.44,474.46c-5.84,0-10.59-4.76-10.59-10.61s4.75-10.61,10.59-10.61,10.59,4.76,10.59,10.61-4.75,10.61-10.59,10.61Zm0-20.22c-5.29,0-9.59,4.31-9.59,9.61s4.3,9.61,9.59,9.61,9.59-4.31,9.59-9.61-4.3-9.61-9.59-9.61Z" fill="#0d2445"></path>
    </g>
  </g>
  <g>
    <rect x="317.97" y="510.62" width="61.19" height="61.34" fill="#e6e7e8"></rect>
    <path d="M379.66,572.46h-62.19v-62.34h62.19v62.34Zm-61.19-1h60.19v-60.34h-60.19v60.34Z" fill="#0d2445"></path>
  </g>
  <g>
    <path d="M337.76,545.34h21.5c3.11,0,5.64,2.53,5.64,5.64h0v21.25h-32.73v-21.25c0-3.1,2.49-5.61,5.59-5.64Z" fill="#fff"></path>
    <path d="M365.4,572.73h-33.73v-21.75c0-3.36,2.73-6.11,6.09-6.14h21.5c3.39,0,6.14,2.75,6.14,6.14v21.75Zm-32.73-1h31.73v-20.75c0-2.83-2.31-5.14-5.14-5.14h-21.5c-2.81,.03-5.09,2.33-5.09,5.14v20.75Z" fill="#0d2445"></path>
  </g>
  <g>
    <ellipse cx="348.56" cy="531.62" rx="10.09" ry="10.11" fill="#fff"></ellipse>
    <path d="M348.56,542.23c-5.84,0-10.59-4.76-10.59-10.61s4.75-10.61,10.59-10.61,10.59,4.76,10.59,10.61-4.75,10.61-10.59,10.61Zm0-20.22c-5.29,0-9.59,4.31-9.59,9.61s4.3,9.61,9.59,9.61,9.59-4.31,9.59-9.61-4.3-9.61-9.59-9.61Z" fill="#0d2445"></path>
  </g>
  <g>
    <rect x="385.91" y="510.62" width="61.19" height="61.34" fill="#e6e7e8"></rect>
    <path d="M447.6,572.46h-62.19v-62.34h62.19v62.34Zm-61.19-1h60.19v-60.34h-60.19v60.34Z" fill="#0d2445"></path>
  </g>
  <g>
    <path d="M405.76,545.34h21.5c3.11,0,5.64,2.53,5.64,5.64h0v21.25h-32.79v-21.25c0-3.11,2.53-5.64,5.64-5.64h.01Z" fill="#fff"></path>
    <path d="M433.4,572.73h-33.79v-21.75c0-3.39,2.75-6.14,6.14-6.14h21.51c3.39,0,6.14,2.75,6.14,6.14v21.75Zm-32.79-1h31.79v-20.75c0-2.83-2.31-5.14-5.14-5.14h-21.51c-2.83,0-5.14,2.31-5.14,5.14v20.75Z" fill="#0d2445"></path>
  </g>
  <g>
    <ellipse cx="416.5" cy="531.62" rx="10.09" ry="10.11" fill="#fff"></ellipse>
    <path d="M416.5,542.23c-5.84,0-10.59-4.76-10.59-10.61s4.75-10.61,10.59-10.61,10.59,4.76,10.59,10.61-4.75,10.61-10.59,10.61Zm0-20.22c-5.29,0-9.59,4.31-9.59,9.61s4.3,9.61,9.59,9.61,9.59-4.31,9.59-9.61-4.3-9.61-9.59-9.61Z" fill="#0d2445"></path>
  </g>
  <g>
    <rect x="453.85" y="510.62" width="61.19" height="61.34" fill="#e6e7e8"></rect>
    <path d="M515.54,572.46h-62.19v-62.34h62.19v62.34Zm-61.19-1h60.19v-60.34h-60.19v60.34Z" fill="#0d2445"></path>
  </g>
  <g>
    <path d="M473.7,545.34h21.5c3.11,0,5.64,2.53,5.64,5.64h0v21.25h-32.78v-21.25c0-3.11,2.53-5.64,5.64-5.64h0Z" fill="#fff"></path>
    <path d="M501.34,572.73h-33.78v-21.75c0-3.39,2.75-6.14,6.14-6.14h21.5c3.39,0,6.14,2.75,6.14,6.14v21.75Zm-32.78-1h31.78v-20.75c0-2.83-2.31-5.14-5.14-5.14h-21.5c-2.83,0-5.14,2.31-5.14,5.14v20.75Z" fill="#0d2445"></path>
  </g>
  <g>
    <ellipse cx="484.45" cy="531.62" rx="10.09" ry="10.11" fill="#fff"></ellipse>
    <path d="M484.45,542.23c-5.84,0-10.59-4.76-10.59-10.61s4.75-10.61,10.59-10.61,10.59,4.76,10.59,10.61-4.75,10.61-10.59,10.61Zm0-20.22c-5.29,0-9.59,4.31-9.59,9.61s4.3,9.61,9.59,9.61,9.59-4.31,9.59-9.61-4.3-9.61-9.59-9.61Z" fill="#0d2445"></path>
  </g>
  <g>
    <rect x="130.92" y="649.14" width="595.43" height="15.44" fill="#fff"></rect>
    <path d="M726.85,665.08H130.42v-16.44H726.85v16.44Zm-595.43-1H725.85v-14.44H131.42v14.44Z" fill="#0d2445"></path>
  </g>
  <g>
    <path d="M406.52,501.45c1.26,12.18,12.16,21.04,24.34,19.78,11.18-1.15,19.72-10.48,19.9-21.71v-4.31h0v-13.7l-.13-23.73-39.7-1.55-2,19-1.43,13.46-.88,8.61c-.17,1.38-.2,2.77-.1,4.15Z" fill="#f2b3c1"></path>
    <path d="M428.57,521.85c-11.47,0-21.34-8.7-22.54-20.35h0c-.1-1.43-.07-2.86,.1-4.26l.88-8.6,3.48-32.93,.47,.02,40.18,1.57,.13,42.22c-.18,11.49-8.93,21.03-20.35,22.21-.79,.08-1.57,.12-2.35,.12Zm-21.55-20.45c1.23,11.89,11.9,20.53,23.79,19.33,10.92-1.13,19.28-10.25,19.45-21.23v-18s-.13-23.25-.13-23.25l-38.75-1.51-4.26,40.6c-.16,1.35-.2,2.71-.1,4.06Z" fill="#002346"></path>
  </g>
  <path d="M507.17,415.64c-.08,0-.16-.02-.23-.06-.24-.13-.34-.43-.21-.67l1.85-3.55c.13-.25,.43-.34,.67-.21,.24,.13,.34,.43,.21,.67l-1.85,3.55c-.09,.17-.26,.27-.44,.27Zm3.69-7.1c-.08,0-.16-.02-.23-.06-.24-.13-.34-.43-.21-.67l1.85-3.55c.13-.25,.43-.34,.67-.21,.24,.13,.34,.43,.21,.67l-1.85,3.55c-.09,.17-.26,.27-.44,.27Zm3.69-7.1c-.08,0-.16-.02-.23-.06-.24-.13-.34-.43-.21-.67l1.85-3.55c.13-.25,.43-.34,.67-.21,.24,.13,.34,.43,.21,.67l-1.85,3.55c-.09,.17-.26,.27-.44,.27Zm3.69-7.1c-.08,0-.16-.02-.23-.06-.24-.13-.34-.43-.21-.67l1.85-3.55c.13-.25,.43-.34,.67-.21,.24,.13,.34,.43,.21,.67l-1.85,3.55c-.09,.17-.26,.27-.44,.27Zm3.69-7.1c-.08,0-.16-.02-.23-.06-.24-.13-.34-.43-.21-.67l1.85-3.55c.13-.25,.43-.34,.67-.21,.24,.13,.34,.43,.21,.67l-1.85,3.55c-.09,.17-.26,.27-.44,.27Zm3.69-7.1c-.08,0-.16-.02-.23-.06-.24-.13-.34-.43-.21-.67l1.03-1.99c.13-.25,.43-.34,.67-.21,.24,.13,.34,.43,.21,.67l-1.03,1.99c-.09,.17-.26,.27-.44,.27Z" fill="#002346"></path>
  <g>
    <path d="M634.6,64.41v111.2c0,5.26-4.53,9.53-10.13,9.53l-102.24-.24h-17.67l-24.95,.21c-5.6,0-10.13-4.27-10.13-9.53V64.41c0-5.27,4.53-9.54,10.13-9.54h144.86c5.6,.03,10.13,4.27,10.13,9.54Z" fill="#fff"></path>
    <path d="M624.47,185.64l-102.24-.24h-17.67l-24.95,.21c-5.87,0-10.63-4.5-10.63-10.03V64.41c0-5.54,4.77-10.04,10.63-10.04h144.86c5.86,.03,10.63,4.53,10.63,10.04v111.2c0,5.53-4.77,10.03-10.63,10.03Zm-102.24-1.24l102.24,.24c5.31,0,9.63-4.05,9.63-9.03V64.41c0-4.96-4.32-9.01-9.63-9.04h-144.86c-5.31,0-9.63,4.06-9.63,9.04v111.17c0,4.98,4.32,9.03,9.63,9.03l24.95-.21h17.67Z" fill="#2f2e41"></path>
  </g>
  <g>
    <path d="M485.2,64.33h131.39c3.55,0,6.43,2.88,6.43,6.43v97.93c0,3.55-2.88,6.43-6.43,6.43h-131.39c-3.55,0-6.42-2.87-6.42-6.42h0V70.76c0-3.55,2.88-6.43,6.43-6.43h0Z" fill="#fbe493"></path>
    <path d="M616.59,175.62h-131.39c-3.82,0-6.92-3.1-6.92-6.92V70.76c0-3.82,3.1-6.92,6.92-6.93h131.39c3.82,0,6.93,3.11,6.93,6.93v97.93c0,3.82-3.11,6.93-6.93,6.93Zm-131.38-110.79c-3.27,0-5.93,2.66-5.93,5.93v97.94c0,3.26,2.66,5.92,5.92,5.92h131.39c3.27,0,5.93-2.66,5.93-5.93V70.76c0-3.27-2.66-5.93-5.93-5.93h-131.38Z" fill="#002346"></path>
  </g>
  <g>
    <path d="M600.63,175.04h-16.08v-17.35s12.56,2.91,12.56,2.92c1.5,4.72,2.68,9.55,3.52,14.43Z" fill="#f2b3c1"></path>
    <path d="M601.22,175.54h-17.17v-18.48l6.89,1.6c6.15,1.43,6.63,1.54,6.66,1.86,1.49,4.71,2.68,9.56,3.52,14.43l.1,.58Zm-16.17-1h14.98c-.81-4.56-1.93-9.1-3.32-13.51-1.37-.32-7.74-1.8-11.67-2.71v16.22Z" fill="#002346"></path>
  </g>
  <g>
    <path d="M523.41,157.69v17.35h-15.19c.5-4,1-7.14,1.42-9.63l13.77-7.72Z" fill="#f2b3c1"></path>
    <path d="M523.91,175.54h-16.26l.07-.56c.52-4.16,1.03-7.34,1.42-9.65l.04-.24,14.72-8.25v18.7Zm-15.12-1h14.12v-16l-12.82,7.19c-.36,2.17-.83,5.08-1.31,8.81Z" fill="#002346"></path>
  </g>
  <path d="M519.85,113.21l-.17-.13h0l.17,.13Z" fill="#002e3b"></path>
  <g>
    <path d="M537.36,131.16s-19.66,0-32.63,34.25l18.65,8.83s12.92-35.4,13.98-43.08Z" fill="#f69074"></path>
    <path d="M523.66,174.93l-19.56-9.26,.16-.43c12.94-34.18,32.28-34.57,33.1-34.57h.57l-.08,.57c-1.06,7.64-13.48,41.73-14.01,43.18l-.19,.51Zm-18.3-9.77l17.74,8.4c1.55-4.28,12.2-33.79,13.67-41.85-3.34,.37-19.99,3.69-31.4,33.45Z" fill="#002346"></path>
  </g>
  <g>
    <path d="M570.28,131.16s20.78,2.38,31.54,32.92l-17.26,11s-13.23-36.24-14.28-43.92Z" fill="#f69074"></path>
    <path d="M584.3,175.84l-.21-.58c-.54-1.48-13.26-36.38-14.31-44.02l-.09-.64,.64,.07c.21,.02,21.21,2.77,31.95,33.25l.13,.37-18.12,11.55Zm-13.42-44.06c1.51,8.16,12.27,37.98,13.93,42.55l16.4-10.45c-9.47-26.48-26.74-31.36-30.33-32.1Z" fill="#002346"></path>
  </g>
  <path d="M471.33,350.04s-.05,0-.08,0c-.27-.04-.46-.3-.42-.57l.6-3.95c.04-.27,.3-.46,.57-.42,.27,.04,.46,.3,.42,.57l-.6,3.95c-.04,.25-.25,.42-.49,.42Zm1.2-7.91s-.05,0-.08,0c-.27-.04-.46-.3-.42-.57l.6-3.95c.04-.27,.3-.45,.57-.42,.27,.04,.46,.3,.42,.57l-.6,3.95c-.04,.25-.25,.42-.49,.42Zm1.2-7.91s-.05,0-.08,0c-.27-.04-.46-.3-.42-.57l.6-3.95c.04-.27,.3-.46,.57-.42,.27,.04,.46,.3,.42,.57l-.6,3.95c-.04,.25-.25,.42-.49,.42Zm1.2-7.91s-.05,0-.08,0c-.27-.04-.46-.3-.42-.57l.6-3.95c.04-.27,.3-.46,.57-.42,.27,.04,.46,.3,.42,.57l-.6,3.95c-.04,.25-.25,.42-.49,.42Zm1.2-7.91s-.05,0-.08,0c-.27-.04-.46-.3-.42-.57l.6-3.96c.04-.27,.3-.46,.57-.42,.27,.04,.46,.3,.42,.57l-.6,3.96c-.04,.25-.25,.42-.49,.42Zm1.2-7.91s-.05,0-.08,0c-.27-.04-.46-.3-.42-.57l.6-3.96c.04-.27,.3-.46,.57-.42,.27,.04,.46,.3,.42,.57l-.6,3.96c-.04,.25-.25,.42-.49,.42Zm1.2-7.91s-.05,0-.08,0c-.27-.04-.46-.3-.42-.57l.6-3.96c.04-.27,.29-.46,.57-.42,.27,.04,.46,.3,.42,.57l-.6,3.96c-.04,.25-.25,.42-.49,.42Zm1.2-7.91s-.05,0-.08,0c-.27-.04-.46-.3-.42-.57l.6-3.96c.04-.27,.3-.46,.57-.42,.27,.04,.46,.3,.42,.57l-.6,3.96c-.04,.25-.25,.42-.49,.42Zm1.2-7.91s-.05,0-.08,0c-.27-.04-.46-.3-.42-.57l.6-3.96c.04-.27,.3-.46,.57-.42,.27,.04,.46,.3,.42,.57l-.6,3.96c-.04,.25-.25,.42-.49,.42Zm1.2-7.91s-.05,0-.08,0c-.27-.04-.46-.3-.42-.57l.6-3.96c.04-.27,.3-.46,.57-.42,.27,.04,.46,.3,.42,.57l-.6,3.96c-.04,.25-.25,.42-.49,.42Zm1.2-7.91s-.05,0-.08,0c-.27-.04-.46-.3-.42-.57l.6-3.95c.04-.27,.3-.46,.57-.42,.27,.04,.46,.3,.42,.57l-.6,3.95c-.04,.25-.25,.42-.49,.42Zm1.2-7.91s-.05,0-.08,0c-.27-.04-.46-.3-.42-.57l.6-3.95c.04-.27,.3-.46,.57-.42,.27,.04,.46,.3,.42,.57l-.6,3.95c-.04,.25-.25,.42-.49,.42Zm1.2-7.91s-.05,0-.08,0c-.27-.04-.46-.3-.42-.57l.6-3.95c.04-.27,.3-.46,.57-.42,.27,.04,.46,.3,.42,.57l-.6,3.95c-.04,.25-.25,.42-.49,.42Zm1.2-7.91s-.05,0-.08,0c-.27-.04-.46-.3-.42-.57l.6-3.95c.04-.27,.3-.46,.57-.42,.27,.04,.46,.3,.42,.57l-.6,3.95c-.04,.25-.25,.42-.49,.42Zm1.2-7.91s-.05,0-.08,0c-.27-.04-.46-.3-.42-.57l.6-3.95c.04-.27,.3-.46,.57-.42,.27,.04,.46,.3,.42,.57l-.6,3.95c-.04,.25-.25,.42-.49,.42Zm1.2-7.91s-.05,0-.08,0c-.27-.04-.46-.3-.42-.57l.6-3.96c.04-.27,.3-.46,.57-.42,.27,.04,.46,.3,.42,.57l-.6,3.96c-.04,.25-.25,.42-.49,.42Zm1.2-7.91s-.05,0-.08,0c-.27-.04-.46-.3-.42-.57l.6-3.96c.04-.27,.3-.46,.57-.42,.27,.04,.46,.3,.42,.57l-.6,3.96c-.04,.25-.25,.42-.49,.42Zm1.2-7.91s-.05,0-.08,0c-.27-.04-.46-.3-.42-.57l.6-3.96c.04-.27,.3-.46,.57-.42,.27,.04,.46,.3,.42,.57l-.6,3.96c-.04,.25-.25,.42-.49,.42Zm1.2-7.91s-.05,0-.08,0c-.27-.04-.46-.3-.42-.57l.6-3.96c.04-.27,.3-.45,.57-.42,.27,.04,.46,.3,.42,.57l-.6,3.96c-.04,.25-.25,.42-.49,.42Zm1.2-7.91s-.05,0-.08,0c-.27-.04-.46-.3-.42-.57l.6-3.96c.04-.27,.29-.46,.57-.42,.27,.04,.46,.3,.42,.57l-.6,3.96c-.04,.25-.25,.42-.49,.42Zm1.2-7.91s-.05,0-.08,0c-.27-.04-.46-.3-.42-.57l.6-3.96c.04-.27,.3-.46,.57-.42,.27,.04,.46,.3,.42,.57l-.6,3.96c-.04,.25-.25,.42-.49,.42Z" fill="#002346"></path>
  <path d="M323.5,415.61c-.19,0-.37-.11-.45-.29l-1.67-3.63c-.12-.25,0-.55,.25-.66,.25-.11,.55,0,.66,.25l1.67,3.63c.12,.25,0,.55-.25,.66-.07,.03-.14,.05-.21,.05Zm-3.34-7.27c-.19,0-.37-.11-.45-.29l-1.67-3.63c-.12-.25,0-.55,.25-.66,.25-.12,.55,0,.66,.25l1.67,3.63c.12,.25,0,.55-.25,.66-.07,.03-.14,.05-.21,.05Zm-3.34-7.27c-.19,0-.37-.11-.45-.29l-1.67-3.64c-.12-.25,0-.55,.25-.66,.25-.11,.55,0,.66,.25l1.67,3.64c.12,.25,0,.55-.25,.66-.07,.03-.14,.05-.21,.05Zm-3.34-7.27c-.19,0-.37-.11-.45-.29l-1.67-3.63c-.12-.25,0-.55,.25-.66,.25-.11,.55,0,.66,.25l1.67,3.63c.12,.25,0,.55-.25,.66-.07,.03-.14,.05-.21,.05Zm-3.34-7.27c-.19,0-.37-.11-.45-.29l-1.67-3.63c-.12-.25,0-.55,.25-.66s.55,0,.66,.25l1.67,3.63c.12,.25,0,.55-.25,.66-.07,.03-.14,.05-.21,.05Zm-3.34-7.27c-.19,0-.37-.11-.45-.29l-1.67-3.64c-.12-.25,0-.55,.25-.66,.25-.12,.55,0,.66,.25l1.67,3.64c.12,.25,0,.55-.25,.66-.07,.03-.14,.05-.21,.05Zm-3.34-7.27c-.19,0-.37-.11-.45-.29l-1.67-3.63c-.12-.25,0-.55,.25-.66,.25-.11,.55,0,.66,.25l1.67,3.63c.12,.25,0,.55-.25,.66-.07,.03-.14,.05-.21,.05Zm-3.34-7.27c-.19,0-.37-.11-.45-.29l-1.67-3.63c-.12-.25,0-.55,.25-.66,.25-.12,.55,0,.66,.25l1.67,3.63c.12,.25,0,.55-.25,.66-.07,.03-.14,.05-.21,.05Zm-3.34-7.27c-.19,0-.37-.11-.45-.29l-1.67-3.64c-.12-.25,0-.55,.25-.66,.25-.11,.55,0,.66,.25l1.67,3.64c.12,.25,0,.55-.25,.66-.07,.03-.14,.05-.21,.05Z" fill="#002346"></path>
  <g>
    <path d="M394.26,214.14v125.27c0,5.94-5.15,10.75-11.5,10.75l-116.09-.26h-20.05l-28.33,.24c-6.35,0-11.5-4.81-11.5-10.75v-125.25c0-5.94,5.15-10.75,11.5-10.75h164.47c6.35,0,11.5,4.81,11.5,10.75Z" fill="#fff"></path>
    <path d="M382.76,350.66l-116.09-.26h-20.05l-28.33,.24c-6.62,0-12-5.05-12-11.25v-125.25c0-6.2,5.38-11.25,12-11.25h164.47c6.62,0,12,5.05,12,11.25v125.27c0,6.2-5.38,11.25-12,11.25Zm-116.09-1.26l116.09,.26c6.06,0,11-4.6,11-10.25v-125.27c0-5.65-4.93-10.25-11-10.25H218.29c-6.07,0-11,4.6-11,10.25v125.25c0,5.65,4.93,10.25,11,10.25l28.33-.24h20.05Z" fill="#0d2445"></path>
  </g>
  <g>
    <polygon points="308.92 140.09 302.3 140.09 303 135.26 308.92 140.09" fill="#f2b3c1"></polygon>
    <path d="M310.32,140.59h-8.6l.91-6.28,7.69,6.28Zm-7.45-1h4.64l-4.15-3.38-.49,3.38Z" fill="#002346"></path>
  </g>
  <g>
    <path d="M329.34,96.22c-1.15,9.76-7.78,31.44-11.17,43.87h-9.25c-1.84-1.51-6.86-5.59-8.63-7,6.01-13.67,12.28-33.54,29.05-36.87Z" fill="#fbe493"></path>
    <path d="M318.55,140.59h-9.81l-.14-.11c-1.92-1.57-6.9-5.62-8.62-7l-.3-.24,.15-.35c.71-1.62,1.42-3.32,2.16-5.07,5.44-12.97,12.21-29.1,27.25-32.09l.67-.13-.08,.68c-.89,7.59-5.1,22.41-8.49,34.33-1,3.52-1.93,6.8-2.7,9.62l-.1,.37Zm-9.45-1h8.69c.75-2.73,1.65-5.89,2.6-9.26,3.27-11.52,7.32-25.78,8.37-33.47-14.05,3.24-20.58,18.8-25.84,31.35-.68,1.63-1.35,3.22-2.01,4.73,1.9,1.52,6.3,5.09,8.2,6.65Z" fill="#002346"></path>
  </g>
  <g>
    <polygon points="377.44 140.09 384.07 140.09 383.36 135.26 377.44 140.09" fill="#f2b3c1"></polygon>
    <path d="M384.65,140.59h-8.61l7.69-6.27,.92,6.27Zm-5.81-1h4.65l-.5-3.39-4.15,3.39Z" fill="#002346"></path>
  </g>
  <g>
    <path d="M357.02,96.22c1.16,9.76,7.78,31.44,11.17,43.87h9.25l8.63-7c-6.01-13.67-12.31-33.54-29.05-36.87Z" fill="#fbe493"></path>
    <path d="M377.62,140.59h-9.81l-.1-.37c-.76-2.8-1.69-6.08-2.69-9.58-3.38-11.93-7.59-26.77-8.5-34.37l-.08-.68,.68,.13c15.03,2.99,21.82,19.15,27.27,32.13,.73,1.74,1.44,3.43,2.14,5.03l.15,.35-9.06,7.35Zm-9.05-1h8.69l8.2-6.65c-.66-1.5-1.32-3.08-2-4.69-5.27-12.56-11.82-28.15-25.86-31.39,1.06,7.71,5.1,21.98,8.38,33.52,.95,3.35,1.84,6.5,2.59,9.22Z" fill="#002346"></path>
  </g>
  <path d="M424.01,335.92c-.25,0-.47-.19-.5-.44l-.45-4.01c-.03-.27,.17-.52,.44-.55,.27-.02,.52,.17,.55,.44l.45,4.01c.03,.27-.17,.52-.44,.55-.02,0-.04,0-.06,0Zm-.91-8.03c-.25,0-.47-.19-.5-.44l-.45-4.01c-.03-.27,.17-.52,.44-.55,.28-.03,.52,.17,.55,.44l.45,4.01c.03,.27-.17,.52-.44,.55-.02,0-.04,0-.06,0Zm-.91-8.03c-.25,0-.47-.19-.5-.44l-.45-4.01c-.03-.27,.17-.52,.44-.55,.28-.03,.52,.17,.55,.44l.45,4.01c.03,.27-.17,.52-.44,.55-.02,0-.04,0-.06,0Zm-.91-8.03c-.25,0-.47-.19-.5-.44l-.45-4.01c-.03-.27,.17-.52,.44-.55,.28-.02,.52,.17,.55,.44l.45,4.01c.03,.27-.17,.52-.44,.55-.02,0-.04,0-.06,0Zm-.91-8.03c-.25,0-.47-.19-.5-.44l-.45-4.01c-.03-.27,.17-.52,.44-.55,.28-.02,.52,.17,.55,.44l.45,4.01c.03,.27-.17,.52-.44,.55-.02,0-.04,0-.06,0Zm-.91-8.03c-.25,0-.47-.19-.5-.44l-.45-4.01c-.03-.27,.17-.52,.44-.55,.28-.02,.52,.17,.55,.44l.45,4.01c.03,.27-.17,.52-.44,.55-.02,0-.04,0-.06,0Zm-.91-8.03c-.25,0-.47-.19-.5-.44l-.45-4.01c-.03-.27,.17-.52,.44-.55,.27-.03,.52,.17,.55,.44l.45,4.01c.03,.27-.17,.52-.44,.55-.02,0-.04,0-.06,0Zm-.91-8.03c-.25,0-.47-.19-.5-.44l-.45-4.01c-.03-.27,.17-.52,.44-.55,.27-.03,.52,.17,.55,.44l.45,4.01c.03,.27-.17,.52-.44,.55-.02,0-.04,0-.06,0Zm-.91-8.03c-.25,0-.47-.19-.5-.44l-.45-4.01c-.03-.27,.17-.52,.44-.55,.27-.03,.52,.17,.55,.44l.45,4.01c.03,.27-.17,.52-.44,.55-.02,0-.04,0-.06,0Zm-.91-8.03c-.25,0-.47-.19-.5-.44l-.45-4.01c-.03-.27,.17-.52,.44-.55,.28-.04,.52,.17,.55,.44l.45,4.01c.03,.27-.17,.52-.44,.55-.02,0-.04,0-.06,0Zm-.91-8.03c-.25,0-.47-.19-.5-.44l-.45-4.01c-.03-.27,.17-.52,.44-.55,.28-.02,.52,.17,.55,.44l.45,4.01c.03,.27-.17,.52-.44,.55-.02,0-.04,0-.06,0Zm-.91-8.03c-.25,0-.47-.19-.5-.44l-.45-4.01c-.03-.27,.17-.52,.44-.55,.28-.02,.52,.17,.55,.44l.45,4.01c.03,.27-.17,.52-.44,.55-.02,0-.04,0-.06,0Zm-.91-8.03c-.25,0-.47-.19-.5-.44l-.45-4.01c-.03-.27,.17-.52,.44-.55,.28-.03,.52,.17,.55,.44l.45,4.01c.03,.27-.17,.52-.44,.55-.02,0-.04,0-.06,0Zm-.91-8.03c-.25,0-.47-.19-.5-.44l-.45-4.01c-.03-.27,.17-.52,.44-.55,.28-.03,.52,.17,.55,.44l.45,4.01c.03,.27-.17,.52-.44,.55-.02,0-.04,0-.06,0Zm-.91-8.03c-.25,0-.47-.19-.5-.44l-.45-4.01c-.03-.27,.17-.52,.44-.55,.28-.02,.52,.17,.55,.44l.45,4.01c.03,.27-.17,.52-.44,.55-.02,0-.04,0-.06,0Zm-.91-8.03c-.25,0-.47-.19-.5-.44l-.45-4.01c-.03-.27,.17-.52,.44-.55,.27-.02,.52,.17,.55,.44l.45,4.01c.03,.27-.17,.52-.44,.55-.02,0-.04,0-.06,0Zm-.91-8.03c-.25,0-.47-.19-.5-.44l-.45-4.01c-.03-.27,.17-.52,.44-.55,.27-.02,.52,.17,.55,.44l.45,4.01c.03,.27-.17,.52-.44,.55-.02,0-.04,0-.06,0Zm-.91-8.03c-.25,0-.47-.19-.5-.44l-.45-4.01c-.03-.27,.17-.52,.44-.55,.28-.03,.52,.17,.55,.44l.45,4.01c.03,.27-.17,.52-.44,.55-.02,0-.04,0-.06,0Zm-.91-8.03c-.25,0-.47-.19-.5-.44l-.45-4.01c-.03-.27,.17-.52,.44-.55,.28-.03,.52,.17,.55,.44l.45,4.01c.03,.27-.17,.52-.44,.55-.02,0-.04,0-.06,0Zm-.91-8.03c-.25,0-.47-.19-.5-.44l-.45-4.01c-.03-.27,.17-.52,.44-.55,.28-.02,.52,.17,.55,.44l.45,4.01c.03,.27-.17,.52-.44,.55-.02,0-.04,0-.06,0Zm-.91-8.03c-.25,0-.47-.19-.5-.44l-.45-4.01c-.03-.27,.17-.52,.44-.55,.28-.02,.52,.17,.55,.44l.45,4.01c.03,.27-.17,.52-.44,.55-.02,0-.04,0-.06,0Zm-.91-8.03c-.25,0-.47-.19-.5-.44l-.45-4.01c-.03-.27,.17-.52,.44-.55,.28-.02,.52,.17,.55,.44l.45,4.01c.03,.27-.17,.52-.44,.55-.02,0-.04,0-.06,0Zm-.91-8.03c-.25,0-.47-.19-.5-.44l-.45-4.01c-.03-.27,.17-.52,.44-.55,.28-.03,.52,.17,.55,.44l.45,4.01c.03,.27-.17,.52-.44,.55-.02,0-.04,0-.06,0Z" fill="#002346"></path>
  <path d="M424.67,341.8c-.25,0-.47-.19-.5-.44l-.22-1.98c-.03-.27,.17-.52,.44-.55,.27-.03,.52,.17,.55,.44l.22,1.98c.03,.27-.17,.52-.44,.55-.02,0-.04,0-.06,0Z" fill="#2f2e41"></path>
  <path d="M559.14,601.11l2.1,3.32c7.85,12.43,4.24,28.85-8.09,36.85h0c-9.85,6.37-22.69,5.61-31.72-1.88l-11-9.11,48.71-29.18Z" fill="#f2b5aa"></path>
  <g>
    <path d="M561.58,632.54c27-34.7,10.09-168.41,10.09-168.41h-31.14l-21.62,163.07s36.58,13.16,42.67,5.34Z" fill="#f2b3c1"></path>
    <path d="M553.33,635.5c-12.64,0-33.45-7.42-34.59-7.83l-.38-.14,.05-.4,21.68-163.5h32.02l.06,.44c.17,1.34,16.63,134.31-10.19,168.78h0c-1.49,1.92-4.66,2.65-8.64,2.65Zm-33.87-8.64c3.89,1.36,36.25,12.4,41.73,5.37,25.8-33.16,11.07-159.15,10.04-167.6h-30.26l-21.51,162.23Z" fill="#002346"></path>
  </g>
  <g>
    <path d="M377.52,507.06s-58.59,5.55-101.28,96.84l60.52,28.64s37.68-103.1,40.76-125.48Z" fill="#f69074"></path>
    <path d="M337.04,633.23l-61.47-29.09,.21-.45c22.1-47.27,48.54-71.15,66.83-82.86,19.86-12.72,34.71-14.25,34.85-14.26l.63-.06-.09,.63c-3.05,22.18-40.41,124.55-40.79,125.58l-.19,.51Zm-60.14-29.57l59.57,28.19c2.86-7.85,36.94-101.73,40.45-124.21-3.03,.44-16.48,2.94-33.83,14.07-18.1,11.61-44.25,35.24-66.19,81.95Z" fill="#002346"></path>
  </g>
  <g>
    <path d="M473.39,507.06s58.74,8.1,91.9,89.35l-50.34,38.49s-38.48-105.46-41.56-127.84Z" fill="#f69074"></path>
    <path d="M514.71,635.71l-.23-.64c-.39-1.05-38.53-105.77-41.59-127.94l-.09-.65,.65,.09c.15,.02,15.01,2.18,33.72,14.28,17.24,11.15,41.4,33.28,58.58,75.38l.14,.35-51.18,39.13Zm-40.73-128.04c3.53,22.47,38.02,117.66,41.2,126.42l49.5-37.84c-17.07-41.62-40.98-63.51-58.05-74.56-16.29-10.54-29.59-13.46-32.65-14.02Z" fill="#002346"></path>
  </g>
  <g>
    <path d="M388.43,504.64s45.27-11.76,79.27,.84c0,0-39.56,37.6-79.27-.84Z" fill="#f2b3c1"></path>
    <path d="M427.27,522.41c-11.69,0-25.43-4.09-39.19-17.41l-.64-.62,.86-.22c.45-.12,45.81-11.66,79.57,.86l.75,.28-.58,.55c-.1,.09-10.15,9.53-24.94,14.11-4.58,1.42-9.95,2.46-15.83,2.46Zm-37.84-17.5c20.1,19.03,40.07,18.2,53.34,14.1,12.53-3.87,21.6-11.28,23.97-13.34-30.78-11.01-70.89-2.27-77.31-.75Z" fill="#002346"></path>
  </g>
  <g>
    <path d="M544,421.01s1.82-17,4-28.46c1-5.45,8-5.08,8.61-.44,1-7,7.31-5.5,8.93-3.34,.77,1.06,1.13,2.37,1,3.67,.92-1.92,3.22-2.74,5.14-1.83,.18,.09,.35,.18,.52,.3,3.45,2.42,2.12,12.7,2.12,12.7,0,0,1.14-3.47,4.27-2.84,2.65,.54,3.75,3.31,3.48,10.78s-2,18.88-1.47,25.42,2.32,20.66-10.72,33.58c-11.57,11.46-33.12,3.15-35.31-13.17-1.33-9.88-1.89-14-1.15-23.35,.81-10.32,.58-21.34,4.95-21.79,3.93-.41,4.84,3.05,5.19,5.43l.44,3.34Z" fill="#f2b3c1"></path>
    <path d="M556.68,476.38c-2.42,0-4.91-.42-7.4-1.26-8.29-2.83-14.12-9.6-15.2-17.67-1.34-9.98-1.9-14.08-1.15-23.46,.14-1.76,.25-3.55,.35-5.3,.54-8.87,1-16.54,5.04-16.95,4.28-.45,5.3,3.29,5.64,5.23,.68-5.74,2.03-16.52,3.55-24.52,.57-3.12,2.96-4.48,5.09-4.41,1.7,.04,3.14,.91,3.92,2.25,.86-2.57,2.56-3.4,3.61-3.67,2.3-.58,4.81,.5,5.82,1.84,.55,.75,.9,1.6,1.05,2.5,1.27-1.23,3.22-1.61,4.91-.81,.2,.1,.4,.21,.58,.33,2.66,1.87,2.72,7.77,2.53,11.01,.82-.88,2.04-1.56,3.68-1.23,3.06,.62,4.15,3.79,3.88,11.29-.1,2.83-.41,6.16-.73,9.69-.52,5.72-1.07,11.64-.74,15.67l.07,.82c.57,6.68,1.75,20.59-10.94,33.15-3.63,3.6-8.42,5.48-13.56,5.48Zm-17.67-63.68c-.19,0-.38,.01-.58,.03-3.2,.33-3.66,7.95-4.15,16.02-.11,1.75-.21,3.54-.35,5.31-.73,9.27-.19,13.34,1.14,23.17,1.04,7.78,6.61,14.24,14.54,16.94,7.42,2.53,14.87,1.04,19.93-3.98,12.35-12.24,11.24-25.33,10.64-32.36l-.07-.83c-.33-4.12,.21-10.08,.74-15.84,.32-3.51,.63-6.83,.73-9.64,.29-7.95-1.02-9.85-3.08-10.27-2.65-.54-3.65,2.38-3.7,2.51l-.97-.22c.36-2.78,.71-10.38-1.91-12.23-.14-.09-.29-.18-.44-.25-1.67-.8-3.68-.08-4.48,1.59l-1.23,2.58,.28-2.85c.12-1.18-.21-2.37-.91-3.33-.8-1.06-2.95-1.93-4.76-1.46-1.77,.46-2.9,2.04-3.27,4.58l-.52,3.61-.48-3.61c-.28-2.11-1.98-3.09-3.54-3.13-1.58-.05-3.58,.88-4.08,3.59-2.15,11.31-3.98,28.25-3.99,28.42l-.45,4.17-.99-7.49c-.51-3.45-1.77-5.03-4.06-5.03Z" fill="#002346"></path>
  </g>
  <g>
    <path d="M287.05,608.99h0c-5.62,11.52-.84,25.42,10.68,31.04,3.19,1.56,6.7,2.36,10.25,2.35l24.51-.07,.63-11.51-46.07-21.81Z" fill="#f2b3c1"></path>
    <path d="M307.91,642.88c-3.58,0-7.18-.83-10.4-2.4-5.69-2.78-9.96-7.61-12.02-13.59-2.06-5.99-1.67-12.42,1.11-18.11l.22-.44,46.82,22.16-.67,12.32-24.98,.07h-.07Zm-20.62-33.22c-2.47,5.34-2.77,11.32-.85,16.9,1.97,5.74,6.06,10.36,11.51,13.02,3.11,1.52,6.59,2.33,10.03,2.3l24.04-.07,.59-10.7-45.32-21.45Z" fill="#002346"></path>
  </g>
  <rect x="593.54" y="608.6" width="1.16" height="13.07" fill="#fff"></rect>
  <rect x="589.03" y="616.58" width="10.18" height="10.18" fill="#fff"></rect>
  <g>
    <ellipse cx="376.35" cy="436.07" rx="12" ry="17" transform="translate(-90.65 98.87) rotate(-13.37)" fill="#f2b3c1"></ellipse>
    <path d="M378.3,453.34c-6.06,0-12.11-5.97-14.11-14.38-1.07-4.52-.84-9.07,.66-12.81,1.52-3.8,4.17-6.33,7.45-7.11,3.28-.78,6.78,.28,9.85,2.99,3.02,2.67,5.28,6.62,6.36,11.14h0c2.23,9.39-1.41,18.32-8.11,19.92-.7,.17-1.4,.25-2.1,.25Zm-3.87-33.54c-.64,0-1.27,.07-1.89,.22-2.96,.7-5.35,3.01-6.76,6.51-1.42,3.55-1.64,7.89-.62,12.21,2.1,8.85,8.84,14.85,15,13.39,6.17-1.47,9.48-9.86,7.37-18.71h0c-1.03-4.32-3.17-8.09-6.04-10.62-2.23-1.96-4.68-2.99-7.07-2.99Z" fill="#002346"></path>
  </g>
  <g>
    <ellipse cx="484.35" cy="434.07" rx="17" ry="12" transform="translate(.45 868.64) rotate(-83.79)" fill="#f2b3c1"></ellipse>
    <path d="M483.44,451.52c-.32,0-.65-.02-.98-.05-3.35-.37-6.29-2.54-8.28-6.12-1.96-3.53-2.76-8.01-2.25-12.63,.5-4.62,2.25-8.82,4.92-11.85,2.71-3.07,6.05-4.57,9.4-4.2,6.85,.75,11.58,9.16,10.53,18.75h0c-.99,9.13-6.87,16.1-13.34,16.1Zm1.82-33.9c-2.72,0-5.42,1.37-7.66,3.91-2.53,2.87-4.19,6.88-4.67,11.29-.48,4.41,.28,8.69,2.13,12.03,1.82,3.29,4.49,5.29,7.51,5.61,6.31,.71,12.23-6.12,13.22-15.16,.98-9.04-3.34-16.96-9.65-17.65-.29-.03-.59-.05-.88-.05Z" fill="#002346"></path>
  </g>
  <g>
    <path d="M499.2,391.41c-5.56-4.17-16.6-13.67-16.6-13.67,14.41-4.67,16.64-22.78,9.05-19.12-7.59,3.66-17.31,.18-35.7-7.64h-.05c-36.46-15.89-60.39,2.81-69.22,11.89-.47,.48-3.63,4.15-3.74,4.29l-.05,.08c-2.08,2.92-4.01,5.94-5.79,9.05-1.88,3.62-3.36,7.43-4.44,11.37-1.4,5.1-2.37,7.18-1,12.59,7.77,30.61,2.3,72.27,37.25,83.02,6.4,3.5,13.75,5.45,21.5,5.36,1.26-.01,2.5-.09,3.73-.2,1.52,.15,3.06,.22,4.62,.2,22.29-.23,40.87-17.13,43.2-39.3l1.5-15.97c1.76-10.63,2.68-21.43,4.35-30.85,7.14-2,16.95-6.93,11.39-11.1Z" fill="#002346"></path>
    <path d="M429.94,489.13c-7.41,0-14.74-1.86-21.23-5.4-26.53-8.19-30.01-34.12-33.38-59.2-1.1-8.15-2.23-16.58-4.15-24.16-1.25-4.92-.61-7.15,.54-11.2,.15-.52,.3-1.06,.46-1.65,1.08-3.96,2.59-7.82,4.48-11.47,1.79-3.13,3.74-6.19,5.83-9.11l.06-.1c.13-.16,3.3-3.85,3.78-4.33,8.7-8.95,32.9-28.02,69.69-12.04l.14,.04c18.48,7.86,27.98,11.17,35.29,7.65,1.84-.89,2.99-.51,3.63-.03,1.18,.88,1.62,2.81,1.21,5.29-.85,5.11-5.17,11.7-12.69,14.5,2.46,2.11,11.21,9.56,15.91,13.08,1.43,1.07,2.03,2.28,1.78,3.59-.71,3.79-8.38,6.96-13.04,8.3-.83,4.77-1.47,9.83-2.15,15.17-.64,5.03-1.29,10.22-2.14,15.37l-1.5,15.93c-2.36,22.43-21.15,39.52-43.69,39.75-1.51,.02-3.08-.05-4.67-.21-1.22,.12-2.46,.19-3.68,.21-.16,0-.32,0-.47,0Zm-1.58-143.81c-21.02,0-35.14,11.54-41.32,17.9-.46,.47-3.57,4.09-3.71,4.25-2.1,2.95-4.04,5.98-5.8,9.07-1.85,3.57-3.33,7.36-4.39,11.25-.16,.59-.32,1.14-.47,1.66-1.1,3.88-1.71,6.02-.53,10.68,1.94,7.63,3.08,16.09,4.17,24.27,3.33,24.78,6.78,50.41,32.74,58.39l.09,.04c6.49,3.55,13.85,5.4,21.26,5.3,1.19-.01,2.4-.08,3.69-.2,1.65,.15,3.19,.22,4.66,.2,22.04-.23,40.4-16.93,42.71-38.85l1.5-15.96c.85-5.16,1.51-10.35,2.14-15.36,.69-5.47,1.35-10.65,2.21-15.53l.05-.31,.3-.08c5.87-1.65,12.1-4.79,12.63-7.61,.17-.92-.29-1.77-1.4-2.61h0c-5.51-4.13-16.52-13.6-16.63-13.69l-.67-.58,.85-.27c7.63-2.47,12.01-8.99,12.84-14,.34-2.07,.04-3.68-.82-4.32-.76-.56-1.83-.24-2.6,.13-7.66,3.69-17.32,.36-36.02-7.59l-.15-.04c-10.09-4.4-19.23-6.12-27.34-6.12Z" fill="#0d2445"></path>
  </g>
  <g>
    <path d="M521.18,662.07h-189.83l1.65-31.93v-.07l.1-2.1h0l2.9-56.27,.73-14.14c1.34-24.42,17.53-45.52,40.77-53.15,1.76-.57,3.58-1.07,5.44-1.48s3.67-.77,5.49-1.11h.12c8.6-1.56,15.42-2.33,18-2.61h0l1.21-.14h31.07c3.9,0,7.79,.24,11.65,.74,.04,0,.08,.01,.12,.02,4.08,.53,10,1.41,16.55,2.71l.57,.12h0c2.19,.43,4.34,1,6.46,1.7h0c23.26,7.6,39.46,28.71,40.79,53.14l.75,12.64,1.43,24.34,.75,12.59h0l.9,15.33,.11,1.73v.21h0l.27,4.44,.37,6.2h0l1.21,19.2,.42,7.89Z" fill="#f69074"></path>
    <path d="M521.71,662.57h-190.88l5.41-105.04c1.36-24.81,17.5-45.85,41.11-53.6,1.82-.59,3.66-1.09,5.49-1.49,1.71-.38,3.46-.73,5.51-1.11h.21c5.89-1.09,11.96-1.97,17.95-2.62l1.21-.14h31.12c3.94,0,7.89,.25,11.72,.75l.13,.02c3.83,.5,9.82,1.37,16.58,2.71l.58,.12c2.19,.43,4.38,1.01,6.51,1.71,23.27,7.6,39.8,29.14,41.13,53.59l4.58,77.48,1.21,19.2,.45,8.42Zm-189.83-1h188.78l-.39-7.36-1.96-31.77-3.83-64.9c-1.31-24.04-17.56-45.22-40.45-52.69-2.09-.69-4.25-1.26-6.4-1.69l-.58-.12c-6.73-1.33-12.69-2.21-16.51-2.7h-.12c-3.79-.51-7.69-.76-11.59-.76h-31.07l-1.15,.14c-5.97,.65-12.01,1.52-17.97,2.61h-.21c-1.95,.38-3.69,.73-5.38,1.11-1.79,.4-3.61,.89-5.39,1.47-23.21,7.62-39.08,28.3-40.42,52.7l-5.35,103.98Z" fill="#002346"></path>
  </g>
  <g>
    <path d="M429.85,507.58h0c74.78,0,135.5,60.72,135.5,135.5v21.5H294.35v-21.5c0-74.78,60.72-135.5,135.5-135.5Z" fill="#e6e7e8"></path>
    <path d="M565.85,665.08H293.85v-22c0-74.99,61.01-136,136-136s136,61.01,136,136v22Zm-271-1h270v-21c0-74.44-60.56-135-135-135s-135,60.56-135,135v21Z" fill="#0d2445"></path>
  </g>
  <g>
    <path d="M591.6,617.02c.07-2.42,2.27-5.38,5.32-5.15,0,0,23.86,0,23.86,0,0,0,7.1-1.25,6.49,5.45-.05,.53-.16,1.04-.29,1.55l-7.16,27.03c-.51,1.93-2.26,3.28-4.26,3.28-3.51-.65-15.13,2.13-16.2-3.15-.55-2.85-8.71-26.58-7.77-29.01Z" fill="#fbe493"></path>
    <path d="M607.06,649.84c-3.83,0-7.55-.61-8.18-3.71-.17-.86-1.06-3.72-2.19-7.35-3.37-10.81-6.12-19.93-5.59-21.85,.07-1.51,.85-3.12,2.07-4.21,1.1-.99,2.41-1.45,3.79-1.35v.06c.53-.06,1.58-.06,3.69-.06h20.14c.06-.02,3.48-.6,5.55,1.3,1.14,1.05,1.63,2.63,1.44,4.69-.05,.5-.14,1.02-.31,1.64l-7.16,27.03c-.57,2.15-2.52,3.65-4.74,3.65-1.03-.18-2.65-.09-4.52,.01-1.25,.07-2.63,.15-3.99,.15Zm-10.45-37.48c-1.27,0-2.2,.59-2.77,1.11-1.02,.92-1.7,2.32-1.74,3.57l-.03,.17c-.58,1.51,3.43,14.37,5.58,21.28,1.14,3.65,2.04,6.54,2.21,7.45,.68,3.35,6.72,3.01,11.13,2.76,1.94-.11,3.61-.2,4.67,0,1.68,0,3.23-1.2,3.68-2.91l7.16-27.03c.15-.56,.24-1.03,.28-1.47,.16-1.73-.22-3.03-1.12-3.86-1.71-1.57-4.76-1.05-4.79-1.05-.09,0-23.79,0-23.95,0-.1,0-.21-.01-.31-.01Z" fill="#002346"></path>
  </g>
  <path d="M610.06,608.18c-.11,0-.21-.03-.3-.1-.52-.37-2.47-7.86-1.16-13.54,.51-2.2,1.42-3.93,2.73-5.16-.55-.73-.99-1.59-1.28-2.56-1.13-3.69,.06-8.6,5.24-11.25,.24-.13,.55-.03,.67,.22,.13,.25,.03,.55-.22,.67-4.67,2.4-5.75,6.79-4.74,10.07,.24,.78,.61,1.54,1.11,2.2,1.02-.73,2.24-1.23,3.65-1.47,1.41-.1,2.3,.85,2.58,1.82,.33,1.12-.1,2.23-1.08,2.78-.06,.03-.12,.05-.18,.06-1.93,.23-3.73-.44-5.09-1.78-.64,.61-1.18,1.37-1.61,2.25-2.55,5.28-.46,13.85,.04,14.93,.02,.02,.04,.05,.06,.08,.14,.24,.07,.54-.17,.69-.08,.05-.17,.07-.26,.07Zm2.73-18.67c1.03,1,2.42,1.61,4.08,1.45,.61-.39,.68-1.06,.53-1.57-.17-.59-.71-1.17-1.51-1.11-1.18,.2-2.22,.62-3.1,1.24Z" fill="#002346"></path>
  <path d="M630.99,639.46s-.04,0-.06,0l-9-1c-.27-.03-.47-.28-.44-.55,.03-.27,.28-.47,.55-.44l8.54,.95,3.81-20.02-7.47-.93c-.27-.03-.47-.28-.43-.56,.03-.27,.28-.47,.56-.43l8,1c.14,.02,.26,.09,.34,.2,.08,.11,.11,.25,.09,.39l-4,21c-.05,.24-.25,.41-.49,.41Z" fill="#002346"></path>
  <g>
    <g>
      <path d="M683.42,600.96s-1.13-25.81,1.71-38.57c.48-2.15,1.49-4.15,2.96-5.79,5.78-6.5,23.71-26.31,38.95-39.09,0,0-14.27-2.97-27.75,5.15v8.72l-2.98-6.94s-16.65,9.91-15.06,37.07l.79,26.16,1.39,13.29Z" fill="#7cd295"></path>
      <path d="M683.08,601l-1.39-13.29-.79-26.19c-1.58-27.04,15.06-37.27,15.23-37.37l.34-.2,2.47,5.75v-7.23l.17-.1c13.44-8.1,27.86-5.23,28-5.2l.7,.15-.55,.46c-14.89,12.49-32.17,31.47-38.91,39.05-1.42,1.6-2.41,3.55-2.88,5.64-2.8,12.57-1.71,38.22-1.7,38.48l-.69,.05Zm13.07-76.03c-2.33,1.6-15.99,12.05-14.56,36.53l.79,26.17,.49,4.72c-.09-8.71,.13-22.03,1.92-30.07,.49-2.2,1.54-4.26,3.03-5.95,6.66-7.49,23.62-26.12,38.41-38.64-3.05-.45-15.16-1.68-26.61,5.13v10.21l-3.48-8.11Z" fill="#002346"></path>
    </g>
    <g>
      <path d="M711.67,622.47c0,12.52-8.97,23.24-21.29,25.46h0c-14.08,2.51-27.52-6.87-30.03-20.94-.27-1.49-.4-3-.4-4.52,0-6.33,2.31-12.43,6.51-17.16l28.02-.19,10.45-.08c4.35,4.76,6.76,10.98,6.75,17.43Z" fill="#f69074"></path>
      <path d="M685.78,648.69c-5.32,0-10.5-1.62-14.95-4.72-5.75-4.01-9.59-10.02-10.82-16.92-.27-1.51-.41-3.05-.41-4.58,0-6.42,2.33-12.6,6.59-17.39l.1-.12,38.78-.27,.1,.11c4.42,4.84,6.85,11.11,6.84,17.67,0,12.7-9.07,23.55-21.58,25.8-1.56,.28-3.11,.41-4.66,.41Zm-19.17-43.03c-4.08,4.65-6.33,10.62-6.32,16.82,0,1.49,.14,2.99,.4,4.46,1.2,6.72,4.94,12.57,10.54,16.47,5.6,3.9,12.38,5.39,19.09,4.2,12.17-2.19,21-12.75,21-25.12h0c.01-6.33-2.32-12.39-6.56-17.09l-38.16,.27Z" fill="#002346"></path>
    </g>
    <g>
      <path d="M680.34,605.22v-2.34c.04-3.09-1.19-6.06-3.39-8.22l-39.18-38.51s18.85-2.38,27.82,5.13l.19,10.25,3.11-8.05s16.84,7.14,15.37,41.73l-3.91,.03Z" fill="#7cd295"></path>
      <path d="M680,605.57v-2.69c.04-2.98-1.16-5.89-3.29-7.97l-39.69-39.01,.71-.09c.78-.1,19.1-2.31,28.08,5.21l.12,.1,.16,8.63,2.6-6.74,.33,.14c.17,.07,17.04,7.63,15.58,42.06v.33s-4.61,.03-4.61,.03Zm-41.46-49.16l38.66,37.99c2.26,2.22,3.53,5.31,3.5,8.47v1.99l3.23-.02c1.21-31.03-12.55-39.68-14.85-40.9l-3.61,9.35-.22-11.86c-7.8-6.39-23.19-5.36-26.71-5.02Z" fill="#002346"></path>
    </g>
    <g>
      <path d="M689.57,605.15l2.14-17.53c.15-1.25,.7-2.42,1.55-3.34,5.61-6.01,27.81-29.53,40.7-40.2,0,0-14.87-1.39-28.14,5.35l-.4,9.32-2.98-7.14s-14.47,8.13-14.87,36.45v17.08h1.98Z" fill="#7cd295"></path>
      <path d="M689.88,605.5l-2.64-.02v-17.42c.39-28.2,14.9-36.67,15.04-36.75l.34-.19,2.53,6.06,.34-7.96,.18-.09c13.21-6.7,28.18-5.4,28.33-5.38l.83,.08-.65,.53c-13.22,10.95-36.2,35.38-40.67,40.17-.81,.87-1.32,1.96-1.46,3.14l-2.18,17.84Zm-1.94-.71h1.33s2.11-17.21,2.11-17.21c.16-1.33,.73-2.55,1.64-3.53,4.4-4.71,26.73-28.45,40.07-39.67-3.33-.16-15.73-.33-26.92,5.28l-.45,10.67-3.42-8.2c-2.15,1.45-14,10.57-14.36,35.94v16.73Z" fill="#002346"></path>
    </g>
  </g>
  <g>
    <path d="M240.95,597.66h-69.96c-3.91,0-7.07-3.17-7.07-7.07h0v-1.44c0-3.91,3.17-7.07,7.07-7.07h69.96v15.59h0Z" fill="#fff"></path>
    <path d="M241.45,598.16h-70.46c-4.18,0-7.57-3.4-7.57-7.57v-1.44c0-4.18,3.4-7.57,7.57-7.57h70.46v16.58Zm-70.46-15.58c-3.62,0-6.57,2.95-6.57,6.57v1.44c0,3.62,2.95,6.57,6.57,6.57h69.46v-14.58h-69.46Z" fill="#0d2445"></path>
  </g>
  <g>
    <path d="M244.09,601.51h-75.55c-6.36,0-11.52-5.16-11.52-11.52h0c0-6.36,5.16-11.52,11.52-11.52h75.54v4.1h-72.93c-3.83,0-6.94,3.1-6.94,6.94h0c0,3.83,3.11,6.94,6.94,6.94h72.93v5.05Z" fill="#e6e7e8"></path>
    <path d="M244.59,602.01h-76.05c-6.62,0-12.02-5.39-12.02-12.02,0-6.63,5.39-12.02,12.02-12.02h76.04v5.1h-73.43c-3.55,0-6.44,2.89-6.44,6.44,0,3.55,2.89,6.44,6.44,6.44h73.43v6.05Zm-76.04-23.04c-6.08,0-11.02,4.94-11.02,11.02,0,6.07,4.94,11.02,11.02,11.02h75.05v-4.05h-72.43c-4.1,0-7.44-3.34-7.44-7.44,0-4.1,3.34-7.44,7.44-7.44h72.43v-3.1h-75.04Z" fill="#0d2445"></path>
  </g>
  <g>
    <path d="M238.29,622.25h-79.49c-4.31,0-7.8-3.49-7.8-7.8v-1.59c0-4.31,3.49-7.8,7.8-7.8h79.49v17.19h0Z" fill="#fff"></path>
    <path d="M238.79,622.75h-79.99c-4.58,0-8.3-3.72-8.3-8.3v-1.59c0-4.58,3.73-8.3,8.3-8.3h79.99v18.19Zm-79.99-17.19c-4.03,0-7.3,3.28-7.3,7.3v1.59c0,4.03,3.28,7.3,7.3,7.3h78.99v-16.19h-78.99Z" fill="#0d2445"></path>
  </g>
  <g>
    <path d="M241.59,626.5h-85.96c-6.36,0-11.52-5.69-11.52-12.72h0c0-7.02,5.16-12.71,11.52-12.71h85.96v4.52h-83.34c-3.84,0-6.94,3.43-6.94,7.66h0c0,4.23,3.11,7.66,6.94,7.66h83.34v5.59Z" fill="#fbe493"></path>
    <path d="M242.09,627h-86.46c-6.63,0-12.02-5.93-12.02-13.22s5.39-13.21,12.02-13.21h86.46v5.52h-83.84c-3.55,0-6.44,3.21-6.44,7.16s2.89,7.16,6.44,7.16h83.84v6.59Zm-86.46-25.43c-6.08,0-11.02,5.48-11.02,12.21s4.94,12.22,11.02,12.22h85.46v-4.59h-82.84c-4.1,0-7.44-3.66-7.44-8.16s3.34-8.16,7.44-8.16h82.84v-3.52h-85.46Z" fill="#002346"></path>
  </g>
  <g>
    <path d="M240.35,586.41h-61.5c-.28,0-.5-.22-.5-.5s.22-.5,.5-.5h61.5c.28,0,.5,.22,.5,.5s-.22,.5-.5,.5Z" fill="#0d2445"></path>
    <path d="M240.35,589.91h-61.5c-.28,0-.5-.22-.5-.5s.22-.5,.5-.5h61.5c.28,0,.5,.22,.5,.5s-.22,.5-.5,.5Z" fill="#0d2445"></path>
    <path d="M240.35,593.41h-61.5c-.28,0-.5-.22-.5-.5s.22-.5,.5-.5h61.5c.28,0,.5,.22,.5,.5s-.22,.5-.5,.5Z" fill="#0d2445"></path>
  </g>
  <g>
    <path d="M237.35,610.41h-61.5c-.28,0-.5-.22-.5-.5s.22-.5,.5-.5h61.5c.28,0,.5,.22,.5,.5s-.22,.5-.5,.5Z" fill="#0d2445"></path>
    <path d="M237.35,613.91h-61.5c-.28,0-.5-.22-.5-.5s.22-.5,.5-.5h61.5c.28,0,.5,.22,.5,.5s-.22,.5-.5,.5Z" fill="#0d2445"></path>
    <path d="M237.35,617.41h-61.5c-.28,0-.5-.22-.5-.5s.22-.5,.5-.5h61.5c.28,0,.5,.22,.5,.5s-.22,.5-.5,.5Z" fill="#0d2445"></path>
  </g>
  <g>
    <g>
      <path d="M155.57,559.29h69.96c3.91,0,7.07,3.17,7.07,7.07h0v1.44c0,3.91-3.17,7.07-7.07,7.07h-69.96v-15.59h0Z" fill="#fff"></path>
      <path d="M225.53,575.38h-70.46v-16.59h70.46c4.18,0,7.57,3.4,7.57,7.57v1.44c0,4.18-3.4,7.57-7.57,7.57Zm-69.46-1h69.46c3.62,0,6.57-2.95,6.57-6.57v-1.44c0-3.62-2.95-6.57-6.57-6.57h-69.46v14.59Z" fill="#0d2445"></path>
    </g>
    <g>
      <path d="M152.42,555.44h75.55c6.36,0,11.52,5.16,11.52,11.52h0c0,6.36-5.16,11.52-11.52,11.52h-75.55v-4.1h72.93c3.83,0,6.94-3.11,6.94-6.94h0c0-3.83-3.11-6.94-6.94-6.94h-72.93v-5.06Z" fill="#f69074"></path>
      <path d="M227.97,578.98h-76.05v-5.1h73.43c3.55,0,6.44-2.89,6.44-6.44,0-3.55-2.89-6.44-6.44-6.44h-73.43v-6.05h76.05c6.63,0,12.02,5.39,12.02,12.02s-5.39,12.02-12.02,12.02Zm-75.05-1h75.05c6.08,0,11.02-4.95,11.02-11.02s-4.94-11.02-11.02-11.02h-75.05v4.05h72.43c4.1,0,7.44,3.34,7.44,7.44,0,4.1-3.34,7.44-7.44,7.44h-72.43v3.1Z" fill="#002346"></path>
    </g>
    <g>
      <path d="M217.35,564.41h-61.5c-.28,0-.5-.22-.5-.5s.22-.5,.5-.5h61.5c.28,0,.5,.22,.5,.5s-.22,.5-.5,.5Z" fill="#0d2445"></path>
      <path d="M217.35,567.91h-61.5c-.28,0-.5-.22-.5-.5s.22-.5,.5-.5h61.5c.28,0,.5,.22,.5,.5s-.22,.5-.5,.5Z" fill="#0d2445"></path>
      <path d="M217.35,571.41h-61.5c-.28,0-.5-.22-.5-.5s.22-.5,.5-.5h61.5c.28,0,.5,.22,.5,.5s-.22,.5-.5,.5Z" fill="#0d2445"></path>
    </g>
  </g>
  <g>
    <g>
      <path d="M149.57,630.29h69.96c3.91,0,7.07,3.17,7.07,7.07h0v1.44c0,3.91-3.17,7.07-7.07,7.07h-69.96v-15.59h0Z" fill="#fff"></path>
      <path d="M219.53,646.38h-70.46v-16.59h70.46c4.18,0,7.57,3.4,7.57,7.57v1.44c0,4.18-3.4,7.57-7.57,7.57Zm-69.46-1h69.46c3.62,0,6.57-2.95,6.57-6.57v-1.44c0-3.62-2.95-6.57-6.57-6.57h-69.46v14.59Z" fill="#0d2445"></path>
    </g>
    <g>
      <path d="M146.42,626.44h75.55c6.36,0,11.52,5.16,11.52,11.52h0c0,6.36-5.16,11.52-11.52,11.52h-75.55v-4.1h72.93c3.83,0,6.94-3.11,6.94-6.94h0c0-3.83-3.11-6.94-6.94-6.94h-72.93v-5.06Z" fill="#f69074"></path>
      <path d="M221.97,649.98h-76.05v-5.1h73.43c3.55,0,6.44-2.89,6.44-6.44,0-3.55-2.89-6.44-6.44-6.44h-73.43v-6.05h76.05c6.63,0,12.02,5.39,12.02,12.02s-5.39,12.02-12.02,12.02Zm-75.05-1h75.05c6.08,0,11.02-4.95,11.02-11.02s-4.94-11.02-11.02-11.02h-75.05v4.05h72.43c4.1,0,7.44,3.34,7.44,7.44,0,4.1-3.34,7.44-7.44,7.44h-72.43v3.1Z" fill="#002346"></path>
    </g>
    <g>
      <path d="M211.35,635.41h-61.5c-.28,0-.5-.22-.5-.5s.22-.5,.5-.5h61.5c.28,0,.5,.22,.5,.5s-.22,.5-.5,.5Z" fill="#0d2445"></path>
      <path d="M211.35,638.91h-61.5c-.28,0-.5-.22-.5-.5s.22-.5,.5-.5h61.5c.28,0,.5,.22,.5,.5s-.22,.5-.5,.5Z" fill="#0d2445"></path>
      <path d="M211.35,642.41h-61.5c-.28,0-.5-.22-.5-.5s.22-.5,.5-.5h61.5c.28,0,.5,.22,.5,.5s-.22,.5-.5,.5Z" fill="#0d2445"></path>
    </g>
  </g>
  <g>
    <rect x="222.22" y="215.25" width="156.61" height="123.05" rx="5.41" ry="5.41" fill="#fbe493"></rect>
    <path d="M373.42,338.8H227.63c-3.26,0-5.91-2.65-5.91-5.91v-112.24c0-3.26,2.65-5.91,5.91-5.91h145.8c3.26,0,5.91,2.65,5.91,5.91v112.24c0,3.26-2.65,5.91-5.91,5.91Zm-145.8-123.05c-2.71,0-4.91,2.2-4.91,4.91v112.24c0,2.71,2.2,4.91,4.91,4.91h145.8c2.71,0,4.91-2.2,4.91-4.91v-112.24c0-2.71-2.2-4.91-4.91-4.91H227.63Z" fill="#002346"></path>
  </g>
  <g>
    <path d="M232.53,338.3h136.2s-22.3-41.39-63.69-42.51c0,0-33.5-7.19-59.28,17.1-6.68,7.08-11.26,15.88-13.23,25.41Z" fill="#f69074"></path>
    <path d="M369.57,338.8H231.92l.12-.6c1.99-9.63,6.61-18.5,13.36-25.65,25.7-24.21,59.41-17.32,59.75-17.25,41.12,1.11,63.8,42.34,64.03,42.76l.4,.74Zm-136.42-1h134.72c-3.26-5.55-25.26-40.49-62.84-41.51-.42-.08-33.64-6.86-58.92,16.96-6.46,6.85-10.94,15.33-12.96,24.54Z" fill="#002346"></path>
  </g>
  <g>
    <path d="M284.83,281.25l-4.19,17.77c-.19,.81,.02,1.66,.56,2.29,2.94,3.45,11.45,13.51,18.17,11.27,0,0,7.83-2.55,6.16-13.02-.31-1.99-.31-4.01,0-5.99l-17.33-15.67-3.37,3.36Z" fill="#f2b3c1"></path>
    <path d="M297.33,313.4c-6.48,0-13.59-8.35-16.46-11.71-.69-.81-.94-1.83-.71-2.79l4.22-17.9,3.8-3.79,17.88,16.17-.04,.27c-.3,1.94-.3,3.9,0,5.84,1.73,10.76-6.41,13.55-6.49,13.58-.72,.24-1.45,.35-2.19,.35Zm-12.04-31.9l-4.15,17.63c-.15,.65,.02,1.34,.45,1.85,2.83,3.32,11.28,13.24,17.63,11.12,.31-.1,7.41-2.57,5.82-12.47-.3-1.95-.31-3.93-.04-5.88l-16.78-15.17-2.93,2.92Z" fill="#002346"></path>
  </g>
  <g>
    <rect x="283.52" y="243.39" width="43.77" height="51.98" rx="21.89" ry="21.89" fill="#f2b3c1"></rect>
    <path d="M305.41,295.87c-12.34,0-22.39-10.04-22.39-22.39v-8.21c0-12.34,10.04-22.39,22.39-22.39s22.39,10.04,22.39,22.39v8.21c0,12.34-10.04,22.39-22.39,22.39Zm0-51.98c-11.79,0-21.39,9.59-21.39,21.39v8.21c0,11.79,9.59,21.39,21.39,21.39s21.39-9.59,21.39-21.39v-8.21c0-11.79-9.59-21.39-21.39-21.39Z" fill="#002346"></path>
  </g>
  <g>
    <path d="M290.46,276.21c0,4.03-3.27,7.3-7.3,7.3s-7.3-3.27-7.3-7.3,3.27-7.3,7.3-7.3c.89,0,1.77,.17,2.6,.49,2.83,1.06,4.71,3.78,4.7,6.8Z" fill="#f2b3c1"></path>
    <path d="M283.16,284.01c-4.3,0-7.8-3.5-7.8-7.8s3.5-7.8,7.8-7.8h0c.95,0,1.89,.18,2.77,.53,3.01,1.13,5.02,4.05,5.01,7.27,0,4.3-3.5,7.79-7.8,7.79Zm0-14.59h0c-3.75,0-6.8,3.05-6.8,6.8s3.05,6.8,6.8,6.8,6.8-3.05,6.8-6.8h0c0-2.8-1.75-5.35-4.37-6.34-.78-.31-1.59-.46-2.42-.46Z" fill="#002346"></path>
  </g>
  <g>
    <path d="M327.3,262.54l-.02-.04c-2.48-5.4-7.75-8.95-13.68-9.32-2.89-.18-5.82-.46-7.79-.92,0,0,.32,2.13,4.8,4.38,0,0-6.81,1.89-17.38-1.82,0,0,.23,9.56-7.42,14.66-.83-.33-1.71-.49-2.6-.49-3.58,.01-6.63,2.62-7.19,6.16l-.09,.05c-1.3-1.68-2.46-3.47-3.47-5.34h0c-3.65-6.69-7.16-17.92,5.72-23.22,0,0-4.48-12.3,11.18-15.66,0,0,21.26-5.6,20.14,4.47,0,0,21.26,0,12.3,10.03,0-.03,16.46,4.29,5.51,17.06Z" fill="#002346"></path>
    <path d="M275.81,275.8l-.25-.32c-1.31-1.7-2.49-3.52-3.51-5.41-2.29-4.21-4.63-10.36-2.72-15.75,1.22-3.43,4-6.1,8.27-7.95-.37-1.28-1.24-5.28,.87-9.1,1.85-3.34,5.48-5.61,10.78-6.75,.56-.15,14.31-3.71,19.09,.42,1.16,1,1.71,2.36,1.63,4.04,2.37,.05,12.31,.52,14.16,4.66,.71,1.58,.18,3.45-1.55,5.58,1.73,.51,5.18,2.07,7.17,4.51,2.02,2.49,3.29,6.77-2.11,13.08l-.46,.54-.32-.68c-2.4-5.23-7.5-8.7-13.29-9.06-2.94-.18-5.28-.43-6.99-.75,.47,.75,1.59,2.02,4.23,3.35l1.06,.53-1.14,.32c-.28,.08-6.82,1.82-17.07-1.63-.11,2.27-1,10-7.61,14.4l-.2,.13-.22-.09c-.77-.31-1.59-.46-2.42-.46h-.01c-3.38,0-6.21,2.44-6.74,5.78l-.03,.21-.62,.37Zm24.89-45.92c-5.29,0-11.15,1.52-11.24,1.54-5.05,1.08-8.47,3.2-10.18,6.3-2.31,4.16-.7,8.72-.68,8.77l.15,.41-.4,.17c-4.25,1.75-6.99,4.29-8.15,7.57-1.8,5.07,.45,10.96,2.66,15.01,.86,1.59,1.83,3.12,2.9,4.57,.91-3.33,3.92-5.68,7.45-5.69h.02c.86,0,1.71,.15,2.52,.44,7.15-4.93,7.03-14.04,7.03-14.13l-.02-.66,.62,.22c7.75,2.72,13.49,2.38,15.89,2.04-3.56-2.1-3.89-4.01-3.9-4.1l-.1-.66,.65,.15c1.69,.39,4.29,.7,7.72,.91,5.91,.36,11.13,3.78,13.77,8.98,2.79-3.44,3.76-6.53,2.88-9.18-1.59-4.76-8.51-6.58-8.58-6.6l.1-.44-.35-.31c1.84-2.06,2.47-3.79,1.86-5.14-1.83-4.08-13.7-4.13-13.82-4.13h-.51l.06-.51c.18-1.62-.24-2.85-1.28-3.75-1.54-1.33-4.21-1.77-7.05-1.77Z" fill="#002346"></path>
  </g>
  <g>
    <ellipse cx="308.31" cy="255.23" rx="19.15" ry="6.84" fill="#002346"></ellipse>
    <path d="M308.31,262.53c-10.99,0-19.61-3.2-19.61-7.3s8.61-7.3,19.61-7.3,19.61,3.2,19.61,7.3-8.61,7.3-19.61,7.3Zm0-13.68c-10.13,0-18.7,2.92-18.7,6.38s8.56,6.38,18.7,6.38,18.7-2.92,18.7-6.38-8.56-6.38-18.7-6.38Z" fill="#002346"></path>
  </g>
  <g>
    <g>
      <path d="M372.14,190.31h-45.16c-1.34,0-2.42,1.09-2.42,2.43v31.41c0,1.34,1.09,2.44,2.43,2.44h16.87c.91,0,1.74,.54,2.11,1.37l3.69,8.35c.07,.17,.31,.17,.39,0l4.19-8.45c.39-.78,1.19-1.28,2.06-1.28h15.84c1.35,0,2.44-1.09,2.44-2.44v-31.41c0-1.35-1.1-2.44-2.44-2.43,0,0,0,0,0,0Z" fill="#f69074"></path>
      <path d="M349.86,236.95h-.02c-.28,0-.53-.17-.64-.43l-3.69-8.35c-.29-.65-.94-1.08-1.65-1.08h-16.87c-1.62,0-2.93-1.32-2.93-2.94v-31.41c0-1.61,1.31-2.93,2.92-2.93h45.17c1.62,0,2.94,1.31,2.94,2.93v31.42c0,1.62-1.32,2.94-2.94,2.94h-15.84c-.69,0-1.31,.38-1.62,1l-4.19,8.45c-.12,.25-.37,.4-.64,.4Zm-22.88-46.14c-1.06,0-1.92,.87-1.92,1.93v31.41c0,1.07,.87,1.94,1.93,1.94h16.87c1.11,0,2.12,.66,2.56,1.67l3.44,7.8,3.92-7.91c.48-.96,1.44-1.56,2.51-1.56h15.84c1.07,0,1.94-.87,1.94-1.94v-31.41c0-1.07-.87-1.93-1.94-1.93h-45.17Z" fill="#002346"></path>
    </g>
    <g>
      <rect x="331.69" y="196.36" width="35.73" height="2.75" fill="#fff"></rect>
      <path d="M367.93,199.61h-36.73v-3.75h36.73v3.75Zm-35.73-1h34.73v-1.75h-34.73v1.75Z" fill="#0d2445"></path>
    </g>
    <g>
      <rect x="331.69" y="205.7" width="35.73" height="2.75" fill="#fff"></rect>
      <path d="M367.93,208.95h-36.73v-3.75h36.73v3.75Zm-35.73-1h34.73v-1.75h-34.73v1.75Z" fill="#0d2445"></path>
    </g>
    <g>
      <rect x="331.69" y="215.05" width="18.14" height="2.75" fill="#fff"></rect>
      <path d="M350.34,218.3h-19.14v-3.75h19.14v3.75Zm-18.14-1h17.14v-1.75h-17.14v1.75Z" fill="#0d2445"></path>
    </g>
    <g>
      <rect x="353.13" y="215.05" width="14.29" height="2.75" fill="#fff"></rect>
      <path d="M367.93,218.3h-15.29v-3.75h15.29v3.75Zm-14.29-1h13.29v-1.75h-13.29v1.75Z" fill="#0d2445"></path>
    </g>
  </g>
  <g>
    <g>
      <path d="M614.14,32.31h-45.16c-1.34,0-2.42,1.09-2.42,2.43v31.41c0,1.34,1.09,2.44,2.43,2.44h16.87c.91,0,1.74,.54,2.11,1.37l3.69,8.35c.07,.17,.31,.17,.39,0l4.19-8.45c.39-.78,1.19-1.28,2.06-1.28h15.84c1.35,0,2.44-1.09,2.44-2.44v-31.41c0-1.35-1.1-2.44-2.44-2.43,0,0,0,0,0,0Z" fill="#f69074"></path>
      <path d="M591.86,78.95h-.02c-.28,0-.53-.17-.64-.43l-3.69-8.35c-.29-.65-.94-1.08-1.65-1.08h-16.87c-1.62,0-2.93-1.32-2.93-2.94v-31.41c0-1.61,1.31-2.93,2.92-2.93h45.17c1.62,0,2.94,1.31,2.94,2.93v31.42c0,1.62-1.32,2.94-2.94,2.94h-15.84c-.69,0-1.31,.38-1.62,1l-4.19,8.45c-.12,.25-.37,.4-.64,.4Zm-22.88-46.14c-1.06,0-1.92,.87-1.92,1.93v31.41c0,1.07,.87,1.94,1.93,1.94h16.87c1.11,0,2.12,.66,2.56,1.67l3.44,7.8,3.92-7.91c.48-.96,1.44-1.56,2.51-1.56h15.84c1.07,0,1.94-.87,1.94-1.94v-31.41c0-1.07-.87-1.93-1.94-1.93h-45.17Z" fill="#002346"></path>
    </g>
    <g>
      <rect x="573.69" y="38.36" width="35.73" height="2.75" fill="#fff"></rect>
      <path d="M609.93,41.61h-36.73v-3.75h36.73v3.75Zm-35.73-1h34.73v-1.75h-34.73v1.75Z" fill="#0d2445"></path>
    </g>
    <g>
      <rect x="573.69" y="47.7" width="35.73" height="2.75" fill="#fff"></rect>
      <path d="M609.93,50.95h-36.73v-3.75h36.73v3.75Zm-35.73-1h34.73v-1.75h-34.73v1.75Z" fill="#0d2445"></path>
    </g>
    <g>
      <rect x="573.69" y="57.05" width="18.14" height="2.75" fill="#fff"></rect>
      <path d="M592.34,60.3h-19.14v-3.75h19.14v3.75Zm-18.14-1h17.14v-1.75h-17.14v1.75Z" fill="#0d2445"></path>
    </g>
    <g>
      <rect x="595.13" y="57.05" width="14.29" height="2.75" fill="#fff"></rect>
      <path d="M609.93,60.3h-15.29v-3.75h15.29v3.75Zm-14.29-1h13.29v-1.75h-13.29v1.75Z" fill="#0d2445"></path>
    </g>
  </g>
  <g>
    <path d="M706.26,236.14v125.27c0,5.94-5.15,10.75-11.5,10.75l-116.09-.26h-20.05l-28.33,.24c-6.35,0-11.5-4.81-11.5-10.75v-125.25c0-5.94,5.15-10.75,11.5-10.75h164.47c6.35,0,11.5,4.81,11.5,10.75Z" fill="#fff"></path>
    <path d="M694.76,372.66l-116.09-.26h-20.05l-28.33,.24c-6.62,0-12-5.05-12-11.25v-125.25c0-6.2,5.38-11.25,12-11.25h164.47c6.62,0,12,5.05,12,11.25v125.27c0,6.2-5.38,11.25-12,11.25Zm-116.09-1.26l116.09,.26c6.06,0,11-4.6,11-10.25v-125.27c0-5.65-4.93-10.25-11-10.25h-164.47c-6.07,0-11,4.6-11,10.25v125.25c0,5.65,4.93,10.25,11,10.25l28.33-.24h20.05Z" fill="#0d2445"></path>
  </g>
  <g>
    <rect x="534.22" y="237.25" width="156.61" height="123.05" rx="5.41" ry="5.41" fill="#f69074"></rect>
    <path d="M685.42,360.8h-145.8c-3.26,0-5.91-2.65-5.91-5.91v-112.24c0-3.26,2.65-5.91,5.91-5.91h145.8c3.26,0,5.91,2.65,5.91,5.91v112.24c0,3.26-2.65,5.91-5.91,5.91Zm-145.8-123.05c-2.71,0-4.91,2.2-4.91,4.91v112.24c0,2.71,2.2,4.91,4.91,4.91h145.8c2.71,0,4.91-2.2,4.91-4.91v-112.24c0-2.71-2.2-4.91-4.91-4.91h-145.8Z" fill="#002346"></path>
  </g>
  <g>
    <g>
      <circle cx="643.54" cy="261.01" r="14.07" fill="#002346"></circle>
      <path d="M628.93,261.01c0-8.06,6.56-14.62,14.62-14.62,8.06,0,14.62,6.56,14.62,14.62,0,8.06-6.56,14.62-14.62,14.62-8.06,0-14.62-6.56-14.62-14.62Zm1.08,0c0,7.46,6.07,13.53,13.53,13.53,7.46,0,13.53-6.07,13.53-13.53,0-7.46-6.07-13.53-13.53-13.53-7.46,0-13.53,6.07-13.53,13.53Z" fill="#0d2445"></path>
    </g>
    <g>
      <circle cx="639.19" cy="264.79" r="10.83" fill="#fbe493"></circle>
      <path d="M627.82,264.79c0-6.27,5.1-11.37,11.37-11.37,6.27,0,11.37,5.1,11.37,11.37,0,6.27-5.1,11.37-11.37,11.37-6.27,0-11.37-5.1-11.37-11.37Zm1.08,0c0,5.67,4.61,10.29,10.29,10.29,5.67,0,10.29-4.61,10.29-10.29,0-5.67-4.61-10.29-10.29-10.29-5.67,0-10.29,4.61-10.29,10.29Z" fill="#002346"></path>
    </g>
    <g>
      <path d="M593.87,336.69c-3.87,.97-25.11,23.22-25.11,23.22h108.32s1.92-27.08-10.66-31.93c0,0-8.68-5.8-8.68,2.9l-10.65,11.61-29.5-12.41-23.72,6.61Z" fill="#fbe493"></path>
      <path d="M677.54,360.41h-109.95l.81-.85c.87-.91,21.36-22.34,25.35-23.36l23.89-6.65,29.34,12.34,10.28-11.21c.04-2.39,.73-3.96,2.08-4.68,2.66-1.42,6.81,1.19,7.33,1.53,12.72,4.97,11,31.29,10.92,32.41l-.03,.46Zm-107.61-1h106.67c.17-3.58,.84-26.65-10.36-30.96l-.1-.05s-4.1-2.71-6.35-1.51c-1.03,.55-1.55,1.89-1.55,3.99v.19l-11.02,12.01-29.67-12.48-23.57,6.57c-2.93,.73-17.65,15.56-24.06,22.23Z" fill="#002346"></path>
    </g>
    <g>
      <rect x="595.81" y="266.76" width="44.17" height="52.84" rx="22.08" ry="22.08" fill="#f2b3c1"></rect>
      <path d="M617.9,320.1c-12.45,0-22.58-10.13-22.58-22.58v-8.68c0-12.45,10.13-22.58,22.58-22.58s22.58,10.13,22.58,22.58v8.68c0,12.45-10.13,22.58-22.58,22.58Zm0-52.84c-11.9,0-21.58,9.68-21.58,21.58v8.68c0,11.9,9.68,21.58,21.58,21.58h0c11.9,0,21.58-9.68,21.58-21.58v-8.68c0-11.9-9.68-21.58-21.58-21.58Z" fill="#002346"></path>
    </g>
    <g>
      <path d="M626.18,317.63l.62,9.39-9.19,3.06-23.66,6.61s-2.9-4.33,1.93-11.83c0,0,4.24-4.05,1.58-14.12-.33-1.19-.78-2.35-1.34-3.45-2.58-5.13-4.17-10.7-4.69-16.42-.72-7.46,1.35-14.92,5.82-20.94,0,0,18.87-24.18,40.16-9.67,0,0,10.09-1.35,16.24,12.22,1.17,2.56,1.96,5.27,2.37,8.05,.35,2.49,.43,5.01,.22,7.51-.6,7.18-1.14,19.19,1.52,22.52-.03,0,7.71,8.71,8.67,17.41,0,0-3.45-2.3-6-1.84h0c-1.51,.28-2.7,1.51-2.7,4.73,0,0-.97,5.8-5.8,13.55-1.96,2.18-3.3,4.86-3.87,7.74-1.25-3.05-1.59-6.4-.98-9.65h0s-6.74,5.78-6.74,17.39h-26.14s-.97-8.68,5.8-12.57c0,0,10.64-3.87,9.67-11.61,0,0-2.9-5.52,5.8-13.9,0,0,5.8-4.56,4.84-9.83l-1.13-9.61,.58-13.16s-13.01,6.85-25.58-8.64c-1.12,3.53-.77,7.37,.96,10.64,0,0-6.77,0-10.64-5.8,.79,3.4,2.09,6.67,3.87,9.68,0,0-8.9-1.28-12.11-8.96-.05-.12-.23-.09-.23,.04l-.23,11.34s-.24,14.89,14.27,20.66c0,0,10.57,3.4,16.09-.55Z" fill="#002346"></path>
      <path d="M640.72,360.3h-26.88l-.04-.35c-.01-.09-.92-8.98,6-12.96,.16-.07,10.33-3.86,9.48-11.15-.33-.71-2.48-6.21,5.92-14.29,.09-.07,5.64-4.5,4.73-9.48l-1.13-9.64,.55-12.59c-2.71,1.1-14.03,4.56-24.98-8.43-.82,3.22-.42,6.69,1.14,9.63l.31,.58h-.66c-.26,0-5.8-.06-9.77-4.45,.79,2.7,1.91,5.29,3.35,7.72l.42,.71-.81-.12c-.09-.01-8.32-1.28-11.91-8.13l-.2,10.17c0,.14-.06,14.69,14.02,20.28,.08,.02,10.42,3.28,15.72-.5l.58-.41,.69,10.4-9.48,3.16-23.95,6.69-.16-.24c-.12-.19-2.99-4.63,1.93-12.26l.06-.07s4.03-4.04,1.47-13.73c-.32-1.16-.76-2.29-1.31-3.37-2.61-5.2-4.21-10.77-4.73-16.57-.73-7.57,1.36-15.1,5.9-21.21,.2-.25,19.28-24.22,40.58-9.84,1.32-.1,10.71-.29,16.49,12.47,1.18,2.59,1.99,5.34,2.4,8.16,.36,2.51,.43,5.07,.22,7.6-1,11.94-.49,19.84,1.44,22.24l.09,.1c1.82,2.17,7.82,9.86,8.67,17.51l.09,.84-.7-.47s-3.34-2.2-5.71-1.78c-1.6,.29-2.37,1.71-2.37,4.34-.05,.3-1.04,6.04-5.86,13.76-1.96,2.19-3.26,4.8-3.82,7.6l-.25,1.28-.5-1.21c-1.13-2.75-1.53-5.71-1.19-8.65-1.78,1.98-5.77,7.42-5.77,16.24v.39Zm-26.16-.79h25.38c.15-11.4,6.81-17.24,6.88-17.3l.85-.73-.21,1.1c-.52,2.75-.34,5.56,.51,8.21,.69-2.46,1.94-4.73,3.66-6.64,4.69-7.52,5.7-13.29,5.71-13.35,0-2.97,1.01-4.69,3.02-5.05,1.98-.36,4.39,.79,5.57,1.46-1.13-7.17-6.66-14.23-8.38-16.29-.03-.04-.07-.08-.09-.12h0c-2.63-3.28-2.32-14.21-1.61-22.79,.2-2.47,.13-4.97-.22-7.42-.4-2.75-1.18-5.42-2.33-7.94-5.95-13.13-15.73-12.01-15.83-12l-.15,.02-.12-.08c-20.74-14.14-39.44,9.35-39.63,9.59-4.41,5.94-6.45,13.28-5.74,20.66,.52,5.69,2.08,11.17,4.65,16.28,.58,1.12,1.04,2.3,1.37,3.52,2.59,9.8-1.2,14.02-1.65,14.47-3.96,6.17-2.53,10.12-2.04,11.12l23.36-6.52,8.88-2.96-.56-8.41c-5.72,3.42-15.44,.36-15.87,.22-14.62-5.81-14.55-20.89-14.54-21.04l.23-11.34c0-.25,.18-.45,.42-.5,.24-.04,.48,.08,.57,.31,2.51,6.01,8.71,8.01,10.97,8.55-1.58-2.83-2.75-5.86-3.48-9.03l-.49-2.11,1.2,1.8c3.01,4.51,7.89,5.41,9.65,5.59-1.5-3.21-1.75-6.93-.68-10.32l.22-.7,.46,.57c12.21,15.04,24.57,8.81,25.09,8.54l.61-.32-.61,13.85,1.13,9.55c.99,5.42-4.75,10-4.99,10.19-8.33,8.01-5.73,13.35-5.7,13.4l.04,.13c1,7.96-9.48,11.87-9.93,12.03-5.65,3.26-5.66,10.17-5.57,11.81Z" fill="#002346"></path>
    </g>
    <g>
      <path d="M635.46,321.83c-8.68,8.36-5.8,13.9-5.8,13.9,.97,7.74-9.67,11.61-9.67,11.61-.5,.28-.98,.6-1.42,.96h0c-2.02,.01-4.03-.14-6.03-.47-.86-.13-1.45-.94-1.32-1.8,.03-.2,.1-.39,.2-.56l5.17-8.76,.97-6.61,9.19-3.06-.53-9.46c11.04-5.59,12.95-15.21,12.95-15.21l1.14,9.63c.95,5.28-4.86,9.83-4.86,9.83Z" fill="#f2b3c1"></path>
      <path d="M618.36,348.8c-1.97,0-3.95-.16-5.9-.47-1.13-.18-1.91-1.24-1.73-2.37,.04-.26,.13-.51,.27-.74l5.12-8.68,1-6.82,9.12-3.04-.53-9.41,.29-.15c10.68-5.41,12.67-14.76,12.69-14.86l.62-3.08,1.5,12.75c.96,5.37-4.58,9.91-5.03,10.27-8.24,7.95-5.72,13.24-5.69,13.29l.05,.17c1.01,8.04-9.54,11.98-9.99,12.14-.4,.23-.86,.54-1.27,.88l-.14,.11h-.18c-.07,0-.14,0-.21,0Zm-.33-18.33l-.99,6.49-5.17,8.76c-.07,.12-.12,.25-.14,.39-.09,.59,.31,1.14,.9,1.23,1.89,.31,3.82,.46,5.74,.46h.03c.42-.33,.88-.64,1.35-.9,.17-.07,10.25-3.84,9.43-11.03-.36-.79-2.41-6.35,5.94-14.4l.04-.03c.06-.04,5.56-4.44,4.68-9.35l-.87-7.33c-1.25,3.21-4.48,9.1-12.21,13.12l.53,9.52-9.26,3.08Z" fill="#002346"></path>
    </g>
    <g>
      <ellipse cx="643.21" cy="296.54" rx="7.74" ry="8.23" fill="#f2b3c1"></ellipse>
      <path d="M643.21,305.27c-4.54,0-8.24-3.92-8.24-8.73s3.7-8.73,8.24-8.73,8.24,3.91,8.24,8.73-3.7,8.73-8.24,8.73Zm0-16.45c-3.99,0-7.24,3.47-7.24,7.73s3.25,7.73,7.24,7.73,7.24-3.47,7.24-7.73-3.25-7.73-7.24-7.73Z" fill="#002346"></path>
    </g>
  </g>
  <g>
    <g>
      <path d="M578.5,277.36l-14.92-3.23v-6.05c0-5.53-4.47-10.01-10-10.03h-43.86c-5.53,0-10.03,4.47-10.03,10.01v30.47c0,5.53,4.49,10.02,10.02,10.02h43.87c5.53,0,10.02-4.48,10.03-10.01h0v-14.39l14.89-6.79Z" fill="#fbe493"></path>
      <path d="M553.59,309.05h-43.87c-5.8,0-10.52-4.72-10.52-10.52v-30.46c0-5.82,4.73-10.53,10.52-10.53h43.87c5.79,.01,10.5,4.74,10.5,10.53v5.65l16,3.46-15.97,7.28v14.06c0,5.81-4.72,10.52-10.52,10.52Zm-43.87-50.5c-5.25,0-9.52,4.26-9.52,9.51v30.47c0,5.25,4.27,9.52,9.52,9.52h43.87c5.25,0,9.52-4.27,9.52-9.51v-14.71l13.81-6.3-13.84-2.99v-6.46c0-5.24-4.26-9.51-9.5-9.53h-43.86Z" fill="#002346"></path>
    </g>
    <g>
      <g>
        <rect x="509.37" y="265.85" width="42.34" height="2.97" fill="#fff"></rect>
        <path d="M552.2,269.32h-43.34v-3.97h43.34v3.97Zm-42.34-1h41.34v-1.97h-41.34v1.97Z" fill="#0d2445"></path>
      </g>
      <g>
        <rect x="509.37" y="287.39" width="42.34" height="2.97" fill="#fff"></rect>
        <path d="M552.2,290.86h-43.34v-3.97h43.34v3.97Zm-42.34-1h41.34v-1.97h-41.34v1.97Z" fill="#0d2445"></path>
      </g>
      <g>
        <rect x="509.36" y="297.78" width="24.51" height="2.97" fill="#fff"></rect>
        <path d="M534.37,301.26h-25.51v-3.97h25.51v3.97Zm-24.51-1h23.51v-1.97h-23.51v1.97Z" fill="#0d2445"></path>
      </g>
      <g>
        <rect x="509.36" y="276.25" width="20.8" height="2.97" fill="#fff"></rect>
        <path d="M530.66,279.72h-21.8v-3.97h21.8v3.97Zm-20.8-1h19.8v-1.97h-19.8v1.97Z" fill="#0d2445"></path>
      </g>
      <g>
        <rect x="533.88" y="276.24" width="17.83" height="2.97" fill="#fff"></rect>
        <path d="M552.2,279.72h-18.83v-3.97h18.83v3.97Zm-17.83-1h16.83v-1.97h-16.83v1.97Z" fill="#0d2445"></path>
      </g>
    </g>
  </g>
  <g>
    <g>
      <path d="M384.7,83.36l14.92-3.23v-6.05c0-5.53,4.47-10.01,10-10.03h43.86c5.53,0,10.03,4.47,10.03,10.01v30.47c0,5.53-4.49,10.02-10.02,10.02h-43.87c-5.53,0-10.02-4.48-10.03-10.01h0v-14.39s-14.89-6.79-14.89-6.79Z" fill="#fbe493"></path>
      <path d="M409.61,115.05c-5.8,0-10.52-4.72-10.52-10.51v-14.07l-15.97-7.28,16-3.46v-5.65c0-5.79,4.7-10.51,10.5-10.53h43.87c5.8,0,10.51,4.71,10.52,10.51v30.48c0,5.8-4.72,10.52-10.52,10.52h-43.87Zm-23.33-31.53l13.81,6.3v14.71c0,5.25,4.27,9.52,9.52,9.52h43.87c5.25,0,9.52-4.27,9.52-9.52v-30.46c0-5.26-4.28-9.53-9.52-9.53h-43.87c-5.24,.01-9.5,4.29-9.5,9.53v6.46l-13.84,2.99Z" fill="#002346"></path>
    </g>
    <g>
      <g>
        <rect x="411.5" y="71.85" width="42.34" height="2.97" fill="#fff"></rect>
        <path d="M454.33,75.32h-43.34v-3.97h43.34v3.97Zm-42.34-1h41.34v-1.97h-41.34v1.97Z" fill="#0d2445"></path>
      </g>
      <g>
        <rect x="411.5" y="93.39" width="42.34" height="2.97" fill="#fff"></rect>
        <path d="M454.33,96.86h-43.34v-3.97h43.34v3.97Zm-42.34-1h41.34v-1.97h-41.34v1.97Z" fill="#0d2445"></path>
      </g>
      <g>
        <rect x="429.33" y="103.78" width="24.51" height="2.97" fill="#fff"></rect>
        <path d="M454.34,107.26h-25.51v-3.97h25.51v3.97Zm-24.51-1h23.51v-1.97h-23.51v1.97Z" fill="#0d2445"></path>
      </g>
      <g>
        <rect x="433.04" y="82.25" width="20.8" height="2.97" fill="#fff"></rect>
        <path d="M454.34,85.72h-21.8v-3.97h21.8v3.97Zm-20.8-1h19.8v-1.97h-19.8v1.97Z" fill="#0d2445"></path>
      </g>
      <g>
        <rect x="411.5" y="82.24" width="17.83" height="2.97" fill="#fff"></rect>
        <path d="M429.82,85.72h-18.83v-3.97h18.83v3.97Zm-17.83-1h16.83v-1.97h-16.83v1.97Z" fill="#0d2445"></path>
      </g>
    </g>
  </g>
  <g>
    <path d="M584.56,149.46v25.58h-61.18v-17.32c-1.2-11,2.42-23,14-26.5,16.69-3.83,45.55-4.75,47.18,18.24Z" fill="#f69074"></path>
    <path d="M585.06,175.54h-62.18v-17.82c-1.16-10.57,2.01-23.25,14.36-26.98,12.98-2.98,30.27-3.59,39.97,3.59,4.75,3.52,7.39,8.59,7.85,15.09v.04s0,26.08,0,26.08Zm-61.18-1h60.18v-25.06c-.44-6.19-2.95-11.01-7.45-14.34-9.43-6.98-26.39-6.35-39.12-3.43-11.73,3.55-14.73,15.74-13.61,25.96v16.88Z" fill="#002346"></path>
  </g>
  <g>
    <path d="M554.52,139.35c10,0,14.13-8.34,13.8-8.73-8.95-2-13.32-1.24-20.79-1.36,0,0-3,.45-6.82,1.14,.05,0,3.87,8.99,13.81,8.95Z" fill="#f2b3c1"></path>
    <path d="M554.45,139.85c-8.85,0-13.05-6.97-14.13-9.11l.35-.28-.05-.55c3.78-.68,6.8-1.14,6.83-1.14,1.92,.02,3.56,0,5.14-.02,4.85-.08,9.03-.13,15.83,1.39l.16,.04,.11,.13c.22,.26,.18,.63-.14,1.32-1.32,2.85-5.95,8.23-14.04,8.23h-.07Zm-12.98-9.08c1.33,2.41,5.28,8.08,12.98,8.08h.07c8.54,0,12.54-6.25,13.21-7.85-6.41-1.39-10.45-1.33-15.12-1.26-1.59,.02-3.24,.05-5.09,.02,.03,0-2.62,.4-6.05,1.01Z" fill="#002346"></path>
  </g>
  <g>
    <path d="M546.66,130.71c.91,9.35,15.68,8.34,15.17-1.17-.13-3.79-.4-10.46-.55-14.32l-13.64-.08c-.23,4.66-1.02,10.94-.98,15.57Z" fill="#f2b3c1"></path>
    <path d="M554.13,137.72c-3.64,0-7.5-2.1-7.97-6.96v-.04c-.03-2.89,.27-6.39,.55-9.78,.18-2.09,.34-4.06,.43-5.82l.02-.48,14.6,.09,.16,3.96c.14,3.65,.32,8.04,.41,10.84,.28,5.2-3.69,7.88-7.49,8.17-.23,.02-.47,.03-.71,.03Zm-6.97-7.04c.45,4.49,4.26,6.27,7.6,6.01,3.33-.25,6.81-2.59,6.57-7.13-.1-2.81-.27-7.2-.41-10.85l-.12-3-12.68-.07c-.09,1.65-.24,3.47-.4,5.38-.28,3.35-.57,6.82-.55,9.67Z" fill="#002346"></path>
  </g>
  <g>
    <path d="M533.49,93.03c4.46,28.53,37.44,30.18,42.61,1.71,2.58-.65-.07-16.66-10.89-18.84-14.36-6.2-21.93,.34-26.39,5,0,0-1.54,2-2.19,3.22-2.77,2.34-4.26,5.17-3.14,8.91Z" fill="#002346"></path>
    <path d="M555.35,115.78c-.07,0-.15,0-.22,0-9.26-.11-19.69-7.16-22.13-22.64-1.05-3.53,.01-6.59,3.23-9.34,.68-1.25,2.13-3.12,2.19-3.21,3.43-3.58,11.36-11.87,26.94-5.17,8.84,1.82,12.05,12.09,12.15,16.5,.04,1.66-.3,2.76-.97,3.17-2.88,15.28-13.15,20.69-21.2,20.69Zm-16.17-34.53s-1.49,1.95-2.11,3.11l-.12,.15c-2.99,2.53-3.94,5.19-2.98,8.38l.02,.07c2.33,14.93,12.31,21.72,21.16,21.82,7.74,.11,17.74-5.12,20.47-20.13l.06-.32,.31-.08c.23-.06,.57-.73,.53-2.31-.11-4.65-3.57-13.98-11.4-15.56l-.1-.03c-13.19-5.69-20.46-.72-25.83,4.89h0Z" fill="#0d2445"></path>
  </g>
  <g>
    <path d="M570.82,103.32c8.82-11,11.76,11.48,.29,8.14-3.93-1.56-.29-8.14-.29-8.14Z" fill="#f2b3c1"></path>
    <path d="M573.32,112.3c-.74,0-1.52-.12-2.35-.36-.98-.39-1.62-1.04-1.94-1.94-.96-2.68,1.26-6.75,1.36-6.92l.05-.07c3.15-3.93,5.39-3.45,6.44-2.81,2.18,1.33,2.94,5.55,1.56,8.69-.98,2.24-2.79,3.42-5.11,3.42Zm-2.08-8.7c-.21,.39-2.04,3.93-1.27,6.07,.23,.63,.66,1.07,1.33,1.33,3.94,1.15,5.59-1.08,6.22-2.51,1.16-2.63,.57-6.38-1.17-7.43-1.32-.81-3.14,.1-5.11,2.55Z" fill="#002346"></path>
  </g>
  <g>
    <path d="M539.16,102.71c-8.39-11.32-12.18,11-.59,8.13,3.98-1.43,.59-8.13,.59-8.13Z" fill="#f2b3c1"></path>
    <path d="M536.61,111.59c-2.48,0-4.33-1.26-5.26-3.63-1.25-3.19-.33-7.37,1.89-8.61,1.07-.59,3.32-.99,6.32,3.06l.04,.07c.09,.17,2.15,4.31,1.1,6.96-.36,.9-1.02,1.52-1.97,1.86-.75,.19-1.46,.28-2.13,.28Zm-1.93-11.61c-.34,0-.65,.08-.95,.25-1.77,.98-2.5,4.7-1.45,7.37,.57,1.46,2.14,3.76,6.17,2.76,.63-.23,1.08-.65,1.33-1.28,.84-2.12-.85-5.71-1.04-6.11-1.46-1.96-2.87-2.99-4.05-2.99Z" fill="#002346"></path>
  </g>
  <g>
    <rect x="538.46" y="80.31" width="33" height="44" rx="16.5" ry="16.5" fill="#f2b3c1"></rect>
    <path d="M554.96,124.81c-9.37,0-17-7.63-17-17v-11c0-9.37,7.63-17,17-17s17,7.63,17,17v11c0,9.37-7.63,17-17,17Zm0-44c-8.82,0-16,7.18-16,16v11c0,8.82,7.18,16,16,16h0c8.82,0,16-7.18,16-16v-11c0-8.82-7.18-16-16-16Z" fill="#002346"></path>
  </g>
  <g>
    <path d="M539.23,102.72c1.11-5.31,1.1-20.88,13.85-17.24,8.01,3.17,17.58,5.09,18.03,13.93,.03,.67,.94,.83,1.2,.21,1.14-2.75,2.35-6.89,.86-9.71-2.4-4.57-5.62-10.85-10.46-12.26s-21.66,5.07-21.66,5.07c-2.92,6.25-3.56,13.32-1.82,20Z" fill="#002346"></path>
    <path d="M539.28,104.91l-.54-2.06c-1.77-6.77-1.11-13.99,1.85-20.34l.09-.18,.19-.07c.69-.27,17.04-6.52,21.98-5.08,4.96,1.44,8.24,7.69,10.63,12.26l.13,.25c1.55,2.95,.4,7.14-.84,10.14-.21,.5-.7,.77-1.23,.68-.53-.09-.9-.52-.93-1.05-.37-7.18-6.99-9.57-14-12.11-1.25-.45-2.5-.91-3.72-1.39-2.93-.83-5.4-.64-7.28,.58-3.91,2.54-4.83,9.11-5.44,13.46-.16,1.11-.29,2.06-.45,2.83l-.44,2.08Zm2.13-21.79c-2.42,5.28-3.19,11.17-2.26,16.87,0-.04,.01-.09,.02-.14,.64-4.53,1.6-11.37,5.89-14.16,2.14-1.39,4.88-1.62,8.15-.69,1.25,.49,2.5,.94,3.74,1.39,7.01,2.54,14.26,5.16,14.65,13,0,.03,0,.1,.1,.12,.1,.01,.12-.05,.13-.08,.95-2.29,2.33-6.54,.88-9.29l-.13-.25c-2.31-4.4-5.48-10.44-10.03-11.76-4.36-1.27-19.29,4.28-21.15,4.98Z" fill="#0d2445"></path>
  </g>
  <g>
    <path d="M540.85,92.82c4.48-4.74,11.1-6.8,17.48-5.45,0,0-12.05-12.62-17.48,5.45Z" fill="#002346"></path>
    <path d="M539.76,94.7l.61-2.02c1.73-5.76,4.33-9.09,7.72-9.9,5.27-1.26,10.39,4.02,10.6,4.25l1.12,1.17-1.58-.34c-6.16-1.31-12.68,.72-17.01,5.3l-1.45,1.53Zm9.98-11.11c-.47,0-.95,.05-1.42,.17-2.65,.64-4.78,3.1-6.36,7.33,4.06-3.46,9.46-5.1,14.76-4.48-1.51-1.22-4.19-3.01-6.98-3.01Z" fill="#0d2445"></path>
  </g>
  <g>
    <path d="M571.28,96.13s-1,6.3,.38,11.56c.1,.26,3.94-14.09-.38-11.56Z" fill="#002346"></path>
    <path d="M571.32,108.2l-.13-.33c-1.41-5.35-.45-11.56-.41-11.82l.04-.23,.2-.12c1-.59,1.64-.36,1.99-.07,2.2,1.82-.79,11.99-.82,12.09-.05,.14-.17,.47-.53,.48h-.35Zm.42-11.74c-.14,1.03-.62,5.17,0,9.19,.7-2.93,1.66-8.32,.65-9.23-.13-.12-.35-.1-.66,.04Z" fill="#0d2445"></path>
  </g>
  <g>
    <path d="M539.04,95.52s.75,6.37-.82,11.57c-.05,.25-3.4-14.27,.82-11.57Z" fill="#002346"></path>
    <path d="M537.9,107.63l-.15-.35c-.04-.09-2.66-10.43-.48-12.28,.37-.31,1.02-.55,2.04,.1l.2,.13,.03,.24c.03,.26,.74,6.53-.84,11.77l-.1,.32-.7,.07Zm.22-11.94c-.08,0-.14,.02-.2,.06-1.06,.85-.3,6.21,.29,9.21,.76-3.99,.45-8.11,.35-9.14-.15-.08-.31-.14-.44-.14Z" fill="#0d2445"></path>
  </g>
  <g>
    <path d="M327.76,65.06c-.1,8.09-2.21,29.84-4.59,33.67h34.86s4.85-11,3-23.26-33.21-14.85-33.27-10.41Z" fill="#002346"></path>
    <path d="M358.36,99.23h-36.09l.47-.76c2.2-3.55,4.41-24.86,4.51-33.41h0c.02-1.37,1.86-2.22,5.32-2.46,9.33-.64,27.49,3.2,28.94,12.8,1.85,12.26-2.99,23.42-3.04,23.54l-.13,.3Zm-34.38-1h33.72c.74-1.83,4.48-11.82,2.84-22.69-1.34-8.87-19.12-12.55-27.89-11.95-3.02,.21-4.38,.89-4.39,1.47h0c-.09,7.62-1.95,27.67-4.28,33.16Z" fill="#0d2445"></path>
  </g>
  <g>
    <path d="M370.54,116.76c-.34,5.68-1.07,18-1.4,23.55h-52.38c.45-13.42-5.49-40.1,11.94-44.33,4.36-1.68,14.73-.86,19.44-1,11.82-.25,22.3,9.92,22.4,21.78Z" fill="#fbe493"></path>
    <path d="M369.61,140.81h-53.37l.02-.52c.09-2.72-.08-6.03-.27-9.53-.75-14.17-1.68-31.81,12.59-35.27,3.24-1.25,9.69-1.14,14.87-1.04,1.85,.03,3.44,.06,4.67,.03,5.77-.14,11.58,2.24,15.95,6.48,4.38,4.25,6.92,10.01,6.96,15.79v.02s0,.02,0,.02l-1.43,24.02Zm-52.34-1h51.4l1.37-23.06c-.05-5.52-2.48-11.01-6.66-15.07-4.18-4.06-9.73-6.35-15.23-6.2-1.25,.04-2.85,0-4.71-.03-5.1-.09-11.44-.21-14.56,.99-13.53,3.29-12.62,20.46-11.89,34.27,.18,3.31,.34,6.44,.28,9.1Z" fill="#002346"></path>
  </g>
  <g>
    <path d="M342.95,106.71c-12.27-1-13.27-11-13.27-11,7-2.15,22.2-1.46,26.51,.15,0-.03-.97,11.84-13.24,10.85Z" fill="#f2b3c1"></path>
    <path d="M344.37,107.27c-.47,0-.96-.02-1.46-.06h0c-12.54-1.02-13.72-11.34-13.73-11.45l-.04-.41,.39-.12c7.19-2.21,22.41-1.49,26.83,.16l3,1.12-2.74-.13c-.34,2.17-2.34,10.89-12.25,10.89Zm-1.38-1.06c10.39,.81,12.34-8.01,12.65-10.01-4.57-1.45-18.55-2.04-25.4-.13,.33,1.86,2.31,9.29,12.75,10.14h0Z" fill="#002346"></path>
  </g>
  <g>
    <path d="M335.35,95.24c.87,8.94,15,8,14.5-1.12-.12-3.62-.38-10-.52-13.69l-13-.08c-.26,4.46-1.02,10.47-.98,14.89Z" fill="#f2b3c1"></path>
    <path d="M342.5,101.97c-3.49,0-7.2-2.02-7.65-6.69v-.04c-.03-2.87,.28-6.36,.57-9.74,.16-1.86,.32-3.61,.41-5.19l.03-.47,13.95,.09,.18,4.58c.13,3.32,.28,7.1,.36,9.59,.27,4.99-3.52,7.57-7.16,7.84-.23,.02-.45,.03-.68,.03Zm-6.65-6.76c.43,4.29,4.06,5.97,7.26,5.74,3.17-.24,6.48-2.47,6.24-6.8-.08-2.49-.23-6.27-.36-9.59l-.14-3.63-12.05-.07c-.09,1.47-.23,3.06-.38,4.74-.29,3.34-.59,6.8-.57,9.62Z" fill="#002346"></path>
  </g>
  <g>
    <path d="M363.13,62.6c-.55,26.32-39.32,25.5-39.95-.27,0-5.6,.54-9.54,6.63-14,6.51-14.6,34.16-4.86,33.32,14.27Z" fill="#002346"></path>
    <path d="M343.49,82.5c-10.11,0-20.49-6.92-20.81-20.16,0-5.48,.48-9.72,6.73-14.34,2.71-5.92,9.14-8.47,16.81-6.66,9.02,2.13,17.89,10.12,17.41,21.27-.29,13.64-10.62,19.87-20.1,19.88h-.04Zm-1.91-40.7c-4.54,0-9.1,1.76-11.32,6.73l-.05,.12-.11,.08c-5.98,4.38-6.43,8.23-6.43,13.6,.32,13.17,10.49,19.17,19.81,19.17h.04c9.01-.02,18.83-5.94,19.1-18.91h0c.47-10.62-8.02-18.23-16.64-20.27-1.41-.33-2.9-.52-4.4-.52Z" fill="#0d2445"></path>
  </g>
  <g>
    <path d="M358.45,70.76c8.51-10.52,11.14,11.06,.27,7.79-3.75-1.51-.27-7.79-.27-7.79Z" fill="#f2b3c1"></path>
    <path d="M360.86,79.39c-.71,0-1.48-.12-2.28-.36-.94-.38-1.55-1-1.87-1.88-.92-2.58,1.21-6.47,1.3-6.63l.05-.07c3.05-3.77,5.19-3.3,6.2-2.68,2.1,1.29,2.8,5.37,1.44,8.39-.95,2.12-2.66,3.24-4.84,3.24Zm-1.99-8.35c-.21,.39-1.94,3.74-1.21,5.78,.21,.6,.62,1.02,1.25,1.27,3.7,1.11,5.28-.99,5.88-2.34,1.13-2.52,.6-6.12-1.05-7.13-1.25-.76-2.97,.09-4.87,2.42Z" fill="#002346"></path>
  </g>
  <g>
    <path d="M328.18,70.19c-8.1-10.84-11.55,10.62-.57,7.76,3.81-1.36,.57-7.76,.57-7.76Z" fill="#f2b3c1"></path>
    <path d="M325.69,78.71c-2.31,0-4.06-1.18-4.96-3.41-1.24-3.07-.39-7.12,1.76-8.33,1.03-.58,3.19-.97,6.09,2.92l.05,.07c.08,.17,2.06,4.12,1.05,6.66-.34,.86-.98,1.47-1.9,1.79-.74,.19-1.43,.29-2.09,.29Zm-1.81-11.1c-.32,0-.62,.08-.9,.24-1.69,.95-2.35,4.52-1.32,7.08,.55,1.37,2.05,3.52,5.83,2.54,.6-.22,1.02-.62,1.26-1.21,.8-2.01-.8-5.41-.99-5.81-1.4-1.87-2.74-2.84-3.87-2.84Z" fill="#002346"></path>
  </g>
  <g>
    <path d="M342.93,90.65c14.14-.15,15.09-13.19,16-24.08,1.05-8.58-5.06-16.4-13.64-17.45-8.58-1.05-16.4,5.06-17.45,13.64-.13,1.06-.15,2.14-.06,3.2,.58,10.93,1.04,24,15.15,24.68Z" fill="#f2b3c1"></path>
    <path d="M342.92,91.15h-.01c-14.34-.69-15.04-13.96-15.6-24.63l-.03-.53c-.09-1.08-.07-2.2,.06-3.29,1.08-8.85,9.16-15.17,18-14.08,8.84,1.08,15.16,9.16,14.08,18l-.02,.3c-.89,10.72-2.01,24.07-16.47,24.22h-.01Zm.45-41.64c-7.55,0-14.1,5.65-15.04,13.32-.13,1.03-.15,2.07-.06,3.1l.03,.54c.57,10.79,1.21,23.02,14.63,23.68,13.53-.15,14.56-12.45,15.47-23.3l.03-.32c1.02-8.32-4.91-15.89-13.21-16.91-.62-.08-1.24-.11-1.85-.11Z" fill="#002346"></path>
  </g>
  <g>
    <path d="M330.76,55.46c1.91,4.33,6.07,7.24,10.79,7.55,1.88-.11,3.11-1.08,.65-4.33,4.64,3.21,14.34,7.69,10.26-3.71,0,0,4.14,12.65,6.65,10.4s-1.41-12.8-9.23-15.35-16.99-1.56-19.12,5.44Z" fill="#002346"></path>
    <path d="M358.47,66.14c-.13,0-.26-.02-.39-.05-1.45-.39-3-3.2-4.18-5.91-.12,.9-.48,1.58-1.07,2.03-2.15,1.65-6.54-.47-9.07-1.95,.37,.83,.42,1.52,.16,2.07-.33,.71-1.12,1.11-2.34,1.18-4.99-.32-9.29-3.33-11.28-7.85l-.07-.17,.05-.18c.74-2.44,2.31-4.29,4.66-5.52,3.83-1.99,9.47-2.09,15.1-.25,5.39,1.76,9.17,7.23,10.12,11.73,.44,2.08,.18,3.66-.71,4.47-.29,.26-.62,.4-.98,.4Zm-5.23-10.42c1.31,3.76,3.6,9,5.1,9.41,.12,.04,.26,.04,.44-.12,.6-.54,.75-1.85,.4-3.52-.87-4.11-4.48-9.36-9.45-10.99-5.3-1.73-10.78-1.65-14.33,.19-2.04,1.06-3.42,2.66-4.11,4.74,1.87,4.08,5.79,6.79,10.29,7.08,.51-.03,1.23-.17,1.43-.6,.14-.31,.17-1.1-1.21-2.93l-1.88-2.49,2.57,1.78c3.62,2.5,8.12,4.38,9.74,3.15,.94-.72,.96-2.57,.07-5.38-.14-.39-.24-.7-.31-.91l.95-.32c.11,.31,.22,.62,.31,.91Z" fill="#0d2445"></path>
  </g>
  <g>
    <path d="M327.29,64.59s2.05,5.6,.4,9c-6.21-5.87-1.93-15.94-.4-9Z" fill="#002346"></path>
    <path d="M327.84,74.42l-.5-.47c-3.77-3.57-3.93-8.68-2.86-11.02,.52-1.12,1.18-1.23,1.52-1.19,.79,.08,1.38,1,1.76,2.71,.18,.52,2.04,5.91,.37,9.36l-.3,.61Zm-1.94-11.68c-.07,0-.28,.15-.5,.62-.78,1.7-.89,6.04,2.11,9.34,1.01-3.2-.67-7.88-.69-7.93l-.02-.06c-.34-1.56-.78-1.94-.9-1.96h0Z" fill="#0d2445"></path>
  </g>
  <g>
    <path d="M358.52,66.97s-1.4,5.13,.25,8.5c5.67-6.79,1.73-16.07-.25-8.5Z" fill="#002346"></path>
    <path d="M358.66,76.38l-.34-.69c-1.71-3.49-.35-8.6-.28-8.85,.53-2.01,1.24-3.08,2.12-3.19,.32-.03,.94,.03,1.44,.94,1.14,2.1,.93,7.16-2.44,11.2l-.49,.59Zm1.63-11.74s0,0-.01,0c-.22,.03-.78,.58-1.27,2.45h0s-1.13,4.25-.09,7.38c2.76-3.79,2.57-8,1.8-9.41-.14-.26-.31-.43-.42-.43Z" fill="#0d2445"></path>
  </g>
  <g>
    <path d="M330.76,55.46c-.09,3.26-1.14,6.42-3,9.1-2.06,2.71-2.8-9.12,3-9.1Z" fill="#002346"></path>
    <path d="M327.17,65.46c-.16,0-.29-.04-.37-.08-1.09-.51-1.28-3.38-.78-5.65,.68-3.03,2.4-4.77,4.73-4.77h.53s-.01,.51-.01,.51c-.1,3.37-1.17,6.61-3.09,9.37-.37,.49-.73,.62-1,.62Zm3.07-9.46c-1.82,.27-2.69,1.96-3.1,3.41-.69,2.4-.32,4.71,.06,5.05,.01-.02,.08-.08,.17-.2,1.7-2.44,2.69-5.29,2.87-8.26Z" fill="#0d2445"></path>
  </g>
</svg>
