<svg id="bbd0de88-467f-44bc-881a-569349eec3f6" data-name="Layer 1" xmlns="http://www.w3.org/2000/svg" xmlns:xlink="http://www.w3.org/1999/xlink" width="865.76" height="682.89" viewBox="0 0 865.76 682.89"><defs><clipPath id="ff0ccfc9-62d2-486e-9d89-7b3ad532be9d"><path id="b184e1c1-98e3-414e-b41f-6158772042c3" data-name="SVGID" d="M692.34,287.56V468.19a7.72,7.72,0,0,1-7.52,7.92H513.64a8.2,8.2,0,0,1-8.5-7.91h0V348.85l-48.21-24.92,48.21-.29V287.51a8.72,8.72,0,0,1,8.51-8.5H684.42a8.21,8.21,0,0,1,7.92,8.49Z" fill="none"/></clipPath><clipPath id="f892daa9-98ab-4e57-8733-566b272f10cd"><path id="b816e139-7315-4c8f-b353-53386ce36686" data-name="SVGID" d="M595.45,48.34V219.12c0,4.53-2.86,9-7.39,9H464.72l-37.37,49.74-.26-49.74H407.38a9.69,9.69,0,0,1-9-9V48.34c0-4.53,4.5-7.39,9-7.39H588a6.86,6.86,0,0,1,7.44,7.39Z" fill="none"/></clipPath></defs><polyline points="843.41 594.34 22.35 594.34 22.35 592.7 843.41 592.7" fill="#ebebeb"/><rect x="671.96" y="604.54" width="31.51" height="0.41" fill="#ebebeb"/><rect x="106.86" y="607.3" width="70.92" height="0.41" fill="#ebebeb"/><rect x="192.41" y="607.3" width="10.39" height="0.41" fill="#ebebeb"/><path d="M409.89,520.12H92.82a9.38,9.38,0,0,1-9.36-9.38V65a9.37,9.37,0,0,1,9.36-9.29H409.89a9.38,9.38,0,0,1,9.38,9.37h0V510.74A9.38,9.38,0,0,1,409.89,520.12ZM92.82,56.06a9,9,0,0,0-8.95,9V510.74a9,9,0,0,0,8.95,9H409.89a9,9,0,0,0,9-9V65a9,9,0,0,0-9-9Z" fill="#ebebeb"/><path d="M765.1,520.12H448a9.39,9.39,0,0,1-9.38-9.38V65A9.39,9.39,0,0,1,448,55.73H765.1A9.37,9.37,0,0,1,774.44,65V510.74A9.38,9.38,0,0,1,765.1,520.12ZM448,56.06a9,9,0,0,0-9,9V510.74a9,9,0,0,0,9,9H765.1a9,9,0,0,0,9-9V65a9,9,0,0,0-9-9Z" fill="#ebebeb"/><path d="M126,297.66s12.37,2.86,18.06,18.26,23.29,25,34.59,24.4c4.54-.21,8.8,1.92,13.82,4.83,1.4.79,2.83,1.64,4.35,2.53-.19-1.53-.34-3.12-.42-4.75a45.45,45.45,0,0,1-3.58-3l-.81-.75c-13.61-13.14-14-26.85-29.88-39.23C146,287.27,126,297.66,126,297.66Z" fill="#f0f0f0"/><path d="M258.08,284s-11.84,4.58-15.37,20.64-19.53,28-30.79,29c-4.53.42-8.44,3.15-13,6.73L195,343.51c0-1.55-.1-3.14-.25-4.76,1.07-1.1,2.12-2.25,3.12-3.5l.69-.86c11.63-14.87,10.08-28.55,24-43.05C236.8,276.56,258.08,284,258.08,284Z" fill="#f0f0f0"/><path d="M198.9,340.39a86.93,86.93,0,0,1-2.66,25.6c-7.64,29.7-4.24.41-4.24.41a75,75,0,0,0,3-22.89c0-1.55-.1-3.14-.25-4.76a69.36,69.36,0,0,0-3.56-17.34c-8.07-23.36-24.19-30.56-30.56-55.61s15.7-42.87,15.7-42.87-3,15.71,11.9,30.15,17,39.41,10.59,52.2c-3.71,7.42-1.34,16.73-.26,29.11C198.68,336.32,198.83,338.32,198.9,340.39Z" fill="#f0f0f0"/><polygon points="238.04 362.8 236.27 376.7 235.62 381.74 234.97 386.81 231.61 413.12 165.69 412.86 162.33 386.78 161 376.7 159.19 362.8 238.04 362.8" fill="#e6e6e6"/><polygon points="236.25 375.94 235.6 380.87 161.65 380.87 160.98 375.94 236.25 375.94" fill="#f0f0f0"/><rect x="149.35" y="412.07" width="19.71" height="182.27" fill="#f0f0f0"/><rect x="228.18" y="412.07" width="19.71" height="182.27" fill="#f0f0f0"/><rect x="149.35" y="421.92" width="19.71" height="21.35" fill="#e6e6e6"/><rect x="228.18" y="421.92" width="19.71" height="21.35" fill="#e6e6e6"/><rect x="147.71" y="412.07" width="101.81" height="21.35" fill="#f0f0f0"/><rect x="557.17" y="368.39" width="204.64" height="225.43" fill="#f5f5f5"/><path d="M753.09,489.25v96.88H664.42V489.25h18.85s2.46,0,3.07,3.28,1.87,6.57,7.88,6.57h29.86c6,0,7.27-3.4,7.88-6.57s3.07-3.28,3.07-3.28Z" fill="#e0e0e0"/><path d="M652.93,489.25v96.88H564.25V489.25H583.1s2.47,0,3.07,3.28,1.88,6.57,7.89,6.57h29.85c6,0,7.27-3.4,7.88-6.57s3.07-3.28,3.07-3.28Z" fill="#e0e0e0"/><path d="M753.09,379.22v96.89H664.42V379.22h18.85s2.46,0,3.07,3.29,1.87,6.57,7.88,6.57h29.86c6,0,7.27-3.4,7.88-6.57s3.07-3.29,3.07-3.29Z" fill="#e0e0e0"/><path d="M652.93,379.22v96.89H564.25V379.22H583.1s2.47,0,3.07,3.29,1.88,6.57,7.89,6.57h29.85c6,0,7.27-3.4,7.88-6.57s3.07-3.29,3.07-3.29Z" fill="#e0e0e0"/><rect x="298.23" y="83.64" width="64.04" height="82.11" fill="#f5f5f5"/><rect x="345.85" y="150.97" width="16.42" height="4.93" fill="#fafafa"/><rect x="345.85" y="144.4" width="16.42" height="3.28" fill="#fafafa"/><rect x="345.85" y="91.85" width="16.42" height="6.57" fill="#fafafa"/><rect x="345.85" y="101.71" width="16.42" height="1.64" fill="#fafafa"/><rect x="285.09" y="83.64" width="64.04" height="82.11" fill="#e6e6e6"/><rect x="255.53" y="67.22" width="77.18" height="98.53" fill="#f0f0f0"/><rect x="311.37" y="147.69" width="21.35" height="6.57" fill="#fafafa"/><rect x="311.37" y="141.12" width="21.35" height="3.28" fill="#fafafa"/><rect x="311.37" y="82" width="21.35" height="6.57" fill="#fafafa"/><rect x="311.37" y="91.85" width="21.35" height="3.28" fill="#fafafa"/><rect x="239.11" y="67.22" width="77.18" height="98.53" fill="#e6e6e6"/><rect x="157.01" y="165.75" width="228.25" height="8.21" fill="#f0f0f0"/><polygon points="189.04 88.57 254.73 88.57 269.48 165.75 203.79 165.75 189.04 88.57" fill="#f5f5f5"/><rect x="157.01" y="165.75" width="67.33" height="8.21" fill="#e0e0e0"/><polygon points="197.17 96.78 249.72 96.78 261.35 157.54 208.8 157.54 197.17 96.78" fill="#fafafa"/><polygon points="193.13 109.98 193.13 165.75 203.79 165.75 193.13 109.98" fill="#e6e6e6"/><path d="M651.15,76.86c-10.36-5.75-14.38,6.29-14.38,6.29s3.28-12.23-8.46-13.23-14.78,20.41,3.14,30.7C652.05,102,661.51,82.59,651.15,76.86Z" fill="#e6e6e6"/><path d="M707.11,224.87H689.05a4.92,4.92,0,0,0-4.92,4.92v13.14a4.93,4.93,0,0,0,4.92,4.93h2.74L690.4,253l4.92-5.18h11.79a4.93,4.93,0,0,0,4.93-4.93V229.79A4.92,4.92,0,0,0,707.11,224.87Z" fill="#e6e6e6"/><rect x="452.59" y="576.28" width="82.11" height="9.85" fill="#bcbec0"/><polyline points="464.08 645.25 464.08 407.14 473.94 407.14 473.94 645.25" fill="#bcbec0"/><polyline points="514.99 645.25 514.99 407.14 524.84 407.14 524.84 645.25" fill="#bcbec0"/><rect x="201.34" y="395.65" width="333.35" height="11.49" fill="#407bff"/><rect x="201.34" y="395.65" width="333.35" height="11.49" fill="#bcbec0"/><rect x="201.34" y="395.65" width="333.35" height="11.49" fill="#fff" opacity="0.2" style="isolation:isolate"/><rect x="201.34" y="395.65" width="72.25" height="11.49" fill="#bcbec0"/><rect x="196.42" y="576.28" width="82.11" height="9.85" fill="#bcbec0"/><polyline points="207.91 645.25 207.91 407.14 217.76 407.14 217.76 645.25" fill="#bcbec0"/><polyline points="258.82 645.25 258.82 407.14 268.67 407.14 268.67 645.25" fill="#bcbec0"/><polyline points="380.33 645.25 380.33 517.16 388.55 517.16 388.55 645.25" fill="#ccc"/><polyline points="244.04 645.25 244.04 517.16 252.25 517.16 252.25 645.25" fill="#ccc"/><polyline points="296.59 645.25 296.59 517.16 304.8 517.16 304.8 645.25" fill="#ccc"/><polyline points="432.88 645.25 432.88 517.16 441.09 517.16 441.09 645.25" fill="#ccc"/><rect x="234.19" y="517.16" width="221.69" height="16.42" fill="#d8d6d6"/><path d="M455.69,517.16H234.37a29.55,29.55,0,0,1,29.37-26.27H426.31A29.55,29.55,0,0,1,455.69,517.16Z" fill="#ccc"/><path d="M684.42,279.06a8.21,8.21,0,0,1,7.92,8.49h0V468.19a7.72,7.72,0,0,1-7.52,7.92H513.64a8.2,8.2,0,0,1-8.5-7.91h0V348.85l-48.21-24.92,48.21-.29V287.51a8.72,8.72,0,0,1,8.51-8.5H684.13m.29-3.29H513.64a12,12,0,0,0-11.79,11.79v32.84l-44.81.27h-9.3L455,326.4l46.83,24V468.19a11.49,11.49,0,0,0,11.78,11.2H684.42a11,11,0,0,0,11.2-10.8v-181a11.5,11.5,0,0,0-11.19-11.79h0Z" fill="#a7a9ac"/><path d="M692.34,287.56V468.19a7.72,7.72,0,0,1-7.52,7.92H513.64a8.2,8.2,0,0,1-8.5-7.91h0V348.85l-48.21-24.92,48.21-.29V287.51a8.72,8.72,0,0,1,8.51-8.5H684.42a8.21,8.21,0,0,1,7.92,8.49Z" fill="#fff"/><g clip-path="url(#ff0ccfc9-62d2-486e-9d89-7b3ad532be9d)"><g id="e04f2349-527f-4ffd-9370-ff01e6252bc1" data-name="freesvgillustration--group--inject-26"><path d="M551.39,382l-14.51,5.42c-1.09-.83,5.94-57.48,5.94-57.48l-10.9-3s-14.34,60.3-9.26,70.61c6.56,13.4,35.56,0,35.56,0Z" fill="#f9b499"/><path d="M599.15,394a14.33,14.33,0,0,0-2.62,0,157.56,157.56,0,0,0-18.81,3.21c-14.09,3-29.56,7-29.56,7l-6.9-20S586.7,357.88,594.07,360C594.07,360,606.4,395.1,599.15,394Z" fill="#E7CEF2"/><path d="M703.42,414.46s12.18,14,10.81,32.09-47.25,46-47.25,46l-5.84-9s36.53-30.79,37.35-36.95-7.58-19.7-7.58-19.7Z" fill="#f9b499"/><path d="M662.78,480.35s7.47,10,7.11,11.29-6.41,5-6.41,5,1,6,1,7.07c0,2.67-4.78,6-6,5.2-4.42-2.95-6-10.95-6.85-14.61S660.63,479.25,662.78,480.35Z" fill="#407bff"/><path d="M662.78,480.35s7.47,10,7.11,11.29-6.41,5-6.41,5,1,6,1,7.07c0,2.67-4.78,6-6,5.2-4.42-2.95-6-10.95-6.85-14.61S660.63,479.25,662.78,480.35Z" fill="#f9b499"/><path d="M596.53,394a157.56,157.56,0,0,0-18.81,3.21c2.54-11,16.09-20,16.09-20Z" opacity="0.2" style="isolation:isolate"/><rect x="605.91" y="477.96" width="12.76" height="9.2" fill="#fff"/><path d="M670.12,366.17s-2.09,10.48-4.63,25.7c-1.15,6.88-2.38,14.78-3.58,23V415c-1.46,10.2-2.84,21.06-3.88,31.61a313.36,313.36,0,0,0-1.64,32.85H587.24s-1-17.16-.85-39.73c0-10.33.36-21.77,1.1-33.23,1.06-16.59,3-33.19,6.57-46.41C594.07,360,637.65,358,670.12,366.17Z" fill="#E7CEF2"/><path d="M645.34,361.57c-6.29,5.72-21.69,3.6-21.69,3.6s-9.63-2.63-7.61-5.63c5.67-.94,8.41-3.58,9.54-7a16.43,16.43,0,0,0,.58-6.47,34,34,0,0,0-.48-3.61l19-14.17C642.23,337.7,639.18,354.82,645.34,361.57Z" fill="#f9b499"/><path d="M640.33,337.35c-.76,11.5-10.15,14.58-14.78,15.22a16.43,16.43,0,0,0,.58-6.47Z" fill="#f4a48e"/><path d="M612.66,298.27s-5.43,17.16,2.83,25.39,13.41-24.49,13.41-24.49Z" fill="#2f2e41"/><path d="M642.88,338.73a19,19,0,0,1-2.5,3.15,16.15,16.15,0,0,1-19.3,3.29,18.06,18.06,0,0,1-8.83-9.86,14.23,14.23,0,0,1-.57-1.82,37.7,37.7,0,0,1-.88-4.6c-1.49-11.38,1-26.53,11.93-31.2a17.47,17.47,0,0,1,23,9.12l0,.05a17.27,17.27,0,0,1,1.39,8C646.6,325.77,646.7,332.82,642.88,338.73Z" fill="#f9b499"/><path d="M637.51,299.14l-.89,5.6a4.2,4.2,0,0,1,1.92,5.37c-2,4.66.46,12.12,4,15.17,0,0,.18-2,1.89-1.51s.87,11.22-2.68,16.21c0,0,5.27-4.44,8.54-15.57,3-10.28,3.66-18.92,1.64-23Z" fill="#2f2e41"/><path d="M654,325.56a12.14,12.14,0,0,1-6.9,6.24c-4,1.41-6.3-2.13-5.42-6.09.81-3.5,3.86-8.56,8-8.21S655.62,322,654,325.56Z" fill="#f9b499"/><path d="M654.57,303.46c2.69-10-8.62-17.56-19.71-19.2s-17.6,3.29-17.6,3.29-4.68-3.65-8.61-2.29c-4.45,1.55-6.94,13.52,6.46,18.89,10,4,21.34.57,21.34.57S652.45,311.5,654.57,303.46Z" fill="#2f2e41"/><path d="M665.49,391.87c-1.15,6.91-2.4,14.78-3.6,23.14-5.42-10-1.1-26.56-1.1-26.56Z" opacity="0.2" style="isolation:isolate"/><path d="M670.12,366.17s9.7,3.2,44.11,59.58l-19.84,12.18S669.56,403.86,663,402.21C663,402.21,654.88,374.1,670.12,366.17Z" fill="#E7CEF2"/><path d="M541.11,330.81s5.62-2.44,6.57-5,1.55-19.05-.28-20.51S532.46,304.84,531,308s.17,17.55.87,18.88Z" fill="#f9b499"/><path d="M661.91,414.89V415c-1.46,10.19-2.84,21.05-3.88,31.61-8.47-3.29-29.42-8.77-71.63-6.95,0-10.33.36-21.77,1.1-33.24A156.81,156.81,0,0,1,661.91,414.89Z" fill="#E7CEF2"/><path d="M661.91,414.89V415c-1.46,10.19-2.84,21.05-3.88,31.61-8.47-3.29-29.42-8.77-71.63-6.95,0-10.33.36-21.77,1.1-33.24A156.81,156.81,0,0,1,661.91,414.89Z" fill="#fff" opacity="0.4" style="isolation:isolate"/></g></g><path d="M588.06,41a6.88,6.88,0,0,1,7.39,6.33,6.25,6.25,0,0,1,0,1.06V219.12c0,4.53-2.86,9-7.39,9H464.72l-37.37,49.74-.26-49.74H407.38a9.69,9.69,0,0,1-9-9V48.34c0-4.53,4.5-7.39,9-7.39H587.24m.82-3.29H407.43c-6.34,0-12.32,4.34-12.32,10.68V219.12a13,13,0,0,0,12.32,12.31h16.42l.25,46.07V287l5.84-7.49,36.42-48.12h121.7c6.34,0,10.68-6,10.68-12.31V48.34a10.16,10.16,0,0,0-9.6-10.68Z" fill="#a7a9ac"/><path d="M595.45,48.34V219.12c0,4.53-2.86,9-7.39,9H464.72l-37.37,49.74-.26-49.74H407.38a9.69,9.69,0,0,1-9-9V48.34c0-4.53,4.5-7.39,9-7.39H588a6.86,6.86,0,0,1,7.44,7.39Z" fill="#fff"/><g clip-path="url(#f892daa9-98ab-4e57-8733-566b272f10cd)"><path d="M471.26,145s-33.14-3.29-39.1-12,13.65-67.57,13.65-67.57l-8.59-3.29s-27.26,60.76-21.7,76.25S468.65,167,468.65,167Z" fill="#f9b499"/><path d="M522.38,76.32s-7.66-12.53-26.85-6.73C474.41,76,468.84,118.75,487,157s51.9,31.2,52.95,12.63-4.33-39.05-3.59-60.11S528.72,76.86,522.38,76.32Z" fill="#2f2e41"/><path d="M472.7,229.17l56.61,2a201.22,201.22,0,0,1,3.92-41.69c1.07-5.47,2.46-11.58,4.29-18.65,1-3.78,2.05-7.84,3.28-12.22.9-3.28,1.89-6.83,3-10.56a166.94,166.94,0,0,0-23.68-4.47,180.15,180.15,0,0,0-25.44-1.39c-10.95.46-23.49,2.33-23.49,2.33s-1.78.51-2.32,12.2C468.37,167.7,468.45,189.58,472.7,229.17Z" fill="#407bff"/><path d="M472.7,229.17l56.61,2a201.22,201.22,0,0,1,3.92-41.69c1.07-5.47,2.46-11.58,4.29-18.65,1-3.78,2.05-7.84,3.28-12.22.9-3.28,1.89-6.83,3-10.56a166.94,166.94,0,0,0-23.68-4.47,180.15,180.15,0,0,0-25.44-1.39c-10.95.46-23.49,2.33-23.49,2.33s-1.78.51-2.32,12.2C468.37,167.7,468.45,189.58,472.7,229.17Z" fill="#E7CEF2"/><path d="M444.9,68s3.73-3.2,3.83-5.39-3.29-14.91-5-15.6-11.49,3.19-11.82,6,4.25,13.36,5.09,14.2Z" fill="#f9b499"/><g opacity="0.7"><path d="M542.9,151.25c-.59,2-1.13,4-1.64,5.86q-9.16.19-17.26.2a453.07,453.07,0,0,1-55-2.83,47.07,47.07,0,0,1,.66-5.79C483.61,150.38,507.34,152.14,542.9,151.25Z" fill="#fff"/></g><g opacity="0.7"><path d="M539.19,164.49c-.54,2-1.05,3.95-1.52,5.82q-7.2.15-13.73.14a455.89,455.89,0,0,1-55.29-2.86v-5.9C482.15,163.39,504.91,165.16,539.19,164.49Z" fill="#fff"/></g><g opacity="0.7"><path d="M535.83,177.69c-.5,2-.94,4-1.35,5.81-3.65,0-7.16.08-10.54.08A458.11,458.11,0,0,1,469,180.76c-.08-2.08-.14-4-.2-5.91C481.69,176.46,503.49,178.18,535.83,177.69Z" fill="#fff"/></g><g opacity="0.7"><path d="M532.71,190.86a33.89,33.89,0,0,0-1.3,5.81h-7.47a460.4,460.4,0,0,1-54.31-2.74c-.13-2.05-.24-4-.34-5.93A483.24,483.24,0,0,0,532.71,190.86Z" fill="#fff"/></g><g opacity="0.7"><path d="M530.83,203.52c-.24,3.28-.46,4.92-.64,6.57h-.13c-2.08,0-4.14-.1-6.12-.1a462.77,462.77,0,0,1-53.29-2.69c-.16-2.06-.33-4.31-.48-6.23,12.34,1.48,32.06,2.45,60.47,2.45Z" fill="#fff"/></g><g opacity="0.7"><path d="M529.77,216.66c-.1,1.64-.17,4.92-.22,6.56h0c-1.87,0-3.71-.09-5.5-.09a473,473,0,0,1-52.14-2.55c-.19-2-.37-4.32-.55-6.24,12.23,1.43,31.31,2.32,58.37,2.32Z" fill="#fff"/></g><path d="M543.77,148.08s23.91,38.74,29.89,64.75-67-1.64-67-1.64l2.32-9.64s38.32,10.18,42.82,6.89S536.5,175,536.5,175Z" fill="#f9b499"/><path d="M515.22,212.25s-4.21,2.53-6.31,1.94-13.14-7.81-13.22-9.69,6.57-9.85,9.38-9.36,11.33,8.21,11.87,9.33Z" fill="#f9b499"/><path d="M505.13,195.14c-3.28,0-12.52,7.2-10.27,8.44s13.53,10.35,15.55,9a18,18,0,0,0,4.08-5.29Z" fill="#f9b499"/><path d="M500,154.42c13.79-2.46,17.67-8.61,17.67-8.61-9.23-7.88-2.63-22.64-2.63-22.64l-16.57,4a51.42,51.42,0,0,1,1,7c.62,10.15-4,10.48-4,10.48C492.82,150.25,500,154.42,500,154.42Z" fill="#f9b499"/><path d="M498.42,127.13a51.42,51.42,0,0,1,1,7c11.28-.56,15.55-11,15.55-11Z" fill="#f4a48e"/><path d="M505.32,79.92c-14.59,0-19.3,7.7-20.43,22.72-1.43,18.76,2.67,32.11,20.92,28.18C530.57,125.5,529.52,80,505.32,79.92Z" fill="#f9b499"/><path d="M521.13,104.55s-6.75-12-5.68-21.25c0,0-28.82-11.92-30.38,17.37,0,0-2.71-26,22.35-26.5s24.78,36.13,11.79,47.05C519.21,121.22,525.32,112.05,521.13,104.55Z" fill="#2f2e41"/><path d="M516,129.23a.43.43,0,0,1-.42-.43.42.42,0,0,1,.18-.34,21.38,21.38,0,0,0,6-9.51c2.51-6.93-2-14.39-5.54-20.38a16,16,0,0,1-1.21-15.48.44.44,0,0,1,.59-.15.41.41,0,0,1,.16.56h0A15.23,15.23,0,0,0,517,98.14c3.68,6.15,8.21,13.78,5.6,21.11-2.54,7-6.19,9.85-6.34,9.85A.58.58,0,0,1,516,129.23Z" fill="#2f2e41"/><path d="M518.73,107.6a6.38,6.38,0,0,1,6.91-5.79c4.52.5,6.57,9.85-4.61,12C519.42,114.09,518.52,112.51,518.73,107.6Z" fill="#f9b499"/><path d="M482.15,91.71c4-4,10.49-4.6,16.42-4.11a14,14,0,0,1,3.54-5.2,23.43,23.43,0,0,0-1.9,5.38,58.63,58.63,0,0,1,11,2.47c.89-3.65,6.09-8.76,6.09-8.76C486.55,69,482.15,91.71,482.15,91.71Z" fill="#2f2e41"/><path d="M530.57,146.7S515,160.82,499.73,161.3,478.38,145,478.38,145,501.54,136.9,530.57,146.7Z" fill="#f9b499"/></g><path d="M455.61,392.92c-10.84,3.51-51.92,3.28-67.33,1.64a37.47,37.47,0,0,1-33.22-24.14c-.64-1.54-1.23-3.08-1.79-4.64a140,140,0,0,1-6.43-27.54l16.42,4.56s3,10.56,6.06,19c.59,1.64,1.18,3.14,1.75,4.5a20.59,20.59,0,0,0,7.13,9.85c3.28,2.34,8.21,3.81,15.57,4.63,14.86,1.65,30.52,4.5,41.77,4.93a82.1,82.1,0,0,0,18.26-1S466.46,389.39,455.61,392.92Z" fill="#f9b499"/><path d="M312.52,237.38c28.09-2.79,34.25,13.28,34.48,21s-9.11,34-5.55,42.48,9.38,22.12-1.15,35.44-44,19.26-57.95-1.65-.59-22.69,2.3-42.39S279,240.7,312.52,237.38Z" fill="#2f2e41"/><polyline points="414.46 628.35 414.18 612.78 413.96 598.5 427.3 597.69 426.36 628.35" fill="#f9b499"/><path d="M447,479.75c-2.92-16.58-22.74-18.57-22.74-18.57h-.12A624.14,624.14,0,0,0,347.49,446l-44.34,47.14s49.74-2.8,103.93-2.8c0,0,2.11,66.52,5.26,116.08l16,.29S449.89,496.32,447,479.75Z" fill="#2f2e41"/><path d="M447,479.75c-2.92-16.58-22.74-18.57-22.74-18.57h-.12A624.14,624.14,0,0,0,347.49,446l-44.34,47.14s49.74-2.8,103.93-2.8c0,0,2.11,66.52,5.26,116.08l16,.29S449.89,496.32,447,479.75Z" opacity="0.3" style="isolation:isolate"/><polyline points="354.24 628.3 356.31 612.86 358.23 598.71 371.55 599.91 368.08 628.3" fill="#f9b499"/><path d="M347.59,448.67s-1.23-17.06-1.81-20.54a80.91,80.91,0,0,0-2.11-10.22c-3.8-11.38-54.19-4.18-54.19-4.18s-30.28,51.34-9.33,72.64c4.65,4.73,13.74,6.85,23,6.78,0,0,11.62,0,64.48-2.39,0,0-7.89,66.09-12.21,115.57L371.22,609s37.57-105.95,37.16-122.78S408.46,462.25,347.59,448.67Z" fill="#2f2e41"/><polygon points="353.19 601.53 374.92 604 370.71 612.52 353.12 610.25 353.19 601.53" fill="#3f3d56"/><polygon points="409.38 602.04 431.24 601.22 428.37 610.27 410.65 610.68 409.38 602.04" fill="#3f3d56"/><polygon points="290.72 407.53 289.51 415.38 343.7 419.56 345.13 410.29 290.72 407.53" fill="#2e353a"/><polygon points="290.72 407.53 289.51 415.38 343.7 419.56 345.13 410.29 290.72 407.53" fill="#fff"/><rect x="300.34" y="412.34" width="13.71" height="2.69" transform="translate(-135.79 676.89) rotate(-84.12)" fill="#2f2e41"/><rect x="324.21" y="408.11" width="9.03" height="11.91" transform="translate(-104.28 717.41) rotate(-86.57)" fill="#fff"/><rect x="333.63" y="413.81" width="13.71" height="2.69" transform="translate(-107.37 711.31) rotate(-84.12)" fill="#2f2e41"/><path d="M345.13,410.29l-54.41-2.76c-.92-14.4-1.64-27.3-6-44.5-1.38-5.55-3.12-11.75-5.36-18.93-1.19-3.83-2.51-7.93-4-12.37-1.11-3.28-1.44-6.86-2.75-10.62a160.21,160.21,0,0,1,23.21-5.93,185.14,185.14,0,0,1,26.05-2.74c11.28-.08,24.24,1.18,24.24,1.18s1.85.45,3,12.4C350.17,337.3,347.49,369.37,345.13,410.29Z" fill="#E7CEF2"/><path d="M419,313.67c-.32,8.21-1.42,32-1.94,40.27s-3.48,7.93-12.53,7.93a10.28,10.28,0,0,1-3-.35c-5.39-1.36-3.29-6.91-3.06-10.34,0,0,1.25-18.38,1.55-30.1s-.61-13.25,7.34-13.25S419.3,305.48,419,313.67Z" fill="#2f2e41"/><path d="M419,313.67c-.32,8.21-1.42,32-1.94,40.27s-3.48,7.93-12.53,7.93a10.28,10.28,0,0,1-3-.35,45.11,45.11,0,0,1,.65-6.66c.91-7.21,2.11-35.42,2.32-41.19s.11-5.75,2.86-5.84C415.33,307.83,419.3,305.48,419,313.67Z" opacity="0.4" style="isolation:isolate"/><path d="M341.4,269.81s8.77-33.45-27.21-31.81-27.92,57.48-5.6,54.08S341.4,269.81,341.4,269.81Z" fill="#2f2e41"/><path d="M319.71,321.54c-11.15,1.36-19.2-7.56-19.2-7.56,10.53-7.24,5.22-23.43,5.22-23.43l16.92,5.94a51.65,51.65,0,0,0-1.81,7.23c-1.77,10.56,3,11.4,3,11.4C326,321.32,322.52,321.19,319.71,321.54Z" fill="#f9b499"/><path d="M322.65,296.49a51.65,51.65,0,0,0-1.81,7.23c-8.1-3.28-15.11-13.14-15.11-13.14Z" fill="#f4a48e"/><path d="M322.12,246.11c15.29,1.32,19.51,9.86,19.28,25.77-.3,19.82-5.86,33.43-24.63,27.59C291.3,291.52,296.73,243.93,322.12,246.11Z" fill="#f9b499"/><path d="M303.15,270.45s8.22-11.95,8-21.74c0,0,31.36-9.85,30.21,21.1,0,0,5.3-27.05-20.94-29.92s-29.42,35.6-16.83,48.23C303.63,288.12,298.1,277.92,303.15,270.45Z" fill="#2f2e41"/><path d="M305.42,273.88a6.75,6.75,0,0,0-6.7-6.75c-4.78.12-7.88,9.64,3.71,13C304.09,280.7,305.19,279.06,305.42,273.88Z" fill="#f9b499"/><path d="M309.05,268.18a.46.46,0,0,1-.43-.29.48.48,0,0,1,.27-.59c12.61-4.78,12.38-21.68,12.36-21.86a.46.46,0,0,1,.44-.46h0a.45.45,0,0,1,.45.45h0c0,.18.24,17.71-12.94,22.72Z" fill="#2f2e41"/><path d="M339.07,245.44c-12.93-10.85-20.53-7.44-20.53-7.44v.18c-5-1.49-13.35-1.8-21.74,7.26-13.35,14.4-2.1,24.88-2.1,24.88,17.65-4.93,24.63-16.06,27.22-23.09,4.39,7.24,12.63,15.67,23.13,19.23C345.13,266.46,352,256.28,339.07,245.44Z" fill="#2f2e41"/><path d="M304.4,310.14s-2.1,10.49,15.31,11.4c0,0-7.8,5.1-9,10.19,0,0-11.89-3-14.09-18.06C296.59,313.74,301.4,308.33,304.4,310.14Z" fill="#E7CEF2"/><path d="M304.4,310.14s-2.1,10.49,15.31,11.4c0,0-7.8,5.1-9,10.19,0,0-11.89-3-14.09-18.06C296.59,313.74,301.4,308.33,304.4,310.14Z" fill="#fff" opacity="0.2"/><path d="M320.56,309.58s1,9.86-.85,12a15.45,15.45,0,0,1,8.7,7.8s1-9.3-2.86-16.65C325.55,312.69,323.42,309,320.56,309.58Z" fill="#E7CEF2"/><path d="M320.56,309.58s1,9.86-.85,12a15.45,15.45,0,0,1,8.7,7.8s1-9.3-2.86-16.65C325.55,312.69,323.42,309,320.56,309.58Z" fill="#fff" opacity="0.2"/><path d="M377.84,362.69l13.25-5.63s1.64-4.93,3.73-6.1,16.27-3.51,17.7-2.15,1.76,12.5-.87,14.06-15.14,1.89-16.34,1.46L381.78,371Z" fill="#f9b499"/><path d="M346.1,313.67s12.57.76,16.73,18.06c0,0,1.95,7.89,2.74,12,0,0-10-1.3-17,4.68Z" fill="#E7CEF2"/><path d="M454.23,361.16h-23a3.28,3.28,0,0,0-3.28,3.29v2.38h-.63a11.9,11.9,0,0,0-4.3.78,12.21,12.21,0,0,0,4.3,23.62H428v1.13a3.28,3.28,0,0,0,3.28,3.29h23a3.28,3.28,0,0,0,3.28-3.29V364.45A3.28,3.28,0,0,0,454.23,361.16ZM428,387.34h-.63a8.25,8.25,0,0,1-4.3-1.2,8.41,8.41,0,0,1,4.3-15.64H428Z" fill="#2f2e41"/><path d="M451.13,395s6.15,1.51,8.86.39,4.39-8.6,4.09-11.08-1.23-5-6.57-5.31-7.11-1.13-8.34,3.65S446.91,393.66,451.13,395Z" fill="#f9b499"/><path d="M428,366.83v3.81h-.63a8.26,8.26,0,0,0-4.3,1.18v-4.17a11.91,11.91,0,0,1,4.3-.79Z" opacity="0.4" style="isolation:isolate"/><path d="M428,387.34v3.82h-.63a11.7,11.7,0,0,1-4.3-.79v-4.2a8.25,8.25,0,0,0,4.3,1.2A.81.81,0,0,0,428,387.34Z" opacity="0.4" style="isolation:isolate"/><path d="M356.38,344.46a19.36,19.36,0,0,0-7.82,3.94l-1.41-19.85A56.06,56.06,0,0,1,356.38,344.46Z" opacity="0.2" style="isolation:isolate"/><path d="M303.15,356.65c.27,6.91-7.65,15.23-15.35,21.65-.77-4.77-1.79-9.85-3.17-15.27s-3.12-11.75-5.35-18.93c-1.2-3.83-2.51-7.93-4-12.37v-.21l9.31-.48S302.71,343.26,303.15,356.65Z" opacity="0.2" style="isolation:isolate"/><path d="M391.09,357.06a81.66,81.66,0,0,1-17,6.79c-10.8,3.16-26.57,5.41-41.18,8.56s-20,.44-26.11-6.57S291.94,346,291.94,346l-17.1.9a135,135,0,0,0,18.07,27.92c10.8,12.38,24.09,15.76,39.16,12.38s54.19-16.14,63.31-23S391.09,357.06,391.09,357.06Z" fill="#f9b499"/><path d="M301.59,352.51c-10.32-2.56-22.41,2.54-25.81,4.14a72.39,72.39,0,0,1-5.89-12.58c-3.4-10.05-2.43-15.9-.76-19.18a8.19,8.19,0,0,1,3.4-3.75h0C280.17,320.24,291.4,338.34,301.59,352.51Z" fill="#E7CEF2"/><path d="M368.27,624.63h-14a1.13,1.13,0,0,0-1.09.88l-2.55,11.43a1.83,1.83,0,0,0,1.29,2.24,2,2,0,0,0,.54.07c5.07-.1,12.38-.39,18.75-.39,7.46,0,13.88.4,22.62.4,5.28,0,6.75-5.34,4.53-5.83-10.05-2.19-18.28-2.43-27-7.79A6,6,0,0,0,368.27,624.63Z" fill="#E7CEF2"/><path d="M427.13,625.21h-14a1.14,1.14,0,0,0-1.1.88l-2.54,11.43a1.81,1.81,0,0,0,1.29,2.24,1.9,1.9,0,0,0,.54.07c5.06-.09,12.38-.39,18.74-.39,7.46,0,13.88.41,22.62.41,5.29,0,6.75-5.34,4.54-5.84-10.06-2.19-18.29-2.43-27-7.79A6,6,0,0,0,427.13,625.21Z" fill="#E7CEF2"/></svg>